<svg width="122" height="123" viewBox="0 0 122 123" fill="none" xmlns="http://www.w3.org/2000/svg">
<path d="M113.878 50.3433C116.669 41.9675 115.708 32.7922 111.245 25.1738C104.534 13.4886 91.0419 7.47668 77.8653 10.3059C72.0033 3.70211 63.5816 -0.0532421 54.7523 0.000570503C41.2835 -0.0301796 29.333 8.64158 25.1892 21.4569C16.5367 23.2289 9.06823 28.645 4.69763 36.321C-2.06354 47.9755 -0.522192 62.6666 8.51088 72.6606C5.72031 81.0364 6.68125 90.2117 11.1439 97.83C17.8553 109.515 31.3471 115.527 44.5238 112.698C50.3819 119.302 58.8074 123.057 67.6368 122.999C81.1133 123.034 93.0676 114.355 97.2114 101.528C105.864 99.7558 113.332 94.3397 117.703 86.6637C124.457 75.0091 122.911 60.3296 113.882 50.3356L113.878 50.3433ZM67.6445 114.962C62.2517 114.97 57.0278 113.083 52.888 109.627C53.0764 109.527 53.4031 109.346 53.6145 109.216L78.1074 95.0704C79.3605 94.3594 80.1293 93.0256 80.1216 91.5842V57.0545L90.4731 63.0318C90.5845 63.0856 90.6576 63.1932 90.6729 63.3162V91.9106C90.6576 104.626 80.3599 114.935 67.6445 114.962ZM18.1203 93.8095C15.4181 89.1431 14.4456 83.6732 15.372 78.365C15.5527 78.4726 15.8717 78.6686 16.0985 78.7993L40.5914 92.9446C41.8329 93.6711 43.3704 93.6711 44.6158 92.9446L74.5171 75.678V87.6323C74.5248 87.7553 74.4672 87.8745 74.3711 87.9513L49.6129 102.247C38.5849 108.597 24.5012 104.822 18.1241 93.8092L18.1203 93.8095ZM11.6743 40.3454C14.3649 35.6714 18.6125 32.0964 23.6709 30.2399C23.6709 30.4513 23.6594 30.8242 23.6594 31.0855V59.3802C23.6517 60.8177 24.4204 62.1515 25.6697 62.8626L55.571 80.1254L45.2195 86.1025C45.1157 86.1717 44.985 86.1832 44.8697 86.1332L20.1077 71.8265C9.10282 65.4533 5.32825 51.3734 11.6705 40.3492L11.6743 40.3454ZM96.723 60.1374L66.8217 42.8707L77.1732 36.8975C77.2769 36.8284 77.4076 36.8168 77.5229 36.8668L102.285 51.162C113.309 57.5311 117.087 71.6343 110.718 82.6585C108.024 87.3248 103.78 90.8997 98.7256 92.7601V63.6199C98.7371 62.1823 97.9722 60.8523 96.7269 60.1374H96.723ZM107.025 44.6312C106.844 44.5197 106.525 44.3275 106.298 44.1968L81.8051 30.0516C80.5636 29.3251 79.0261 29.3251 77.7807 30.0516L47.8794 47.318V35.3636C47.8717 35.2406 47.9294 35.1215 48.0254 35.0446L72.7836 20.761C83.8116 14.3993 97.9107 18.1856 104.269 29.2175C106.955 33.8764 107.928 39.3306 107.017 44.6312H107.025ZM42.2521 65.9376L31.8968 59.9606C31.7853 59.9068 31.7123 59.7991 31.6969 59.6761V31.0817C31.7046 18.3509 42.033 8.03403 54.7638 8.04172C60.1489 8.04172 65.3613 9.93285 69.501 13.3769C69.3127 13.4768 68.9898 13.6574 68.7746 13.7881L44.2816 27.9337C43.0286 28.6448 42.2598 29.9747 42.2675 31.4161L42.2521 65.9376ZM47.8755 53.8142L61.1944 46.1226L74.5133 53.8103V69.1895L61.1944 76.8772L47.8755 69.1895V53.8142Z" fill="black"/>
</svg>
