<svg width="27" height="28" viewBox="0 0 27 28" fill="none" xmlns="http://www.w3.org/2000/svg">
<path fill-rule="evenodd" clip-rule="evenodd" d="M13.555 8.07762C13.2122 8.07765 12.8771 8.17934 12.592 8.36983C12.307 8.56031 12.0848 8.83104 11.9537 9.14778C11.8225 9.46452 11.7882 9.81304 11.8551 10.1493C11.922 10.4855 12.0871 10.7944 12.3295 11.0368C12.5719 11.2792 12.8808 11.4442 13.217 11.5111C13.5533 11.578 13.9018 11.5436 14.2185 11.4124C14.5352 11.2812 14.806 11.0591 14.9964 10.774C15.1869 10.489 15.2885 10.1538 15.2885 9.81101C15.288 9.35143 15.1052 8.91082 14.7802 8.58586C14.4552 8.2609 14.0146 8.07812 13.555 8.07762ZM10.3703 13.8949C9.84574 14.4031 9.65452 15.3861 9.80113 16.8182C10.6933 17.4989 11.953 17.8254 13.5469 17.7894C13.5523 17.7887 13.5577 17.7887 13.5631 17.7894C15.1575 17.8257 16.4167 17.4985 17.3089 16.8182C17.4558 15.3861 17.264 14.4033 16.7397 13.8949C16.1468 13.413 15.4948 13.1886 14.7529 13.2116C14.4731 13.5296 14.0389 13.7154 13.555 13.7154C13.0711 13.7154 12.637 13.5297 12.3571 13.2116C11.6151 13.1884 10.9636 13.413 10.3703 13.8949ZM5.19348 13.795C5.19286 13.3171 5.03558 12.8527 4.74573 12.4728C4.45587 12.0929 4.04945 11.8185 3.58873 11.6917C3.92128 10.1456 4.61928 8.70161 5.62432 7.48058C6.62937 6.25956 7.91223 5.29699 9.36556 4.67343C9.40872 4.65545 9.44787 4.62908 9.48075 4.59585C9.51364 4.56262 9.53959 4.52319 9.55712 4.47985C9.57465 4.43651 9.5834 4.39012 9.58286 4.34337C9.58232 4.29662 9.5725 4.25045 9.55398 4.20753C9.53546 4.1646 9.50859 4.12578 9.47495 4.09332C9.44131 4.06086 9.40156 4.0354 9.358 4.01842C9.31445 4.00144 9.26795 3.99327 9.22122 3.9944C9.17448 3.99553 9.12843 4.00592 9.08574 4.02499C7.51926 4.70121 6.13814 5.74386 5.05866 7.06517C3.97918 8.38649 3.23292 9.9478 2.88269 11.6177C2.45756 11.643 2.04913 11.7922 1.7078 12.0469C1.36647 12.3016 1.10717 12.6506 0.961889 13.051C0.816609 13.4513 0.791705 13.8854 0.890251 14.2997C0.988797 14.7141 1.20648 15.0905 1.51645 15.3826C1.82641 15.6746 2.2151 15.8695 2.63455 15.9433C3.054 16.017 3.48586 15.9664 3.87686 15.7976C4.26786 15.6288 4.60089 15.3492 4.83485 14.9933C5.06882 14.6374 5.19349 14.2209 5.19348 13.795ZM13.2948 5.69377C12.8688 5.69385 12.4521 5.56922 12.0961 5.33526C11.7402 5.10129 11.4605 4.76823 11.2916 4.37716C11.1227 3.9861 11.072 3.55415 11.1458 3.13461C11.2195 2.71507 11.4145 2.32631 11.7066 2.01628C11.9988 1.70626 12.3753 1.48854 12.7897 1.39C13.2041 1.29146 13.6383 1.3164 14.0387 1.46175C14.4391 1.6071 14.7882 1.8665 15.0429 2.20794C15.2976 2.54938 15.4467 2.95791 15.472 3.38314C17.1419 3.73326 18.7033 4.47945 20.0247 5.55889C21.3461 6.63834 22.3888 8.01943 23.0651 9.58593C23.1022 9.67202 23.1036 9.7693 23.0689 9.85639C23.0342 9.94347 22.9664 10.0132 22.8803 10.0503C22.7942 10.0874 22.6969 10.0887 22.6099 10.0541C22.5228 10.0194 22.453 9.95157 22.416 9.86549C21.7923 8.41234 20.8298 7.12962 19.6089 6.1246C18.3881 5.11957 16.9443 4.42145 15.3984 4.0886C15.2716 4.5494 14.9972 4.9559 14.6172 5.24582C14.2372 5.53575 13.7727 5.6931 13.2948 5.69377ZM23.5776 11.6138C24.1458 11.6124 24.6921 11.8328 25.1003 12.2281C25.5085 12.6234 25.7463 13.1624 25.7631 13.7304C25.7799 14.2983 25.5745 14.8504 25.1904 15.2692C24.8064 15.688 24.2741 15.9404 23.7068 15.9727C23.357 17.6413 22.6117 19.2015 21.5335 20.5222C20.4554 21.8429 19.0759 22.8854 17.5111 23.5622C17.4685 23.5806 17.4227 23.5904 17.3764 23.591C17.33 23.5917 17.2839 23.5833 17.2408 23.5661C17.1977 23.549 17.1584 23.5235 17.1251 23.4912C17.0918 23.4589 17.0653 23.4203 17.0469 23.3778C17.0285 23.3352 17.0187 23.2894 17.018 23.243C17.0174 23.1966 17.0258 23.1505 17.0429 23.1074C17.0601 23.0643 17.0855 23.025 17.1178 22.9917C17.1502 22.9585 17.1887 22.9319 17.2313 22.9135C18.683 22.2894 19.9643 21.3269 20.968 20.1065C21.9718 18.8861 22.6689 17.4432 23.0011 15.8983C22.4921 15.7585 22.051 15.4388 21.7598 14.9985C21.4685 14.5583 21.3467 14.0273 21.4171 13.5041C21.4875 12.981 21.7453 12.5011 22.1426 12.1534C22.5398 11.8058 23.0497 11.6141 23.5776 11.6138ZM15.459 23.8067C15.4637 23.821 15.4674 23.8357 15.4701 23.8506C15.4769 23.8872 15.4779 23.9247 15.4731 23.9616C15.4751 23.9999 15.4761 24.0388 15.4761 24.0777C15.4758 24.6448 15.2547 25.1895 14.8595 25.5963C14.4644 26.0031 13.9264 26.24 13.3595 26.2568C12.7927 26.2736 12.2415 26.069 11.823 25.6863C11.4045 25.3036 11.1515 24.7729 11.1176 24.2068C9.44765 23.8568 7.88625 23.1106 6.56486 22.0312C5.24346 20.9517 4.20076 19.5706 3.52454 18.0041C3.48747 17.918 3.48608 17.8208 3.52069 17.7338C3.5553 17.6467 3.62307 17.577 3.70908 17.54C3.7951 17.5029 3.89232 17.5015 3.97936 17.5361C4.06639 17.5707 4.13612 17.6385 4.17319 17.7245C4.79673 19.1778 5.75929 20.4606 6.98033 21.4656C8.20136 22.4706 9.64535 23.1685 11.1914 23.5009C11.3248 23.0141 11.6229 22.5887 12.0349 22.2971C12.4469 22.0055 12.9473 21.8658 13.4507 21.9019C13.9541 21.938 14.4295 22.1475 14.7957 22.4949C15.1619 22.8422 15.3963 23.3059 15.4589 23.8067H15.459Z" fill="#007DFE"/>
</svg>
