<svg width="27" height="27" viewBox="0 0 27 27" fill="none" xmlns="http://www.w3.org/2000/svg">
<path d="M26.1485 2.38372V26.1485H7.3655V24.9852H24.9852V2.38372H26.1485ZM9.57003 0.830908L5.81269 4.58825H9.57003V0.830908ZM2.59675 8.95389V20.715H3.97305L3.97299 8.95389H2.59675ZM24.2062 24.2062H5.42319V5.36731H9.95959C10.1747 5.36731 10.3491 5.19291 10.3491 4.97781V0.441406H24.2062V24.2062ZM7.10392 13.1747H8.45289C8.668 13.1747 8.84239 13.0004 8.84239 12.7852C8.84239 12.5701 8.668 12.3957 8.45289 12.3957H7.10392C6.88881 12.3957 6.71441 12.5701 6.71441 12.7852C6.71441 13.0004 6.88881 13.1747 7.10392 13.1747ZM9.64144 15.7729C9.53472 15.5872 9.29764 15.5232 9.11198 15.6299L7.94373 16.3044C7.75807 16.4111 7.69398 16.6482 7.80071 16.8338C7.90743 17.0195 8.14451 17.0836 8.33017 16.9769L9.49842 16.3024C9.68413 16.1957 9.74817 15.9586 9.64144 15.7729ZM9.49992 9.26809L8.33168 8.59358C8.14596 8.48602 7.90821 8.54938 7.80066 8.7351C7.6931 8.92076 7.75646 9.15856 7.94217 9.26612L9.11042 9.94063C9.29614 10.0482 9.53384 9.98483 9.64144 9.79911C9.749 9.6134 9.68564 9.37565 9.49992 9.26809ZM17.8023 7.61198C17.9881 7.71871 18.2251 7.65467 18.3318 7.46896L19.0063 6.30071C19.113 6.11505 19.049 5.87797 18.8632 5.77125C18.6775 5.66452 18.4404 5.72856 18.3338 5.91427L17.6593 7.08252C17.5526 7.26823 17.6166 7.50531 17.8023 7.61198ZM14.4251 6.42343C14.4251 6.63854 14.5995 6.81293 14.8147 6.81293C15.0298 6.81293 15.2042 6.63854 15.2042 6.42343V5.07445C15.2042 4.85934 15.0298 4.68495 14.8147 4.68495C14.5995 4.68495 14.4251 4.85934 14.4251 5.07445V6.42343ZM10.623 6.30227L11.2975 7.47051C11.4051 7.65623 11.6428 7.71959 11.8285 7.61203C12.0142 7.50448 12.0776 7.26673 11.97 7.08106L11.2955 5.91277C11.188 5.7271 10.9502 5.66369 10.7645 5.77125C10.5788 5.8788 10.5154 6.11655 10.623 6.30227ZM16.5857 20.6022H13.0171C13.3015 21.29 13.9932 21.7756 14.8014 21.7756C15.6097 21.7756 16.3013 21.29 16.5857 20.6022ZM17.5729 19.4816C17.5729 19.2944 17.4184 19.1399 17.2313 19.1399H12.3701C12.183 19.1399 12.0285 19.2943 12.0285 19.4815C12.0285 19.6687 12.183 19.8232 12.3701 19.8232H17.2313C17.4184 19.8231 17.5729 19.6687 17.5729 19.4816ZM17.5729 18.0193C17.5729 17.8321 17.4184 17.6776 17.2313 17.6776H12.3702C12.183 17.6776 12.0285 17.8321 12.0285 18.0193C12.0285 18.2064 12.183 18.3609 12.3702 18.3609H17.2313C17.4184 18.3609 17.5729 18.2064 17.5729 18.0193ZM19.3027 12.5771C19.3027 10.232 17.2989 8.32773 14.8147 8.29719C12.3306 8.32773 10.3268 10.232 10.3268 12.5771C10.3268 13.9136 10.8842 15.2233 11.9038 16.4126C12.0185 16.5464 12.1239 16.7188 12.2144 16.9094C12.2653 16.9023 12.3174 16.8986 12.3702 16.8986H14.1693L13.0424 12.1169L14.8147 13.8939L16.5871 12.1169L15.4358 16.8986H17.2313C17.2932 16.8986 17.3539 16.9036 17.4132 16.9134C17.5042 16.7212 17.6102 16.5474 17.7257 16.4126C18.7452 15.2233 19.3027 13.9136 19.3027 12.5771ZM19.9879 9.79911C20.0955 9.98483 20.3332 10.0482 20.5189 9.94063L21.6872 9.26617C21.8729 9.15862 21.9362 8.92086 21.8287 8.73515C21.7211 8.54943 21.4834 8.48608 21.2977 8.59363L20.1294 9.26809C19.9437 9.37565 19.8804 9.6134 19.9879 9.79911ZM21.6856 16.3044L20.5174 15.6299C20.3317 15.5232 20.0946 15.5872 19.9879 15.7729C19.8812 15.9586 19.9452 16.1957 20.1309 16.3024L21.2992 16.9769C21.4849 17.0836 21.7219 17.0195 21.8286 16.8338C21.9354 16.6481 21.8713 16.4111 21.6856 16.3044ZM22.9149 12.7852C22.9149 12.5701 22.7405 12.3957 22.5254 12.3957H21.1765C20.9614 12.3957 20.787 12.5701 20.787 12.7852C20.787 13.0004 20.9614 13.1747 21.1765 13.1747H22.5254C22.7405 13.1747 22.9149 13.0004 22.9149 12.7852ZM3.97299 7.65327C3.97299 6.68211 3.17841 5.88747 2.2072 5.88747C1.23599 5.88747 0.441354 6.68211 0.441406 7.65327V8.17484H3.97299V7.65327ZM1.81775 8.95389H0.441406V20.715H1.8177L1.81775 8.95389ZM2.2072 23.8185L3.71961 21.494H0.694842L2.2072 23.8185Z" fill="#007DFE"/>
</svg>
