<svg width="27" height="27" viewBox="0 0 27 27" fill="none" xmlns="http://www.w3.org/2000/svg">
<path d="M18.8924 10.8537L12.6865 17.0596L13.6135 17.9865L19.8194 11.7806L18.8924 10.8537Z" fill="#007DFE"/>
<path d="M7.11316 1.77269H11.5005C11.6217 1.77254 11.7417 1.74762 11.8529 1.69946C11.9642 1.65129 12.0645 1.5809 12.1475 1.4926L12.7157 0.886353H5.89844L6.46658 1.4926C6.54948 1.58102 6.64963 1.65149 6.76084 1.69966C6.87205 1.74783 6.99196 1.77269 7.11316 1.77269Z" fill="#007DFE"/>
<path d="M12.8514 6.64746H5.76074V19.0561H11.1528L11.2684 17.7652C11.304 17.3816 11.472 17.0223 11.7435 16.749L12.8514 15.6411V6.64746ZM11.556 13.6185L8.9347 15.3606C8.79977 15.4504 8.64298 15.502 8.48104 15.5098C8.3191 15.5176 8.15808 15.4814 8.01513 15.4049C7.86865 15.3256 7.74646 15.2081 7.66162 15.0647C7.57677 14.9214 7.53245 14.7578 7.53341 14.5912V11.1124C7.53282 10.9461 7.57735 10.7827 7.66226 10.6398C7.74717 10.4968 7.86928 10.3795 8.01557 10.3005C8.15841 10.2239 8.31938 10.1876 8.48128 10.1954C8.64317 10.2032 8.79989 10.2548 8.9347 10.3448L11.5565 12.0873C11.6823 12.1717 11.7855 12.2858 11.8568 12.4195C11.9281 12.5533 11.9654 12.7025 11.9654 12.854C11.9654 13.0056 11.9281 13.1548 11.8568 13.2885C11.7855 13.4222 11.6823 13.5363 11.5565 13.6207L11.556 13.6185Z" fill="#007DFE"/>
<path d="M12.3246 20.2625L14.3845 20.0733C14.4017 20.0733 14.4168 20.0627 14.4341 20.0596L12.1664 17.7919C12.1629 17.8105 12.1531 17.8273 12.1513 17.8464L11.9657 19.904C11.9605 19.9526 11.9664 20.0017 11.9828 20.0477C11.9992 20.0938 12.0258 20.1355 12.0605 20.1699C12.0953 20.2034 12.1369 20.229 12.1825 20.245C12.228 20.261 12.2765 20.267 12.3246 20.2625Z" fill="#007DFE"/>
<path d="M8.43262 14.5913L11.0668 12.8803C11.071 12.8769 11.0744 12.8726 11.0766 12.8676C11.0789 12.8627 11.0799 12.8573 11.0797 12.8519L8.43262 11.0792V14.5913Z" fill="#007DFE"/>
<path d="M3.10215 24.3742C2.79005 24.3724 2.48409 24.2873 2.21582 24.1278V24.8174C2.21582 25.0524 2.3092 25.2779 2.47542 25.4441C2.64164 25.6103 2.86708 25.7037 3.10215 25.7037H15.5108C15.7459 25.7037 15.9713 25.6103 16.1376 25.4441C16.3038 25.2779 16.3972 25.0524 16.3972 24.8174V24.1278C16.1289 24.2873 15.8229 24.3724 15.5108 24.3742H3.10215Z" fill="#007DFE"/>
<path d="M15.5108 21.272C15.5108 21.3896 15.4641 21.5023 15.381 21.5854C15.2979 21.6685 15.1852 21.7152 15.0677 21.7152C14.9501 21.7152 14.8374 21.6685 14.7543 21.5854C14.6712 21.5023 14.6245 21.3896 14.6245 21.272V20.9268C14.5724 20.9391 14.5198 20.9487 14.4667 20.9556L13.7382 21.0225V21.7152C13.7382 21.8327 13.6915 21.9454 13.6084 22.0286C13.5252 22.1117 13.4125 22.1584 13.295 22.1584C13.1775 22.1584 13.0647 22.1117 12.9816 22.0286C12.8985 21.9454 12.8518 21.8327 12.8518 21.7152V21.1041L12.4051 21.1453C12.3679 21.1484 12.3307 21.1501 12.2939 21.1501C12.1351 21.1508 11.9778 21.12 11.831 21.0595C11.6843 20.9991 11.5509 20.9101 11.4387 20.7979C11.3264 20.6856 11.2376 20.5522 11.1771 20.4054C11.1167 20.2586 11.086 20.1013 11.0867 19.9425H5.76115V21.7152C5.76115 21.8327 5.71446 21.9454 5.63135 22.0286C5.54824 22.1117 5.43552 22.1584 5.31799 22.1584C5.20045 22.1584 5.08773 22.1117 5.00462 22.0286C4.92151 21.9454 4.87482 21.8327 4.87482 21.7152V3.98852C4.87482 3.87098 4.92151 3.75826 5.00462 3.67515C5.08773 3.59204 5.20045 3.54535 5.31799 3.54535C5.43552 3.54535 5.54824 3.59204 5.63135 3.67515C5.71446 3.75826 5.76115 3.87098 5.76115 3.98852V5.76119H12.8518V3.98852C12.8518 3.87098 12.8985 3.75826 12.9816 3.67515C13.0647 3.59204 13.1775 3.54535 13.295 3.54535C13.4125 3.54535 13.5252 3.59204 13.6084 3.67515C13.6915 3.75826 13.7382 3.87098 13.7382 3.98852V14.7544L16.3972 12.0954V1.77269C16.3972 1.53762 16.3038 1.31217 16.1376 1.14595C15.9713 0.979734 15.7459 0.886353 15.5108 0.886353H13.93L12.7938 2.09841C12.6277 2.2751 12.4273 2.41597 12.2049 2.51238C11.9824 2.60878 11.7426 2.65869 11.5002 2.65902H7.11281C6.87036 2.65869 6.63054 2.60878 6.40809 2.51238C6.18563 2.41597 5.98523 2.2751 5.81921 2.09841L4.68293 0.886353H3.10215C2.86708 0.886353 2.64164 0.979734 2.47542 1.14595C2.3092 1.31217 2.21582 1.53762 2.21582 1.77269V22.6015C2.21582 22.8366 2.3092 23.062 2.47542 23.2283C2.64164 23.3945 2.86708 23.4879 3.10215 23.4879H15.5108C15.7459 23.4879 15.9713 23.3945 16.1376 23.2283C16.3038 23.062 16.3972 22.8366 16.3972 22.6015V19.5596L15.5108 20.446V21.272ZM14.6245 4.43169C14.6245 4.31415 14.6712 4.20143 14.7543 4.11832C14.8374 4.03521 14.9501 3.98852 15.0677 3.98852C15.1852 3.98852 15.2979 4.03521 15.381 4.11832C15.4641 4.20143 15.5108 4.31415 15.5108 4.43169V5.31802C15.5108 5.43555 15.4641 5.54827 15.381 5.63138C15.2979 5.71449 15.1852 5.76119 15.0677 5.76119C14.9501 5.76119 14.8374 5.71449 14.7543 5.63138C14.6712 5.54827 14.6245 5.43555 14.6245 5.31802V4.43169ZM14.6245 7.09069C14.6245 6.97315 14.6712 6.86043 14.7543 6.77732C14.8374 6.69421 14.9501 6.64752 15.0677 6.64752C15.1852 6.64752 15.2979 6.69421 15.381 6.77732C15.4641 6.86043 15.5108 6.97315 15.5108 7.09069V7.97702C15.5108 8.09455 15.4641 8.20728 15.381 8.29039C15.2979 8.3735 15.1852 8.42019 15.0677 8.42019C14.9501 8.42019 14.8374 8.3735 14.7543 8.29039C14.6712 8.20728 14.6245 8.09455 14.6245 7.97702V7.09069ZM14.6245 9.74969C14.6245 9.63215 14.6712 9.51943 14.7543 9.43632C14.8374 9.35321 14.9501 9.30652 15.0677 9.30652C15.1852 9.30652 15.2979 9.35321 15.381 9.43632C15.4641 9.51943 15.5108 9.63215 15.5108 9.74969V10.636C15.5108 10.7536 15.4641 10.8663 15.381 10.9494C15.2979 11.0325 15.1852 11.0792 15.0677 11.0792C14.9501 11.0792 14.8374 11.0325 14.7543 10.9494C14.6712 10.8663 14.6245 10.7536 14.6245 10.636V9.74969ZM3.98849 21.272C3.98849 21.3896 3.9418 21.5023 3.85869 21.5854C3.77558 21.6685 3.66286 21.7152 3.54532 21.7152C3.42779 21.7152 3.31506 21.6685 3.23195 21.5854C3.14884 21.5023 3.10215 21.3896 3.10215 21.272V20.3857C3.10215 20.2682 3.14884 20.1554 3.23195 20.0723C3.31506 19.9892 3.42779 19.9425 3.54532 19.9425C3.66286 19.9425 3.77558 19.9892 3.85869 20.0723C3.9418 20.1554 3.98849 20.2682 3.98849 20.3857V21.272ZM3.98849 18.613C3.98849 18.7306 3.9418 18.8433 3.85869 18.9264C3.77558 19.0095 3.66286 19.0562 3.54532 19.0562C3.42779 19.0562 3.31506 19.0095 3.23195 18.9264C3.14884 18.8433 3.10215 18.7306 3.10215 18.613V17.7267C3.10215 17.6091 3.14884 17.4964 3.23195 17.4133C3.31506 17.3302 3.42779 17.2835 3.54532 17.2835C3.66286 17.2835 3.77558 17.3302 3.85869 17.4133C3.9418 17.4964 3.98849 17.6091 3.98849 17.7267V18.613ZM3.98849 15.954C3.98849 16.0716 3.9418 16.1843 3.85869 16.2674C3.77558 16.3505 3.66286 16.3972 3.54532 16.3972C3.42779 16.3972 3.31506 16.3505 3.23195 16.2674C3.14884 16.1843 3.10215 16.0716 3.10215 15.954V15.0677C3.10215 14.9502 3.14884 14.8374 3.23195 14.7543C3.31506 14.6712 3.42779 14.6245 3.54532 14.6245C3.66286 14.6245 3.77558 14.6712 3.85869 14.7543C3.9418 14.8374 3.98849 14.9502 3.98849 15.0677V15.954ZM3.98849 13.295C3.98849 13.4126 3.9418 13.5253 3.85869 13.6084C3.77558 13.6915 3.66286 13.7382 3.54532 13.7382C3.42779 13.7382 3.31506 13.6915 3.23195 13.6084C3.14884 13.5253 3.10215 13.4126 3.10215 13.295V12.4087C3.10215 12.2912 3.14884 12.1784 3.23195 12.0953C3.31506 12.0122 3.42779 11.9655 3.54532 11.9655C3.66286 11.9655 3.77558 12.0122 3.85869 12.0953C3.9418 12.1784 3.98849 12.2912 3.98849 12.4087V13.295ZM3.98849 10.636C3.98849 10.7536 3.9418 10.8663 3.85869 10.9494C3.77558 11.0325 3.66286 11.0792 3.54532 11.0792C3.42779 11.0792 3.31506 11.0325 3.23195 10.9494C3.14884 10.8663 3.10215 10.7536 3.10215 10.636V9.74969C3.10215 9.63215 3.14884 9.51943 3.23195 9.43632C3.31506 9.35321 3.42779 9.30652 3.54532 9.30652C3.66286 9.30652 3.77558 9.35321 3.85869 9.43632C3.9418 9.51943 3.98849 9.63215 3.98849 9.74969V10.636ZM3.98849 7.97702C3.98849 8.09455 3.9418 8.20728 3.85869 8.29039C3.77558 8.3735 3.66286 8.42019 3.54532 8.42019C3.42779 8.42019 3.31506 8.3735 3.23195 8.29039C3.14884 8.20728 3.10215 8.09455 3.10215 7.97702V7.09069C3.10215 6.97315 3.14884 6.86043 3.23195 6.77732C3.31506 6.69421 3.42779 6.64752 3.54532 6.64752C3.66286 6.64752 3.77558 6.69421 3.85869 6.77732C3.9418 6.86043 3.98849 6.97315 3.98849 7.09069V7.97702ZM3.98849 5.31802C3.98849 5.43555 3.9418 5.54827 3.85869 5.63138C3.77558 5.71449 3.66286 5.76119 3.54532 5.76119C3.42779 5.76119 3.31506 5.71449 3.23195 5.63138C3.14884 5.54827 3.10215 5.43555 3.10215 5.31802V4.43169C3.10215 4.31415 3.14884 4.20143 3.23195 4.11832C3.31506 4.03521 3.42779 3.98852 3.54532 3.98852C3.66286 3.98852 3.77558 4.03521 3.85869 4.11832C3.9418 4.20143 3.98849 4.31415 3.98849 4.43169V5.31802Z" fill="#007DFE"/>
<path d="M20.4461 9.30015L19.5195 10.2268L21.9999 12.707L22.9265 11.7804L20.4461 9.30015Z" fill="#007DFE"/>
<path d="M20.4468 12.4063L14.2412 18.6125L15.1669 19.5382L21.3725 13.332L20.4468 12.4063Z" fill="#007DFE"/>
<path d="M23.8616 8.36749C23.5311 8.04011 23.0847 7.85645 22.6196 7.85645C22.1544 7.85645 21.7081 8.04011 21.3776 8.36749L21.0723 8.67239L23.554 11.1541L23.8642 10.8439C24.1912 10.5146 24.3745 10.0692 24.374 9.60515C24.3735 9.14108 24.1893 8.69609 23.8616 8.36749Z" fill="#007DFE"/>
</svg>
