<svg width="27" height="27" viewBox="0 0 27 27" fill="none" xmlns="http://www.w3.org/2000/svg">
<g clip-path="url(#clip0_203_2625)">
<path d="M4.20777 12.0295L4.26931 12.2523C3.82481 12.6831 3.21958 12.9491 2.55311 12.9491C1.8866 12.9491 1.28141 12.6831 0.836914 12.2523L0.899598 12.0251C0.997129 11.6407 1.38746 11.311 1.78896 11.2577L2.3715 12.1267C2.41206 12.1873 2.4802 12.2236 2.55311 12.2236C2.62597 12.2236 2.69416 12.1873 2.73472 12.1267L3.31763 11.2573C3.71648 11.3091 4.10883 11.6399 4.20777 12.0295ZM2.55311 8.53975C2.09391 8.53975 1.86115 8.78571 1.86115 9.27087C1.86115 9.88738 2.22977 10.5901 2.55311 10.5901C2.87645 10.5901 3.24508 9.88738 3.24508 9.27087C3.24508 8.78571 3.01231 8.53975 2.55311 8.53975ZM10.4788 8.24326L9.89585 9.11263C9.85524 9.17319 9.7871 9.20949 9.71424 9.20949C9.64132 9.20949 9.57318 9.17319 9.53257 9.11263L8.95008 8.24378C8.54859 8.29691 8.15825 8.62669 8.06067 9.011L7.99804 9.2381C8.44254 9.669 9.04772 9.93505 9.71424 9.93505C10.3807 9.93505 10.9859 9.669 11.4304 9.2381L11.3688 9.01546C11.27 8.62586 10.8776 8.29499 10.4788 8.24326ZM9.71429 7.57602C10.0376 7.57602 10.4063 6.87331 10.4063 6.25691C10.4063 5.77164 10.1734 5.52568 9.71429 5.52568C9.25509 5.52568 9.02232 5.77164 9.02232 6.25691C9.02232 6.87331 9.3909 7.57602 9.71429 7.57602ZM18.592 10.415L18.5304 10.1923C18.4315 9.80267 18.0391 9.4718 17.6402 9.42008L17.0574 10.2894C17.0168 10.35 16.9486 10.3863 16.8757 10.3863C16.8028 10.3863 16.7347 10.35 16.6941 10.2894L16.1116 9.4206C15.9208 9.44584 15.7329 9.53413 15.5773 9.66048C15.469 9.92991 15.3412 10.1931 15.1945 10.4483C15.6355 10.8596 16.2266 11.1119 16.8757 11.1119C17.5423 11.1119 18.1475 10.8459 18.592 10.415ZM16.8758 8.75284C17.1992 8.75284 17.5677 8.05012 17.5677 7.43372C17.5677 6.94846 17.335 6.7025 16.8758 6.7025C16.4166 6.7025 16.1838 6.94846 16.1838 7.43372C16.1838 8.05012 16.5525 8.75284 16.8758 8.75284ZM24.8014 2.71758L24.2186 3.58695C24.178 3.6474 24.1098 3.68381 24.0369 3.68381C23.964 3.68381 23.8959 3.6474 23.8553 3.58695L23.2727 2.718C22.8713 2.77123 22.481 3.1009 22.3834 3.48532L22.3208 3.71253C22.7653 4.14331 23.3704 4.40937 24.0369 4.40937C24.7034 4.40937 25.3086 4.14331 25.7531 3.71253L25.6916 3.48968C25.5927 3.10018 25.2003 2.76931 24.8014 2.71758ZM24.0369 0C23.5778 0 23.345 0.245958 23.345 0.731225C23.345 1.34762 23.7136 2.05034 24.0369 2.05034C24.3603 2.05034 24.7289 1.34762 24.7289 0.731225C24.7289 0.245958 24.4961 0 24.0369 0ZM4.08313 15.0718H1.02315V22.7117H4.08313V15.0718ZM9.69528 13.6296C9.17937 13.6296 8.67307 13.5681 8.18427 13.4491V22.7117H11.2443V13.4402C10.7438 13.5652 10.2245 13.6296 9.69528 13.6296ZM15.3458 15.0196V22.7117H18.4058V18.0795L15.3458 15.0196ZM18.4058 13.9139V13.0732H17.5652L18.4058 13.9139ZM25.5668 6.70317H22.507V22.7117H25.5668V6.70317ZM1.02315 26.59H25.5668V25.2508H1.02315V26.59ZM14.1807 11.7716C13.933 12.0194 13.6681 12.2438 13.3892 12.4444L14.2154 13.2706L15.6797 11.8063L14.8528 10.9794C14.6538 11.2571 14.43 11.5222 14.1807 11.7716ZM15.989 12.1155L14.5246 13.5799L19.1883 18.2435C19.417 18.4722 19.7257 18.6035 20.0351 18.6035C20.3052 18.6035 20.5531 18.5043 20.7332 18.3241C21.1369 17.9205 21.1008 17.2275 20.6526 16.7792L15.989 12.1155ZM3.78913 7.28623C3.78913 5.70864 4.40351 4.22547 5.51909 3.11004C6.63463 1.99451 8.11785 1.38008 9.69538 1.38008C11.2729 1.38008 12.756 1.99446 13.8714 3.10994C16.1743 5.41278 16.1743 9.15968 13.8715 11.4624C12.756 12.5779 11.2728 13.1923 9.69528 13.1923C8.11769 13.1923 6.63457 12.5779 5.51909 11.4624C4.40351 10.3468 3.78913 8.86371 3.78913 7.28623ZM6.29238 10.6889C7.20138 11.5978 8.40977 12.0984 9.69518 12.0984C10.9806 12.0984 12.1891 11.5978 13.0979 10.6889C14.0068 9.77993 14.5074 8.57148 14.5074 7.28618C14.5074 6.00072 14.0068 4.79228 13.0979 3.88333C12.189 2.97439 10.9805 2.4738 9.69512 2.4738C8.40972 2.4738 7.20127 2.97439 6.29233 3.88333C4.41623 5.75975 4.41623 8.81266 6.29238 10.6889Z" fill="#007DFE"/>
</g>
<defs>
<clipPath id="clip0_203_2625">
<rect width="26.59" height="26.59" fill="white"/>
</clipPath>
</defs>
</svg>
