<svg width="27" height="28" viewBox="0 0 27 28" fill="none" xmlns="http://www.w3.org/2000/svg">
<path d="M23.8854 4.96627H22.0698V3.98992C22.0698 2.91801 21.2015 2.04968 20.1296 2.04968C19.0577 2.04968 18.1893 2.91801 18.1893 3.98992V4.96627H15.2354V3.98992C15.2354 2.91801 14.3629 2.04968 13.2951 2.04968C12.2274 2.04968 11.3549 2.91801 11.3549 3.98992V4.96627H8.4009V3.98992C8.4009 2.91801 7.52841 2.04968 6.46066 2.04968C5.3929 2.04968 4.52042 2.91801 4.52042 3.98992V4.96627H2.70482C1.6703 4.96627 0.831055 5.80552 0.831055 6.84004V10.0599C0.831055 10.9158 1.41271 11.6304 2.19795 11.8506V23.6665C2.19795 24.701 3.03719 25.5403 4.07171 25.5403H22.5185C23.553 25.5403 24.3923 24.701 24.3923 23.6665V11.8506C25.1775 11.6304 25.7592 10.9158 25.7592 10.0599V6.84004C25.7592 5.80552 24.9199 4.96627 23.8854 4.96627ZM19.0203 3.98992C19.0203 3.37503 19.5188 2.88062 20.1296 2.88062C20.7403 2.88062 21.2389 3.37503 21.2389 3.98992V6.77772C21.2389 7.38846 20.7403 7.88702 20.1296 7.88702C19.5188 7.88702 19.0203 7.38846 19.0203 6.77772V3.98992ZM12.1858 3.98992C12.1858 3.37503 12.6844 2.88062 13.2951 2.88062C13.9059 2.88062 14.4044 3.37503 14.4044 3.98992V6.77772C14.4044 7.38846 13.9059 7.88702 13.2951 7.88702C12.6844 7.88702 12.1858 7.38846 12.1858 6.77772V3.98992ZM5.35135 3.98992C5.35135 3.37503 5.84992 2.88062 6.46066 2.88062C7.0714 2.88062 7.56996 3.37503 7.56996 3.98992V6.77772C7.56996 7.38846 7.0714 7.88702 6.46066 7.88702C5.84992 7.88702 5.35135 7.38846 5.35135 6.77772V3.98992ZM23.5613 23.6665C23.5613 24.244 23.0919 24.7093 22.5185 24.7093H4.07171C3.49836 24.7093 3.02888 24.244 3.02888 23.6665V11.9295H23.5613V23.6665Z" fill="#007DFE"/>
<path d="M9.66768 23.0059C10.8185 23.0059 11.8697 22.5863 12.6881 21.8966C12.6923 21.8924 12.7006 21.8883 12.7089 21.8841C12.7172 21.8758 12.7214 21.8675 12.7297 21.8592C13.7185 20.9992 14.35 19.732 14.35 18.3194C14.35 15.7394 12.2519 13.6371 9.66768 13.6371C7.08347 13.6371 4.98535 15.7394 4.98535 18.3194C4.98535 20.8995 7.08347 23.0059 9.66768 23.0059ZM10.0832 14.4888C12.0151 14.6965 13.5191 16.3376 13.5191 18.3194C13.5191 19.3415 13.1202 20.2721 12.4679 20.9618L10.0832 18.1657V14.4888ZM9.25222 14.4888V17.9039H5.83706C6.03233 16.1133 7.45739 14.6841 9.25222 14.4888ZM9.47657 18.7349L11.8364 21.5019C11.2174 21.9257 10.4737 22.175 9.66768 22.175C7.68174 22.175 6.0448 20.6668 5.83706 18.7349H9.47657Z" fill="#007DFE"/>
<path d="M15.0463 15.3256H21.1911C21.4209 15.3256 21.6066 15.1394 21.6066 14.9101C21.6066 14.6808 21.4209 14.4946 21.1911 14.4946H15.0463C14.8166 14.4946 14.6309 14.6808 14.6309 14.9101C14.6309 15.1394 14.8166 15.3256 15.0463 15.3256Z" fill="#007DFE"/>
<path d="M21.1908 16.7686H16.142C15.9123 16.7686 15.7266 16.9547 15.7266 17.184C15.7266 17.4134 15.9123 17.5995 16.142 17.5995H21.1908C21.4206 17.5995 21.6063 17.4134 21.6063 17.184C21.6063 16.9547 21.4206 16.7686 21.1908 16.7686Z" fill="#007DFE"/>
<path d="M21.1908 19.042H16.142C15.9123 19.042 15.7266 19.2281 15.7266 19.4575C15.7266 19.6868 15.9123 19.8729 16.142 19.8729H21.1908C21.4206 19.8729 21.6063 19.6868 21.6063 19.4575C21.6063 19.2281 21.4206 19.042 21.1908 19.042Z" fill="#007DFE"/>
<path d="M15.0463 22.1467H21.1911C21.4209 22.1467 21.6066 21.9606 21.6066 21.7313C21.6066 21.5019 21.4209 21.3158 21.1911 21.3158H15.0463C14.8166 21.3158 14.6309 21.5019 14.6309 21.7313C14.6309 21.9606 14.8166 22.1467 15.0463 22.1467Z" fill="#007DFE"/>
</svg>
