<svg width="27" height="27" viewBox="0 0 27 27" fill="none" xmlns="http://www.w3.org/2000/svg">
<path fill-rule="evenodd" clip-rule="evenodd" d="M0.832031 5.54486H21.6697V3.35814C21.6697 3.0119 21.3851 2.72736 21.0389 2.72736H1.46287C1.11663 2.72736 0.832031 3.01185 0.832031 3.35814V5.54486ZM11.8013 5.16694C11.3088 5.16694 11.3088 4.418 11.8013 4.418H19.7506C20.2431 4.418 20.2431 5.16694 19.7506 5.16694H11.8013ZM11.8013 3.85416C11.3088 3.85416 11.3088 3.10522 11.8013 3.10522H19.7506C20.2431 3.10522 20.2431 3.85416 19.7506 3.85416H11.8013ZM9.78102 3.10522C10.3452 3.10522 10.7879 3.57876 10.7879 4.13611C10.7879 4.69346 10.3452 5.16694 9.78102 5.16694C9.21687 5.16694 8.77418 4.69346 8.77418 4.13611C8.77418 3.57876 9.21687 3.10522 9.78102 3.10522ZM7.64858 3.10522C8.21273 3.10522 8.65541 3.57876 8.65541 4.13611C8.65541 4.69346 8.21268 5.16694 7.64858 5.16694C7.08447 5.16694 6.64169 4.69346 6.64169 4.13611C6.64169 3.57876 7.08437 3.10522 7.64858 3.10522ZM5.51613 3.10522C6.08028 3.10522 6.52307 3.57876 6.52307 4.13611C6.52307 4.69346 6.08034 5.16694 5.51613 5.16694C4.95192 5.16694 4.50924 4.69346 4.50924 4.13611C4.50924 3.57876 4.95192 3.10522 5.51613 3.10522ZM3.38368 3.10522C3.94784 3.10522 4.39063 3.57876 4.39063 4.13611C4.39063 4.69346 3.94789 5.16694 3.38368 5.16694C2.81948 5.16694 2.3768 4.69346 2.3768 4.13611C2.3768 3.57876 2.81948 3.10522 3.38368 3.10522Z" fill="#007DFE"/>
<path fill-rule="evenodd" clip-rule="evenodd" d="M17.1648 19.9604L17.1646 19.94C17.1646 17.4253 19.1575 15.3595 21.6697 15.2714V6.29373H0.832031V19.3296C0.832031 19.6758 1.11663 19.9604 1.46287 19.9604L17.1648 19.9604ZM6.73937 15.82L7.39618 17.2356C7.49449 17.4361 7.39675 17.6785 7.18507 17.753C6.55293 17.9762 5.79668 18.2464 5.41211 17.418L4.89428 16.3019C3.87887 16.4854 2.79803 15.9881 2.4428 14.9821C2.03762 13.834 2.77284 12.6474 3.87705 12.2575L4.97742 11.8691C5.46446 11.4644 8.71674 8.65152 8.95792 8.5664C9.34852 8.42862 9.8167 8.79662 10.2578 9.50302C11.0289 10.7378 11.7808 12.8677 11.9559 14.3129C12.0505 15.0937 11.9362 15.6545 11.593 15.8297C11.3737 15.9807 7.33355 15.8296 6.73927 15.8199L6.73937 15.82ZM11.7993 9.73028C11.403 10.0208 10.9613 9.41816 11.3575 9.1277L12.4479 8.33031C12.8442 8.03979 13.2859 8.64243 12.8896 8.93289L11.7993 9.73028ZM12.3043 11.8901C11.8404 12.0536 11.5922 11.3485 12.0557 11.1851L13.3294 10.7355C13.7933 10.572 14.0415 11.277 13.578 11.4404L12.3043 11.8901ZM14.2338 13.1668C14.7245 13.1438 14.7593 13.8897 14.2689 13.9127L12.9196 13.9767C12.4289 13.9998 12.3941 13.2539 12.8845 13.2309L14.2338 13.1669V13.1668Z" fill="#007DFE"/>
<path fill-rule="evenodd" clip-rule="evenodd" d="M21.8357 16.0174C19.6692 16.0174 17.9131 17.7735 17.9131 19.94C17.9131 22.1064 19.6691 23.8627 21.8357 23.8627C24.0024 23.8627 25.7583 22.1065 25.7583 19.94C25.7583 17.7734 24.0022 16.0174 21.8357 16.0174ZM21.4613 17.5607C21.4613 17.0681 22.2102 17.0681 22.2102 17.5607V17.7186C22.7825 17.8777 23.2003 18.3887 23.2003 18.9911C23.2003 19.4836 22.4514 19.4836 22.4514 18.9911C22.4514 18.6558 22.1591 18.4166 21.8357 18.4166C21.5122 18.4166 21.22 18.6557 21.22 18.9911C21.22 19.3264 21.5123 19.5655 21.8357 19.5655C22.5701 19.5655 23.2003 20.1429 23.2003 20.8889C23.2003 21.4912 22.7824 22.0025 22.2102 22.1614V22.3193C22.2102 22.8118 21.4612 22.8118 21.4612 22.3193V22.1614C20.8889 22.0023 20.471 21.4914 20.471 20.8889C20.471 20.3964 21.22 20.3964 21.22 20.8889C21.22 21.2242 21.5122 21.4633 21.8357 21.4633C22.1591 21.4633 22.4514 21.2242 22.4514 20.8889C22.4514 20.5536 22.1592 20.3144 21.8357 20.3144C21.1013 20.3144 20.471 19.7372 20.471 18.9911C20.471 18.3886 20.8889 17.8776 21.4612 17.7186V17.5607H21.4613Z" fill="#007DFE"/>
<path fill-rule="evenodd" clip-rule="evenodd" d="M3.38393 3.8541C3.23047 3.8541 3.12598 3.98954 3.12598 4.13604C3.12598 4.28255 3.23052 4.41794 3.38393 4.41794C3.53734 4.41794 3.64194 4.28255 3.64194 4.13604C3.64194 3.98954 3.53734 3.8541 3.38393 3.8541Z" fill="#007DFE"/>
<path fill-rule="evenodd" clip-rule="evenodd" d="M5.51577 3.8541C5.3623 3.8541 5.25781 3.98954 5.25781 4.13604C5.25781 4.28255 5.36235 4.41794 5.51577 4.41794C5.66918 4.41794 5.77377 4.28255 5.77377 4.13604C5.77377 3.98954 5.66923 3.8541 5.51577 3.8541Z" fill="#007DFE"/>
<path fill-rule="evenodd" clip-rule="evenodd" d="M7.64858 3.8541C7.49512 3.8541 7.39062 3.98954 7.39062 4.13604C7.39062 4.28255 7.49517 4.41794 7.64858 4.41794C7.80199 4.41794 7.90653 4.2825 7.90653 4.13604C7.90653 3.98959 7.80204 3.8541 7.64858 3.8541Z" fill="#007DFE"/>
<path fill-rule="evenodd" clip-rule="evenodd" d="M9.78139 3.8541C9.62793 3.8541 9.52344 3.98954 9.52344 4.13604C9.52344 4.28255 9.62803 4.41794 9.78139 4.41794C9.93475 4.41794 10.0393 4.2825 10.0393 4.13604C10.0393 3.98959 9.93486 3.8541 9.78139 3.8541Z" fill="#007DFE"/>
<path fill-rule="evenodd" clip-rule="evenodd" d="M4.93468 12.677L4.12607 12.9624C3.41328 13.2141 2.88153 13.9781 3.14806 14.7334C3.41525 15.4899 4.30758 15.7493 5.02135 15.4973L5.8298 15.2118L4.93468 12.677Z" fill="#007DFE"/>
<path fill-rule="evenodd" clip-rule="evenodd" d="M10.3735 15.1328C10.3262 15.0657 10.2792 14.9947 10.2324 14.9199C9.46101 13.6847 8.70906 11.5545 8.53405 10.1098C8.52537 10.0385 8.51857 9.96902 8.51338 9.90146L5.60156 12.3202L6.57282 15.0711L10.3735 15.1327V15.1328Z" fill="#007DFE"/>
<path fill-rule="evenodd" clip-rule="evenodd" d="M11.2847 15.1476C11.293 15.1137 11.2654 14.8341 11.2129 14.4007C11.0507 13.0626 10.3369 11.041 9.62289 9.89783C9.43131 9.59096 9.2928 9.37735 9.23516 9.30164L9.2041 9.32739C9.20909 9.4323 9.23505 9.67904 9.2766 10.022C9.43884 11.3602 10.1526 13.3815 10.8668 14.525C11.0913 14.8845 11.243 15.116 11.2767 15.1475L11.2847 15.1476Z" fill="#007DFE"/>
<path fill-rule="evenodd" clip-rule="evenodd" d="M5.61523 16.0802L6.09063 17.1049C6.18806 17.3149 6.39055 17.2407 6.54864 17.1849L5.97695 15.9525L5.61529 16.0802H5.61523Z" fill="#007DFE"/>
</svg>
