<svg width="135" height="123" viewBox="0 0 135 123" fill="none" xmlns="http://www.w3.org/2000/svg">
<path d="M55.991 1.25797C55.4745 0.473585 54.5986 0.00106629 53.6596 1.79952e-05H3.34144C1.79756 1.79952e-05 0.545898 1.25168 0.545898 2.79556V120.205C0.545636 121.533 1.48045 122.678 2.78218 122.944C2.96615 122.981 3.15353 123 3.34118 123C4.4563 123.004 5.46686 122.345 5.91291 121.323L56.2311 3.91357C56.6059 3.04479 56.5155 2.04551 55.991 1.25797Z" fill="#F44336"/>
<path d="M70.2253 43.6762C69.7976 42.6224 68.7742 41.9326 67.6368 41.9319C66.5117 41.9316 65.4959 42.6056 65.0593 43.6427L42.6958 96.7564C42.0967 98.1795 42.7647 99.8185 44.1875 100.418C44.5311 100.562 44.9003 100.637 45.273 100.637H65.6967L73.4066 121.189C73.8165 122.278 74.8588 123 76.0232 123H98.3867C99.9306 122.999 101.182 121.747 101.18 120.203C101.18 119.843 101.11 119.487 100.975 119.154L70.2253 43.6762Z" fill="#F44336"/>
<path d="M131.932 1.81442e-05H81.614C80.0701 -0.00548541 78.8143 1.24172 78.8088 2.7856C78.8075 3.17373 78.8869 3.55793 79.042 3.91357L129.36 121.323C129.806 122.345 130.817 123.004 131.932 123C132.12 123 132.307 122.981 132.491 122.944C133.793 122.678 134.727 121.533 134.727 120.205V2.79556C134.728 1.25168 133.476 1.81442e-05 131.932 1.81442e-05Z" fill="#F44336"/>
</svg>
