<svg width="68" height="62" viewBox="0 0 68 62" fill="none" xmlns="http://www.w3.org/2000/svg">
<path d="M58.923 20.7912L57.2482 14.0918L60.0696 10.3333H62.5458C63.6159 10.3333 64.4833 9.46585 64.4833 8.39583C64.4833 7.32582 63.6159 6.45833 62.5458 6.45833H59.1014C58.4918 6.45833 57.9178 6.74521 57.5519 7.23269L56.0377 9.24975L55.3966 6.68567C54.4126 2.74918 50.8914 0 46.8338 0H21.1663C17.1086 0 13.5874 2.74918 12.6034 6.68567L11.9624 9.24975L10.4482 7.23269C10.0822 6.74521 9.50821 6.45833 8.89867 6.45833H5.45418C4.38417 6.45833 3.51668 7.32582 3.51668 8.39583C3.51668 9.46585 4.38417 10.3333 5.45418 10.3333H7.93044L10.7518 14.0917L9.07705 20.7911C4.4667 21.5329 0.93335 25.5379 0.93335 30.3542V51.0208C0.93335 52.0908 1.80083 52.9583 2.87085 52.9583H6.10002V56.618C6.10002 59.5857 8.51427 62 11.482 62H14.9264C17.8941 62 20.3083 59.5857 20.3083 56.618V52.9583H47.6917V56.618C47.6917 59.5857 50.1059 62 53.0737 62H56.518C59.4858 62 61.9 59.5857 61.9 56.618V52.9583H65.1292C66.1992 52.9583 67.0667 52.0908 67.0667 51.0208V30.3542C67.0667 25.5379 63.5333 21.5329 58.923 20.7912ZM16.3626 7.62548C16.9148 5.41725 18.8901 3.875 21.1663 3.875H46.8339C49.1101 3.875 51.0854 5.41725 51.6375 7.62548L54.8976 20.6667H13.1024L16.3626 7.62548ZM16.4333 56.618C16.4333 57.4489 15.7574 58.125 14.9264 58.125H11.482C10.6509 58.125 9.97502 57.4491 9.97502 56.618V52.9583H16.4333V56.618ZM58.025 56.618C58.025 57.4489 57.3491 58.125 56.518 58.125H53.0737C52.2426 58.125 51.5667 57.4491 51.5667 56.618V52.9583H58.025V56.618ZM63.1917 49.0833H4.80835V45.2083H63.1917V49.0833ZM27.4125 41.3333V36.1667H40.5875V41.3333H27.4125ZM63.1917 41.3333H44.4625V34.2292C44.4625 33.1591 43.595 32.2917 42.525 32.2917H25.475C24.405 32.2917 23.5375 33.1591 23.5375 34.2292V41.3333H4.80835V30.3542C4.80835 27.1492 7.41584 24.5417 10.6208 24.5417H57.3792C60.5842 24.5417 63.1917 27.1492 63.1917 30.3542V41.3333Z" fill="#121E36"/>
<path d="M53.5042 27.125C50.2991 27.125 47.6917 29.7325 47.6917 32.9375C47.6917 36.1425 50.2991 38.75 53.5042 38.75C56.7092 38.75 59.3167 36.1425 59.3167 32.9375C59.3167 29.7325 56.7092 27.125 53.5042 27.125ZM53.5042 34.875C52.4358 34.875 51.5667 34.0058 51.5667 32.9375C51.5667 31.8692 52.4358 31 53.5042 31C54.5725 31 55.4417 31.8692 55.4417 32.9375C55.4417 34.0058 54.5725 34.875 53.5042 34.875Z" fill="#007DFE"/>
<path d="M14.4958 27.125C11.2908 27.125 8.68335 29.7325 8.68335 32.9375C8.68335 36.1425 11.2908 38.75 14.4958 38.75C17.7009 38.75 20.3083 36.1425 20.3083 32.9375C20.3083 29.7325 17.7009 27.125 14.4958 27.125ZM14.4958 34.875C13.4275 34.875 12.5583 34.0058 12.5583 32.9375C12.5583 31.8692 13.4275 31 14.4958 31C15.5642 31 16.4333 31.8692 16.4333 32.9375C16.4333 34.0058 15.5642 34.875 14.4958 34.875Z" fill="#007DFE"/>
</svg>
