<svg width="62" height="62" viewBox="0 0 62 62" fill="none" xmlns="http://www.w3.org/2000/svg">
<path fill-rule="evenodd" clip-rule="evenodd" d="M2.46797 49.242C1.76601 48.5541 1.32324 47.7084 1.32324 46.6613V42.0823C1.32324 41.0248 2.1864 40.1641 3.24377 40.1641H9.14298V39.1126C9.14298 37.4801 10.4789 36.1442 12.1114 36.1442H18.1088C19.7413 36.1442 21.0772 37.4801 21.0772 39.1126V40.1641H26.9763C28.0338 40.1641 28.897 41.0248 28.897 42.0823V46.6613C28.897 47.7084 28.4542 48.5541 27.7521 49.242V57.2569C27.7521 58.8134 26.4769 60.0923 24.9167 60.0923H5.30336C3.74326 60.0923 2.46797 58.8134 2.46797 57.2569V49.242ZM7.45365 42.0788H3.24377C3.24114 42.0788 3.23791 42.0795 3.23791 42.0823V46.6613C3.23791 47.2648 3.58375 47.7067 4.03273 48.0753L4.03525 48.0774C4.18639 48.2024 4.35009 48.3167 4.52133 48.4255C5.94285 49.3252 8.84429 49.8332 12.0758 50.0321C12.5933 48.8739 13.7548 48.0637 15.11 48.0637C16.4647 48.0637 17.6256 48.873 18.1435 50.0302C21.3803 49.8292 24.2843 49.3198 25.699 48.4254C25.8702 48.3165 26.0338 48.2022 26.1848 48.0774C26.1857 48.0767 26.1866 48.076 26.1875 48.0753C26.6365 47.7067 26.9823 47.2648 26.9823 46.6613V42.0823C26.9823 42.0795 26.9791 42.0788 26.9763 42.0788H22.7666V44.2507C22.7666 45.4406 21.7938 46.4134 20.6039 46.4134H9.61626C8.4263 46.4134 7.45365 45.4406 7.45365 44.2507V42.0788ZM11.8332 51.9341C8.83735 51.7341 6.11338 51.2414 4.38264 50.4998V57.2569C4.38264 57.7624 4.79681 58.1777 5.30336 58.1777H24.9167C25.4234 58.1777 25.8374 57.7624 25.8374 57.2569V50.4989C24.1108 51.2366 21.386 51.7304 18.3874 51.932C18.1271 53.5075 16.76 54.7073 15.11 54.7073C13.4609 54.7073 12.0943 53.5086 11.8332 51.9341ZM19.1625 40.1641V39.1126C19.1625 38.5331 18.6883 38.0588 18.1088 38.0588H12.1114C11.5319 38.0588 11.0576 38.5331 11.0576 39.1126V40.1641H19.1625ZM20.8519 42.0788H9.36831V44.2507C9.36831 44.3872 9.47984 44.4987 9.61626 44.4987H20.6039C20.7404 44.4987 20.8519 44.3872 20.8519 44.2507V42.0788ZM13.7029 51.3855C13.7029 52.1633 14.3323 52.7927 15.11 52.7927C15.8879 52.7927 16.5173 52.1633 16.5173 51.3855C16.5173 50.6107 15.8893 49.9783 15.11 49.9783C14.3309 49.9783 13.7029 50.6107 13.7029 51.3855ZM34.249 14.0356C33.547 13.3477 33.1042 12.502 33.1042 11.4549V6.87584C33.1042 5.81835 33.9674 4.95771 35.0248 4.95771H40.9239V3.90632C40.9239 2.2737 42.2599 0.937744 43.8924 0.937744H49.8897C51.5222 0.937744 52.8582 2.2737 52.8582 3.90632V4.95771H58.7574C59.8148 4.95771 60.6779 5.81835 60.6779 6.87584V11.4549C60.6779 12.502 60.2351 13.3477 59.5332 14.0356V22.0505C59.5332 23.607 58.2579 24.8859 56.6978 24.8859H37.0844C35.5242 24.8859 34.249 23.607 34.249 22.0505V14.0356ZM39.2346 6.87237H35.0248C35.0221 6.87237 35.0189 6.87321 35.0189 6.87584V11.4549C35.0189 12.0584 35.3647 12.5003 35.8137 12.8689C35.8145 12.8696 35.8155 12.8703 35.8163 12.871C35.9675 12.996 36.131 13.1102 36.3023 13.2191C37.7239 14.1189 40.6254 14.6268 43.8568 14.8257C44.3743 13.6675 45.5358 12.8573 46.8911 12.8573C48.2456 12.8573 49.4065 13.6667 49.9245 14.8239C53.1613 14.6228 56.0652 14.1134 57.4799 13.219C57.6512 13.1102 57.8148 12.996 57.9659 12.871C57.9667 12.8703 57.9676 12.8696 57.9684 12.8689C58.4174 12.5003 58.7632 12.0584 58.7632 11.4549V6.87584C58.7632 6.87321 58.76 6.87237 58.7574 6.87237H54.5475V9.04432C54.5475 10.2342 53.5749 11.2069 52.3849 11.2069H41.3972C40.2074 11.2069 39.2346 10.2342 39.2346 9.04432V6.87237ZM43.6142 16.7276C40.6183 16.5278 37.8943 16.035 36.1637 15.2934V22.0505C36.1637 22.556 36.5778 22.9713 37.0844 22.9713H56.6978C57.2043 22.9713 57.6185 22.556 57.6185 22.0505V15.2925C55.8917 16.0302 53.1669 16.524 50.1683 16.7256C49.908 18.3013 48.541 19.501 46.8911 19.501C45.2419 19.501 43.8753 18.3022 43.6142 16.7276ZM50.9435 4.95771V3.90632C50.9435 3.32665 50.4693 2.85241 49.8897 2.85241H43.8924C43.3128 2.85241 42.8386 3.32665 42.8386 3.90632V4.95771H50.9435ZM52.6328 6.87237H41.1493V9.04432C41.1493 9.18074 41.2608 9.29227 41.3972 9.29227H52.3849C52.5213 9.29227 52.6328 9.18074 52.6328 9.04432V6.87237ZM45.4838 16.1791C45.4838 16.9569 46.1133 17.5864 46.8911 17.5864C47.6688 17.5864 48.2983 16.9569 48.2983 16.1791C48.2983 15.4042 47.6703 14.7719 46.8911 14.7719C46.1118 14.7719 45.4838 15.4042 45.4838 16.1791ZM54.997 29.0241C55.0271 29.5173 55.0424 30.0144 55.0424 30.515C55.0424 43.8123 44.2468 54.608 30.9495 54.608C30.5153 54.608 30.0838 54.5964 29.6553 54.5737C29.1277 54.5457 28.722 54.0946 28.75 53.567C28.778 53.0393 29.2291 52.6337 29.7568 52.6617C30.1517 52.6827 30.5494 52.6933 30.9495 52.6933C43.1901 52.6933 53.1278 42.7555 53.1278 30.515C53.1278 29.997 53.11 29.4832 53.075 28.974L52.6727 29.3764C52.2991 29.75 51.6924 29.75 51.3188 29.3764C50.9452 29.0027 50.9452 28.3961 51.3188 28.0225L53.334 26.0073C53.7078 25.6334 54.314 25.6334 54.6879 26.0073L56.7031 28.0225C57.0767 28.3961 57.0767 29.0027 56.7031 29.3764C56.3295 29.75 55.7229 29.75 55.3492 29.3764L54.997 29.0241ZM8.93859 33.2509L9.13592 32.9091C9.40002 32.4515 9.98603 32.2945 10.4436 32.5587C10.9012 32.8228 11.0582 33.4088 10.794 33.8664L9.36903 36.3345C9.10469 36.7924 8.51916 36.9493 8.06131 36.6849L5.59319 35.2599C5.13558 34.9958 4.97858 34.4098 5.2428 33.9522C5.50703 33.4946 6.09292 33.3376 6.55052 33.6018L7.09536 33.9164C6.938 32.8051 6.85663 31.6695 6.85663 30.515C6.85663 17.2178 17.6522 6.42207 30.9495 6.42207C31.4779 6.42207 31.9068 6.85107 31.9068 7.3794C31.9068 7.90785 31.4779 8.33673 30.9495 8.33673C18.709 8.33673 8.7713 18.2746 8.7713 30.515C8.7713 31.4413 8.82814 32.3543 8.93859 33.2509ZM28.2869 25.9232C28.6871 25.5782 29.292 25.6229 29.6371 26.0231C29.9821 26.4233 29.9373 27.0283 29.5372 27.3733L27.2787 29.3205H37.1967C37.725 29.3205 38.154 29.7495 38.154 30.2779C38.154 30.8063 37.725 31.2352 37.1967 31.2352H24.7024C24.3022 31.2352 23.9444 30.9864 23.805 30.6114C23.6656 30.2363 23.7743 29.8141 24.0773 29.5529L28.2869 25.9232ZM33.6122 37.9201C33.212 38.2651 32.6071 38.2204 32.262 37.8202C31.917 37.42 31.9617 36.815 32.3619 36.47L34.6204 34.5228H24.7024C24.1741 34.5228 23.7451 34.0938 23.7451 33.5655C23.7451 33.037 24.1741 32.6081 24.7024 32.6081H37.1967C37.5968 32.6081 37.9546 32.8569 38.0941 33.2319C38.2335 33.607 38.1248 34.0292 37.8218 34.2905L33.6122 37.9201Z" fill="black"/>
<path fill-rule="evenodd" clip-rule="evenodd" d="M2.46797 49.242C1.76601 48.5541 1.32324 47.7084 1.32324 46.6613V42.0823C1.32324 41.0248 2.1864 40.1641 3.24377 40.1641H9.14298V39.1126C9.14298 37.4801 10.4789 36.1442 12.1114 36.1442H18.1088C19.7413 36.1442 21.0772 37.4801 21.0772 39.1126V40.1641H26.9763C28.0338 40.1641 28.897 41.0248 28.897 42.0823V46.6613C28.897 47.7084 28.4542 48.5541 27.7521 49.242V57.2569C27.7521 58.8134 26.4769 60.0923 24.9167 60.0923H5.30336C3.74326 60.0923 2.46797 58.8134 2.46797 57.2569V49.242ZM7.45365 42.0788H3.24377C3.24114 42.0788 3.23791 42.0795 3.23791 42.0823V46.6613C3.23791 47.2648 3.58375 47.7067 4.03273 48.0753L4.03525 48.0774C4.18639 48.2024 4.35009 48.3167 4.52133 48.4255C5.94285 49.3252 8.84429 49.8332 12.0758 50.0321C12.5933 48.8739 13.7548 48.0637 15.11 48.0637C16.4647 48.0637 17.6256 48.873 18.1435 50.0302C21.3803 49.8292 24.2843 49.3198 25.699 48.4254C25.8702 48.3165 26.0338 48.2022 26.1848 48.0774L26.1875 48.0753C26.6365 47.7067 26.9823 47.2648 26.9823 46.6613V42.0823C26.9823 42.0795 26.9791 42.0788 26.9763 42.0788H22.7666V44.2507C22.7666 45.4406 21.7938 46.4134 20.6039 46.4134H9.61626C8.4263 46.4134 7.45365 45.4406 7.45365 44.2507V42.0788ZM11.8332 51.9341C8.83735 51.7341 6.11338 51.2414 4.38264 50.4998V57.2569C4.38264 57.7624 4.79681 58.1777 5.30336 58.1777H24.9167C25.4234 58.1777 25.8374 57.7624 25.8374 57.2569V50.4989C24.1108 51.2366 21.386 51.7304 18.3874 51.932C18.1271 53.5075 16.76 54.7073 15.11 54.7073C13.4609 54.7073 12.0943 53.5086 11.8332 51.9341ZM19.1625 40.1641V39.1126C19.1625 38.5331 18.6883 38.0588 18.1088 38.0588H12.1114C11.5319 38.0588 11.0576 38.5331 11.0576 39.1126V40.1641H19.1625ZM20.8519 42.0788H9.36831V44.2507C9.36831 44.3872 9.47984 44.4987 9.61626 44.4987H20.6039C20.7404 44.4987 20.8519 44.3872 20.8519 44.2507V42.0788ZM13.7029 51.3855C13.7029 52.1633 14.3323 52.7927 15.11 52.7927C15.8879 52.7927 16.5173 52.1633 16.5173 51.3855C16.5173 50.6107 15.8893 49.9783 15.11 49.9783C14.3309 49.9783 13.7029 50.6107 13.7029 51.3855ZM34.249 14.0356C33.547 13.3477 33.1042 12.502 33.1042 11.4549V6.87584C33.1042 5.81835 33.9674 4.95771 35.0248 4.95771H40.9239V3.90632C40.9239 2.2737 42.2599 0.937744 43.8924 0.937744H49.8897C51.5222 0.937744 52.8582 2.2737 52.8582 3.90632V4.95771H58.7574C59.8148 4.95771 60.6779 5.81835 60.6779 6.87584V11.4549C60.6779 12.502 60.2351 13.3477 59.5332 14.0356V22.0505C59.5332 23.607 58.2579 24.8859 56.6978 24.8859H37.0844C35.5242 24.8859 34.249 23.607 34.249 22.0505V14.0356ZM39.2346 6.87237H35.0248C35.0221 6.87237 35.0189 6.87321 35.0189 6.87584V11.4549C35.0189 12.0584 35.3647 12.5003 35.8137 12.8689L35.8163 12.871C35.9675 12.996 36.131 13.1102 36.3023 13.2191C37.7239 14.1189 40.6254 14.6268 43.8568 14.8257C44.3743 13.6675 45.5358 12.8573 46.8911 12.8573C48.2456 12.8573 49.4065 13.6667 49.9245 14.8239C53.1613 14.6228 56.0652 14.1134 57.4799 13.219C57.6512 13.1102 57.8148 12.996 57.9659 12.871L57.9684 12.8689C58.4174 12.5003 58.7632 12.0584 58.7632 11.4549V6.87584C58.7632 6.87321 58.76 6.87237 58.7574 6.87237H54.5475V9.04432C54.5475 10.2342 53.5749 11.2069 52.3849 11.2069H41.3972C40.2074 11.2069 39.2346 10.2342 39.2346 9.04432V6.87237ZM43.6142 16.7276C40.6183 16.5278 37.8943 16.035 36.1637 15.2934V22.0505C36.1637 22.556 36.5778 22.9713 37.0844 22.9713H56.6978C57.2043 22.9713 57.6185 22.556 57.6185 22.0505V15.2925C55.8917 16.0302 53.1669 16.524 50.1683 16.7256C49.908 18.3013 48.541 19.501 46.8911 19.501C45.2419 19.501 43.8753 18.3022 43.6142 16.7276ZM50.9435 4.95771V3.90632C50.9435 3.32665 50.4693 2.85241 49.8897 2.85241H43.8924C43.3128 2.85241 42.8386 3.32665 42.8386 3.90632V4.95771H50.9435ZM52.6328 6.87237H41.1493V9.04432C41.1493 9.18074 41.2608 9.29227 41.3972 9.29227H52.3849C52.5213 9.29227 52.6328 9.18074 52.6328 9.04432V6.87237ZM45.4838 16.1791C45.4838 16.9569 46.1133 17.5864 46.8911 17.5864C47.6688 17.5864 48.2983 16.9569 48.2983 16.1791C48.2983 15.4042 47.6703 14.7719 46.8911 14.7719C46.1118 14.7719 45.4838 15.4042 45.4838 16.1791Z" fill="#007DFE"/>
</svg>
