<svg width="62" height="41" viewBox="0 0 62 41" fill="none" xmlns="http://www.w3.org/2000/svg">
<path d="M48.2427 21.5618C45.5759 21.5618 43.4141 19.4084 43.4141 16.752V14.6609C43.4141 12.0045 45.5759 9.85111 48.2427 9.85111C50.9095 9.85111 53.0714 12.0045 53.0714 14.6609V16.752C53.0714 19.4084 50.9095 21.5618 48.2427 21.5618Z" stroke="black" stroke-width="2.52605" stroke-miterlimit="10" stroke-linecap="round" stroke-linejoin="round"/>
<path d="M49.571 33.0632H60.0017V28.5921C60.0017 24.7093 56.8416 21.5618 52.9437 21.5618H36.4883" stroke="black" stroke-width="2.52605" stroke-miterlimit="10" stroke-linecap="round" stroke-linejoin="round"/>
<path d="M13.44 21.5618C16.1068 21.5618 18.2687 19.4084 18.2687 16.752V14.6609C18.2687 12.0045 16.1068 9.85111 13.44 9.85111C10.7732 9.85111 8.61133 12.0045 8.61133 14.6609V16.752C8.61133 19.4084 10.7732 21.5618 13.44 21.5618Z" stroke="black" stroke-width="2.52605" stroke-miterlimit="10" stroke-linecap="round" stroke-linejoin="round"/>
<path d="M12.3513 33.0632H1.68359V28.5921C1.68359 24.7093 4.8436 21.5618 8.74157 21.5618H25.197" stroke="black" stroke-width="2.52605" stroke-miterlimit="10" stroke-linecap="round" stroke-linejoin="round"/>
<path d="M30.843 21.5618C26.7843 21.5618 23.4941 18.2845 23.4941 14.2417V8.80482C23.4941 4.76203 26.7843 1.48477 30.843 1.48477C34.9017 1.48477 38.1918 4.76203 38.1918 8.80482V14.2417C38.1918 18.2845 34.9017 21.5618 30.843 21.5618Z" stroke="#007DFE" stroke-width="2.52605" stroke-miterlimit="10" stroke-linecap="round" stroke-linejoin="round"/>
<path d="M38.1273 9.99731H36.9995C34.7866 9.99731 32.6513 9.34784 30.8411 8.16789C29.0308 9.34784 26.8955 9.99731 24.6825 9.99731H23.5547" stroke="#007DFE" stroke-width="2.52605" stroke-miterlimit="10" stroke-linecap="round" stroke-linejoin="round"/>
<path d="M26.3376 39.5078H49.3329V32.5751C49.3329 26.4927 44.3827 21.5619 38.2764 21.5619H23.4082C17.3018 21.5619 12.3516 26.4927 12.3516 32.5751V39.5078H15.6705" stroke="#007DFE" stroke-width="2.52605" stroke-miterlimit="10" stroke-linecap="round" stroke-linejoin="round"/>
<path d="M38.2745 21.5619L30.8404 39.5078L23.4062 21.5619H38.2745Z" stroke="#007DFE" stroke-width="2.52605" stroke-miterlimit="10" stroke-linecap="round" stroke-linejoin="round"/>
<path d="M30.8418 25.5759V22.152" stroke="#007DFE" stroke-width="2.52605" stroke-miterlimit="10" stroke-linecap="round" stroke-linejoin="round"/>
</svg>
