<svg width="23" height="24" viewBox="0 0 23 24" fill="none" xmlns="http://www.w3.org/2000/svg">
<g clip-path="url(#clip0_18_101)">
<g clip-path="url(#clip1_18_101)">
<g clip-path="url(#clip2_18_101)">
<mask id="mask0_18_101" style="mask-type:luminance" maskUnits="userSpaceOnUse" x="0" y="0" width="23" height="24">
<path d="M22.9236 0.639404H0.469482V23.0936H22.9236V0.639404Z" fill="white"/>
</mask>
<g mask="url(#mask0_18_101)">
<path d="M12.6318 1.57502C12.6318 1.32689 12.7303 1.08892 12.9058 0.91346C13.0812 0.738007 13.3192 0.639433 13.5674 0.639433C16.0479 0.642158 18.426 1.62874 20.1799 3.38273C21.9339 5.13671 22.9205 7.51486 22.9232 9.99537C22.9232 10.2435 22.8247 10.4815 22.6492 10.6569C22.4738 10.8324 22.2358 10.931 21.9877 10.931C21.7396 10.931 21.5015 10.8324 21.3261 10.6569C21.1506 10.4815 21.0521 10.2435 21.0521 9.99537C21.0499 8.01099 20.2606 6.10848 18.8574 4.70531C17.4542 3.30213 15.5517 2.51284 13.5674 2.51062C13.3192 2.51062 13.0812 2.41204 12.9058 2.23659C12.7303 2.06113 12.6318 1.82316 12.6318 1.57502ZM13.5674 6.25298C14.5599 6.25298 15.5118 6.64726 16.2136 7.3491C16.9154 8.05091 17.3097 9.00281 17.3097 9.99537C17.3097 10.2435 17.4083 10.4815 17.5838 10.6569C17.7592 10.8324 17.9972 10.931 18.2453 10.931C18.4934 10.931 18.7314 10.8324 18.9069 10.6569C19.0823 10.4815 19.1808 10.2435 19.1808 9.99537C19.1794 8.50698 18.5875 7.08003 17.5351 6.02761C16.4827 4.97518 15.0557 4.38328 13.5674 4.3818C13.3192 4.3818 13.0812 4.48037 12.9058 4.65583C12.7303 4.83129 12.6318 5.06926 12.6318 5.31739C12.6318 5.56552 12.7303 5.8035 12.9058 5.97895C13.0812 6.15441 13.3192 6.25298 13.5674 6.25298ZM22.0747 16.3003C22.6168 16.844 22.9213 17.5805 22.9213 18.3483C22.9213 19.1161 22.6168 19.8527 22.0747 20.3963L21.2232 21.3778C13.5608 28.7137 -5.08555 10.0721 2.13722 2.38524L3.21315 1.44966C3.75745 0.922615 4.48736 0.631059 5.24498 0.638063C6.00259 0.645066 6.72699 0.950067 7.26145 1.48708C7.29045 1.51608 9.02412 3.76805 9.02412 3.76805C9.5385 4.30848 9.82489 5.02636 9.82363 5.77246C9.82244 6.51857 9.53376 7.23551 9.01759 7.77424L7.93414 9.13651C8.5337 10.5933 9.41527 11.9173 10.5281 13.0323C11.6409 14.1475 12.9631 15.0316 14.4187 15.6342L15.7894 14.5442C16.3282 14.0284 17.045 13.7401 17.7909 13.739C18.5368 13.738 19.2544 14.0243 19.7947 14.5386C19.7947 14.5386 22.0457 16.2713 22.0747 16.3003ZM20.7873 17.6607C20.7873 17.6607 18.5484 15.9382 18.5194 15.9092C18.3267 15.7181 18.0662 15.6109 17.7948 15.6109C17.5234 15.6109 17.2629 15.7181 17.0702 15.9092C17.045 15.9354 15.1579 17.4389 15.1579 17.4389C15.0307 17.5401 14.8793 17.6065 14.7187 17.6314C14.5581 17.6564 14.3938 17.639 14.2419 17.5811C12.3562 16.8791 10.6434 15.7799 9.21947 14.3581C7.79562 12.9363 6.69392 11.2251 5.98905 9.34047C5.92655 9.18651 5.90617 9.01869 5.93001 8.85428C5.95386 8.68979 6.02106 8.53472 6.12471 8.40481C6.12471 8.40481 7.62817 6.51682 7.65347 6.4925C7.84459 6.29975 7.9518 6.03931 7.9518 5.76788C7.9518 5.49645 7.84459 5.23601 7.65347 5.04327C7.62446 5.0152 5.90203 2.77446 5.90203 2.77446C5.70641 2.59903 5.45109 2.50509 5.18841 2.51188C4.92574 2.51866 4.67561 2.62566 4.48929 2.81094L3.41337 3.74653C-1.86524 10.0936 14.2933 25.3559 19.8554 20.0997L20.7078 19.1174C20.9075 18.9324 21.0275 18.6769 21.0423 18.4051C21.0571 18.1333 20.9657 17.8663 20.7873 17.6607Z" fill="white"/>
</g>
</g>
</g>
</g>
<defs>
<clipPath id="clip0_18_101">
<rect width="23" height="23.73" fill="white"/>
</clipPath>
<clipPath id="clip1_18_101">
<rect width="23" height="23.73" fill="white"/>
</clipPath>
<clipPath id="clip2_18_101">
<rect width="23" height="23.7419" fill="white" transform="translate(0 -0.00585938)"/>
</clipPath>
</defs>
</svg>
