<svg width="60" height="62" viewBox="0 0 60 62" fill="none" xmlns="http://www.w3.org/2000/svg">
<path d="M29.0312 26.1562H30.9688V28.0938H29.0312V26.1562Z" fill="#007DFE"/>
<path d="M29.0312 10.6562H30.9688V24.2188H29.0312V10.6562Z" fill="#007DFE"/>
<path d="M48.9198 38.6027L47.8929 36.9597C47.8861 36.9636 47.2506 37.3579 46.1172 37.9091L46.9648 39.6519C48.201 39.0503 48.8907 38.6202 48.9198 38.6027Z" fill="#007DFE"/>
<path d="M58.0132 30.2773C52.2608 30.7559 46.8397 32.829 42.9724 34.6996C51.5895 24.5617 55.8936 12.6122 56.1009 12.029L56.8672 9.86962L54.7844 10.8238C45.34 15.1532 40.4556 20.2701 38.0357 23.7489C37.993 11.4041 31.1101 1.81446 30.7826 1.36593L29.9999 0.294495L29.2171 1.36593C28.8897 1.81446 22.0067 11.4041 21.9651 23.7489C19.5451 20.2701 14.6607 15.1532 5.21636 10.8238L3.13355 9.86962L3.89983 12.029C4.10714 12.6131 8.4113 24.5627 17.0283 34.6996C13.1611 32.828 7.73995 30.7559 1.98752 30.2773L0.318359 30.1378L1.02845 31.6529C1.13308 31.8767 3.65764 37.201 8.01605 41.386C10.9843 44.236 14.7992 46.3876 18.0135 47.1839C16.0877 48.5673 13.7326 50.9834 12.5982 54.9523L12.2582 56.1429L13.4953 56.1856C13.9458 56.204 23.4221 56.4655 29.0311 51.7807V61.0312H30.9686V51.7826C35.8996 55.9007 43.8172 56.1943 45.9649 56.1943C46.2613 56.1943 46.4483 56.1885 46.5025 56.1865L47.7396 56.1439L47.3996 54.9533C46.2652 50.9843 43.9102 48.5683 41.9843 47.1849C45.1986 46.3886 49.0135 44.237 51.9818 41.3869C56.3402 37.2019 58.8638 31.8786 58.9694 31.6539L59.6795 30.1388L58.0132 30.2773ZM50.642 39.9881C47.0266 43.461 41.7411 45.9546 38.8562 45.54L38.4125 47.4174C38.4629 47.4348 43.0412 49.0168 45.1134 54.2355C42.0783 54.126 34.6073 53.3946 30.9686 49.043V46.1241C34.5249 49.7046 38.18 51.2023 38.3592 51.273L39.078 49.4741C39.0345 49.4566 34.8155 47.7284 31.2331 43.5531C37.0185 43.3545 41.8865 41.8326 45.0204 40.5267L44.2744 38.7384C41.4263 39.9241 37.0834 41.3065 31.9141 41.5933C38.4067 32.4938 46.1674 22.9933 46.2497 22.8925L44.7491 21.6661C44.6697 21.763 37.3605 30.7113 30.9677 39.588V30.0312H29.0302V39.5889C24.7851 33.6931 20.1671 27.8089 17.6067 24.5975L16.0915 25.8046C18.7692 29.1623 23.703 35.4533 28.0885 41.602C18.837 41.0847 12.1768 37.0033 12.1051 36.9588L11.0783 38.6018C11.3921 38.7984 18.5977 43.2121 28.7483 43.5589C27.4792 45.0372 26.0077 46.3779 24.3395 47.5327L25.4429 49.1263C26.7507 48.2205 27.9423 47.2033 29.0302 46.1067V49.043C25.3983 53.3868 17.9215 54.1221 14.8845 54.2345C16.9315 49.0575 21.3858 47.4862 21.5863 47.4184L21.1426 45.5409C18.2567 45.9546 12.9722 43.462 9.3568 39.989C6.65786 37.3976 4.66902 34.2627 3.62083 32.4144C13.1737 33.7958 21.6125 39.4901 21.7025 39.5512L22.9028 38.037C14.1415 30.0031 8.67577 18.506 6.63461 13.6652C19.5694 20.2982 22.2683 28.3011 22.2945 28.3824L24.1787 27.962C22.6635 16.8466 27.9471 7.02053 30.0009 3.70062C32.0556 7.01665 37.3391 16.8291 35.8211 27.962L37.7044 28.3853C37.7315 28.3011 40.4324 20.2963 53.3661 13.6642C51.3269 18.5021 45.8661 29.9944 37.095 38.0351L38.2963 39.5492C38.3854 39.4882 46.8116 33.7948 56.378 32.4124C55.3327 34.2589 53.3468 37.3918 50.642 39.9881Z" fill="#121E36"/>
<path d="M13.751 22.8954C13.751 22.8954 14.1801 23.4205 14.9193 24.3389L16.4296 23.1241C15.6827 22.196 15.2496 21.6671 15.2496 21.6671L13.751 22.8954Z" fill="#007DFE"/>
<path d="M21.6407 51.275C21.6756 51.2604 22.5077 50.9262 23.7458 50.2055L22.7712 48.5305C21.6668 49.1718 20.9286 49.4721 20.9209 49.476L21.6407 51.275Z" fill="#007DFE"/>
</svg>
