<svg width="63" height="62" viewBox="0 0 63 62" fill="none" xmlns="http://www.w3.org/2000/svg">
<path d="M35.5163 17.3386H33.0263C32.9306 16.0101 33.5837 13.3716 31.5005 13.3248C29.4194 13.3716 30.0704 16.0122 29.9748 17.3386C28.6443 17.4342 26.0058 16.7812 25.959 18.8643C26.0058 20.9475 28.6484 20.2945 29.9748 20.3901C30.0704 21.7205 29.4174 24.3591 31.5005 24.4058C33.5837 24.3591 32.9306 21.7165 33.0263 20.3901H35.5163C37.512 20.3819 37.512 17.3467 35.5163 17.3386Z" fill="#007DFE"/>
<path d="M31.5003 7.94409C17.0667 8.38554 17.0647 29.3392 31.4962 29.7847C45.9339 29.3371 45.9258 8.40385 31.5003 7.94409ZM23.6295 18.8664C23.8899 8.48726 39.1046 8.48726 39.3671 18.8644C39.0965 29.2375 23.896 29.2436 23.6295 18.8664Z" fill="#007DFE"/>
<path d="M56.6899 57.4699H55.5975V5.157C55.5934 2.5917 53.5143 0.512614 50.949 0.508545H12.0525C9.48725 0.512614 7.40816 2.5917 7.40409 5.157V57.4699H6.31166C4.33021 57.476 4.3058 60.5132 6.31166 60.5214H56.6899C58.6652 60.5153 58.7018 57.478 56.6899 57.4699ZM29.975 57.4699H20.8795L20.9324 37.2283L29.975 37.2527V57.4699ZM42.1261 57.4699H33.0265V37.2527L42.1261 37.2751V57.4699ZM52.5459 57.4699H45.1776V37.2751C45.1695 35.5662 43.7881 34.1849 42.0793 34.1768H20.9324C19.2175 34.1788 17.828 35.5682 17.8239 37.2832V57.4699H10.4556V5.157C10.4576 4.27613 11.1717 3.56208 12.0525 3.56005H50.949C51.8299 3.56208 52.5439 4.27613 52.5459 5.157V57.4699Z" fill="black"/>
</svg>
