<svg width="20" height="13" viewBox="0 0 20 13" fill="none" xmlns="http://www.w3.org/2000/svg">
<path d="M10.0456 12.8161C9.85688 12.8173 9.66976 12.7775 9.49502 12.699C9.32027 12.6204 9.16133 12.5047 9.02732 12.3585L0.421802 2.88964C0.151727 2.59247 0 2.18942 0 1.76916C0 1.3489 0.151727 0.945856 0.421802 0.648687C0.691877 0.351518 1.05818 0.18457 1.44012 0.18457C1.82206 0.18457 2.18836 0.351518 2.45844 0.648687L10.0456 9.01281L17.6328 0.664469C17.9072 0.405929 18.2601 0.27083 18.6211 0.286171C18.9821 0.301512 19.3245 0.466164 19.5799 0.747222C19.8354 1.02828 19.985 1.40504 19.9989 1.80222C20.0129 2.1994 19.8901 2.58774 19.6551 2.88964L11.0496 12.3585C10.7825 12.65 10.4219 12.8144 10.0456 12.8161Z" fill="black"/>
</svg>
