<svg width="58" height="62" viewBox="0 0 58 62" fill="none" xmlns="http://www.w3.org/2000/svg">
<path d="M12.4175 6.0212C12.7078 6.31148 13.0882 6.45591 13.4673 6.45591C13.8477 6.45591 14.2268 6.31077 14.5171 6.0212C15.0969 5.44136 15.0969 4.50221 14.5171 3.92237L11.0296 0.434879C10.4497 -0.14496 9.51057 -0.14496 8.93073 0.434879C8.35089 1.01472 8.35089 1.95388 8.93073 2.53371L12.4175 6.0212Z" fill="#007DFE"/>
<path d="M44.5305 6.45664C44.9109 6.45664 45.2914 6.3115 45.5816 6.02194L49.0691 2.53445C49.649 1.95461 49.649 1.01545 49.0691 0.435612C48.4893 -0.144227 47.5501 -0.144227 46.9703 0.435612L43.4814 3.9231C42.9015 4.50294 42.9015 5.4421 43.4814 6.02194C43.771 6.3115 44.1521 6.45664 44.5305 6.45664Z" fill="#007DFE"/>
<path d="M28.5697 12.2908C29.9034 12.2655 31.1504 12.9327 31.8578 14.0564C32.1403 14.5059 32.6229 14.7504 33.1154 14.7504C33.3873 14.7504 33.6593 14.6778 33.9059 14.5221C34.5999 14.0853 34.8084 13.168 34.3716 12.4761C33.1062 10.4661 30.8284 9.2479 28.4879 9.32258C27.6686 9.34442 27.0218 10.0278 27.0436 10.8472C27.0676 11.6652 27.7545 12.2471 28.5697 12.2908Z" fill="#007DFE"/>
<path d="M55.0382 15.026C51.1519 14.3898 47.1698 14.3616 43.1793 14.8724C42.7171 11.7851 41.3214 8.93729 39.0394 6.71587C36.2318 3.98294 32.5273 2.52736 28.6065 2.64149C21.6449 2.82608 15.8754 8.1475 14.8243 14.8681C10.7879 14.3362 6.6121 14.3869 2.9217 15.0316C1.44779 15.3127 0.418457 16.5541 0.418457 18.0513V57.9552C0.418457 58.5534 0.712252 59.11 1.20895 59.4453C1.51684 59.6539 2.15657 59.768 2.52856 59.7187L4.0074 59.4996C11.5439 58.4117 19.029 58.9902 26.2632 61.2306L28.565 61.9359C28.7059 61.9781 28.8531 62 28.9997 62C29.1575 62 29.9297 61.7696 29.9297 61.7696C37.6416 59.1001 45.9341 58.3187 53.9215 59.4989C53.9215 59.4989 54.8423 59.5559 55.1396 59.6292C55.7096 59.7708 56.3014 59.7779 56.7911 59.4446C57.199 59.1691 57.5816 58.4477 57.5816 57.9545V18.0506C57.5809 16.5534 56.5515 15.312 55.0382 15.026ZM28.6861 5.60973C28.7911 5.60621 28.8961 5.60621 29.0018 5.60621C31.9975 5.60621 34.8164 6.74828 36.9673 8.84359C39.1965 11.0129 40.4238 13.9205 40.4238 17.0304C40.4238 20.2128 39.081 23.2748 36.737 25.4314C35.4138 26.6509 34.6853 28.2516 34.6853 29.9411C34.6853 31.792 33.179 33.2976 31.3289 33.2976H30.4827V25.4927C30.4827 24.6733 29.8176 24.0082 28.9983 24.0082C28.1789 24.0082 27.5138 24.6733 27.5138 25.4927V33.2969H26.6676C24.8168 33.2969 23.3112 31.7906 23.3112 29.9404C23.3112 28.2495 22.5827 26.6488 21.2596 25.4307C18.8909 23.2501 17.5473 20.1543 17.5727 16.9353C17.6227 10.8515 22.6073 5.77107 28.6861 5.60973ZM29.0032 40.4712C27.046 40.4712 25.4544 38.8783 25.4544 36.9203V36.1432C25.8475 36.22 26.2519 36.2658 26.6669 36.2658H31.3289C31.7368 36.2658 32.1356 36.2193 32.5217 36.1454V36.9203C32.5217 38.8783 30.9428 40.4712 29.0032 40.4712ZM3.57622 56.5609L3.38952 56.5919L3.45645 17.9533C6.88546 17.3566 10.8753 17.3164 14.6939 17.8427C14.9081 21.5578 16.4954 25.0847 19.2488 27.6176C19.954 28.2643 20.3415 29.0915 20.3415 29.9411C20.3415 31.8202 21.1806 33.4906 22.484 34.6503V36.9211C22.484 40.0027 24.6392 42.5757 27.5152 43.2535V58.509L27.1362 58.3934C19.482 56.0191 11.558 55.404 3.57622 56.5609ZM54.6119 56.5968L54.347 56.5609C46.4103 55.3808 38.2017 56.1142 30.4841 58.5357V43.2528C33.3481 42.5757 35.492 40.0027 35.492 36.9203V34.6665C36.8081 33.5068 37.6543 31.8286 37.6543 29.9404C37.6543 29.0901 38.0439 28.2636 38.7491 27.6147C41.4969 25.0861 43.0934 21.5564 43.3075 17.8455C47.0959 17.3383 50.88 17.3629 54.6119 18.0506V56.5968Z" fill="#121E36"/>
<path d="M9.37949 30.7204H14.1535C14.9729 30.7204 15.638 30.0553 15.638 29.2359C15.638 28.4166 14.9729 27.7515 14.1535 27.7515H9.37949C8.56011 27.7515 7.89502 28.4166 7.89502 29.2359C7.89502 30.0546 8.56011 30.7204 9.37949 30.7204Z" fill="#007DFE"/>
<path d="M9.37953 40.038H17.8636C18.6844 40.038 19.3481 39.373 19.3481 38.5536C19.3481 37.7342 18.6844 37.0691 17.8636 37.0691H9.37953C8.55874 37.0691 7.89294 37.7342 7.89294 38.5536C7.89294 39.373 8.55874 40.038 9.37953 40.038Z" fill="#007DFE"/>
<path d="M20.2795 45.7871H9.37953C8.55874 45.7871 7.89294 46.4522 7.89294 47.2716C7.89294 48.091 8.55803 48.7561 9.37953 48.7561H20.2795C21.0989 48.7561 21.764 48.091 21.764 47.2716C21.764 46.4522 21.0989 45.7871 20.2795 45.7871Z" fill="#007DFE"/>
<path d="M42.3632 29.8355C42.3632 30.6549 43.0282 31.32 43.8497 31.32H48.6223C49.4417 31.32 50.1068 30.6549 50.1068 29.8355C50.1068 29.0162 49.4417 28.3511 48.6223 28.3511H43.8497C43.0282 28.3511 42.3632 29.0162 42.3632 29.8355Z" fill="#007DFE"/>
<path d="M48.6197 37.0691H40.1356C39.3148 37.0691 38.6511 37.7342 38.6511 38.5536C38.6511 39.373 39.3148 40.038 40.1356 40.038H48.6197C49.4405 40.038 50.1063 39.373 50.1063 38.5536C50.1063 37.7342 49.4405 37.0691 48.6197 37.0691Z" fill="#007DFE"/>
<path d="M47.5578 45.7778H37.716C36.8967 45.7778 36.2316 46.4429 36.2316 47.2623C36.2316 48.0817 36.8967 48.7468 37.716 48.7468H47.5578C48.3772 48.7468 49.0423 48.0817 49.0423 47.2623C49.0423 46.4429 48.3765 45.7778 47.5578 45.7778Z" fill="#007DFE"/>
</svg>
