<svg width="63" height="62" viewBox="0 0 63 62" fill="none" xmlns="http://www.w3.org/2000/svg">
<g clip-path="url(#clip0_118_775)">
<path d="M60.9977 0H34.5513C33.9896 0 33.5342 0.45544 33.5342 1.01717V57.9785C33.5342 58.5402 33.9896 58.9957 34.5513 58.9957H35.5685V61.03H37.6028V58.9957H57.9462V61.03H59.9805V58.9957H60.9977C61.5594 58.9957 62.0148 58.5402 62.0148 57.9785V1.01717C62.0148 0.45544 61.5594 0 60.9977 0ZM59.9805 56.9613H35.5685V21.3605H59.9805V56.9613ZM59.9805 19.3262H35.5685V2.03433H59.9805V19.3262Z" fill="black"/>
<path d="M38.6201 7.12018H40.6545V17.2918H38.6201V7.12018Z" fill="#007DFE"/>
<path d="M38.6201 23.3948H40.6545V37.6352H38.6201V23.3948Z" fill="#007DFE"/>
<path d="M2.00203 58.9957H3.0192V61.03H5.05353V58.9957H27.4312V61.03H29.4655V58.9957H30.4827C31.0444 58.9957 31.4999 58.5402 31.4999 57.9785V22.3777C31.4999 21.8159 31.0444 21.3605 30.4827 21.3605H2.00203C1.4403 21.3605 0.984863 21.8159 0.984863 22.3777V57.9785C0.984863 58.5402 1.4403 58.9957 2.00203 58.9957ZM3.0192 23.3948H29.4655V29.4978H3.0192V23.3948ZM3.0192 31.5322H29.4655V56.9613H3.0192V31.5322Z" fill="black"/>
<path d="M16.2425 32.5493C10.0631 32.5493 5.05371 37.5587 5.05371 43.7381C5.05371 49.9176 10.0631 54.927 16.2425 54.927C22.422 54.927 27.4314 49.9176 27.4314 43.7381C27.4239 37.5616 22.4191 32.5568 16.2425 32.5493ZM16.2425 52.8926C12.2221 52.8991 8.66743 50.2817 7.4809 46.44C6.29438 42.5988 7.75308 38.4323 11.0767 36.17C14.4004 33.9082 18.8113 34.0795 21.9497 36.5927L20.5044 38.0419C17.5671 35.8139 13.416 36.1904 10.9273 38.9111C8.43897 41.6313 8.43251 45.7993 10.9128 48.527C13.3932 51.2551 17.5428 51.644 20.487 49.4249L21.9497 50.8876C20.3316 52.1874 18.3181 52.8946 16.2425 52.8926ZM18.5749 47.5088L19.0358 47.9697C16.912 49.3807 14.0716 49.0018 12.3929 47.0827C10.7137 45.1636 10.7157 42.2978 12.3969 40.3807C14.0781 38.4636 16.919 38.0876 19.0407 39.5016L18.5749 39.9675C18.3842 40.1582 18.2769 40.417 18.2769 40.6866V46.7896C18.2769 47.0593 18.3842 47.3181 18.5749 47.5088ZM23.388 49.4413L20.3112 46.3685V41.1078L23.388 38.031C26.0665 41.3641 26.0665 46.1122 23.388 49.4453V49.4413Z" fill="#007DFE"/>
<path d="M5.05371 25.4292H7.08804V27.4635H5.05371V25.4292Z" fill="#007DFE"/>
<path d="M9.12207 25.4292H11.1564V27.4635H9.12207V25.4292Z" fill="#007DFE"/>
<path d="M13.1909 25.4292H15.2253V27.4635H13.1909V25.4292Z" fill="#007DFE"/>
<path d="M21.3281 25.4292H27.4311V27.4635H21.3281V25.4292Z" fill="#007DFE"/>
<path d="M2.00203 19.3262H30.4827C31.0444 19.3262 31.4999 18.8707 31.4999 18.309V1.01717C31.4999 0.45544 31.0444 0 30.4827 0H2.00203C1.4403 0 0.984863 0.45544 0.984863 1.01717V18.309C0.984863 18.8707 1.4403 19.3262 2.00203 19.3262ZM23.3625 2.03433H29.4655V17.2918H23.3625V2.03433ZM3.0192 2.03433H21.3282V17.2918H3.0192V2.03433Z" fill="black"/>
<path d="M25.397 4.06866H27.4313V6.103H25.397V4.06866Z" fill="#007DFE"/>
<path d="M25.397 8.13733H27.4313V10.1717H25.397V8.13733Z" fill="#007DFE"/>
<path d="M18.2769 4.06866H6.07088C5.50915 4.06866 5.05371 4.5241 5.05371 5.08583V14.2403C5.05371 14.8021 5.50915 15.2575 6.07088 15.2575H18.2769C18.8386 15.2575 19.294 14.8021 19.294 14.2403V5.08583C19.294 4.5241 18.8386 4.06866 18.2769 4.06866ZM17.2597 13.2232H7.08804V6.103H17.2597V13.2232Z" fill="#007DFE"/>
<path d="M26.4139 12.7146C25.5711 12.7146 24.8882 13.3975 24.8882 14.2403C24.8882 15.0832 25.5711 15.7661 26.4139 15.7661C27.2568 15.7661 27.9397 15.0832 27.9397 14.2403C27.9397 13.3975 27.2568 12.7146 26.4139 12.7146ZM26.4139 14.7489C26.1328 14.7489 25.9054 14.5214 25.9054 14.2403C25.9054 13.9592 26.1328 13.7317 26.4139 13.7317C26.695 13.7317 26.9225 13.9592 26.9225 14.2403C26.9225 14.5214 26.695 14.7489 26.4139 14.7489Z" fill="#007DFE"/>
</g>
<defs>
<clipPath id="clip0_118_775">
<rect width="61.03" height="61.03" fill="white" transform="translate(0.984863)"/>
</clipPath>
</defs>
</svg>
