<svg width="63" height="62" viewBox="0 0 63 62" fill="none" xmlns="http://www.w3.org/2000/svg">
<g clip-path="url(#clip0_118_717)">
<path d="M61.7961 55.3325L53.5999 29.1462C54.5045 28.6405 55.1235 27.6855 55.1235 26.5781C55.1235 25.3766 54.3987 24.3437 53.3663 23.8832L55.844 13.9721C56.0189 13.2738 56.1079 12.5552 56.1079 11.8338V11.0004C56.1079 8.59144 54.4218 6.57759 52.1705 6.05178V0.00109863H50.2019V5.9744C48.4504 6.25365 46.9614 7.42014 46.2861 9.10908L46.2645 9.16436L46.2429 9.10908C45.5676 7.42014 44.0781 6.25365 42.3272 5.9744V0.00109863H40.3585V6.05082C38.1072 6.57759 36.4212 8.59048 36.4212 10.9994C36.4212 12.2712 36.5774 13.5429 36.8869 14.7791L39.1622 23.8832C38.1298 24.3437 37.4055 25.3766 37.4055 26.5781C37.4055 27.6855 38.0245 28.6405 38.9291 29.1462L30.7324 55.3325C30.1883 57.0719 30.6786 58.9463 32.0133 60.2248C32.0219 60.2335 32.032 60.2426 32.0416 60.2503C32.5939 60.767 33.3124 61.026 34.031 61.026C34.7606 61.026 35.4897 60.7593 36.0448 60.2267L36.4361 59.8528C36.7903 59.512 37.3877 59.513 37.7419 59.8519L38.1327 60.2267C39.2439 61.2918 41.0525 61.2918 42.1638 60.2267L42.5535 59.8528C42.9078 59.512 43.5052 59.513 43.8599 59.8519L44.2507 60.2267C45.3619 61.2918 47.1691 61.2918 48.2803 60.2267L48.671 59.8519C49.0243 59.513 49.6232 59.513 49.9764 59.8519L50.3672 60.2267C51.4775 61.2938 53.2856 61.2918 54.3968 60.2267L54.7876 59.8528C55.1423 59.512 55.7397 59.513 56.0939 59.8519L56.4847 60.2267C57.5873 61.2832 59.3747 61.2909 60.4869 60.2522C60.497 60.2426 60.5076 60.2335 60.5167 60.2248C61.8505 58.9463 62.3417 57.0719 61.7961 55.3325ZM40.3585 27.5625C39.8159 27.5625 39.3742 27.1217 39.3742 26.5781C39.3742 26.035 39.8159 25.5938 40.3585 25.5938H52.1705C52.7127 25.5938 53.1549 26.035 53.1549 26.5781C53.1549 27.1217 52.7127 27.5625 52.1705 27.5625H40.3585ZM38.3898 11.0004C38.3898 9.27779 39.7914 7.87578 41.5139 7.87578C42.7996 7.87578 43.9373 8.64672 44.415 9.83964L45.3508 12.1784C45.5008 12.5523 45.8617 12.7975 46.2645 12.7975C46.6668 12.7975 47.0282 12.5523 47.1777 12.1784L48.114 9.83964C48.5913 8.64672 49.7304 7.87578 51.0146 7.87578C52.7372 7.87578 54.1392 9.27779 54.1392 11.0004V11.8338C54.1392 12.3942 54.07 12.9532 53.9344 13.4953L51.4015 23.6251H41.127L38.7964 14.3028C38.5263 13.2228 38.3898 12.1116 38.3898 11.0004ZM35.0735 58.4301L34.6817 58.8055C34.3275 59.1448 33.7311 59.1448 33.3773 58.8055C33.3706 58.7983 33.3629 58.7916 33.3557 58.7849C32.579 58.0269 32.294 56.932 32.6107 55.9203L40.8704 29.5312H42.1104L36.4764 57.701C35.9622 57.8092 35.4734 58.0485 35.0735 58.4301ZM41.19 58.4301L40.8002 58.8055C40.446 59.1439 39.8485 59.1439 39.4953 58.8055L39.1036 58.4292C38.9017 58.2364 38.6715 58.0899 38.4312 57.9668L44.1185 29.5312H45.2802V58.4873L45.2201 58.4301C44.1108 57.3655 42.3027 57.3655 41.19 58.4301ZM53.0337 58.8055C52.6805 59.1458 52.084 59.1439 51.7293 58.8055L51.3376 58.4292C50.2264 57.3665 48.4192 57.3655 47.3089 58.4301L47.2488 58.4873V29.5312H48.4101L54.0979 57.9678C53.8575 58.0908 53.6273 58.2374 53.4255 58.4316L53.0337 58.8055ZM59.1738 58.7849C59.1661 58.7916 59.1584 58.7993 59.1512 58.8055C58.797 59.1429 58.1996 59.1429 57.8473 58.8055L57.4556 58.4292C57.0566 58.0476 56.5664 57.8082 56.0526 57.701L50.4181 29.5312H51.6586L59.9183 55.9212C60.2341 56.932 59.9496 58.0269 59.1738 58.7849Z" fill="#007DFE"/>
<path d="M34.2439 24.2307C34.4299 23.9923 34.4967 23.6804 34.4227 23.3872L30.4853 7.63787C30.4108 7.33843 30.2013 7.09235 29.9187 6.97123L23.6248 4.2744V0.985434C23.6248 0.441358 23.1836 0.00109863 22.6405 0.00109863H12.7971C12.2535 0.00109863 11.8128 0.441358 11.8128 0.985434V4.2744L5.51888 6.97123C5.23627 7.09235 5.02672 7.33843 4.95174 7.63787L1.0144 23.3872C0.940861 23.6814 1.00767 23.9923 1.19367 24.2307C1.37968 24.4696 1.66614 24.6095 1.96941 24.6095H6.89109C7.3251 24.6095 7.70913 24.324 7.83409 23.9078L9.22408 19.2754L9.84698 28.6117C9.88062 29.1298 10.3108 29.5312 10.8284 29.5312H24.6091C25.1268 29.5312 25.5569 29.1298 25.5915 28.6117L26.2144 19.2754L27.6044 23.9078C27.7284 24.324 28.1125 24.6095 28.5465 24.6095H33.4681C33.7714 24.6095 34.0579 24.4696 34.2439 24.2307ZM17.7188 15.7764L14.1938 5.90711H21.2437L17.7188 15.7764ZM13.7814 1.96977H21.6561V3.93844H13.7814V1.96977ZM6.15861 22.6408H3.23011L6.74354 8.58856L7.27175 8.36314L8.81843 13.776L6.15861 22.6408ZM10.8265 13.7169C10.8227 13.6482 10.8097 13.579 10.7909 13.5122L9.09575 7.57971L12.2223 6.23971L16.7344 18.8741V27.5625H11.7498L10.8265 13.7169ZM23.6878 27.5625H18.7031V18.8741L23.2153 6.23971L26.3413 7.57971L24.6466 13.5112L24.6601 13.515C24.6413 13.5809 24.6149 13.6453 24.611 13.7159L23.6878 27.5625ZM29.2789 22.6408L26.6191 13.7751L28.1653 8.36218L28.694 8.58856L32.207 22.6408H29.2789Z" fill="black"/>
<path d="M24.6093 31.4998H10.8286C10.285 31.4998 9.84424 31.9401 9.84424 32.4842V60.0455C9.84424 60.5901 10.285 61.0299 10.8286 61.0299H14.7659C15.2499 61.0299 15.6628 60.6776 15.7382 60.1993L17.7189 47.6548L19.6991 60.1993C19.7751 60.6776 20.1874 61.0299 20.6719 61.0299H24.6093C25.1524 61.0299 25.5936 60.5901 25.5936 60.0455V32.4842C25.5936 31.9401 25.1524 31.4998 24.6093 31.4998ZM23.6249 59.0612H21.5126L18.6903 41.1898C18.6158 40.7111 18.2029 40.3588 17.7189 40.3588C17.2344 40.3588 16.8221 40.7111 16.7461 41.1898L13.9253 59.0612H11.8129V33.4685H23.6249V59.0612Z" fill="black"/>
</g>
<defs>
<clipPath id="clip0_118_717">
<rect width="61.03" height="61.03" fill="white" transform="translate(0.985107)"/>
</clipPath>
</defs>
</svg>
