<svg width="62" height="62" viewBox="0 0 62 62" fill="none" xmlns="http://www.w3.org/2000/svg">
<path d="M42.0195 36.5703C43.0211 36.5703 43.8359 37.3743 43.8359 38.3625H47.4688C47.4688 36.005 45.9501 33.995 43.8359 33.2486V29.3047H40.2031V33.2499C38.0889 33.9997 36.5703 36.0187 36.5703 38.3867C36.5703 41.3914 39.0148 43.8359 42.0195 43.8359C43.0211 43.8359 43.8359 44.6508 43.8359 45.6523C43.8359 46.6539 43.0211 47.4688 42.0195 47.4688C41.018 47.4688 40.2031 46.6539 40.2031 45.6523H36.5703C36.5703 48.0203 38.0889 50.0393 40.2031 50.7891V54.7102H43.8359V50.7891C45.9501 50.0393 47.4688 48.0203 47.4688 45.6523C47.4688 42.6476 45.0242 40.2031 42.0195 40.2031C41.018 40.2031 40.2031 39.3883 40.2031 38.3867C40.2031 37.3852 41.018 36.5703 42.0195 36.5703Z" fill="#007DFE"/>
<path d="M42.0195 22.0391C41.4072 22.0391 40.8016 22.0684 40.2031 22.1225V10.8984C40.2031 7.74867 37.9571 4.89098 33.8789 2.85188C30.2008 1.01283 25.351 0 20.2227 0C15.0839 0 10.1952 1.01077 6.45708 2.84595C2.29327 4.89037 0 7.75 0 10.8984V43.8359C0 46.9844 2.29327 49.8441 6.45708 51.8884C10.1952 53.7236 15.0839 54.7344 20.2227 54.7344C22.2823 54.7344 24.2971 54.5699 26.2307 54.2495C29.8891 58.9616 35.6058 62 42.0195 62C53.0368 62 62 53.0368 62 42.0195C62 31.0023 53.0368 22.0391 42.0195 22.0391ZM8.05818 6.107C11.2607 4.5346 15.6945 3.63281 20.2227 3.63281C29.8566 3.63281 36.5703 7.46192 36.5703 10.8984C36.5703 14.335 29.8566 18.1641 20.2227 18.1641C15.6945 18.1641 11.2607 17.2623 8.05818 15.6899C5.24578 14.3092 3.63281 12.5627 3.63281 10.8984C3.63281 9.23413 5.24578 7.48771 8.05818 6.107ZM3.63281 17.2274C4.44705 17.8495 5.39013 18.4271 6.45708 18.9509C10.1952 20.7861 15.0839 21.7969 20.2227 21.7969C25.351 21.7969 30.2008 20.784 33.8789 18.945C34.8911 18.4388 35.7901 17.8823 36.5703 17.2833V22.7943C32.9501 23.8218 29.7456 25.847 27.273 28.5521C25.0599 29.0514 22.6913 29.3047 20.2227 29.3047C15.6945 29.3047 11.2607 28.4029 8.05818 26.8305C5.24578 25.4498 3.63281 23.7034 3.63281 22.0391V17.2274ZM3.63281 28.368C4.44705 28.9901 5.39013 29.5677 6.45708 30.0916C10.1952 31.9267 15.0839 32.9375 20.2227 32.9375C21.625 32.9375 23.0008 32.8623 24.3424 32.7148C23.1489 34.9732 22.3756 37.486 22.1272 40.1494C21.4962 40.184 20.86 40.2031 20.2227 40.2031C15.6945 40.2031 11.2607 39.3013 8.05818 37.7289C5.24578 36.3482 3.63281 34.6018 3.63281 32.9375V28.368ZM20.2227 51.1016C15.6945 51.1016 11.2607 50.1998 8.05818 48.6274C5.24578 47.2467 3.63281 45.5003 3.63281 43.8359V39.2663C4.44705 39.8884 5.39013 40.466 6.45708 40.9899C10.1952 42.8252 15.0839 43.8359 20.2227 43.8359C20.856 43.8359 21.4892 43.82 22.1183 43.789C22.3411 46.3159 23.036 48.709 24.1146 50.8798C22.848 51.026 21.5471 51.1016 20.2227 51.1016ZM42.0195 58.3672C33.0054 58.3672 25.6719 51.0336 25.6719 42.0195C25.6719 33.0054 33.0054 25.6719 42.0195 25.6719C51.0336 25.6719 58.3672 33.0054 58.3672 42.0195C58.3672 51.0336 51.0336 58.3672 42.0195 58.3672Z" fill="#121E36"/>
</svg>
