<svg width="63" height="62" viewBox="0 0 63 62" fill="none" xmlns="http://www.w3.org/2000/svg">
<g clip-path="url(#clip0_118_749)">
<path d="M57.5457 59.2346L55.7242 53.77H58.6823L60.5161 39.1066C60.6642 37.9219 60.3423 36.7503 59.6092 35.8078C58.8762 34.8653 57.8201 34.2646 56.6353 34.1165C55.5873 33.9853 54.5779 34.231 53.7418 34.746L53.339 30.3117C53.2029 28.8158 52.5061 27.5083 51.466 26.5846V15.3246H53.5719V23.3779H55.3599V15.3246H59.9996L57.2695 1.21439H43.8744L41.1445 15.3245H49.678V25.5139C49.062 25.2868 48.396 25.1621 47.7002 25.1621H35.0788C33.8842 25.1621 32.7612 25.6275 31.9168 26.4726C31.7644 26.6253 31.6247 26.7871 31.4975 26.9568C30.6814 25.8679 29.381 25.1621 27.9186 25.1621H15.2884C12.3384 25.1621 9.91408 27.3778 9.64922 30.3159L9.25014 34.7437C8.41611 34.2314 7.41018 33.9865 6.36564 34.1161C3.91955 34.4195 2.17638 36.6562 2.47975 39.1022L4.29885 53.7698H7.27597L5.45448 59.2344H0.985107V61.0224H62.0151V59.2344H57.5457V59.2346ZM45.3496 3.00237H55.7943L57.8324 13.5366H43.3116L45.3496 3.00237ZM56.4135 35.8907C57.1244 35.9796 57.758 36.34 58.1978 36.9055C58.6375 37.4711 58.8308 38.174 58.7419 38.8848L57.1039 51.982H52.4738V45.7799L53.4194 38.2191C53.603 36.7517 54.9467 35.7068 56.4135 35.8907ZM12.1987 44.8301L12.0374 43.5302C11.9843 43.1006 12.113 42.6853 12.3996 42.3609C12.6864 42.0363 13.083 41.8575 13.5162 41.8575H29.1106C29.9323 41.8575 30.6006 42.5259 30.6006 43.3475V44.8301H12.1987ZM50.7905 44.8301H32.4016V43.3475C32.4016 42.5259 33.07 41.8575 33.8916 41.8575H48.1242C48.8932 41.8575 49.626 42.188 50.1349 42.7646C50.6343 43.3304 50.872 44.081 50.7905 44.8301ZM11.4301 30.4765C11.6112 28.4662 13.27 26.9502 15.2884 26.9502H27.9186C29.3976 26.9502 30.6006 28.1534 30.6006 29.6322V34.6945H32.3886V29.6343H32.3968C32.3964 28.9176 32.6749 28.2436 33.1816 27.7366C33.6884 27.2295 34.3621 26.9502 35.0788 26.9502H47.7001C49.717 26.9502 51.3756 28.4649 51.5582 30.4736L52.1064 36.5056C51.8721 36.9596 51.7122 37.4616 51.6453 37.9974L51.2289 41.3262C50.399 40.5246 49.2869 40.0698 48.1241 40.0698H33.8915C33.3501 40.0698 32.8392 40.2023 32.3886 40.4357V36.4749H30.6006V40.4285C30.1533 40.1993 29.6469 40.0695 29.1106 40.0695H13.5162C12.855 40.0695 12.2159 40.2704 11.6782 40.6344L11.3517 38.0021C11.2849 37.4626 11.1236 36.9575 10.8871 36.5007L11.4301 30.4765ZM4.25427 38.8824C4.07225 37.4148 5.11822 36.0728 6.5858 35.8907C8.05338 35.7084 9.39557 36.7546 9.57758 38.2222L10.5148 45.7794V51.982H5.87895L4.25427 38.8824ZM20.7871 53.77V51.982H12.3027V46.6181H50.6859V51.982H22.6397V53.77H53.8395L55.625 59.1266H53.0994L51.9074 55.5506H11.0928L9.90085 59.1266H7.37526L9.16074 53.77H20.7871ZM12.3816 57.3385H50.6186L51.2506 59.2345H11.7496L12.3816 57.3385Z" fill="black"/>
<path d="M31.4554 0.00738525H22.5601V1.79537H29.6674V19.8616H2.84756V1.79537H20.7324V0.00738525H1.05957V21.6496H31.4554V0.00738525Z" fill="#007DFE"/>
<path d="M4.99316 17.716H27.5218V3.94095H4.99316V17.716ZM6.78115 15.928V12.1305C7.53854 11.3989 10.193 9.18285 13.8751 9.9493C15.297 10.2453 16.6343 10.795 17.9277 11.3267C20.4721 12.3726 23.0895 13.4478 25.7338 12.0567V15.9281H6.78115V15.928ZM6.78115 5.72894H25.7338V9.92141C23.6431 11.613 21.7224 10.9532 18.6074 9.67276C17.2387 9.11026 15.8236 8.52845 14.2393 8.19874C13.5712 8.05964 12.9323 7.99861 12.3249 7.99861C9.92003 7.99861 8.01308 8.95649 6.78103 9.82212L6.78115 5.72894Z" fill="black"/>
<path d="M16.7791 32.37H18.567V34.158H16.7791V32.37Z" fill="#007DFE"/>
<path d="M23.0967 32.37H24.8847V34.158H23.0967V32.37Z" fill="#007DFE"/>
<path d="M38.2349 32.37H40.0229V34.158H38.2349V32.37Z" fill="#007DFE"/>
<path d="M44.5525 32.37H46.3405V34.158H44.5525V32.37Z" fill="#007DFE"/>
</g>
<defs>
<clipPath id="clip0_118_749">
<rect width="61.03" height="61.03" fill="white" transform="translate(0.985107)"/>
</clipPath>
</defs>
</svg>
