<svg width="62" height="61" viewBox="0 0 62 61" fill="none" xmlns="http://www.w3.org/2000/svg">
<path d="M57.313 16.3742C54.4813 16.0927 53.1721 19.9475 52.4069 22.6921C51.7025 25.2187 51.047 28.5611 50.4584 32.6259C50.2648 33.3954 49.9831 34.1243 49.6212 34.8006C49.5746 34.7242 49.5256 34.649 49.4728 34.5752C48.699 33.4954 47.0576 32.3895 43.6299 33.252C41.004 33.9128 37.5967 35.67 33.5027 38.4747L33.4413 38.5186C32.2808 39.3879 31.3215 40.4009 30.5625 41.547C29.8036 40.4008 28.8444 39.3879 27.6837 38.5186L27.6224 38.4747C23.5284 35.67 20.121 33.9128 17.4952 33.252C14.068 32.3897 12.4259 33.4956 11.6523 34.5752C11.5877 34.6654 11.5295 34.7584 11.4742 34.8526C11.0756 34.1467 10.7693 33.388 10.5657 32.5903C10.0334 28.9201 8.88787 21.859 7.08682 18.6354C5.95129 16.6027 4.62776 16.2837 3.71645 16.3741C-0.243428 16.7675 -0.0877116 24.112 0.0539467 28.3048C0.186074 32.2178 0.601517 35.7104 0.619031 35.8572L0.623916 35.8941C1.29789 40.6672 5.85371 44.9913 10.2597 49.1732C14.0089 52.7316 17.8857 56.4112 17.8857 59.2129V61H43.1436V59.2129C43.1436 56.4113 47.0204 52.7316 50.7696 49.1732C55.1754 44.9913 59.7314 40.6672 60.4054 35.8941L60.4102 35.8572C60.4278 35.7104 60.8432 32.2178 60.9753 28.3048C61.1222 23.9587 61.2242 16.7628 57.313 16.3742ZM28.8469 57.4258H21.2262C20.2786 53.7545 16.592 50.2553 12.7204 46.5808C8.76599 42.8274 4.67696 38.9466 4.16585 35.4128C4.13249 35.1289 3.73718 31.6984 3.62126 28.0275C3.48448 23.6972 3.80723 21.5905 4.08579 20.5998C5.87778 24.1603 6.82554 32.0889 6.82817 32.1008C7.31712 35.5084 9.10399 38.5217 11.8594 40.5855L20.3161 46.9196L22.4587 44.0588L15.5526 38.8861C14.6679 38.2234 14.3642 36.9276 14.5579 36.6571C14.6038 36.5931 15.147 36.3467 16.6232 36.7182C18.1421 37.1004 20.9264 38.2234 25.5704 41.4012C27.3161 42.7181 28.3768 44.3477 28.8469 46.5162V57.4258ZM57.4084 28.0275C57.2923 31.6984 56.8971 35.1289 56.8638 35.4128C56.3527 38.9467 52.2638 42.8274 48.3092 46.5808C44.4378 50.2553 40.7512 53.7545 39.8034 57.4258H32.3977V46.1541L32.3938 46.1349C32.9002 44.1557 33.9135 42.6396 35.5549 41.4014C40.1989 38.2236 42.9833 37.1005 44.5022 36.7183C45.9783 36.3467 46.5215 36.5933 46.5675 36.6572C46.7613 36.9278 46.4575 38.2234 45.5727 38.8861L38.6666 44.0588L40.8092 46.9196L49.2659 40.5854C51.9521 38.5734 53.7049 35.5603 54.2014 32.1008C54.2039 32.0889 55.2026 24.0591 56.9437 20.5998C57.2224 21.5905 57.5452 23.6972 57.4084 28.0275Z" fill="#121E36"/>
<path d="M11 12.6289C11 19.5468 16.1067 23.1183 22.0199 27.2537C24.4829 28.9762 27.0298 30.7574 29.6058 32.9934L30.7759 34.0089L31.9472 32.9947C34.8617 30.4708 37.6441 28.5018 40.099 26.7645C45.9406 22.6304 50.5547 19.3652 50.5547 12.6289C50.5547 5.66526 44.9428 0 38.0449 0C35.3385 0 32.7478 1.17997 30.7773 3.24098C28.8069 1.17997 26.2162 0 23.5098 0C16.6118 0 11 5.66538 11 12.6289ZM29.2595 7.09113L30.7772 9.53256L32.295 7.09113C33.6639 4.88906 35.8134 3.57422 38.0448 3.57422C42.9719 3.57422 46.9804 7.63608 46.9804 12.6289C46.9804 17.3083 44.0762 19.5712 38.0342 23.847C35.8374 25.4016 33.3851 27.1371 30.7752 29.3028C28.4487 27.3881 26.1402 25.7736 24.0681 24.3246C18.5564 20.4699 14.5741 17.6849 14.5741 12.6289C14.5741 7.63608 18.5826 3.57422 23.5097 3.57422C25.741 3.57422 27.8906 4.88906 29.2595 7.09113Z" fill="#007DFE"/>
<path d="M29 22H32V19.033H35V16.0659H32V13H29V16.0659H26V19.033H29V22Z" fill="#121E36"/>
</svg>
