<svg width="63" height="62" viewBox="0 0 63 62" fill="none" xmlns="http://www.w3.org/2000/svg">
<path d="M15.1172 33.9828C12.9003 31.8822 4.03539 31.202 1.37104 31.0441C1.00375 31.0389 0.664845 31.1502 0.406207 31.3933C0.147447 31.6366 0 31.978 0 32.335V55.6161C0 56.3301 0.579481 56.9095 1.29343 56.9095H9.0538C9.61255 56.9095 10.1092 56.5473 10.2825 56.0171C10.4713 55.4376 14.9284 41.7588 15.5155 35.0331C15.5492 34.6398 15.4043 34.2518 15.1172 33.9828ZM8.10958 54.3227H2.58675V33.7216C6.74376 34.0501 11.2318 34.764 12.8589 35.5556C12.1735 41.2206 9.07187 51.2858 8.10958 54.3227Z" fill="#121E36"/>
<path d="M61.9486 49.8602C60.1508 46.2671 56.1724 44.4382 52.2792 45.4135L42.3692 47.8916C41.676 48.0648 41.2543 48.7659 41.4277 49.4592C41.601 50.1524 42.3021 50.5767 42.9953 50.4007L52.9053 47.9277C55.1661 47.3637 57.4684 48.1553 58.8937 49.8833L46.071 55.7139C35.1962 60.1709 34.8211 60.0287 30.1571 58.2696L10.7562 51.8027C10.0733 51.5776 9.34633 51.9424 9.12128 52.62C8.89623 53.2977 9.26097 54.0299 9.93866 54.2549L29.2905 60.7038C31.4659 61.5239 32.9663 61.9998 34.6529 61.9998C37.2759 61.9998 40.349 60.8538 47.1005 58.0833L61.3278 51.6164C61.646 51.4715 61.8943 51.2026 62.0107 50.8714C62.1271 50.538 62.1064 50.1758 61.9486 49.8602Z" fill="#121E36"/>
<path d="M37.7873 41.4195L14.5062 36.2459C13.8181 36.1037 13.1171 36.533 12.9619 37.2289C12.8092 37.9274 13.2465 38.618 13.9449 38.7732L37.1924 43.9391C40.0586 44.6556 41.2098 45.7835 41.3675 48.1452L38.8842 48.7661C37.9659 48.9963 36.9855 49.0221 36.0491 48.8333L24.8276 46.5881C24.1189 46.4406 23.4463 46.901 23.3066 47.6021C23.1669 48.3031 23.6196 48.9835 24.3207 49.1231L35.5447 51.3684C36.1267 51.4848 36.7243 51.5417 37.3193 51.5417C38.059 51.5417 38.8015 51.4511 39.5129 51.2726L42.9948 50.4035C43.5716 50.2586 43.9751 49.7413 43.9751 49.1489V48.7401C43.975 44.7461 42.0788 42.4905 37.7873 41.4195Z" fill="#121E36"/>
<path d="M60.7895 28.4546H11.6406C10.9266 28.4546 10.3472 29.0341 10.3472 29.748C10.3472 30.462 10.9266 31.0413 11.6406 31.0413H60.7895C61.5035 31.0413 62.083 30.4619 62.083 29.7479C62.083 29.0339 61.5035 28.4546 60.7895 28.4546Z" fill="#007DFE"/>
<path d="M36.2147 5.17383C23.379 5.17383 12.9336 15.6193 12.9336 28.4549V29.7484C12.9336 30.4623 13.5131 31.0418 14.227 31.0418H58.2024C58.9163 31.0418 59.4958 30.4623 59.4958 29.7484V28.4549C59.4958 15.6193 49.0503 5.17383 36.2147 5.17383ZM15.5203 28.4549C15.5203 17.042 24.8043 7.76058 36.2147 7.76058C47.6251 7.76058 56.909 17.0445 56.909 28.4549H15.5203Z" fill="#007DFE"/>
<path d="M36.2149 10.3472C27.7846 10.3472 20.5389 16.0743 18.5936 24.2745C18.4306 24.9704 18.86 25.6661 19.5534 25.8318C19.6542 25.8576 19.7551 25.868 19.8535 25.868C20.4407 25.868 20.971 25.467 21.1106 24.8721C22.7791 17.8438 28.99 12.9342 36.2149 12.9342C36.9288 12.9342 37.5083 12.3547 37.5083 11.6407C37.5083 10.9268 36.9288 10.3472 36.2149 10.3472Z" fill="#007DFE"/>
<path d="M36.2152 0C33.362 0 31.0416 2.32035 31.0416 5.17362V6.46705C31.0416 7.18101 31.6211 7.76049 32.3351 7.76049C33.049 7.76049 33.6285 7.18101 33.6285 6.46705V5.17362C33.6285 3.74826 34.79 2.58687 36.2152 2.58687C37.6406 2.58687 38.802 3.74838 38.802 5.17362V6.46705C38.802 7.18101 39.3815 7.76049 40.0954 7.76049C40.8094 7.76049 41.3889 7.18101 41.3889 6.46705V5.17362C41.3887 2.32035 39.0684 0 36.2152 0Z" fill="#007DFE"/>
<path d="M59.1183 28.8349C58.6139 28.3304 57.7938 28.3304 57.2894 28.8349L52.4935 33.6308H19.9362L15.1403 28.8349C14.6359 28.3304 13.8158 28.3304 13.3114 28.8349C12.807 29.3393 12.807 30.1593 13.3114 30.6638L18.485 35.8374C18.7282 36.0779 19.0568 36.2151 19.4008 36.2151H53.029C53.373 36.2151 53.7016 36.0779 53.9447 35.8374L59.1183 30.6638C59.6227 30.1593 59.6227 29.3393 59.1183 28.8349Z" fill="#007DFE"/>
</svg>
