<svg width="62" height="62" viewBox="0 0 62 62" fill="none" xmlns="http://www.w3.org/2000/svg">
<path d="M19.9209 11.8637H22.4518C22.5517 11.8637 22.6507 11.844 22.743 11.8058C22.8353 11.7675 22.9192 11.7115 22.9899 11.6408C23.0606 11.5701 23.1166 11.4862 23.1548 11.3939C23.1931 11.3015 23.2127 11.2026 23.2127 11.1026V8.57174C23.2127 8.4718 23.1931 8.37284 23.1548 8.2805C23.1166 8.18816 23.0606 8.10426 22.9899 8.03359C22.9192 7.96291 22.8353 7.90685 22.743 7.8686C22.6507 7.83036 22.5517 7.81067 22.4518 7.81067H19.9209C19.719 7.81067 19.5254 7.89085 19.3827 8.03358C19.24 8.17631 19.1598 8.36989 19.1598 8.57174V11.1026C19.1598 11.2026 19.1795 11.3016 19.2177 11.3939C19.256 11.4862 19.312 11.5701 19.3827 11.6408C19.4534 11.7115 19.5373 11.7675 19.6296 11.8058C19.722 11.844 19.8209 11.8637 19.9209 11.8637ZM20.6824 9.33281H21.6913V10.3416H20.6824V9.33281ZM26.1459 11.8637H28.6768C28.7767 11.8637 28.8757 11.844 28.968 11.8058C29.0603 11.7675 29.1442 11.7115 29.2149 11.6408C29.2856 11.5701 29.3416 11.4862 29.3799 11.3939C29.4181 11.3016 29.4378 11.2026 29.4378 11.1026V8.57174C29.4378 8.36989 29.3576 8.17631 29.2149 8.03358C29.0722 7.89085 28.8786 7.81067 28.6768 7.81067H26.1453C25.9434 7.81067 25.7498 7.89085 25.6071 8.03358C25.4644 8.17631 25.3842 8.36989 25.3842 8.57174V11.1026C25.3842 11.2026 25.4039 11.3016 25.4421 11.3939C25.4804 11.4862 25.5364 11.5701 25.6071 11.6408C25.6778 11.7115 25.7617 11.7675 25.854 11.8058C25.9463 11.844 26.0453 11.8637 26.1453 11.8637H26.1459ZM26.9069 9.33281H27.9157V10.3416H26.9063L26.9069 9.33281ZM19.9215 18.1267H22.4524C22.5523 18.1267 22.6513 18.107 22.7436 18.0688C22.8359 18.0305 22.9198 17.9745 22.9905 17.9038C23.0612 17.8331 23.1172 17.7492 23.1554 17.6569C23.1937 17.5645 23.2133 17.4656 23.2133 17.3656V14.8348C23.2133 14.7349 23.1937 14.6359 23.1554 14.5436C23.1172 14.4513 23.0612 14.3674 22.9905 14.2967C22.9198 14.226 22.8359 14.17 22.7436 14.1317C22.6513 14.0935 22.5523 14.0738 22.4524 14.0738H19.9209C19.8209 14.0738 19.722 14.0934 19.6296 14.1317C19.5373 14.1699 19.4534 14.226 19.3827 14.2966C19.312 14.3673 19.2559 14.4512 19.2177 14.5436C19.1795 14.6359 19.1598 14.7349 19.1598 14.8348V17.3656C19.1598 17.4656 19.1795 17.5646 19.2177 17.6569C19.2559 17.7492 19.312 17.8331 19.3827 17.9038C19.4534 17.9745 19.5373 18.0306 19.6296 18.0688C19.722 18.107 19.8209 18.1267 19.9209 18.1267H19.9215ZM20.6824 15.5958H21.6913V16.6047H20.6824V15.5958ZM26.1459 18.1267H28.6768C28.7767 18.1267 28.8757 18.107 28.968 18.0688C29.0604 18.0306 29.1443 17.9745 29.2149 17.9038C29.2856 17.8331 29.3417 17.7492 29.3799 17.6569C29.4182 17.5646 29.4378 17.4656 29.4378 17.3656V14.8348C29.4378 14.7349 29.4182 14.6359 29.3799 14.5436C29.3417 14.4512 29.2856 14.3673 29.2149 14.2966C29.1443 14.226 29.0604 14.1699 28.968 14.1317C28.8757 14.0934 28.7767 14.0738 28.6768 14.0738H26.1453C26.0453 14.0738 25.9463 14.0934 25.854 14.1317C25.7616 14.1699 25.6777 14.226 25.6071 14.2966C25.5364 14.3673 25.4803 14.4512 25.4421 14.5436C25.4038 14.6359 25.3842 14.7349 25.3842 14.8348V17.3656C25.3842 17.4656 25.4038 17.5646 25.4421 17.6569C25.4803 17.7492 25.5364 17.8331 25.6071 17.9038C25.6777 17.9745 25.7616 18.0306 25.854 18.0688C25.9463 18.107 26.0453 18.1267 26.1453 18.1267H26.1459ZM26.9069 15.5958H27.9157V16.6047H26.9063L26.9069 15.5958ZM19.9215 24.3897H22.4524C22.5523 24.3897 22.6513 24.37 22.7436 24.3317C22.8359 24.2935 22.9198 24.2374 22.9905 24.1668C23.0612 24.0961 23.1172 24.0122 23.1554 23.9199C23.1937 23.8275 23.2133 23.7286 23.2133 23.6286V21.0978C23.2133 20.9979 23.1937 20.8989 23.1554 20.8066C23.1172 20.7143 23.0612 20.6304 22.9905 20.5597C22.9198 20.489 22.8359 20.4329 22.7436 20.3947C22.6513 20.3564 22.5523 20.3368 22.4524 20.3368H19.9209C19.719 20.3368 19.5254 20.4169 19.3827 20.5597C19.24 20.7024 19.1598 20.896 19.1598 21.0978V23.6286C19.1598 23.7286 19.1795 23.8275 19.2177 23.9199C19.2559 24.0122 19.312 24.0961 19.3827 24.1668C19.4534 24.2375 19.5373 24.2935 19.6296 24.3318C19.722 24.37 19.8209 24.3897 19.9209 24.3897H19.9215ZM20.6824 21.8589H21.6913V22.8677H20.6824V21.8589ZM26.1459 24.3897H28.6768C28.7767 24.3897 28.8757 24.37 28.968 24.3318C29.0604 24.2935 29.1443 24.2375 29.2149 24.1668C29.2856 24.0961 29.3417 24.0122 29.3799 23.9199C29.4182 23.8275 29.4378 23.7286 29.4378 23.6286V21.0978C29.4378 20.896 29.3576 20.7024 29.2149 20.5597C29.0721 20.417 28.8786 20.3369 28.6768 20.3369H26.1453C25.9434 20.3369 25.7498 20.4171 25.6071 20.5598C25.4644 20.7025 25.3842 20.8961 25.3842 21.0979V23.6287C25.3842 23.7287 25.4039 23.8276 25.4421 23.92C25.4804 24.0123 25.5364 24.0962 25.6071 24.1668C25.6778 24.2375 25.7617 24.2936 25.854 24.3318C25.9464 24.37 26.0453 24.3897 26.1453 24.3897H26.1459ZM26.9069 21.8589H27.9157V22.8677H26.9063L26.9069 21.8589ZM19.9215 30.6528H22.4524C22.5523 30.6528 22.6513 30.6331 22.7436 30.5949C22.8359 30.5566 22.9198 30.5005 22.9905 30.4299C23.0612 30.3592 23.1172 30.2753 23.1554 30.183C23.1937 30.0906 23.2133 29.9917 23.2133 29.8917V27.3608C23.2133 27.2609 23.1937 27.1619 23.1554 27.0696C23.1172 26.9772 23.0612 26.8933 22.9905 26.8227C22.9198 26.752 22.8359 26.6959 22.7436 26.6577C22.6513 26.6194 22.5523 26.5997 22.4524 26.5997H19.9209C19.719 26.5997 19.5254 26.6799 19.3827 26.8227C19.24 26.9654 19.1598 27.159 19.1598 27.3608V29.892C19.1599 30.0938 19.2401 30.2873 19.3828 30.43C19.5255 30.5726 19.7191 30.6528 19.9209 30.6528H19.9215ZM20.6824 28.1219H21.6913V29.1306H20.6824V28.1219ZM26.1459 30.6528H28.6768C28.8786 30.6528 29.0722 30.5726 29.2149 30.4299C29.3576 30.2871 29.4378 30.0936 29.4378 29.8917V27.3608C29.4378 27.159 29.3576 26.9654 29.2149 26.8227C29.0722 26.6799 28.8786 26.5997 28.6768 26.5997H26.1453C25.9434 26.5997 25.7498 26.6799 25.6071 26.8227C25.4644 26.9654 25.3842 27.159 25.3842 27.3608V29.892C25.3842 30.0938 25.4645 30.2873 25.6072 30.43C25.7499 30.5726 25.9434 30.6528 26.1453 30.6528H26.1459ZM26.9069 28.1219H27.9157V29.1306H26.9063L26.9069 28.1219ZM19.9215 36.9158H22.4524C22.5523 36.9158 22.6513 36.8961 22.7436 36.8578C22.8359 36.8196 22.9198 36.7635 22.9905 36.6928C23.0612 36.6222 23.1172 36.5383 23.1554 36.4459C23.1937 36.3536 23.2133 36.2546 23.2133 36.1547V33.6238C23.2133 33.5239 23.1937 33.4249 23.1554 33.3326C23.1172 33.2402 23.0611 33.1564 22.9905 33.0857C22.9198 33.015 22.8359 32.959 22.7436 32.9207C22.6513 32.8825 22.5523 32.8628 22.4524 32.8628H19.9209C19.8209 32.8628 19.722 32.8825 19.6296 32.9207C19.5373 32.959 19.4534 33.015 19.3827 33.0857C19.312 33.1563 19.256 33.2402 19.2177 33.3326C19.1795 33.4249 19.1598 33.5239 19.1598 33.6238V36.1547C19.1598 36.3565 19.24 36.5501 19.3827 36.6929C19.5254 36.8356 19.719 36.9158 19.9209 36.9158H19.9215ZM20.6824 34.3849H21.6913V35.3936H20.6824V34.3849ZM57.7163 32.2621H53.4818V30.8017C53.4804 29.5096 52.9665 28.2708 52.0528 27.3571C51.1392 26.4434 49.9004 25.9295 48.6083 25.928H45.3477V12.3142C45.3477 12.1123 45.2676 11.9188 45.1248 11.776C44.9821 11.6333 44.7885 11.5531 44.5867 11.5531H33.4333V4.49117C33.4333 4.28932 33.3531 4.09574 33.2104 3.95301C33.0677 3.81029 32.8741 3.7301 32.6723 3.7301H15.9247C15.7228 3.7301 15.5292 3.81029 15.3865 3.95301C15.2438 4.09574 15.1636 4.28932 15.1636 4.49117V16.0996L2.91689 20.3692C2.76775 20.4211 2.63847 20.5181 2.54698 20.6468C2.45548 20.7756 2.4063 20.9295 2.40625 21.0875V55.9181C2.40625 56.12 2.48643 56.3135 2.62916 56.4563C2.77189 56.599 2.96547 56.6792 3.16732 56.6792H25.7921C26.0472 57.1591 26.4281 57.5606 26.8938 57.8407C27.3595 58.1209 27.8927 58.2691 28.4362 58.2696H55.2252C56.0192 58.2687 56.7804 57.9529 57.3419 57.3914C57.9033 56.83 58.2191 56.0687 58.2201 55.2747V44.5969C58.9718 44.134 59.5936 43.5182 59.5936 42.6978V34.0251C59.5937 33.0531 58.7512 32.2621 57.7157 32.2621H57.7163ZM58.0721 34.0254V42.6981C58.0721 42.7092 57.8875 43.8474 51.285 45.2884C47.6777 46.0758 43.6452 46.6228 41.9365 46.8111C40.5992 46.6622 36.5852 46.1299 32.7221 45.2987C25.9232 43.8358 25.5917 42.7005 25.5899 42.6981V34.0251C25.5899 33.9114 25.7421 33.7843 25.9458 33.7843H57.7157C57.9193 33.7843 58.0715 33.9114 58.0715 34.0251L58.0721 34.0254ZM25.4409 55.157H22.0089V47.3123H25.4409V55.157ZM48.6078 30.0898C48.7964 30.0901 48.9772 30.1651 49.1106 30.2985C49.2439 30.4319 49.319 30.6127 49.3192 30.8014V32.2618H45.3477V30.0898H48.6078ZM43.8256 32.2618H33.7986V30.8017C33.7988 30.6131 33.8739 30.4322 34.0073 30.2988C34.1406 30.1655 34.3215 30.0904 34.5101 30.0902H43.8256V32.2618ZM51.9593 30.8014V32.2618H50.8413V30.8017C50.8407 30.2095 50.6051 29.6418 50.1864 29.2231C49.7677 28.8043 49.2 28.5688 48.6078 28.5681H34.5101C33.9179 28.5687 33.3502 28.8043 32.9315 29.223C32.5127 29.6418 32.2772 30.2095 32.2766 30.8017V32.2621H31.1586V30.8017C31.1594 29.913 31.5128 29.061 32.1411 28.4325C32.7695 27.8041 33.6214 27.4506 34.5101 27.4496H48.6078C49.4965 27.4506 50.3484 27.8041 50.9767 28.4326C51.6051 29.061 51.9585 29.913 51.9593 30.8017V30.8014ZM43.8256 13.0748V25.9277H34.5101C34.1478 25.9279 33.7866 25.9686 33.4333 26.049V13.0745L43.8256 13.0748ZM31.9115 5.25212V26.6818C31.2154 27.1206 30.6417 27.7286 30.2439 28.449C29.8462 29.1694 29.6373 29.9788 29.6368 30.8017V32.2621H25.9452C24.9096 32.2621 24.0672 33.0531 24.0672 34.0254V42.6981C24.0672 43.4925 24.6867 44.094 25.4409 44.549V45.7906H21.2479C21.046 45.7906 20.8524 45.8707 20.7097 46.0135C20.567 46.1562 20.4868 46.3498 20.4868 46.5516V55.1574H16.6862V5.25248L31.9115 5.25212ZM15.1636 17.7117V55.1576H3.92863V21.6285L15.1636 17.7117ZM55.2252 56.7474H28.4357C28.0453 56.747 27.671 56.5917 27.3949 56.3156C27.1188 56.0395 26.9635 55.6652 26.963 55.2747V45.2684C28.2378 45.7648 29.9823 46.2572 32.1554 46.7331C36.2272 47.6244 40.5367 48.1902 41.8535 48.3329C41.908 48.3389 41.963 48.3389 42.0175 48.3329C43.7042 48.15 47.8792 47.5891 51.6083 46.7751C53.733 46.3114 55.4428 45.8255 56.6973 45.3297V55.2747C56.6969 55.6651 56.5417 56.0393 56.2657 56.3154C55.9897 56.5915 55.6156 56.7468 55.2252 56.7474ZM41.8305 41.0762C40.4135 41.0762 39.261 42.145 39.261 43.459C39.261 44.773 40.4135 45.8418 41.8305 45.8418C43.2474 45.8418 44.4 44.773 44.4 43.459C44.4 42.145 43.2477 41.0762 41.8305 41.0762ZM41.8305 44.3194C41.2627 44.3194 40.783 43.9253 40.783 43.4589C40.783 42.9924 41.2627 42.5982 41.8305 42.5982C42.3983 42.5982 42.878 42.9923 42.878 43.4589C42.878 43.9254 42.3982 44.3199 41.8305 44.3199V44.3194Z" fill="black"/>
<path d="M19.9212 11.8637H22.4521C22.5521 11.8637 22.651 11.844 22.7434 11.8057C22.8357 11.7675 22.9196 11.7114 22.9902 11.6407C23.0609 11.5701 23.117 11.4862 23.1552 11.3938C23.1934 11.3015 23.2131 11.2025 23.2131 11.1026V8.57168C23.2131 8.47174 23.1934 8.37278 23.1552 8.28044C23.117 8.1881 23.0609 8.1042 22.9902 8.03353C22.9196 7.96285 22.8357 7.90679 22.7434 7.86854C22.651 7.83029 22.5521 7.81061 22.4521 7.81061H19.9212C19.7194 7.81061 19.5258 7.89079 19.3831 8.03352C19.2403 8.17625 19.1602 8.36983 19.1602 8.57168V11.1026C19.1602 11.2025 19.1798 11.3015 19.2181 11.3938C19.2563 11.4862 19.3124 11.5701 19.3831 11.6407C19.4537 11.7114 19.5376 11.7675 19.63 11.8057C19.7223 11.844 19.8213 11.8637 19.9212 11.8637ZM20.6828 9.33275H21.6917V10.3415H20.6828V9.33275ZM26.1462 11.8637H28.6771C28.7771 11.8637 28.876 11.844 28.9684 11.8057C29.0607 11.7675 29.1446 11.7114 29.2153 11.6407C29.2859 11.5701 29.342 11.4862 29.3802 11.3938C29.4185 11.3015 29.4382 11.2025 29.4382 11.1026V8.57168C29.4382 8.36983 29.358 8.17625 29.2153 8.03352C29.0725 7.89079 28.879 7.81061 28.6771 7.81061H26.1456C25.9438 7.81061 25.7502 7.89079 25.6075 8.03352C25.4647 8.17625 25.3845 8.36983 25.3845 8.57168V11.1026C25.3845 11.2025 25.4042 11.3015 25.4425 11.3938C25.4807 11.4862 25.5368 11.5701 25.6075 11.6407C25.6781 11.7114 25.762 11.7675 25.8544 11.8057C25.9467 11.844 26.0463 11.8637 26.1462 11.8637ZM26.9073 9.33275H27.916V10.3415H26.9067L26.9073 9.33275ZM19.9218 18.1266H22.4527C22.5527 18.1266 22.6516 18.107 22.744 18.0687C22.8363 18.0305 22.9202 17.9744 22.9908 17.9037C23.0615 17.833 23.1176 17.7491 23.1558 17.6568C23.194 17.5645 23.2137 17.4655 23.2137 17.3656V14.8348C23.2137 14.7348 23.194 14.6359 23.1558 14.5435C23.1176 14.4512 23.0615 14.3673 22.9908 14.2966C22.9202 14.226 22.8363 14.1699 22.744 14.1316C22.6516 14.0934 22.5527 14.0737 22.4527 14.0737H19.9212C19.8213 14.0737 19.7223 14.0934 19.63 14.1316C19.5376 14.1699 19.4537 14.2259 19.383 14.2966C19.3124 14.3673 19.2563 14.4512 19.2181 14.5435C19.1798 14.6359 19.1601 14.7348 19.1602 14.8348V17.3656C19.1601 17.4655 19.1798 17.5645 19.2181 17.6568C19.2563 17.7492 19.3124 17.8331 19.383 17.9038C19.4537 17.9744 19.5376 18.0305 19.63 18.0687C19.7223 18.107 19.8219 18.1267 19.9218 18.1266ZM20.6828 15.5957H21.6917V16.6046H20.6828V15.5957ZM26.1462 18.1266H28.6771C28.7771 18.1267 28.876 18.107 28.9684 18.0687C29.0607 18.0305 29.1446 17.9744 29.2153 17.9038C29.286 17.8331 29.342 17.7492 29.3803 17.6568C29.4185 17.5645 29.4382 17.4655 29.4382 17.3656V14.8348C29.4382 14.7348 29.4185 14.6359 29.3803 14.5435C29.342 14.4512 29.286 14.3673 29.2153 14.2966C29.1446 14.2259 29.0607 14.1699 28.9684 14.1316C28.876 14.0934 28.7771 14.0737 28.6771 14.0737H26.1456C26.0457 14.0737 25.9467 14.0934 25.8543 14.1316C25.762 14.1699 25.6781 14.2259 25.6074 14.2966C25.5367 14.3673 25.4807 14.4512 25.4424 14.5435C25.4042 14.6359 25.3845 14.7348 25.3845 14.8348V17.3656C25.3845 17.4655 25.4042 17.5645 25.4424 17.6568C25.4807 17.7492 25.5367 17.8331 25.6074 17.9038C25.6781 17.9744 25.762 18.0305 25.8543 18.0687C25.9467 18.107 26.0463 18.1267 26.1462 18.1266ZM26.9073 15.5957H27.916V16.6046H26.9067L26.9073 15.5957ZM19.9218 24.3896H22.4527C22.5527 24.3896 22.6516 24.3699 22.744 24.3317C22.8363 24.2934 22.9202 24.2374 22.9908 24.1667C23.0615 24.096 23.1176 24.0121 23.1558 23.9198C23.194 23.8275 23.2137 23.7285 23.2137 23.6286V21.0978C23.2137 20.9978 23.194 20.8989 23.1558 20.8065C23.1176 20.7142 23.0615 20.6303 22.9908 20.5596C22.9202 20.4889 22.8363 20.4329 22.744 20.3946C22.6516 20.3564 22.5527 20.3367 22.4527 20.3367H19.9212C19.7194 20.3367 19.5258 20.4169 19.3831 20.5596C19.2403 20.7023 19.1602 20.8959 19.1602 21.0978V23.6286C19.1601 23.7285 19.1798 23.8275 19.2181 23.9198C19.2563 24.0122 19.3124 24.0961 19.383 24.1667C19.4537 24.2374 19.5376 24.2935 19.63 24.3317C19.7223 24.37 19.8219 24.3896 19.9218 24.3896ZM20.6828 21.8588H21.6917V22.8676H20.6828V21.8588ZM26.1462 24.3896H28.6771C28.7771 24.3896 28.876 24.37 28.9684 24.3317C29.0607 24.2935 29.1446 24.2374 29.2153 24.1667C29.286 24.0961 29.342 24.0122 29.3803 23.9198C29.4185 23.8275 29.4382 23.7285 29.4382 23.6286V21.0978C29.4381 20.8959 29.358 20.7024 29.2152 20.5597C29.0725 20.417 28.8789 20.3368 28.6771 20.3368H26.1456C25.9438 20.3368 25.7502 20.417 25.6075 20.5597C25.4647 20.7025 25.3845 20.896 25.3845 21.0979V23.6287C25.3845 23.7286 25.4042 23.8276 25.4425 23.9199C25.4807 24.0122 25.5368 24.0961 25.6075 24.1668C25.6781 24.2374 25.762 24.2935 25.8544 24.3317C25.9467 24.37 26.0463 24.3896 26.1462 24.3896ZM26.9073 21.8588H27.916V22.8676H26.9067L26.9073 21.8588ZM19.9218 30.6527H22.4527C22.5527 30.6527 22.6516 30.633 22.744 30.5948C22.8363 30.5565 22.9202 30.5005 22.9908 30.4298C23.0615 30.3591 23.1176 30.2752 23.1558 30.1829C23.194 30.0906 23.2137 29.9916 23.2137 29.8917V27.3608C23.2137 27.2608 23.194 27.1618 23.1558 27.0695C23.1176 26.9772 23.0615 26.8933 22.9908 26.8226C22.9202 26.7519 22.8363 26.6959 22.744 26.6576C22.6516 26.6194 22.5527 26.5997 22.4527 26.5997H19.9212C19.7194 26.5997 19.5258 26.6799 19.3831 26.8226C19.2403 26.9653 19.1602 27.1589 19.1602 27.3608V29.8919C19.1602 30.0937 19.2404 30.2872 19.3832 30.4299C19.5259 30.5726 19.72 30.6527 19.9218 30.6527ZM20.6828 28.1218H21.6917V29.1306H20.6828V28.1218ZM26.1462 30.6527H28.6771C28.879 30.6527 29.0725 30.5725 29.2153 30.4298C29.358 30.2871 29.4382 30.0935 29.4382 29.8917V27.3608C29.4382 27.1589 29.358 26.9653 29.2153 26.8226C29.0725 26.6799 28.879 26.5997 28.6771 26.5997H26.1456C25.9438 26.5997 25.7502 26.6799 25.6075 26.8226C25.4647 26.9653 25.3845 27.1589 25.3845 27.3608V29.8919C25.3846 30.0937 25.4648 30.2872 25.6075 30.4299C25.7503 30.5726 25.9444 30.6527 26.1462 30.6527ZM26.9073 28.1218H27.916V29.1306H26.9067L26.9073 28.1218ZM19.9218 36.9157H22.4527C22.5527 36.9157 22.6516 36.896 22.744 36.8578C22.8363 36.8195 22.9202 36.7635 22.9908 36.6928C23.0615 36.6221 23.1176 36.5382 23.1558 36.4459C23.194 36.3535 23.2137 36.2546 23.2137 36.1546V33.6237C23.2137 33.5238 23.194 33.4248 23.1558 33.3325C23.1176 33.2402 23.0615 33.1563 22.9908 33.0856C22.9202 33.015 22.8363 32.9589 22.7439 32.9207C22.6516 32.8824 22.5527 32.8628 22.4527 32.8628H19.9212C19.8213 32.8628 19.7223 32.8824 19.63 32.9207C19.5376 32.9589 19.4537 33.015 19.3831 33.0856C19.3124 33.1563 19.2563 33.2402 19.2181 33.3325C19.1798 33.4248 19.1602 33.5238 19.1602 33.6237V36.1546C19.1602 36.3565 19.2403 36.5501 19.3831 36.6928C19.5258 36.8355 19.72 36.9157 19.9218 36.9157ZM20.6828 34.3848H21.6917V35.3936H20.6828V34.3848ZM25.4412 55.157H22.0093V47.3123H25.4412V55.157ZM48.6081 30.0898C48.7968 30.09 48.9776 30.1651 49.1109 30.2985C49.2443 30.4319 49.3193 30.6127 49.3195 30.8013V32.2617H45.3481V30.0898H48.6081ZM43.826 32.2617H33.799V30.8017C33.7992 30.613 33.8742 30.4322 34.0076 30.2988C34.141 30.1654 34.3218 30.0904 34.5105 30.0901H43.826V32.2617ZM41.8308 41.0761C40.4139 41.0761 39.2613 42.1449 39.2613 43.4589C39.2613 44.7729 40.4139 45.8417 41.8308 45.8417C43.2478 45.8417 44.4003 44.7729 44.4003 43.4589C44.4003 42.1449 43.248 41.0761 41.8308 41.0761ZM41.8308 44.3193C41.263 44.3193 40.7833 43.9252 40.7833 43.4588C40.7833 42.9924 41.263 42.5981 41.8308 42.5981C42.3987 42.5981 42.8783 42.9922 42.8783 43.4588C42.8783 43.9254 42.3985 44.3193 41.8308 44.3193Z" fill="#007DFE"/>
</svg>
