<svg width="63" height="62" viewBox="0 0 63 62" fill="none" xmlns="http://www.w3.org/2000/svg">
<g clip-path="url(#clip0_224_6108)">
<path d="M16.9702 15.4277H9.4448C8.89068 15.4277 8.44141 15.877 8.44141 16.4311V24.3328C8.44141 24.887 8.89068 25.3362 9.4448 25.3362H16.9702C17.5248 25.3362 17.9736 24.887 17.9736 24.3328V16.4311C17.9736 15.877 17.5248 15.4277 16.9702 15.4277ZM15.9668 23.3294H10.4482V17.4345H15.9668V23.3294Z" fill="#007DFE"/>
<path d="M32.021 25.3362H39.5464C40.101 25.3362 40.5498 24.887 40.5498 24.3328V16.4311C40.5498 15.877 40.101 15.4277 39.5464 15.4277H32.021C31.4669 15.4277 31.0176 15.877 31.0176 16.4311V24.3328C31.0176 24.887 31.4669 25.3362 32.021 25.3362ZM33.0244 17.4345H38.543V23.3294H33.0244V17.4345Z" fill="#007DFE"/>
<path d="M20.7339 25.3362H28.2593C28.8139 25.3362 29.2627 24.887 29.2627 24.3328V16.4311C29.2627 15.877 28.8139 15.4277 28.2593 15.4277H20.7339C20.1797 15.4277 19.7305 15.877 19.7305 16.4311V24.3328C19.7305 24.887 20.1797 25.3362 20.7339 25.3362ZM21.7373 17.4345H27.2559V23.3294H21.7373V17.4345Z" fill="#007DFE"/>
<path d="M16.9702 27.343H9.4448C8.89068 27.343 8.44141 27.7923 8.44141 28.3464V36.2481C8.44141 36.8022 8.89068 37.2515 9.4448 37.2515H16.9702C17.5248 37.2515 17.9736 36.8022 17.9736 36.2481V28.3464C17.9736 27.7923 17.5248 27.343 16.9702 27.343ZM15.9668 35.2447H10.4482V29.3498H15.9668V35.2447Z" fill="#007DFE"/>
<path d="M45.0668 29.4804V8.86781C45.0687 8.60716 44.9639 8.3568 44.7772 8.17454C44.5906 7.99229 44.3377 7.89381 44.0771 7.90214H39.799V0.958751C39.799 0.404143 39.2924 0.00043463 38.7383 0.00043463H10.2656C10.0103 -0.00740437 9.76338 0.0910729 9.58406 0.27333C9.40474 0.455096 9.3097 0.703494 9.32096 0.958751V7.90214H4.92672C4.66509 7.89381 4.4113 7.9918 4.22317 8.17356C4.03503 8.35582 3.92823 8.60618 3.92774 8.86781V53.8176C3.92725 54.0821 4.03258 54.3359 4.22023 54.5226C4.40787 54.7093 4.66215 54.8126 4.92672 54.8107H29.2457C32.2662 59.3225 37.3454 62.0216 42.7748 62C51.7868 62 59.1123 54.6706 59.1123 45.6587C59.1123 37.4292 52.9685 30.6039 45.0668 29.4804ZM11.3277 2.00722H37.7922V7.90214H11.3277V2.00722ZM15.3413 41.6245V52.8039H5.93452V9.90892H43.06V29.3212C42.9346 29.3193 42.8797 29.3173 42.7802 29.3173C42.0346 29.3183 41.2899 29.3697 40.5515 29.4726V28.3222C40.5388 27.7681 40.0787 27.3296 39.5246 27.3428H32.0109C31.7488 27.3379 31.4955 27.4389 31.3089 27.6236C31.1222 27.8078 31.0178 28.0596 31.0193 28.3222V34.3308C30.3638 35.0295 29.7602 35.7747 29.2124 36.5605C29.2477 36.4542 29.2648 36.343 29.2634 36.2313V28.3222C29.2624 28.0586 29.1551 27.8063 28.9665 27.6221C28.7773 27.4379 28.5226 27.3375 28.2585 27.3428H20.7458C20.4812 27.337 20.225 27.4369 20.0344 27.6211C19.8438 27.8049 19.7346 28.0572 19.7311 28.3222V36.2313C19.7351 36.7908 20.1858 37.2445 20.7453 37.2513H28.2585C28.5138 37.2513 28.7592 37.1538 28.9444 36.9789C28.2306 38.1269 27.6539 39.3551 27.2272 40.6378H16.3481C16.0836 40.6339 15.8283 40.7358 15.6392 40.9215C15.4501 41.1066 15.3428 41.3599 15.3413 41.6245ZM38.5447 29.3496V29.8797C36.5536 30.4192 34.6816 31.328 33.0261 32.5597V29.3496H38.5447ZM27.2566 29.3496V35.2445H21.7379V29.3496H27.2566ZM17.3481 52.8039V42.6446H26.7142C26.5266 43.6401 26.432 44.6509 26.431 45.664C26.4252 48.1392 26.9901 50.5825 28.0821 52.8039H17.3481ZM42.7748 59.9981C34.8731 59.9751 28.48 53.5628 28.48 45.6611C28.48 37.7594 34.8731 31.3476 42.7748 31.3241C43.1781 31.3241 43.5779 31.3417 43.9723 31.374H43.9776C51.6344 32.0188 57.4215 38.5854 57.0991 46.2623C56.7763 53.9396 50.459 59.9976 42.7748 59.9976V59.9981Z" fill="#121E36"/>
<path d="M51.3112 39.468C51.3039 39.4503 51.297 39.4327 51.2887 39.4151C51.2818 39.4009 51.2745 39.3871 51.2671 39.3734C51.2593 39.3597 51.2515 39.344 51.2427 39.3298C51.2343 39.3156 51.2245 39.3009 51.2152 39.2872C51.2054 39.273 51.1976 39.2617 51.1888 39.2485C51.1794 39.2357 51.1677 39.222 51.1569 39.2088C51.1461 39.1956 51.1368 39.1843 51.126 39.1725C51.1153 39.1608 51.104 39.149 51.0927 39.1378C51.0815 39.1265 51.0687 39.1142 51.056 39.1025C51.0437 39.0912 51.0334 39.0829 51.0222 39.0736C51.0085 39.0623 50.9943 39.051 50.98 39.0403C50.9683 39.0314 50.956 39.0236 50.9443 39.0153C50.9291 39.0055 50.9144 38.9952 50.8987 38.9859C50.8855 38.978 50.8718 38.9707 50.8585 38.9633C50.8448 38.956 50.8287 38.9477 50.8135 38.9403C50.7978 38.933 50.7811 38.9261 50.7645 38.9192C50.7542 38.9148 50.7444 38.9099 50.7341 38.906C50.7302 38.9045 50.7263 38.9036 50.7223 38.9026C50.7052 38.8962 50.6871 38.8908 50.6694 38.8854C50.6552 38.8815 50.641 38.8766 50.6263 38.8732C50.6121 38.8693 50.5935 38.8658 50.5773 38.8624C50.5607 38.8595 50.5455 38.856 50.5293 38.8536C50.5131 38.8511 50.4994 38.8502 50.4842 38.8487C50.4666 38.8467 50.449 38.8448 50.4313 38.8438C50.4176 38.8433 50.4034 38.8438 50.3897 38.8438C50.3706 38.8438 50.3519 38.8438 50.3333 38.8438C50.3196 38.8448 50.3064 38.8462 50.2927 38.8477C50.2736 38.8497 50.2544 38.8511 50.2358 38.8536C50.2231 38.8556 50.2099 38.859 50.1971 38.8609C50.1775 38.8649 50.1579 38.8688 50.1383 38.8737C50.1261 38.8766 50.1143 38.881 50.1021 38.8845C50.082 38.8903 50.0624 38.8962 50.0428 38.9031C50.0394 38.9045 50.0359 38.905 50.0325 38.9065C50.0232 38.9099 50.0144 38.9143 50.0056 38.9183C49.9874 38.9256 49.9693 38.933 49.9522 38.9413C49.9379 38.9482 49.9242 38.955 49.911 38.9624C49.8973 38.9697 49.8811 38.9785 49.8664 38.9873C49.8551 38.9942 49.8444 39.0011 49.8336 39.0079H45.0087C44.728 38.006 43.8147 37.3132 42.7741 37.3132C41.7335 37.3132 40.8202 38.006 40.54 39.0079H35.7146C35.7038 39.0006 35.692 38.9937 35.6808 38.9869C35.669 38.98 35.6538 38.9717 35.6401 38.9643C35.6264 38.9565 35.6107 38.9482 35.595 38.9408C35.5799 38.9335 35.5627 38.9266 35.5465 38.9197C35.5362 38.9158 35.5264 38.9104 35.5157 38.9065C35.5122 38.905 35.5083 38.9045 35.5044 38.9031C35.4868 38.8967 35.4691 38.8913 35.4515 38.8864C35.4373 38.882 35.4231 38.8771 35.4084 38.8737C35.3922 38.8698 35.3755 38.8663 35.3584 38.8634C35.3413 38.86 35.3266 38.8565 35.3104 38.8541C35.2942 38.8516 35.2805 38.8511 35.2658 38.8492C35.2477 38.8477 35.23 38.8453 35.2124 38.8448C35.1987 38.8438 35.1845 38.8448 35.1708 38.8448C35.1521 38.8448 35.133 38.8448 35.1149 38.8448C35.1012 38.8453 35.0875 38.8472 35.0742 38.8482C35.0551 38.8502 35.036 38.8516 35.0169 38.8546C35.0047 38.8565 34.9909 38.8595 34.9782 38.8619C34.9586 38.8654 34.939 38.8693 34.9199 38.8742C34.9072 38.8776 34.8954 38.8815 34.8832 38.885C34.8636 38.8908 34.8435 38.8967 34.8239 38.9036C34.8209 38.905 34.8175 38.906 34.8141 38.907C34.8048 38.9104 34.796 38.9153 34.7866 38.9188C34.7685 38.9261 34.7509 38.9335 34.7332 38.9418C34.719 38.9486 34.7058 38.956 34.6921 38.9629C34.6789 38.9702 34.6622 38.979 34.6475 38.9878C34.6328 38.9971 34.6196 39.006 34.6059 39.0153C34.5921 39.0241 34.5794 39.0329 34.5667 39.0422C34.5539 39.0515 34.5402 39.0628 34.5275 39.0736C34.5142 39.0839 34.5025 39.0937 34.4907 39.1049C34.479 39.1157 34.4677 39.1265 34.4564 39.1378C34.4452 39.149 34.4324 39.1618 34.4212 39.1745C34.4094 39.1872 34.4011 39.197 34.3918 39.2088C34.3805 39.2225 34.3692 39.2362 34.3589 39.2504C34.3501 39.2632 34.3418 39.2749 34.3339 39.2872C34.3241 39.3014 34.3143 39.3161 34.305 39.3313C34.2962 39.3465 34.2894 39.3597 34.2815 39.3739C34.2737 39.3881 34.2663 39.4018 34.2595 39.4165C34.2511 39.4337 34.2443 39.4513 34.2369 39.469C34.233 39.4783 34.2286 39.4871 34.2242 39.4969L31.4472 46.942C31.1812 47.1296 31.0234 47.4348 31.0234 47.7602C31.0234 50.0041 32.726 51.5714 35.1644 51.5714C37.5768 51.5714 39.3284 49.9683 39.3284 47.7602C39.3289 47.4216 39.1579 47.1056 38.8742 46.9209L36.6719 41.0142H40.9094C41.1397 41.3268 41.4488 41.5727 41.805 41.7271V52.0515H40.7766C40.2225 52.0515 39.7732 52.5008 39.7732 53.0549C39.7732 53.609 40.2225 54.0583 40.7766 54.0583H44.7716C45.3257 54.0583 45.775 53.609 45.775 53.0549C45.775 52.5008 45.3257 52.0515 44.7716 52.0515H43.8118V41.7271C44.1258 41.5375 44.4056 41.2964 44.6398 41.0142H48.8772L46.6745 46.9194C46.3908 47.1046 46.2203 47.4201 46.2203 47.7587C46.2203 50.0031 47.9228 51.5699 50.3613 51.5699C52.7737 51.5699 54.5252 49.9673 54.5252 47.7587C54.5252 47.4334 54.3675 47.1286 54.1019 46.941L51.3245 39.4959C51.3196 39.4861 51.3152 39.4773 51.3112 39.468ZM35.1654 42.7452L36.6714 46.7837H33.6588L35.1654 42.7452ZM37.0266 48.7905C36.6175 49.2922 35.8518 49.5915 35.1659 49.5915C34.4545 49.5915 33.7093 49.2922 33.3154 48.7905H37.0266ZM42.7746 39.9511C42.6002 39.9515 42.4581 39.81 42.4581 39.6355C42.4576 39.4611 42.5992 39.319 42.7736 39.319C42.9485 39.3185 43.0901 39.4596 43.0906 39.6346C43.0906 39.8095 42.949 39.9511 42.7741 39.9511H42.7746ZM50.3613 49.5915C49.6499 49.5915 48.9052 49.2922 48.5108 48.7905H52.222C51.8124 49.2922 51.0472 49.5915 50.3608 49.5915H50.3613ZM48.8767 46.7837L50.3833 42.7452L51.8894 46.7837H48.8767Z" fill="#007DFE"/>
</g>
<defs>
<clipPath id="clip0_224_6108">
<rect width="62" height="62" fill="white" transform="translate(0.5)"/>
</clipPath>
</defs>
</svg>
