<svg width="16" height="15" viewBox="0 0 16 15" fill="none" xmlns="http://www.w3.org/2000/svg">
<path d="M0.818017 5.32084H4.20326V14.8721H0.818017V5.32084Z" fill="white"/>
<path d="M2.47697 3.79716C3.4232 3.79716 4.19027 3.04048 4.19027 2.10708C4.19027 1.17367 3.4232 0.416992 2.47697 0.416992C1.53074 0.416992 0.763672 1.17367 0.763672 2.10708C0.763672 3.04048 1.53074 3.79716 2.47697 3.79716Z" fill="white"/>
<path d="M12.7125 5.10502C12.0193 5.10502 11.4318 5.24153 10.949 5.51428C10.4666 5.7873 9.99 6.24128 9.51845 6.87675V5.32084H6.36598V14.8721H9.75122V10.2853C9.75122 9.41578 9.87891 8.81359 10.134 8.47765C10.3892 8.14197 10.7215 7.97401 11.132 7.97401C11.5035 7.97401 11.7918 8.09855 11.9971 8.34738C12.2025 8.59622 12.3047 9.0203 12.3047 9.62015V14.8721H15.7068V8.80163C15.7068 7.54239 15.4418 6.61154 14.912 6.00883C14.383 5.40612 13.6494 5.10502 12.7125 5.10502Z" fill="white"/>
</svg>
