<svg width="62" height="62" viewBox="0 0 62 62" fill="none" xmlns="http://www.w3.org/2000/svg">
<g clip-path="url(#clip0_190_2239)">
<path d="M50.5485 40.2416V60.0764H4.68066V34.8062" stroke="#010101" stroke-width="2.3125" stroke-miterlimit="10" stroke-linecap="round" stroke-linejoin="round"/>
<path d="M11.9277 26.6053H22.3219L24.1337 14.8761H17.2679L11.9277 26.6053Z" stroke="#010101" stroke-width="2.3125" stroke-miterlimit="10" stroke-linecap="round" stroke-linejoin="round"/>
<path d="M37.1984 26.6053H32.8118L32.335 23.2677L31 14.8761H32.8118" stroke="#010101" stroke-width="2.3125" stroke-miterlimit="10" stroke-linecap="round" stroke-linejoin="round"/>
<path d="M9.54402 16.0204L1.43848 26.6053H11.928L17.2681 14.8761H11.8326C10.8791 14.8761 10.0208 15.2575 9.54402 16.0204Z" stroke="#010101" stroke-width="2.3125" stroke-miterlimit="10" stroke-linecap="round" stroke-linejoin="round"/>
<path d="M24.1341 14.8761L22.3223 26.6053H32.8118L31 14.8761H24.1341Z" stroke="#010101" stroke-width="2.3125" stroke-miterlimit="10" stroke-linecap="round" stroke-linejoin="round"/>
<path d="M11.9277 29.8474C11.9277 32.7082 14.3117 35.0922 17.1725 35.0922C20.0333 35.0922 22.4173 32.7082 22.4173 29.8474V26.6052H11.9277V29.8474Z" stroke="#010101" stroke-width="2.3125" stroke-miterlimit="10" stroke-linecap="round" stroke-linejoin="round"/>
<path d="M37.1981 26.6052H32.8115V29.8474C32.8115 32.7082 35.1955 35.0922 38.0563 35.0922C39.2006 35.0922 40.2496 34.7108 41.1078 34.0433" stroke="#010101" stroke-width="2.3125" stroke-miterlimit="10" stroke-linecap="round" stroke-linejoin="round"/>
<path d="M1.43848 29.8474C1.43848 32.7082 3.82246 35.0922 6.68324 35.0922C9.54402 35.0922 11.928 32.7082 11.928 29.8474V26.6052H1.43848V29.8474Z" stroke="#010101" stroke-width="2.3125" stroke-miterlimit="10" stroke-linecap="round" stroke-linejoin="round"/>
<path d="M22.3223 29.8474C22.3223 32.7082 24.7062 35.0922 27.567 35.0922C30.4278 35.0922 32.8118 32.7082 32.8118 29.8474V26.6052H22.3223V29.8474Z" stroke="#010101" stroke-width="2.3125" stroke-miterlimit="10" stroke-linecap="round" stroke-linejoin="round"/>
<path d="M43.1101 43.8654V60.0765H29.7598V43.8654C29.7598 42.6257 30.7134 41.6721 31.953 41.6721H40.8215C42.1565 41.6721 43.1101 42.7211 43.1101 43.8654Z" stroke="#010101" stroke-width="1.31" stroke-miterlimit="10" stroke-linecap="round" stroke-linejoin="round"/>
<path d="M32.9072 45.4865H39.9638V49.9683H32.9072V45.4865Z" stroke="#007DFE" stroke-width="2" stroke-miterlimit="10" stroke-linecap="round" stroke-linejoin="round"/>
<path d="M1.82031 60.0764H53.3144" stroke="#010101" stroke-width="2.3125" stroke-miterlimit="10" stroke-linecap="round" stroke-linejoin="round"/>
<path d="M60.5615 12.9689C60.5615 17.8322 54.077 29.5614 50.6441 35.4737C49.6905 37.0948 47.3065 37.0948 46.3529 35.4737C42.92 29.5614 36.4355 17.8322 36.4355 12.9689C36.4355 6.29374 41.871 0.953613 48.4508 0.953613C55.0306 0.953613 60.5615 6.3891 60.5615 12.9689Z" stroke="#007DFE" stroke-width="2.3125" stroke-miterlimit="10" stroke-linecap="round" stroke-linejoin="round"/>
<path d="M48.5464 20.4069C52.6543 20.4069 55.9845 17.0768 55.9845 12.9689C55.9845 8.861 52.6543 5.53088 48.5464 5.53088C44.4385 5.53088 41.1084 8.861 41.1084 12.9689C41.1084 17.0768 44.4385 20.4069 48.5464 20.4069Z" stroke="#007DFE" stroke-width="2.3125" stroke-miterlimit="10" stroke-linecap="round" stroke-linejoin="round"/>
<path d="M22.2265 53.0198H11.9277C10.8787 53.0198 10.0205 52.1615 10.0205 51.1126V44.056C10.0205 43.007 10.8787 42.1488 11.9277 42.1488H22.2265C23.2755 42.1488 24.1337 43.007 24.1337 44.056V51.1126C24.1337 52.1615 23.2755 53.0198 22.2265 53.0198Z" stroke="#007DFE" stroke-width="2.3125" stroke-miterlimit="10" stroke-linecap="round" stroke-linejoin="round"/>
<path d="M32.8115 53.8781V55.1177" stroke="#007DFE" stroke-width="2.3125" stroke-miterlimit="10" stroke-linecap="round" stroke-linejoin="round"/>
</g>
<defs>
<clipPath id="clip0_190_2239">
<rect width="61.03" height="61.03" fill="white" transform="translate(0.485352)"/>
</clipPath>
</defs>
</svg>
