<svg width="20" height="17" viewBox="0 0 20 17" fill="none" xmlns="http://www.w3.org/2000/svg">
<path d="M15.8333 0H4.16666C3.062 0.00122556 2.00296 0.408677 1.22185 1.13299C0.440734 1.85729 0.00132364 2.83931 6.30229e-07 3.86364L0 13.1363C0.00132367 14.1607 0.440734 15.1427 1.22185 15.867C2.00296 16.5913 3.062 16.9988 4.16666 17H15.8333C16.938 16.9988 17.997 16.5913 18.7781 15.867C19.5592 15.1427 19.9987 14.1607 20 13.1363V3.86364C19.9987 2.83931 19.5592 1.85729 18.7781 1.13299C17.997 0.408677 16.938 0.00122556 15.8333 0ZM4.16666 1.54546H15.8333C16.3323 1.54636 16.8196 1.68572 17.2325 1.94557C17.6453 2.20543 17.9649 2.57391 18.15 3.00359L11.7683 8.92193C11.2987 9.35566 10.6628 9.59918 10 9.59918C9.33717 9.59918 8.70131 9.35566 8.23165 8.92193L1.84999 3.00359C2.03512 2.57391 2.35467 2.20543 2.76754 1.94557C3.1804 1.68572 3.66768 1.54636 4.16666 1.54546ZM15.8333 15.4546H4.16666C3.50362 15.4546 2.86774 15.2103 2.3989 14.7756C1.93006 14.3408 1.66666 13.7512 1.66666 13.1363V5.02273L7.0533 10.0145C7.83554 10.738 8.8952 11.1443 10 11.1443C11.1048 11.1443 12.1645 10.738 12.9466 10.0145L18.3333 5.02273V13.1363C18.3333 13.7512 18.0699 14.3408 17.6011 14.7756C17.1322 15.2103 16.4963 15.4546 15.8333 15.4546Z" fill="white"/>
</svg>
