<svg width="13" height="15" viewBox="0 0 13 15" fill="none" xmlns="http://www.w3.org/2000/svg">
<path d="M6.2161 0.418225L5.29692 0.533522C4.71931 0.642502 4.15891 0.829132 3.63097 1.08833C2.42607 1.72438 1.47918 2.76112 0.952478 4.0209C0.88151 4.25713 0.826341 4.49782 0.78734 4.74141C0.384862 6.17605 0.904406 7.71132 2.09425 8.60347C2.27377 8.71152 2.69025 8.91333 2.81232 8.64669C2.86854 8.48322 2.90711 8.31412 2.92722 8.14229C2.99646 7.99801 3.03553 7.8411 3.04213 7.68116C2.99906 7.44339 2.74771 7.2993 2.64002 7.10474C2.46297 6.7126 2.35134 6.29389 2.30968 5.8654V5.65641C2.363 3.88746 3.59938 2.37746 5.31845 1.98173C5.8562 1.8359 6.41678 1.79429 6.97008 1.85925L7.76714 1.99615C8.67811 2.2348 9.43136 2.87654 9.81372 3.73984C10.0643 4.47961 10.1139 5.273 9.95732 6.03834C9.87833 6.3698 9.89271 6.65798 9.79218 6.96065C9.42593 8.07746 8.88737 9.12224 7.67383 9.39606C7.01377 9.56913 6.32829 9.22367 6.0725 8.58905C5.98148 8.39616 5.94902 8.18068 5.97913 7.9694C6.1874 7.06152 6.49614 6.25451 6.6972 5.34669C6.9449 4.67491 6.60303 3.92882 5.93353 3.68021C5.89897 3.6674 5.86385 3.656 5.82831 3.64622C4.99534 3.44448 4.3562 4.22264 4.13361 4.72705C3.92552 5.26111 3.87566 5.8441 3.99001 6.4059C4.11121 6.64969 4.19822 6.90913 4.24851 7.17688C4.09053 7.89739 3.90386 8.61796 3.70996 9.33847C3.51607 10.059 3.394 10.7796 3.19295 11.5001C3.09958 11.8171 3.1068 12.1557 3.02781 12.4872V12.9699C2.97807 13.3519 2.99511 13.7396 3.07811 14.1156C3.12118 14.3102 3.07811 14.5479 3.14994 14.692C3.14679 14.7559 3.16444 14.8191 3.20023 14.8721C3.49465 14.8721 3.9183 14.0867 4.04758 13.8634C4.32732 13.4169 4.56762 12.9468 4.76565 12.4584C4.95954 12.0044 4.98824 11.5001 5.13906 11.0173C5.29106 10.6196 5.39942 10.2064 5.46218 9.78517C5.55536 9.98969 5.71137 10.1589 5.90742 10.2679C6.59679 10.7571 7.45957 10.9323 8.28428 10.7506C9.28701 10.5553 10.1879 10.0088 10.8263 9.20869C11.2603 8.61623 11.595 7.95665 11.8173 7.25601C11.9393 6.89576 11.9609 6.49222 12.0542 6.11036C12.209 5.17572 12.0866 4.21614 11.7024 3.35073C10.8765 1.4702 9.08127 0.375005 6.2161 0.418225Z" fill="white"/>
</svg>
