<svg width="61" height="62" viewBox="0 0 61 62" fill="none" xmlns="http://www.w3.org/2000/svg">
<path d="M42.8904 27.6556C42.3662 27.6556 41.9373 27.2267 41.9373 26.7025V25.7494C41.9373 23.1188 39.8023 20.9838 37.1716 20.9838H34.703L31.167 24.5199C30.7952 24.8916 30.1948 24.8916 29.823 24.5199L26.287 20.9838H23.8184C21.1877 20.9838 19.0527 23.1188 19.0527 25.7494V26.7025C19.0527 27.2267 18.6238 27.6556 18.0996 27.6556C17.5754 27.6556 17.1465 27.2267 17.1465 26.7025V25.7494C17.1465 22.0703 20.1393 19.0775 23.8184 19.0775H26.6777C26.9351 19.0775 27.1734 19.1824 27.3545 19.3539L30.4902 22.4897L33.626 19.3539C33.8071 19.1728 34.0454 19.0775 34.3027 19.0775H37.1621C40.8412 19.0775 43.834 22.0703 43.834 25.7494V26.7025C43.834 27.2267 43.4051 27.6556 42.8809 27.6556H42.8904Z" fill="#007DFE"/>
<path d="M30.5 17.1713C26.2967 17.1713 22.875 13.7495 22.875 9.54626C22.875 5.34298 26.2967 1.92126 30.5 1.92126C34.7033 1.92126 38.125 5.34298 38.125 9.54626C38.125 13.7495 34.7033 17.1713 30.5 17.1713ZM30.5 3.82751C27.3452 3.82751 24.7812 6.39142 24.7812 9.54626C24.7812 12.7011 27.3452 15.265 30.5 15.265C33.6548 15.265 36.2188 12.7011 36.2188 9.54626C36.2188 6.39142 33.6548 3.82751 30.5 3.82751Z" fill="#007DFE"/>
<path d="M53.375 37.1869H7.625C6.57656 37.1869 5.71875 36.3291 5.71875 35.2806V31.4681C5.71875 30.4197 6.57656 29.5619 7.625 29.5619H53.375C54.4234 29.5619 55.2812 30.4197 55.2812 31.4681V35.2806C55.2812 36.3291 54.4234 37.1869 53.375 37.1869ZM7.625 31.4681V35.2806H53.375V31.4681H7.625Z" fill="black"/>
<path d="M46.7035 45.765H14.2972C13.9541 45.765 13.63 45.5744 13.468 45.2789L8.70239 36.7008C8.54036 36.4053 8.54036 36.0431 8.71192 35.7572C8.88348 35.4617 9.19801 35.2902 9.53161 35.2902H51.4691C51.8027 35.2902 52.1172 35.4713 52.2888 35.7572C52.4604 36.0431 52.4604 36.4053 52.2983 36.7008L47.5327 45.2789C47.3611 45.5839 47.0466 45.765 46.7035 45.765ZM14.8596 43.8588H46.1411L49.8488 37.1869H11.1519L14.8596 43.8588Z" fill="black"/>
<path d="M51.1926 21.2602L47.3801 17.4477C47.5612 17.076 47.666 16.6661 47.666 16.2181C47.666 14.6455 46.3793 13.3588 44.8066 13.3588C43.234 13.3588 41.9473 14.6455 41.9473 16.2181C41.9473 17.7908 43.234 19.0775 44.8066 19.0775C45.2451 19.0775 45.6645 18.9727 46.0362 18.7916L49.5723 22.3277V26.7025C49.5723 27.2267 50.0012 27.6556 50.5254 27.6556C51.0496 27.6556 51.4785 27.2267 51.4785 26.7025V21.9369C51.4785 21.6795 51.3737 21.4413 51.2021 21.2602H51.1926ZM44.7971 17.1713C44.2729 17.1713 43.844 16.7424 43.844 16.2181C43.844 15.6939 44.2729 15.265 44.7971 15.265C45.3213 15.265 45.7502 15.6939 45.7502 16.2181C45.7502 16.7424 45.3213 17.1713 44.7971 17.1713Z" fill="#007DFE"/>
<path d="M16.2034 13.3588C14.6307 13.3588 13.344 14.6455 13.344 16.2181C13.344 16.6566 13.4488 17.076 13.6299 17.4477L9.81742 21.2602C9.63633 21.4413 9.54102 21.6795 9.54102 21.9369V26.7025C9.54102 27.2267 9.96992 27.6556 10.4941 27.6556C11.0184 27.6556 11.4473 27.2267 11.4473 26.7025V22.3277L14.9834 18.7916C15.3551 18.9727 15.7649 19.0775 16.2129 19.0775C17.7855 19.0775 19.0723 17.7908 19.0723 16.2181C19.0723 14.6455 17.7855 13.3588 16.2129 13.3588H16.2034ZM16.2034 17.1713C15.6791 17.1713 15.2502 16.7424 15.2502 16.2181C15.2502 15.6939 15.6791 15.265 16.2034 15.265C16.7276 15.265 17.1565 15.6939 17.1565 16.2181C17.1565 16.7424 16.7276 17.1713 16.2034 17.1713Z" fill="#007DFE"/>
<path d="M46.7031 59.1088H14.2969C13.7727 59.1088 13.3438 58.6799 13.3438 58.1556V44.8119C13.3438 44.2877 13.7727 43.8588 14.2969 43.8588H46.7031C47.2273 43.8588 47.6562 44.2877 47.6562 44.8119V58.1556C47.6562 58.6799 47.2273 59.1088 46.7031 59.1088ZM15.25 57.2025H45.75V45.765H15.25V57.2025Z" fill="black"/>
<path d="M40.0312 54.3431H20.9688C20.4445 54.3431 20.0156 53.9142 20.0156 53.39V49.5775C20.0156 49.0533 20.4445 48.6244 20.9688 48.6244H40.0312C40.5555 48.6244 40.9844 49.0533 40.9844 49.5775V53.39C40.9844 53.9142 40.5555 54.3431 40.0312 54.3431ZM21.9219 52.4369H39.0781V50.5306H21.9219V52.4369Z" fill="black"/>
</svg>
