<svg width="65" height="65" viewBox="0 0 65 65" fill="none" xmlns="http://www.w3.org/2000/svg">
<path d="M37.4273 14.6581C37.5595 14.7496 37.7147 14.7968 37.8715 14.7968C37.963 14.7968 38.0551 14.7806 38.1434 14.7478L41.2962 13.575C41.6009 13.4617 41.8028 13.1714 41.8028 12.847V7.30119C41.8028 7.0399 41.6713 6.79634 41.4527 6.65249C41.2339 6.50876 40.9575 6.48403 40.7173 6.58723L37.5636 7.93734C37.2773 8.05983 37.0919 8.34067 37.0919 8.65143L37.0928 14.0201C37.0928 14.2747 37.2179 14.5129 37.4273 14.6581ZM40.2456 8.47987V12.3076L38.6499 12.9013L38.6492 9.16327L40.2456 8.47987ZM41.4778 15.6174C41.274 15.4718 41.0123 15.4324 40.7742 15.5132L37.6213 16.58C37.3052 16.6868 37.0928 16.9827 37.0928 17.3157V23.048C37.0928 23.2912 37.2068 23.5202 37.401 23.6671C37.538 23.7706 37.7035 23.8249 37.8714 23.8249C37.9417 23.8249 38.0124 23.8154 38.0816 23.796L41.2345 22.9136C41.5706 22.8195 41.8028 22.5138 41.8028 22.1656V16.2489C41.8028 15.9984 41.6818 15.7634 41.4778 15.6174ZM40.2456 21.5766L38.65 22.0232V17.8725L40.2456 17.3325V21.5766ZM41.531 34.3009C41.3585 34.1531 41.1304 34.0888 40.9054 34.1228L37.7525 34.6088C37.3729 34.6673 37.0928 34.9934 37.0928 35.3766V41.1089C37.0928 41.3277 37.1854 41.5367 37.3478 41.6838C37.4917 41.8143 37.6787 41.8858 37.8714 41.8858C37.896 41.8858 37.921 41.8846 37.9456 41.8823L41.0985 41.5807C41.4979 41.5425 41.8028 41.2077 41.8028 40.8074V34.8907C41.8028 34.664 41.7034 34.4485 41.531 34.3009ZM40.2456 40.1014L38.65 40.2541V36.0428L40.2456 35.7969V40.1014ZM41.5042 24.9604C41.3158 24.8131 41.0702 24.7605 40.8376 24.8178L37.6848 25.594C37.337 25.6796 37.0928 25.9909 37.0928 26.3482V32.076C37.0928 32.3071 37.1959 32.5265 37.3744 32.6739C37.5152 32.7905 37.6913 32.8529 37.8714 32.8529C37.9193 32.8529 37.9675 32.8485 38.0153 32.8394L41.1681 32.2474C41.5362 32.1783 41.8028 31.8576 41.8028 31.484V25.572C41.8028 25.3331 41.6927 25.1078 41.5042 24.9604ZM40.2456 30.8397L38.65 31.1393V26.9567L40.2456 26.5638V30.8397ZM31.7423 33.7361C31.8832 33.8527 32.0593 33.9152 32.2394 33.9152C32.2872 33.9152 32.3353 33.9108 32.3831 33.9017L35.1819 33.377C35.5501 33.3081 35.8169 32.9873 35.8169 32.6136V27.0425C35.8169 26.8038 35.7068 26.5782 35.5184 26.431C35.3301 26.2836 35.0842 26.2309 34.8519 26.2882L32.0531 26.9765C31.7052 27.0619 31.4608 27.3732 31.4608 27.7307V33.1381C31.4608 33.3693 31.564 33.5886 31.7423 33.7361ZM33.018 28.3394L34.2597 28.0341V31.9692L33.018 32.2019V28.3394ZM32.2394 42.4204C32.264 42.4204 32.2889 42.4193 32.3137 42.4169L35.1117 42.1497C35.5111 42.1115 35.8161 41.7766 35.8161 41.3763V35.8185C35.8161 35.5918 35.7168 35.3764 35.5444 35.2288C35.3719 35.0813 35.1438 35.0163 34.9189 35.0507L32.1208 35.4812C31.741 35.5396 31.4608 35.8657 31.4608 36.2491V41.6435C31.4608 41.8624 31.5535 42.0712 31.7158 42.2184C31.8597 42.349 32.0467 42.4204 32.2394 42.4204ZM33.018 36.9153L34.2589 36.7243V40.6701L33.018 40.7887V36.9153ZM31.7689 25.2476C31.9059 25.3514 32.0714 25.4056 32.2394 25.4056C32.3096 25.4056 32.3804 25.3962 32.4494 25.3767L35.2482 24.5944C35.5845 24.5004 35.8169 24.1947 35.8169 23.8464V18.2754C35.8169 18.025 35.6959 17.79 35.4919 17.6441C35.2882 17.4983 35.0263 17.459 34.7885 17.5396L31.9896 18.4854C31.6735 18.5923 31.4608 18.8881 31.4608 19.2213V24.6288C31.4608 24.8719 31.5749 25.1008 31.7689 25.2476ZM33.018 19.7783L34.2597 19.3588V23.2572L33.018 23.6043V19.7783ZM31.7947 16.7482C31.9271 16.8401 32.0825 16.8874 32.2396 16.8874C32.3307 16.8874 32.4223 16.8715 32.5101 16.839L35.309 15.8034C35.6143 15.6903 35.8169 15.3999 35.8169 15.075L35.8178 9.86144C35.8178 9.60027 35.6863 9.35659 35.4678 9.21273C35.2493 9.06901 34.9731 9.04441 34.7324 9.14721L31.9327 10.3447C31.6465 10.467 31.4608 10.7479 31.4608 11.0588V16.1105C31.4608 16.3648 31.5855 16.603 31.7947 16.7482ZM33.018 11.5711L34.2603 11.0397L34.2598 14.5343L33.018 14.9938V11.5711ZM9.00775 30.1181C9.14089 30.2121 9.2983 30.2607 9.45727 30.2607C9.5446 30.2607 9.63245 30.246 9.7168 30.2161L11.9949 29.4123C12.3059 29.3025 12.514 29.0092 12.514 28.6801L12.5146 24.441C12.5146 24.1806 12.3841 23.9375 12.1666 23.7937C11.9492 23.6496 11.674 23.6238 11.4338 23.7249L9.15504 24.6826C8.8663 24.8039 8.67866 25.0859 8.67866 25.3985V29.4838C8.67866 29.736 8.80129 29.9724 9.00775 30.1181ZM10.2359 25.9142L10.9573 25.611L10.9569 28.1306L10.2359 28.3849V25.9142ZM13.6141 28.4883C13.7472 28.5821 13.9043 28.6305 14.063 28.6305C14.1509 28.6305 14.2391 28.6157 14.3241 28.5854L16.9478 27.6537C17.2582 27.5435 17.4653 27.2505 17.4653 26.9218V22.3549C17.4653 22.0942 17.3343 21.8511 17.1166 21.7072C16.8986 21.5632 16.6231 21.538 16.3829 21.6396L13.7592 22.7489C13.4713 22.8705 13.2844 23.1522 13.2844 23.4642V27.8536C13.2844 28.1061 13.4074 28.3428 13.6141 28.4883ZM14.8416 23.9786L15.9081 23.5277V26.3736L14.8416 26.7525V23.9786ZM17.1785 36.7932C16.9969 36.6455 16.7582 36.5874 16.5293 36.6345L13.9065 37.1746C13.5448 37.2491 13.2853 37.5668 13.2853 37.9354V42.6198C13.2853 42.8444 13.3826 43.058 13.5524 43.2055C13.6951 43.3295 13.8771 43.3967 14.0639 43.3967C14.0992 43.3967 14.1348 43.3943 14.1702 43.3893L16.793 43.0287C17.1782 42.9758 17.4653 42.6473 17.4653 42.2592V37.3955C17.4653 37.1619 17.3599 36.9406 17.1785 36.7932ZM15.9081 41.582L14.8425 41.7285V38.5683L15.9081 38.349V41.582ZM9.5629 44.0223L11.8402 43.7111C12.2257 43.6584 12.5132 43.3298 12.5132 42.9415V38.4121C12.5132 38.1786 12.4079 37.9575 12.2267 37.8101C12.0454 37.6622 11.8066 37.6037 11.5779 37.6511L9.30064 38.1178C8.93858 38.1919 8.67866 38.5098 8.67866 38.8787V43.2526C8.67866 43.477 8.77598 43.6905 8.94546 43.838C9.08821 43.9622 9.27027 44.0295 9.45727 44.0295C9.49244 44.0295 9.52773 44.027 9.5629 44.0223ZM10.2359 39.5121L10.956 39.3645V42.2636L10.2359 42.362V39.5121ZM8.977 36.9823C9.11533 37.0907 9.28493 37.1478 9.45727 37.1478C9.51943 37.1478 9.58172 37.1403 9.64323 37.1253L11.9205 36.5664C12.2687 36.4811 12.5132 36.1697 12.5132 35.8121V31.2827C12.5132 31.0354 12.3951 30.8027 12.1953 30.6564C11.9954 30.5099 11.7376 30.4671 11.501 30.5415L9.22369 31.256C8.89926 31.3578 8.67866 31.6579 8.67866 31.9971V36.371C8.67866 36.6098 8.7887 36.8351 8.977 36.9823ZM10.2359 32.5671L10.956 32.3412V35.2031L10.2359 35.3799V32.5671ZM17.1468 29.0957C16.9466 28.9494 16.6887 28.9069 16.452 28.9816L13.8293 29.8088C13.5055 29.9108 13.2854 30.2107 13.2854 30.5495V35.2367C13.2854 35.4754 13.3955 35.701 13.5839 35.8482C13.7222 35.9564 13.8917 36.0135 14.064 36.0135C14.1262 36.0135 14.1888 36.006 14.2504 35.991L16.8731 35.3463C17.2211 35.2607 17.4654 34.9495 17.4654 34.592V29.7225C17.4654 29.475 17.3471 29.242 17.1468 29.0957ZM15.9081 33.9831L14.8425 34.2451V31.1186L15.9081 30.7825V33.9831ZM64.2214 60.2078H59.6149V7.09091C59.6149 6.7799 59.4289 6.49879 59.1423 6.37656L44.3394 0.0626369C44.144 -0.0208789 43.9227 -0.0208789 43.7273 0.0626369L28.9244 6.37656C28.6377 6.49866 28.4517 6.77977 28.4517 7.09091V18.1125L21.8844 15.3113C21.689 15.2278 21.4677 15.2278 21.2723 15.3113L5.85775 21.886C5.57109 22.0081 5.38513 22.2892 5.38513 22.6004V60.2078H0.778611C0.348688 60.2078 0 60.5557 0 60.9846V64.2231C0 64.6521 0.348688 65 0.778611 65H64.2214C64.6513 65 65 64.6521 65 64.2231V60.9846C65 60.5557 64.6513 60.2078 64.2214 60.2078ZM58.0576 60.2078H44.812V1.95398L58.0576 7.60353V60.2078ZM43.2547 1.95398V60.2078H40.3052V47.8074L40.7162 47.7684C41.1443 47.7279 41.4583 47.3486 41.4174 46.9215C41.3768 46.4943 40.9982 46.1811 40.5686 46.2218L32.5474 46.9835C32.1193 47.024 31.8052 47.4033 31.8461 47.8304C31.8844 48.2325 32.2235 48.5338 32.6203 48.5338C32.6448 48.5338 32.6699 48.5326 32.6949 48.5303L32.9585 48.5053V60.208H30.009V7.60366L43.2547 1.95398ZM38.748 47.9553V60.2078H34.5158V48.3572L38.748 47.9553ZM28.4517 60.2078H22.3569V17.2027L28.4517 19.8023V60.2078ZM6.94235 23.1131L20.7997 17.2027V60.2078H17.5443V50.2676L17.9554 50.2285C18.3835 50.1879 18.6976 49.8087 18.6567 49.3815C18.6161 48.9543 18.2355 48.64 17.8079 48.6818L9.78662 49.4437C9.35851 49.4842 9.04447 49.8634 9.08535 50.2906C9.12363 50.6926 9.46272 50.9939 9.85955 50.9939C9.88421 50.9939 9.90912 50.9928 9.93417 50.9905L10.1977 50.9655V60.2079H6.94235V23.1131ZM15.9871 50.4156V60.2078H11.7549V50.8175L15.9871 50.4156ZM63.4426 63.4462H1.55722V61.7615H63.4428L63.4426 63.4462ZM50.656 56.9725V9.14126C50.656 8.71229 51.0047 8.36437 51.4347 8.36437C51.8646 8.36437 52.2133 8.71229 52.2133 9.14126V56.9725C52.2133 57.4015 51.8646 57.7494 51.4347 57.7494C51.0047 57.7494 50.656 57.4015 50.656 56.9725ZM54.3569 56.9725V10.7198C54.3569 10.2908 54.7056 9.94288 55.1355 9.94288C55.5654 9.94288 55.9141 10.2908 55.9141 10.7198V56.9725C55.9141 57.4015 55.5654 57.7494 55.1355 57.7494C54.7056 57.7494 54.3569 57.4015 54.3569 56.9725ZM46.9554 56.9725V7.56288C46.9554 7.1339 47.3041 6.78598 47.734 6.78598C48.164 6.78598 48.5127 7.1339 48.5127 7.56288V56.9725C48.5127 57.4015 48.164 57.7494 47.734 57.7494C47.3041 57.7494 46.9554 57.4015 46.9554 56.9725Z" fill="#121E36"/>
<path d="M37.4274 14.6581C37.5596 14.7496 37.7148 14.7967 37.8716 14.7967C37.963 14.7967 38.0552 14.7806 38.1434 14.7478L41.2963 13.575C41.601 13.4617 41.8029 13.1714 41.8029 12.847V7.30117C41.8029 7.03987 41.6713 6.79632 41.4528 6.65246C41.234 6.50874 40.9576 6.48401 40.7174 6.5872L37.5636 7.93731C37.2774 8.0598 37.0919 8.34065 37.0919 8.6514L37.0928 14.0201C37.0928 14.2747 37.2179 14.5129 37.4274 14.6581ZM40.2457 8.47984V12.3076L38.6499 12.9013L38.6493 9.16325L40.2457 8.47984ZM41.4778 15.6174C41.2741 15.4717 41.0123 15.4324 40.7742 15.5132L37.6214 16.58C37.3053 16.6868 37.0928 16.9827 37.0928 17.3157V23.048C37.0928 23.2911 37.2069 23.5202 37.401 23.667C37.5381 23.7706 37.7035 23.8249 37.8714 23.8249C37.9418 23.8249 38.0125 23.8154 38.0817 23.796L41.2345 22.9136C41.5706 22.8194 41.8029 22.5137 41.8029 22.1656V16.2489C41.8029 15.9983 41.6818 15.7633 41.4778 15.6174ZM40.2457 21.5765L38.65 22.0231V17.8725L40.2457 17.3325V21.5765ZM41.531 34.3009C41.3586 34.1531 41.1304 34.0888 40.9054 34.1228L37.7526 34.6088C37.373 34.6673 37.0928 34.9933 37.0928 35.3766V41.1089C37.0928 41.3277 37.1855 41.5367 37.3478 41.6838C37.4917 41.8143 37.6787 41.8858 37.8714 41.8858C37.8961 41.8858 37.921 41.8846 37.9457 41.8823L41.0985 41.5807C41.4979 41.5425 41.8029 41.2077 41.8029 40.8073V34.8907C41.8029 34.6639 41.7035 34.4485 41.531 34.3009ZM40.2457 40.1014L38.65 40.254V36.0428L40.2457 35.7969V40.1014ZM41.5043 24.9604C41.3159 24.8131 41.0702 24.7605 40.8377 24.8177L37.6848 25.594C37.337 25.6796 37.0928 25.9908 37.0928 26.3482V32.076C37.0928 32.3071 37.196 32.5264 37.3744 32.6739C37.5152 32.7905 37.6913 32.8529 37.8714 32.8529C37.9193 32.8529 37.9676 32.8485 38.0153 32.8394L41.1682 32.2474C41.5362 32.1783 41.8029 31.8575 41.8029 31.484V25.572C41.8029 25.3331 41.6927 25.1078 41.5043 24.9604ZM40.2457 30.8397L38.65 31.1393V26.9566L40.2457 26.5638V30.8397ZM31.7423 33.7361C31.8833 33.8527 32.0594 33.9151 32.2395 33.9151C32.2872 33.9151 32.3354 33.9107 32.3831 33.9017L35.182 33.377C35.5501 33.3081 35.8169 32.9873 35.8169 32.6136V27.0425C35.8169 26.8037 35.7069 26.5782 35.5185 26.431C35.3302 26.2836 35.0843 26.2309 34.852 26.2881L32.0531 26.9765C31.7052 27.0619 31.4609 27.3732 31.4609 27.7307V33.1381C31.4609 33.3692 31.564 33.5886 31.7423 33.7361ZM33.0181 28.3394L34.2597 28.0341V31.9691L33.0181 32.2018V28.3394ZM32.2395 42.4204C32.264 42.4204 32.2889 42.4192 32.3137 42.4169L35.1118 42.1497C35.5112 42.1115 35.8162 41.7766 35.8162 41.3763V35.8185C35.8162 35.5918 35.7169 35.3763 35.5444 35.2287C35.372 35.0812 35.1438 35.0162 34.9189 35.0507L32.1209 35.4812C31.741 35.5396 31.4609 35.8656 31.4609 36.249V41.6435C31.4609 41.8623 31.5535 42.0712 31.7159 42.2184C31.8598 42.3489 32.0468 42.4204 32.2395 42.4204ZM33.0181 36.9152L34.2589 36.7242V40.6701L33.0181 40.7887V36.9152ZM31.7689 25.2476C31.906 25.3513 32.0714 25.4056 32.2395 25.4056C32.3097 25.4056 32.3804 25.3961 32.4494 25.3767L35.2483 24.5944C35.5845 24.5004 35.8169 24.1947 35.8169 23.8464V18.2754C35.8169 18.025 35.696 17.79 35.492 17.6441C35.2883 17.4983 35.0264 17.459 34.7885 17.5396L31.9897 18.4854C31.6736 18.5922 31.4609 18.8881 31.4609 19.2213V24.6288C31.4609 24.8719 31.5749 25.1008 31.7689 25.2476ZM33.0181 19.7783L34.2597 19.3588V23.2572L33.0181 23.6042V19.7783ZM31.7948 16.7482C31.9271 16.8401 32.0826 16.8874 32.2396 16.8874C32.3307 16.8874 32.4223 16.8714 32.5102 16.8389L35.309 15.8033C35.6144 15.6903 35.8169 15.3999 35.8169 15.075L35.8178 9.86141C35.8178 9.60025 35.6864 9.35656 35.4679 9.21271C35.2493 9.06898 34.9732 9.04438 34.7325 9.14719L31.9327 10.3446C31.6466 10.467 31.4609 10.7478 31.4609 11.0587V16.1105C31.4609 16.3648 31.5856 16.603 31.7948 16.7482ZM33.0181 11.5711L34.2604 11.0397L34.2598 14.5343L33.0181 14.9938V11.5711ZM9.0078 30.1181C9.14095 30.2121 9.29836 30.2606 9.45732 30.2606C9.54466 30.2606 9.63251 30.246 9.71686 30.2161L11.9949 29.4123C12.306 29.3025 12.514 29.0092 12.514 28.68L12.5147 24.4409C12.5147 24.1806 12.3841 23.9375 12.1666 23.7937C11.9493 23.6495 11.674 23.6238 11.4338 23.7249L9.15509 24.6826C8.86636 24.8039 8.67871 25.0859 8.67871 25.3985V29.4837C8.67871 29.736 8.80134 29.9724 9.0078 30.1181ZM10.2359 25.9142L10.9573 25.6109L10.9569 28.1305L10.2359 28.3848V25.9142ZM13.6142 28.4883C13.7472 28.582 13.9044 28.6305 14.0631 28.6305C14.1509 28.6305 14.2392 28.6157 14.3242 28.5854L16.9478 27.6536C17.2582 27.5435 17.4653 27.2504 17.4653 26.9218V22.3549C17.4653 22.0942 17.3344 21.851 17.1166 21.7072C16.8986 21.5632 16.6231 21.538 16.3829 21.6396L13.7593 22.7489C13.4713 22.8705 13.2845 23.1522 13.2845 23.4641V27.8536C13.2845 28.1061 13.4075 28.3427 13.6142 28.4883ZM14.8417 23.9786L15.9081 23.5277V26.3736L14.8417 26.7525V23.9786ZM17.1785 36.7931C16.997 36.6455 16.7582 36.5874 16.5293 36.6345L13.9066 37.1746C13.5449 37.249 13.2854 37.5668 13.2854 37.9354V42.6198C13.2854 42.8443 13.3827 43.058 13.5524 43.2055C13.6952 43.3295 13.8771 43.3967 14.064 43.3967C14.0993 43.3967 14.1348 43.3942 14.1703 43.3893L16.793 43.0287C17.1783 42.9758 17.4653 42.6473 17.4653 42.2592V37.3955C17.4653 37.1619 17.36 36.9406 17.1785 36.7931ZM15.9081 41.582L14.8426 41.7285V38.5683L15.9081 38.349V41.582ZM9.56295 44.0222L11.8403 43.7111C12.2258 43.6584 12.5132 43.3298 12.5132 42.9414V38.412C12.5132 38.1786 12.408 37.9574 12.2267 37.8101C12.0454 37.6622 11.8067 37.6037 11.578 37.6511L9.30069 38.1177C8.93864 38.1919 8.67871 38.5098 8.67871 38.8787V43.2526C8.67871 43.477 8.77604 43.6905 8.94552 43.838C9.08826 43.9621 9.27033 44.0295 9.45732 44.0295C9.49249 44.0295 9.52779 44.027 9.56295 44.0222ZM10.2359 39.5121L10.956 39.3645V42.2636L10.2359 42.362V39.5121ZM8.97705 36.9823C9.11538 37.0907 9.28499 37.1478 9.45732 37.1478C9.51948 37.1478 9.58177 37.1403 9.64328 37.1252L11.9206 36.5664C12.2688 36.4811 12.5132 36.1697 12.5132 35.812V31.2826C12.5132 31.0353 12.3952 30.8026 12.1953 30.6563C11.9955 30.5099 11.7376 30.467 11.501 30.5415L9.22374 31.256C8.89932 31.3577 8.67871 31.6579 8.67871 31.9971V36.371C8.67871 36.6098 8.78876 36.8351 8.97705 36.9823ZM10.2359 32.5671L10.956 32.3412V35.2031L10.2359 35.3798V32.5671ZM17.1469 29.0957C16.9467 28.9494 16.6888 28.9069 16.4521 28.9816L13.8294 29.8087C13.5056 29.9108 13.2855 30.2107 13.2855 30.5495V35.2366C13.2855 35.4754 13.3955 35.7009 13.584 35.8482C13.7223 35.9564 13.8918 36.0135 14.0641 36.0135C14.1263 36.0135 14.1888 36.006 14.2505 35.991L16.8732 35.3463C17.2211 35.2607 17.4655 34.9494 17.4655 34.5919V29.7225C17.4655 29.4749 17.3471 29.242 17.1469 29.0957ZM15.9081 33.9831L14.8426 34.2451V31.1186L15.9081 30.7824V33.9831Z" fill="#007DFE"/>
</svg>
