<svg width="63" height="63" viewBox="0 0 63 63" fill="none" xmlns="http://www.w3.org/2000/svg">
<path d="M62.9906 60.967L59.2992 24.7912C59.2031 23.8492 58.4097 23.1328 57.463 23.1328H46.3184C46.0085 20.0971 45.6981 17.2296 45.3893 14.6678C45.2775 13.7406 44.4907 13.043 43.5568 13.043H35.5606V10.5205C35.5606 4.71959 30.8411 0 25.0401 0C19.2389 0 14.5195 4.71946 14.5195 10.5205V13.043H6.51823C5.58369 13.043 4.7968 13.7414 4.68557 14.6693C3.90705 21.1696 0.787318 54.4736 0.0131071 60.9348C-0.0496468 61.4587 0.114867 61.9845 0.465181 62.3794C0.815496 62.7741 1.31802 63 1.84577 63H61.1544C61.6764 63 62.1742 62.7789 62.5241 62.3914C62.8741 62.0039 63.0436 61.4863 62.9906 60.967ZM49.3419 26.8242V33.561C49.3419 34.8859 48.6773 36.0877 47.6398 36.8139C47.3255 33.4615 47.0073 30.0818 46.6875 26.8242H49.3419ZM18.2109 10.5205C18.2109 6.7549 21.2744 3.69141 25.0401 3.69141C28.8057 3.69141 31.8692 6.7549 31.8692 10.5205V13.043H18.2109V10.5205ZM8.16029 16.7344H14.5195V21.1641C14.5195 22.1834 15.3459 23.0098 16.3652 23.0098C17.3845 23.0098 18.2109 22.1834 18.2109 21.1641V16.7344H31.8692V21.1641C31.8692 22.1834 32.6956 23.0098 33.7149 23.0098C34.7342 23.0098 35.5606 22.1834 35.5606 21.1641V16.7344H41.9159C42.6374 22.9925 45.4648 53.1751 46.161 59.3086H3.91911C4.62121 53.126 7.44834 22.9447 8.16029 16.7344ZM49.8765 59.3086C49.2552 53.8917 48.6251 47.3137 48.0086 40.75C50.9785 39.6574 53.0333 36.7995 53.0333 33.561V26.8242H55.796L59.1107 59.3086H49.8765Z" fill="#121E36"/>
<path d="M31.0389 32.5119C30.156 32.0019 29.0272 32.3047 28.5177 33.1874L17.628 52.0488C17.1182 52.9317 17.4207 54.0605 18.3036 54.57C18.5942 54.7379 18.9115 54.8176 19.2247 54.8176C19.8626 54.8176 20.483 54.4866 20.8248 53.8945L31.7144 35.0331C32.2242 34.1503 31.9218 33.0214 31.0389 32.5119Z" fill="#007DFE"/>
<path d="M20.6062 41.5719C22.1328 38.9277 21.2237 35.5346 18.5795 34.0079C15.9355 32.4817 12.5425 33.3906 11.0156 36.0346C9.48908 38.6788 10.3983 42.0719 13.0424 43.5986C13.8958 44.0912 14.8425 44.3429 15.802 44.3429C16.2829 44.3429 16.7672 44.2795 17.2441 44.1518C18.6727 43.7689 19.8667 42.8527 20.6062 41.5719ZM17.4094 39.7262C16.9004 40.6074 15.7693 40.9106 14.8881 40.4017C14.0067 39.8928 13.7037 38.7617 14.2125 37.8805C14.5539 37.2888 15.1757 36.9579 15.8142 36.9579C16.1271 36.9579 16.4439 37.0373 16.734 37.2048C17.6152 37.7136 17.9183 38.8448 17.4094 39.7262Z" fill="#007DFE"/>
<path d="M37.0376 43.6055C35.7568 42.8658 34.2647 42.6698 32.8361 43.0522C31.4075 43.435 30.2135 44.3514 29.474 45.6322C27.9476 48.2762 28.8565 51.6693 31.5007 53.1961C32.354 53.6888 33.3007 53.9403 34.2602 53.9403C34.7411 53.9403 35.2254 53.877 35.7023 53.7492C37.1309 53.3665 38.325 52.4501 39.0645 51.1693C39.804 49.8885 40.0004 48.3963 39.6177 46.9677C39.2346 45.539 38.3184 44.345 37.0376 43.6055ZM35.8675 49.3236C35.6209 49.7507 35.2229 50.0559 34.7468 50.1835C34.2706 50.3113 33.7731 50.2456 33.3464 49.9992C32.465 49.4903 32.1619 48.3592 32.6707 47.4779C33.0122 46.8864 33.6338 46.5554 34.2723 46.5554C34.5852 46.5554 34.902 46.6349 35.1921 46.8023C36.0733 47.3111 36.3764 48.4422 35.8675 49.3236Z" fill="#007DFE"/>
</svg>
