<svg width="61" height="62" viewBox="0 0 61 62" fill="none" xmlns="http://www.w3.org/2000/svg">
<mask id="mask0_217_3952" style="mask-type:luminance" maskUnits="userSpaceOnUse" x="0" y="0" width="61" height="62">
<path d="M0 0.0148964H61V61.0149H0V0.0148964Z" fill="white"/>
</mask>
<g mask="url(#mask0_217_3952)">
<path d="M18.7368 42.5536C18.7368 42.5536 17.2101 41.2703 15.4099 41.8127C13.7569 42.3107 13.5258 44.2167 14.7216 44.9963C14.7216 44.9963 15.895 45.5197 17.1965 46C20.3297 47.1555 18.9801 50.1866 16.4579 50.1866C15.1948 50.1866 14.1349 49.6335 13.4932 48.9255" stroke="#007DFE" stroke-width="1.81641" stroke-miterlimit="10" stroke-linecap="square" stroke-linejoin="round"/>
<path d="M28.4371 46.7858C28.4371 48.4437 27.0932 49.7876 25.4355 49.7876C23.7776 49.7876 22.4336 48.4437 22.4336 46.7858C22.4336 45.1281 23.7776 43.7842 25.4355 43.7842C27.0932 43.7842 28.4371 45.1281 28.4371 46.7858Z" stroke="#007DFE" stroke-width="1.81641" stroke-miterlimit="10" stroke-linecap="round" stroke-linejoin="bevel"/>
<path d="M28.4375 43.385V50.1868" stroke="#007DFE" stroke-width="1.81641" stroke-miterlimit="10" stroke-linecap="square" stroke-linejoin="bevel"/>
<path d="M38.0152 46.7858C38.0152 48.4436 36.6713 49.7875 35.0135 49.7875C33.3557 49.7875 32.0117 48.4436 32.0117 46.7858C32.0117 45.1281 33.3557 43.7842 35.0135 43.7842C36.6713 43.7842 38.0152 45.1281 38.0152 46.7858Z" stroke="#007DFE" stroke-width="1.81641" stroke-miterlimit="10" stroke-linecap="round" stroke-linejoin="bevel"/>
<path d="M38.0146 43.385V50.1867" stroke="#007DFE" stroke-width="1.81641" stroke-miterlimit="10" stroke-linecap="square" stroke-linejoin="bevel"/>
<path d="M47.2251 42.5536C47.2251 42.5536 45.6985 41.2703 43.8983 41.8127C42.2452 42.3107 42.0141 44.2167 43.21 44.9963C43.21 44.9963 44.3833 45.5197 45.6849 46C48.8181 47.1555 47.4685 50.1866 44.9463 50.1866C43.6831 50.1866 42.6231 49.6335 41.9814 48.9255" stroke="#007DFE" stroke-width="1.81641" stroke-miterlimit="10" stroke-linecap="square" stroke-linejoin="round"/>
<path d="M39.2275 54.2422H12.8379C10.8721 54.2422 9.26367 52.6339 9.26367 50.668V41.1978C9.26367 39.232 10.8721 37.6237 12.8379 37.6237H48.1631C50.1289 37.6237 51.7373 39.2321 51.7373 41.1978V50.668C51.7373 52.6339 50.1289 54.2422 48.1631 54.2422H44.5889M42.8018 54.2422H41.0146" stroke="black" stroke-width="1.81641" stroke-miterlimit="22.926"/>
<path d="M9.26318 41.1978C4.47325 40.1253 0.893555 35.8483 0.893555 30.7348C0.893555 20.5574 13.6714 16.2855 19.9214 23.9508M19.369 10.2982C21.7663 8.15029 24.8727 6.78756 28.1826 6.78756C35.5896 6.78756 41.6031 12.7482 41.6911 20.1343C42.6151 19.3452 43.814 18.8684 45.1244 18.8684C48.2273 18.8684 50.6516 21.5197 50.3955 24.6023C55.4965 23.8556 60.1064 27.7938 60.1064 32.9847C60.1064 37.6296 56.3685 41.1425 51.7368 41.1978M14.6741 20.4431C14.6363 17.1934 15.9564 14.038 18.1038 11.5801" stroke="black" stroke-width="1.81641" stroke-miterlimit="22.926"/>
<path d="M34.9951 14.9547H36.7822M36.7822 18.5289H38.5693" stroke="black" stroke-width="1.81641" stroke-miterlimit="2.613"/>
</g>
</svg>
