<svg width="62" height="62" viewBox="0 0 62 62" fill="none" xmlns="http://www.w3.org/2000/svg">
<path d="M5.25317 29.5614C5.25315 29.6036 5.25594 29.6457 5.26152 29.6875L8.85526 56.6401C8.94865 57.3265 9.28718 57.9559 9.80836 58.4123C10.3295 58.8686 10.9982 59.1209 11.6909 59.1228H51.9793C52.7377 59.122 53.4649 58.8203 54.0012 58.284C54.5375 57.7477 54.8392 57.0205 54.84 56.262V52.5108L58.6461 23.966C58.6461 23.9618 58.6461 23.9577 58.647 23.954C58.6493 23.9347 58.6505 23.9152 58.6517 23.8955C58.6525 23.8812 58.6536 23.867 58.6538 23.8527C58.6538 23.8485 58.6538 23.8445 58.6538 23.8408V20.0255C58.6538 19.7726 58.5534 19.53 58.3745 19.3512C58.1957 19.1723 57.9531 19.0719 57.7002 19.0719H38.629C38.376 19.0719 38.1335 19.1723 37.9547 19.3512C37.7758 19.53 37.6754 19.7726 37.6754 20.0255V23.8398C37.6754 23.8441 37.6754 23.8482 37.6754 23.8518C37.6754 23.8661 37.6767 23.8803 37.6775 23.8946C37.6787 23.9142 37.6799 23.9338 37.6822 23.9531C37.6822 23.9571 37.6822 23.9612 37.6831 23.965L39.4412 37.1502C37.524 37.0046 36.9313 36.4857 36.7578 36.2424C36.6959 36.1549 36.6546 36.0547 36.6369 35.9491C36.6191 35.8435 36.6253 35.7352 36.6551 35.6323C36.7195 35.4911 36.7468 35.3357 36.7343 35.181C36.7218 35.0263 36.6699 34.8773 36.5836 34.7482C36.4941 34.6153 36.3723 34.5072 36.2298 34.434C36.0872 34.3607 35.9284 34.3247 35.7682 34.3294C33.8709 34.3294 32.4085 34.6989 31.204 35.2479L31.9455 29.6875C31.951 29.6457 31.9538 29.6036 31.9538 29.5614C31.952 27.2765 31.3194 25.0364 30.1257 23.088C28.932 21.1397 27.2235 19.5587 25.1886 18.5194C25.27 18.3455 25.2968 18.151 25.2656 17.9615L24.3121 12.24C24.275 12.0173 24.1601 11.815 23.9878 11.6691C23.8156 11.5232 23.5972 11.4431 23.3715 11.4431H22.4179V7.62875H29.093C29.3459 7.62875 29.5885 7.52829 29.7673 7.34945C29.9461 7.17062 30.0466 6.92807 30.0466 6.67516V2.86079C30.0466 2.73022 30.0198 2.60104 29.9678 2.48127C29.9158 2.36149 29.8398 2.25366 29.7445 2.16446C29.6491 2.07526 29.5365 2.00659 29.4135 1.9627C29.2906 1.91882 29.1599 1.90065 29.0296 1.90934L14.7257 2.86293C14.5368 2.87553 14.356 2.94406 14.2062 3.05979C14.0563 3.17552 13.9444 3.33322 13.8845 3.51281L12.9309 6.37359C12.8831 6.51693 12.8701 6.66957 12.8929 6.81894C12.9157 6.96831 12.9736 7.11013 13.0619 7.23271C13.1503 7.35529 13.2665 7.45512 13.401 7.52398C13.5355 7.59283 13.6844 7.62875 13.8355 7.62875H14.7891V11.4431H13.8355C13.6098 11.4431 13.3914 11.5232 13.2191 11.6691C13.0469 11.815 12.932 12.0173 12.8949 12.24L11.9413 17.9615C11.9101 18.151 11.937 18.3455 12.0183 18.5194C9.98344 19.5587 8.275 21.1397 7.0813 23.088C5.8876 25.0364 5.25498 27.2765 5.25317 29.5614ZM44.3505 57.2156H21.3411C21.1209 57.2154 20.9098 57.1278 20.7542 56.9721C20.5985 56.8165 20.5109 56.6053 20.5107 56.3852V46.603C20.5109 46.3828 20.5985 46.1717 20.7542 46.016C20.9098 45.8603 21.1209 45.7727 21.3411 45.7725H44.4736C44.6938 45.7727 44.9049 45.8603 45.0606 46.016C45.2163 46.1717 45.3039 46.3828 45.3041 46.603V56.3852C45.3039 56.6053 45.2163 56.8165 45.0606 56.9721C44.9049 57.1278 44.6938 57.2154 44.4736 57.2156H44.3505ZM23.3715 41.9581H42.4433V43.8653H23.3715V41.9581ZM52.9329 56.262C52.9326 56.5149 52.832 56.7572 52.6532 56.936C52.4745 57.1148 52.2321 57.2153 51.9793 57.2156H47.0822C47.1678 56.9471 47.2114 56.667 47.2113 56.3852V53.4013H52.9329V56.262ZM53.0521 51.4941H47.2113V46.603C47.2105 45.8771 46.9218 45.1813 46.4086 44.6681C45.8953 44.1548 45.1995 43.8661 44.4736 43.8653H44.3505V41.0045C44.3505 40.9778 44.3487 40.9516 44.3466 40.9254C44.3466 40.9217 44.3456 40.9149 44.345 40.9089V40.9057C44.2733 40.2807 44.0843 39.6748 43.788 39.1199C43.549 38.6535 43.2091 38.2463 42.793 37.9278C42.3769 37.6094 41.895 37.3877 41.3825 37.2788L39.7181 24.7934H56.6117L53.0521 51.4941ZM39.5825 20.9791H56.7472V22.8863H39.5825V20.9791ZM35.1624 37.2883C35.9688 38.4887 37.7767 39.0973 40.5361 39.0973C41.2513 39.0973 41.744 39.3797 42.0881 39.9862C42.1 40.0078 42.112 40.0294 42.1229 40.0509H27.7843C28.1913 39.7391 28.5788 39.4117 28.963 39.0866C30.5157 37.7727 31.9913 36.5238 34.7568 36.2796C34.8181 36.641 34.9565 36.985 35.1624 37.2883ZM15.4913 4.72327L28.1394 3.88006V5.72157H15.1586L15.4913 4.72327ZM16.6963 7.62875H20.5107V11.4431H16.6963V7.62875ZM14.0076 17.1647L14.6433 13.3503H22.5636L23.1993 17.1647H14.0076ZM17.6499 19.0719H19.5571C22.3274 19.075 24.9843 20.1726 26.949 22.1257C28.9137 24.0788 30.0271 26.7292 30.0466 29.4994L29.1116 36.5107C28.6209 36.878 28.1687 37.26 27.7309 37.6305C26.1965 38.9294 24.8709 40.0509 22.4179 40.0509C22.165 40.0509 21.9224 40.1514 21.7436 40.3302C21.5647 40.5091 21.4643 40.7516 21.4643 41.0045V43.8653H21.3411C20.6153 43.8661 19.9195 44.1548 19.4062 44.6681C18.893 45.1813 18.6043 45.8771 18.6035 46.603V56.3852C18.6034 56.667 18.6469 56.9471 18.7326 57.2156H11.6909C11.46 57.215 11.2371 57.1308 11.0634 56.9787C10.8896 56.8266 10.7768 56.6168 10.7456 56.388L7.16036 29.4994C7.17986 26.7292 8.29322 24.0788 10.2579 22.1257C12.2227 20.1726 14.8796 19.075 17.6499 19.0719Z" fill="black"/>
<path d="M32.9074 47.6797C32.153 47.6797 31.4155 47.9034 30.7882 48.3225C30.161 48.7417 29.6721 49.3374 29.3834 50.0344C29.0947 50.7313 29.0191 51.4983 29.1663 52.2382C29.3135 52.9781 29.6768 53.6578 30.2102 54.1912C30.7437 54.7247 31.4233 55.088 32.1632 55.2351C32.9032 55.3823 33.6701 55.3068 34.3671 55.0181C35.0641 54.7294 35.6598 54.2405 36.0789 53.6132C36.4981 52.9859 36.7218 52.2485 36.7218 51.4941C36.7206 50.4828 36.3184 49.5132 35.6033 48.7981C34.8882 48.0831 33.9187 47.6808 32.9074 47.6797ZM32.9074 53.4012C32.5302 53.4012 32.1615 53.2894 31.8478 53.0798C31.5342 52.8703 31.2897 52.5724 31.1454 52.2239C31.001 51.8754 30.9633 51.4919 31.0369 51.122C31.1104 50.752 31.2921 50.4122 31.5588 50.1455C31.8255 49.8788 32.1654 49.6971 32.5353 49.6235C32.9053 49.5499 33.2887 49.5877 33.6372 49.7321C33.9857 49.8764 34.2836 50.1208 34.4932 50.4345C34.7027 50.7481 34.8146 51.1169 34.8146 51.4941C34.814 51.9997 34.6129 52.4844 34.2553 52.842C33.8978 53.1995 33.413 53.4007 32.9074 53.4012Z" fill="#007DFE"/>
<path d="M48.1647 34.3294C50.8824 34.3294 52.9327 33.0996 52.9327 31.4686C52.9327 29.8376 50.8824 28.6078 48.1647 28.6078C45.447 28.6078 43.3967 29.8376 43.3967 31.4686C43.3967 33.0996 45.447 34.3294 48.1647 34.3294ZM48.1647 30.515C50.0109 30.515 51.0255 31.2313 51.0255 31.4686C51.0255 31.7059 50.0109 32.4222 48.1647 32.4222C46.3185 32.4222 45.3039 31.7059 45.3039 31.4686C45.3039 31.2313 46.3185 30.515 48.1647 30.515Z" fill="#007DFE"/>
<path d="M12.8818 33.3758H24.3249C24.5779 33.3758 24.8204 33.2753 24.9992 33.0965C25.1781 32.9177 25.2785 32.6751 25.2785 32.4222V26.7006C25.2785 26.4477 25.1781 26.2052 24.9992 26.0263C24.8204 25.8475 24.5779 25.747 24.3249 25.747H12.8818C12.6289 25.747 12.3864 25.8475 12.2075 26.0263C12.0287 26.2052 11.9282 26.4477 11.9282 26.7006V32.4222C11.9282 32.6751 12.0287 32.9177 12.2075 33.0965C12.3864 33.2753 12.6289 33.3758 12.8818 33.3758ZM13.8354 27.6542H23.3713V31.4686H13.8354V27.6542Z" fill="#007DFE"/>
</svg>
