<svg width="20" height="14" viewBox="0 0 20 14" fill="none" xmlns="http://www.w3.org/2000/svg">
<path d="M10.0456 0.683878C9.85688 0.682677 9.66976 0.722486 9.49502 0.801021C9.32027 0.879557 9.16133 0.995273 9.02732 1.14154L0.421802 10.6104C0.151727 10.9075 0 11.3106 0 11.7308C0 12.1511 0.151727 12.5541 0.421802 12.8513C0.691877 13.1485 1.05818 13.3154 1.44012 13.3154C1.82206 13.3154 2.18836 13.1485 2.45844 12.8513L10.0456 4.48719L17.6328 12.8355C17.9072 13.0941 18.2601 13.2292 18.6211 13.2138C18.9821 13.1985 19.3245 13.0338 19.5799 12.7528C19.8354 12.4717 19.985 12.095 19.9989 11.6978C20.0129 11.3006 19.8901 10.9123 19.6551 10.6104L11.0496 1.14154C10.7825 0.849985 10.4219 0.685621 10.0456 0.683878Z" fill="black"/>
</svg>
