<svg width="23" height="24" viewBox="0 0 23 24" fill="none" xmlns="http://www.w3.org/2000/svg">
<g clip-path="url(#clip0_18_63)">
<g clip-path="url(#clip1_18_63)">
<g clip-path="url(#clip2_18_63)">
<mask id="mask0_18_63" style="mask-type:luminance" maskUnits="userSpaceOnUse" x="0" y="0" width="23" height="24">
<path d="M22.6633 0.574707H0.21167V23.0263H22.6633V0.574707Z" fill="white"/>
</mask>
<g mask="url(#mask0_18_63)">
<path fill-rule="evenodd" clip-rule="evenodd" d="M19.3519 3.83767C17.2508 1.73471 14.4574 0.575643 11.4817 0.574707C5.34961 0.574707 0.358806 5.56458 0.356 11.6995C0.355064 13.6603 0.86771 15.5742 1.84154 17.2619L0.262451 23.0263L6.15974 21.4791C7.7847 22.3659 9.61446 22.8327 11.4761 22.8336H11.4808C17.6119 22.8336 22.6037 17.8428 22.6065 11.7079C22.6083 8.73588 21.4521 5.93971 19.3519 3.83767ZM11.4817 20.9542H11.478C9.81842 20.9542 8.19158 20.508 6.77155 19.6651L6.43384 19.4649L2.93419 20.3826L3.86874 16.97L3.6489 16.6201C2.72277 15.1477 2.23445 13.4461 2.23539 11.6995C2.23726 6.60109 6.38613 2.45316 11.4864 2.45316C13.956 2.45316 16.2779 3.4167 18.0236 5.16419C19.7692 6.91261 20.7299 9.23542 20.729 11.706C20.7261 16.8063 16.5782 20.9542 11.4817 20.9542ZM16.5539 14.0288C16.2761 13.8894 14.9093 13.2169 14.6539 13.1242C14.3995 13.0316 14.2142 12.9849 14.0281 13.2626C13.8419 13.5405 13.3106 14.1673 13.1478 14.3534C12.986 14.5387 12.8232 14.5621 12.5453 14.4227C12.2676 14.2833 11.3713 13.9905 10.3096 13.0428C9.48351 12.3057 8.92506 11.3954 8.76317 11.1167C8.60135 10.8379 8.74632 10.6882 8.88477 10.5498C9.01016 10.4253 9.16262 10.2252 9.30203 10.0624C9.44233 9.90146 9.48818 9.78549 9.58174 9.59934C9.67434 9.41408 9.62848 9.2513 9.55837 9.11196C9.48818 8.97344 8.93255 7.60487 8.70144 7.04826C8.47604 6.50567 8.24678 6.57958 8.07561 6.57116C7.9138 6.56274 7.72854 6.56181 7.54238 6.56181C7.35716 6.56181 7.05593 6.63103 6.80148 6.9098C6.54703 7.18858 5.82858 7.86121 5.82858 9.22889C5.82858 10.5975 6.82487 11.9193 6.96332 12.1046C7.10177 12.2897 8.92313 15.0981 11.7118 16.3021C12.3751 16.5883 12.8934 16.7595 13.2965 16.8877C13.9626 17.0991 14.5688 17.0691 15.0478 16.9981C15.5819 16.9185 16.6924 16.3254 16.9244 15.6762C17.1564 15.027 17.1564 14.4695 17.0862 14.3544C17.017 14.2375 16.8317 14.1683 16.5539 14.0288Z" fill="white"/>
</g>
</g>
</g>
</g>
<defs>
<clipPath id="clip0_18_63">
<rect width="23" height="23.73" fill="white"/>
</clipPath>
<clipPath id="clip1_18_63">
<rect width="23" height="23.73" fill="white"/>
</clipPath>
<clipPath id="clip2_18_63">
<rect width="23" height="23.7419" fill="white" transform="translate(0 -0.00585938)"/>
</clipPath>
</defs>
</svg>
