<svg width="200" height="51" viewBox="0 0 200 51" fill="none" xmlns="http://www.w3.org/2000/svg">
<g clip-path="url(#clip0_176_1791)">
<path d="M46.5585 23.5194H7.42875C6.43239 23.5194 5.61719 22.7119 5.61719 21.7249V18.9881C5.61719 15.8924 8.15337 13.38 11.2783 13.38H42.6636C45.7886 13.38 48.3247 15.8924 48.3247 18.9881V21.7249C48.37 22.7119 47.5548 23.5194 46.5585 23.5194Z" fill="black"/>
<path d="M38.3168 10.4191H15.6723C14.6759 10.4191 13.8154 9.61154 13.8154 8.57965C13.8154 4.00344 17.5744 0.279663 22.1939 0.279663H31.7952C36.4147 0.279663 40.1736 4.00344 40.1736 8.57965C40.1736 9.61154 39.3584 10.4191 38.3168 10.4191Z" fill="black"/>
<path d="M48.3705 26.4806H5.61766C2.80974 26.4806 0.5 28.7687 0.5 31.5503C0.5 34.3319 2.80974 36.62 5.61766 36.62H20.7895C21.333 33.7487 23.8691 31.5503 26.9488 31.5503C30.0284 31.5503 32.6099 33.7487 33.1534 36.62H48.3252C51.1331 36.62 53.4429 34.3319 53.4429 31.5503C53.4429 28.7687 51.1784 26.4806 48.3705 26.4806Z" fill="black"/>
<path d="M46.5138 39.5811H33.2441V49.7205H43.2077C46.0156 49.7205 48.3254 47.4324 48.3254 44.6508V41.4205C48.3707 40.4335 47.5555 39.5811 46.5138 39.5811Z" fill="black"/>
<path d="M7.42912 39.5811C6.43276 39.5811 5.57227 40.3886 5.57227 41.4205V44.6508C5.57227 47.4324 7.88201 49.7205 10.6899 49.7205H20.6535V39.5811C20.6988 39.5811 7.42912 39.5811 7.42912 39.5811Z" fill="black"/>
<path d="M93.9765 28.5441C93.9765 34.0625 90.1269 37.6068 85.0998 37.6068C82.6995 37.6068 80.7974 36.8441 79.5293 35.3187V37.3376H74.5928V13.0658H79.7557V21.635C81.0691 20.1993 82.8807 19.4815 85.0998 19.4815C90.0816 19.4815 93.9765 23.0258 93.9765 28.5441ZM88.7229 28.5441C88.7229 25.4933 86.7755 23.6539 84.194 23.6539C81.6126 23.6539 79.6651 25.4933 79.6651 28.5441C79.6651 31.595 81.6126 33.4344 84.194 33.4344C86.7755 33.4344 88.7229 31.595 88.7229 28.5441Z" fill="black"/>
<path d="M110.824 31.8193L113.587 34.7803C111.957 36.6647 109.466 37.6068 106.25 37.6068C100.091 37.6068 96.1055 33.7933 96.1055 28.5441C96.1055 23.295 100.136 19.4814 105.616 19.4814C110.643 19.4814 114.765 22.7566 114.81 28.4095L101.631 30.922C102.401 32.6717 104.031 33.5241 106.341 33.5241C108.243 33.5241 109.602 32.9857 110.824 31.8193ZM101.133 28.0058L109.783 26.3458C109.285 24.5512 107.745 23.3398 105.571 23.3398C103.035 23.3398 101.223 25.0447 101.133 28.0058Z" fill="black"/>
<path d="M131.657 31.8193L134.42 34.7803C132.79 36.6647 130.299 37.6068 127.083 37.6068C120.924 37.6068 116.938 33.7933 116.938 28.5441C116.938 23.295 120.969 19.4814 126.449 19.4814C131.476 19.4814 135.598 22.7566 135.643 28.4095L122.509 30.922C123.279 32.6717 124.909 33.5241 127.219 33.5241C129.076 33.5241 130.435 32.9857 131.657 31.8193ZM121.966 28.0058L130.616 26.3458C130.118 24.5512 128.578 23.3398 126.404 23.3398C123.868 23.3398 122.101 25.0447 121.966 28.0058Z" fill="black"/>
<path d="M157.29 27.2881V37.3826H152.127V28.0508C152.127 25.2243 150.814 23.8783 148.504 23.8783C146.013 23.8783 144.247 25.4037 144.247 28.634V37.3378H139.084V13.0659H144.247V21.5902C145.651 20.1994 147.644 19.4816 149.908 19.4816C154.12 19.4816 157.29 21.9043 157.29 27.2881Z" fill="black"/>
<path d="M161.321 14.4118C161.321 12.7966 162.635 11.5404 164.537 11.5404C166.439 11.5404 167.752 12.7069 167.752 14.2772C167.752 15.982 166.439 17.2382 164.537 17.2382C162.635 17.2382 161.321 16.0269 161.321 14.4118ZM161.955 19.7507H167.118V37.3825H161.955C161.955 37.3377 161.955 19.7507 161.955 19.7507Z" fill="black"/>
<path d="M171.285 14.4119C171.285 12.7967 172.599 11.5405 174.501 11.5405C176.403 11.5405 177.716 12.707 177.716 14.2773C177.716 15.9821 176.403 17.2384 174.501 17.2384C172.599 17.2384 171.285 16.027 171.285 14.4119ZM171.919 19.7508H177.082V37.3826H171.919C171.919 37.3378 171.919 19.7508 171.919 19.7508Z" fill="black"/>
<path d="M199.5 19.7509L191.982 37.3827H186.638L179.165 19.7509H184.509L189.446 31.7298L194.518 19.7509C194.563 19.7509 199.5 19.7509 199.5 19.7509Z" fill="black"/>
</g>
<defs>
<clipPath id="clip0_176_1791">
<rect width="199" height="49.9085" fill="white" transform="translate(0.5 0.279663)"/>
</clipPath>
</defs>
</svg>
