<svg width="188" height="65" viewBox="0 0 188 65" fill="none" xmlns="http://www.w3.org/2000/svg">
<g clip-path="url(#clip0_176_1711)">
<path d="M110.424 18.1934C110.424 22.9246 106.695 26.4109 102.119 26.4109C97.5432 26.4109 93.8145 22.9246 93.8145 18.1934C93.8145 13.4288 97.5432 9.97583 102.119 9.97583C106.695 9.97583 110.424 13.4288 110.424 18.1934ZM106.789 18.1934C106.789 15.2368 104.627 13.2139 102.119 13.2139C99.611 13.2139 97.4499 15.2368 97.4499 18.1934C97.4499 21.1203 99.611 23.1728 102.119 23.1728C104.627 23.1728 106.789 21.1166 106.789 18.1934Z" fill="#EA4335"/>
<path d="M128.34 18.1934C128.34 22.9246 124.611 26.4109 120.035 26.4109C115.459 26.4109 111.73 22.9246 111.73 18.1934C111.73 13.4325 115.459 9.97583 120.035 9.97583C124.611 9.97583 128.34 13.4288 128.34 18.1934ZM124.705 18.1934C124.705 15.2368 122.544 13.2139 120.035 13.2139C117.527 13.2139 115.366 15.2368 115.366 18.1934C115.366 21.1203 117.527 23.1728 120.035 23.1728C122.544 23.1728 124.705 21.1166 124.705 18.1934Z" fill="#FBBC05"/>
<path d="M145.509 10.4722V25.2252C145.509 31.2939 141.904 33.7725 137.641 33.7725C133.629 33.7725 131.214 31.1087 130.303 28.9302L133.468 27.6223C134.032 28.9598 135.413 30.5381 137.637 30.5381C140.366 30.5381 142.057 28.8672 142.057 25.7217V24.5398H141.93C141.116 25.5364 139.548 26.4071 137.57 26.4071C133.431 26.4071 129.639 22.8281 129.639 18.2229C129.639 13.5843 133.431 9.97571 137.57 9.97571C139.545 9.97571 141.112 10.8464 141.93 11.8134H142.057V10.4759H145.509V10.4722ZM142.314 18.2229C142.314 15.3293 140.37 13.2138 137.895 13.2138C135.387 13.2138 133.285 15.3293 133.285 18.2229C133.285 21.0868 135.387 23.1727 137.895 23.1727C140.37 23.1727 142.314 21.0868 142.314 18.2229Z" fill="#4285F4"/>
<path d="M151.201 1.82483V25.9069H147.655V1.82483H151.201Z" fill="#34A853"/>
<path d="M165.019 20.8978L167.84 22.7651C166.93 24.1026 164.735 26.407 160.943 26.407C156.24 26.407 152.728 22.7984 152.728 18.1895C152.728 13.3027 156.27 9.97192 160.536 9.97192C164.832 9.97192 166.933 13.3656 167.62 15.1996L167.997 16.1332L156.93 20.6829C157.778 22.3316 159.095 23.1726 160.943 23.1726C162.794 23.1726 164.078 22.2686 165.019 20.8978ZM156.333 17.9412L163.731 14.8921C163.324 13.8658 162.1 13.1508 160.659 13.1508C158.812 13.1508 156.24 14.7698 156.333 17.9412Z" fill="#EA4335"/>
<path d="M80.3921 16.0555V12.5691H92.2278C92.3435 13.1767 92.4033 13.8955 92.4033 14.6735C92.4033 17.2892 91.6829 20.5236 89.3613 22.8281C87.1031 25.1622 84.2179 26.4071 80.3958 26.4071C73.3116 26.4071 67.3545 20.6792 67.3545 13.6473C67.3545 6.61529 73.3116 0.887451 80.3958 0.887451C84.3149 0.887451 87.1068 2.41389 89.2045 4.40344L86.7261 6.86352C85.2219 5.46305 83.184 4.3738 80.3921 4.3738C75.2189 4.3738 71.1728 8.51221 71.1728 13.6473C71.1728 18.7823 75.2189 22.9207 80.3921 22.9207C83.7476 22.9207 85.6586 21.5832 86.8829 20.368C87.8757 19.3825 88.5289 17.9746 88.7865 16.0518L80.3921 16.0555Z" fill="#4285F4"/>
<path d="M77.0681 39.3584L73.4232 49.3661H80.8599L77.1856 39.3584H77.0681ZM70.2781 58.0317H67.1035L75.5102 35.8572H78.7729L87.1796 58.0317H84.005L81.8593 52.0212H72.4532L70.2781 58.0317Z" fill="#747474"/>
<path d="M88.627 42.8597H91.39V44.9604H91.5076C91.9338 44.2237 92.6025 43.611 93.5063 43.1222C94.4249 42.6189 95.3655 42.3636 96.3282 42.3636C98.2094 42.3636 99.6497 42.9034 100.649 43.9684C101.663 45.0187 102.178 46.5287 102.178 48.4908V58.0317H99.297V48.695C99.2382 46.2077 97.9816 44.9604 95.5345 44.9604C94.3955 44.9604 93.4329 45.4272 92.6539 46.3609C91.8897 47.28 91.5076 48.3668 91.5076 49.6287V58.0317H88.627V42.8597Z" fill="#747474"/>
<path d="M107.494 53.3924C107.494 54.1364 107.803 54.7564 108.435 55.2597C109.059 55.7484 109.802 55.9892 110.669 55.9892C111.859 55.9892 112.932 55.5515 113.873 54.6762C114.828 53.7863 115.313 52.7359 115.313 51.5251C114.409 50.8248 113.153 50.4747 111.551 50.4747C110.389 50.4747 109.419 50.7592 108.641 51.3208C107.876 51.8679 107.494 52.5609 107.494 53.3924ZM111.198 42.3635C113.314 42.3635 114.975 42.9325 116.195 44.0558C117.429 45.1864 118.047 46.7328 118.047 48.6949V58.0315H115.313V55.9308H115.195C113.998 57.6668 112.41 58.5276 110.434 58.5276C108.743 58.5276 107.333 58.0315 106.201 57.0395C105.084 56.0475 104.525 54.8148 104.525 53.3341C104.525 51.7585 105.121 50.5185 106.318 49.5994C107.509 48.6657 109.111 48.1989 111.11 48.1989C112.814 48.1989 114.211 48.5053 115.313 49.1034V48.4615C115.313 47.4695 114.909 46.6379 114.108 45.9523C113.322 45.252 112.403 44.9019 111.345 44.9019C109.735 44.9019 108.472 45.573 107.553 46.9151L105.025 45.3396C106.414 43.3555 108.472 42.3635 111.198 42.3635Z" fill="#747474"/>
<path d="M124.056 35.8572V58.0317H121.176V35.8572H124.056Z" fill="#747474"/>
<path d="M140.99 42.8596L131.408 64.7132H128.468L132.025 57.0688L125.705 42.8596H128.821L133.377 53.7718H133.436L137.874 42.8596H140.99Z" fill="#747474"/>
<path d="M148.881 58.265C147.646 58.265 146.617 57.8857 145.794 57.1271C144.971 56.3685 144.545 55.3109 144.53 53.9468V45.4563H141.826V42.8596H144.53V38.2205H147.382V42.8596H151.144V45.4563H147.382V53.0132C147.382 54.0271 147.573 54.72 147.97 55.0847C148.381 55.4349 148.829 55.6099 149.322 55.6099C149.557 55.6099 149.777 55.5953 149.998 55.5516C150.211 55.4932 150.417 55.4276 150.615 55.3473L151.497 57.8857C150.747 58.1337 149.88 58.265 148.881 58.265Z" fill="#747474"/>
<path d="M157.426 37.637C157.426 38.1841 157.221 38.6582 156.809 39.0667C156.412 39.4605 155.942 39.6502 155.398 39.6502C154.825 39.6502 154.347 39.4605 153.958 39.0667C153.561 38.6582 153.37 38.1841 153.37 37.637C153.37 37.0753 153.561 36.6012 153.958 36.2073C154.347 35.8207 154.825 35.6238 155.398 35.6238C155.942 35.6238 156.412 35.8207 156.809 36.2073C157.221 36.6012 157.426 37.0753 157.426 37.637ZM156.839 42.8597V58.0317H153.958V42.8597H156.839Z" fill="#747474"/>
<path d="M166.514 58.5276C164.236 58.5276 162.355 57.7617 160.871 56.2226C159.401 54.6689 158.666 52.7432 158.666 50.4455C158.666 48.1114 159.401 46.1857 160.871 44.6685C162.355 43.1367 164.236 42.3635 166.514 42.3635C168.079 42.3635 169.439 42.7574 170.6 43.5306C171.754 44.3111 172.628 45.3833 173.216 46.7401L170.6 47.8196C169.792 45.9158 168.373 44.9603 166.338 44.9603C165.022 44.9603 163.883 45.4855 162.928 46.5358C161.988 47.5862 161.517 48.8919 161.517 50.4455C161.517 52.0065 161.988 53.3049 162.928 54.3552C163.883 55.4056 165.022 55.9308 166.338 55.9308C168.432 55.9308 169.902 54.9826 170.747 53.0715L173.304 54.151C172.753 55.515 171.879 56.5873 170.688 57.3605C169.49 58.1337 168.101 58.5276 166.514 58.5276Z" fill="#747474"/>
<path d="M187.5 53.8301C187.5 55.1576 186.912 56.2736 185.736 57.1854C184.575 58.0753 183.12 58.5276 181.357 58.5276C179.828 58.5276 178.476 58.1264 177.3 57.3313C176.139 56.5362 175.309 55.4859 174.802 54.1802L177.359 53.1006C177.749 54.0197 178.3 54.7273 179.005 55.2306C179.725 55.7412 180.512 55.9892 181.357 55.9892C182.275 55.9892 183.039 55.7995 183.649 55.4056C184.274 55.019 184.59 54.5522 184.59 54.0051C184.59 53.035 183.833 52.3275 182.327 51.8752L179.711 51.2333C176.727 50.4747 175.243 49.045 175.243 46.9443C175.243 45.5657 175.808 44.457 176.948 43.6181C178.079 42.7866 179.534 42.3635 181.298 42.3635C182.65 42.3635 183.87 42.6845 184.972 43.3264C186.067 43.9683 186.831 44.829 187.265 45.8939L184.708 46.9443C184.414 46.3024 183.929 45.8064 183.267 45.4563C182.621 45.0916 181.893 44.9019 181.092 44.9019C180.343 44.9019 179.666 45.0916 179.064 45.4563C178.476 45.8283 178.182 46.2878 178.182 46.8276C178.182 47.6883 179.005 48.3083 180.651 48.6949L182.944 49.2785C185.979 50.0225 187.5 51.5397 187.5 53.8301Z" fill="#747474"/>
<path d="M39.9561 8.30813V55.3054C39.9561 60.5681 43.6102 63.4944 47.4885 63.4944C51.0754 63.4944 55.021 61.0021 55.021 55.3054V8.66417C55.021 3.84651 51.4341 0.831299 47.4885 0.831299C43.5429 0.831299 39.9561 4.15804 39.9561 8.30813Z" fill="#F8AB00"/>
<path d="M20.2275 32.1626V55.3052C20.2275 60.5679 23.8817 63.4942 27.76 63.4942C31.3469 63.4942 35.2924 61.0019 35.2924 55.3052V32.5187C35.2924 27.701 31.7056 24.6858 27.76 24.6858C23.8144 24.6858 20.2275 28.0125 20.2275 32.1626Z" fill="#E37300"/>
<path d="M15.5649 56.0174C15.5649 60.1452 12.191 63.4942 8.03245 63.4942C3.87391 63.4942 0.5 60.1452 0.5 56.0174C0.5 51.8895 3.87391 48.5405 8.03245 48.5405C12.191 48.5405 15.5649 51.8895 15.5649 56.0174Z" fill="#E37300"/>
</g>
<defs>
<clipPath id="clip0_176_1711">
<rect width="187" height="63.882" fill="white" transform="translate(0.5 0.831299)"/>
</clipPath>
</defs>
</svg>
