<svg width="202" height="65" viewBox="0 0 202 65" fill="none" xmlns="http://www.w3.org/2000/svg">
<g clip-path="url(#clip0_176_1846)">
<path d="M114.695 16.3645C115.773 16.3645 116.805 15.9415 117.555 15.2366C118.306 14.4846 118.775 13.4977 118.775 12.4167C118.775 11.3358 118.306 10.3019 117.555 9.54993C116.805 8.79798 115.773 8.375 114.695 8.328C113.616 8.375 112.631 8.79798 111.881 9.54993C111.13 10.3019 110.708 11.3358 110.708 12.4167C110.708 13.4507 111.13 14.4846 111.881 15.1896C112.631 15.9415 113.616 16.3645 114.695 16.3645Z" fill="#010202"/>
<path d="M142.507 20.1711H152.403V20.9701C151.84 21.0641 151.324 21.2521 150.855 21.4871C149.964 21.91 148.135 23.9309 146.775 27.3617C144.43 33.2833 141.944 40.2859 139.364 48.3224L138.38 51.3772C137.957 52.7401 137.582 53.6331 137.395 54.197C137.207 54.761 136.973 55.56 136.55 56.5939C136.316 57.3458 135.988 58.0978 135.612 58.8028C135.143 59.6957 134.205 61.5286 133.502 62.0926C132.376 63.0325 130.688 64.1134 128.577 63.9724C124.497 63.9724 121.402 60.9176 121.355 57.2988C121.355 54.855 122.903 53.2101 125.248 53.2101C126.936 53.2101 128.437 54.1031 128.437 56.0299C128.437 57.3928 127.077 58.8498 127.077 59.5547C127.077 61.4346 128.155 62.2805 130.266 62.2805C131.954 62.2805 133.314 61.1996 134.346 59.0377C135.753 56.5939 135.847 53.8681 134.721 50.9072L126.045 28.0667C124.075 22.803 122.527 21.0641 120.698 20.8761V20.0771H134.346V20.8761C132.705 21.0641 131.86 22.004 131.86 23.7429C131.86 25.0118 132.329 26.9387 133.221 29.3826L134.862 33.8003C136.738 38.594 138.239 42.7768 139.036 45.4086C140.771 39.9569 142.413 35.1632 143.961 30.9805C145.086 27.8787 145.649 25.6228 145.649 24.3069C145.649 21.957 144.383 20.8761 142.46 20.8761L142.507 20.1711Z" fill="#010202"/>
<path d="M47.3931 49.3565C45.6578 49.0745 44.157 47.4766 44.157 44.1868V4.47424L34.2142 6.63611V7.48205C35.9026 7.29407 37.591 8.79798 37.591 11.9938V44.2338C37.591 47.3356 35.9026 49.1685 34.2142 49.4035C34.0735 49.4505 33.8859 49.4505 33.7452 49.4505C32.901 49.4975 32.0099 49.3565 31.2126 49.0275C29.8994 48.4635 28.7738 47.4296 27.8358 45.8787L23.2396 38.5471C22.2547 36.9962 20.8477 35.8213 19.1124 35.1634C17.424 34.5054 15.548 34.4114 13.7658 34.8814L18.9248 29.1947C22.8175 24.871 26.4757 22.1452 29.8994 20.9702V20.1713H18.5027V20.9702C21.4574 22.0982 21.2698 24.636 17.893 28.5838L10.6235 37.0432V4.47424L0.680664 6.63611V7.48205C2.36906 7.48205 4.05747 9.17395 4.05747 12.0878V44.2338C4.05747 47.7586 2.41596 49.1685 0.680664 49.4035V50.2024H13.8596V49.4035C11.7022 49.1215 10.6235 47.4296 10.6235 44.2338V38.3122L13.4375 35.2103L20.2849 46.3957C21.9264 49.0745 23.4272 50.1554 25.8191 50.1554H48.7532V49.5445C48.847 49.5445 48.1904 49.4975 47.3931 49.3565Z" fill="#010202"/>
<path d="M74.7827 45.5497V32.1555C74.642 23.4141 70.9369 19.4193 62.4949 19.4193C59.7747 19.4193 57.1483 20.2653 55.0378 21.9572C52.7866 23.649 51.7079 25.5759 51.7079 27.7848C51.7079 29.9467 52.9273 31.5446 54.8971 31.5446C57.0076 31.5446 58.5084 30.3696 58.5084 28.6777C58.5084 27.4088 57.6642 25.6699 57.6642 24.495C57.6642 22.3331 59.3057 20.4532 62.1197 20.4532C65.731 20.4532 68.3105 23.1321 68.3105 29.1477V32.7195L65.3089 33.4244C63.7612 33.7064 62.4011 34.0354 61.4162 34.3174C60.3844 34.5994 59.0712 35.0223 57.5235 35.6333C54.3812 36.8552 52.6928 37.9832 51.2389 40.145C50.5354 41.179 50.1602 42.4009 50.1602 43.6698C50.1602 48.6515 53.6308 50.9074 58.5553 50.9074C62.4011 50.9074 66.5283 48.8865 68.3574 45.0327C68.4043 46.2547 68.6857 47.4296 69.2016 48.5105C71.2652 52.6463 78.0188 50.2024 78.0188 50.2024V49.4035C75.0172 49.9204 74.7827 46.3956 74.7827 45.5497ZM68.3574 41.414C68.3574 43.3878 67.6539 44.9857 66.2 46.1607C64.793 47.2886 63.386 47.8996 61.8852 47.8996C58.9305 47.8996 57.0076 45.9727 57.0076 42.4479C57.0076 40.756 57.9456 39.2051 58.696 38.3121C59.3057 37.7012 60.0092 37.1842 60.8065 36.8082C61.8383 36.2913 62.3542 36.0093 63.0577 35.6803L65.8248 34.6464C67.1849 34.1294 68.0291 33.8004 68.4043 33.6124L68.3574 41.414Z" fill="#010202"/>
<path d="M201.366 20.1714H177.963V4.47437H201.366L196.441 12.3229L201.366 20.1714Z" fill="#010202"/>
<path d="M153.762 46.3487C150.854 43.3408 149.26 39.3461 149.307 35.1633C149.26 33.0955 149.635 31.0746 150.432 29.1477C151.183 27.2208 152.355 25.4819 153.762 24.025C156.717 20.9232 160.328 19.3253 164.549 19.3253C168.723 19.3253 172.335 20.8762 175.289 24.025C176.743 25.4819 177.916 27.2208 178.666 29.1007C179.463 31.0276 179.839 33.0485 179.792 35.1163C179.839 37.1842 179.416 39.2521 178.666 41.132C177.869 43.0589 176.743 44.7977 175.289 46.2547C172.335 49.3095 168.723 50.8604 164.549 50.8604C160.328 50.9544 156.717 49.4035 153.762 46.3487ZM169.99 24.542C168.817 22.2391 167.222 20.8762 165.393 20.5002C161.688 19.7483 158.358 23.5551 157.139 29.6177C156.623 32.3435 156.482 35.1163 156.764 37.8892C157.045 40.662 157.796 43.3408 159.015 45.8317C160.187 48.1345 161.782 49.4975 163.611 49.8734C167.316 50.6254 170.74 46.6306 171.959 40.521C173.038 35.3983 172.522 29.1477 169.99 24.542Z" fill="#010202"/>
<path d="M118.166 44.1865V20.171H96.9667V20.876C99.7807 21.299 101.141 23.4138 99.8745 26.8916C93.2616 44.7975 93.6837 43.9986 93.2616 45.4555C92.8395 44.0925 91.8546 40.6618 90.3069 36.432C88.7592 32.2023 87.7274 29.3355 87.3053 28.1135C85.6638 23.1318 86.2266 21.299 88.853 20.97V20.171H75.1113V20.97C77.1749 21.393 78.9571 23.7428 80.4579 27.9255L82.5684 33.3772C84.8665 39.2518 87.5867 47.3824 88.5247 50.1552H93.074C94.5279 45.8784 100.437 28.8655 101.235 27.1266C102.079 25.1527 103.064 23.6488 104.142 22.6149C104.658 22.0509 105.315 21.6279 106.018 21.3459C106.722 21.064 107.472 20.923 108.223 20.923C108.223 20.923 111.553 20.923 111.553 24.1188V26.7976C111.553 26.8446 111.553 26.8446 111.553 26.8916V44.2335C111.553 47.5703 109.911 49.1682 108.223 49.4032V50.2022H121.355V49.4032C119.619 49.1212 118.166 47.5703 118.166 44.1865Z" fill="#010202"/>
</g>
<defs>
<clipPath id="clip0_176_1846">
<rect width="201" height="64.6696" fill="white" transform="translate(0.5 -0.00012207)"/>
</clipPath>
</defs>
</svg>
