<svg width="210" height="68" viewBox="0 0 210 68" fill="none" xmlns="http://www.w3.org/2000/svg">
<g clip-path="url(#clip0_176_1750)">
<path d="M13.5436 35.1264C13.0965 35.104 12.6483 35.1343 12.2083 35.2164C11.4742 35.3343 10.7711 35.5966 10.1398 35.9879C9.50853 36.3791 8.96176 36.8916 8.53136 37.4954C8.10095 38.0992 7.79551 38.7823 7.63283 39.5048C7.47016 40.2273 7.45349 40.9749 7.58382 41.7039C7.90374 44.7104 11.1225 47.2457 14.1021 47.3212C14.4079 47.3289 14.7138 47.3087 15.0159 47.2607C18.2403 46.741 19.0845 43.4321 18.553 40.1819C17.9526 36.5122 15.3263 35.2186 13.5436 35.1264ZM16.703 43.8208C16.5669 44.0237 16.378 44.186 16.1564 44.2903C15.9349 44.3946 15.689 44.437 15.4451 44.4129C15.0165 44.3791 14.6167 44.1843 14.3269 43.868C14.037 43.5516 13.8787 43.1374 13.8841 42.7092C13.8766 42.1386 13.9871 41.5726 14.2086 41.0463C14.347 40.712 14.3603 40.3393 14.2461 39.996C14.1319 39.6527 13.8979 39.3616 13.5865 39.1756C13.2039 38.9394 12.7448 38.8585 12.304 38.9495C11.8771 39.0311 11.4998 39.2774 11.2544 39.6348C11.0887 39.9015 10.9594 40.189 10.8698 40.4896C10.8523 40.5423 10.8384 40.5836 10.8279 40.6105C10.6818 40.9815 10.4487 41.09 10.291 41.0699C10.233 41.0593 10.1792 41.0323 10.1361 40.9921C10.0931 40.9519 10.0625 40.9002 10.0481 40.8432C9.96636 40.3479 10.0047 39.8403 10.1599 39.3627C10.3151 38.8851 10.5827 38.4514 10.9404 38.0978C11.2519 37.7882 11.6302 37.5535 12.0466 37.4115C12.463 37.2696 12.9064 37.2242 13.3431 37.2788C13.8017 37.3337 14.2399 37.4988 14.62 37.7601C15.0001 38.0214 15.3106 38.3709 15.5247 38.7784C15.7308 39.2689 15.8141 39.8018 15.7676 40.3315C15.7211 40.8611 15.5461 41.3715 15.2577 41.8189C15.2213 41.8963 15.1879 41.9672 15.1594 42.0305C15.0557 42.2058 14.9984 42.4045 14.993 42.6078C14.9876 42.8112 15.0343 43.0126 15.1286 43.1931C15.2115 43.3032 15.3199 43.3918 15.4444 43.4514C15.5689 43.5111 15.706 43.5401 15.8442 43.536C15.976 43.5343 16.1072 43.5169 16.2349 43.4841C16.4005 43.4477 16.5718 43.41 16.676 43.5336C16.7106 43.5724 16.7319 43.6211 16.7367 43.6728C16.7416 43.7245 16.7298 43.7763 16.703 43.8208Z" fill="white"/>
<path d="M54.7476 49.9861C55.4203 48.2861 55.8093 46.4879 55.899 44.6628C55.899 42.419 54.6232 41.4889 53.8109 41.4889C53.786 41.4023 53.6254 40.8172 53.4041 40.1128C53.2776 39.7044 53.1274 39.3035 52.9543 38.9124C53.6191 37.9978 53.9005 36.8614 53.7389 35.7439C53.6058 34.8822 53.1944 34.0871 52.5669 33.4792C51.3759 32.4724 49.9546 31.7724 48.4282 31.4408C48.1983 31.3768 47.4403 31.1699 47.3738 31.1496C47.3685 31.1064 47.3184 28.6778 47.2727 27.6351C47.253 26.5896 47.0965 25.5511 46.8072 24.5458C46.4477 23.1032 45.7044 21.7838 44.6556 20.7263C47.2816 18.0193 48.9209 15.0375 48.9169 12.4795C48.9095 7.55998 42.8339 6.07128 35.347 9.15437C35.3388 9.15783 33.7718 9.81845 33.7606 9.82413C33.7537 9.81721 30.8927 7.02605 30.8498 6.98851C22.3137 -0.415494 -4.37573 29.0852 4.15742 36.2501L6.02225 37.821C5.51903 39.1639 5.34136 40.6061 5.50371 42.0302C5.75648 44.1021 6.78491 46.0028 8.38353 47.3525C9.93523 48.755 11.94 49.5577 14.0346 49.6152C17.3553 57.2249 24.9422 61.8929 33.8382 62.1557C43.3809 62.4375 51.3913 57.9848 54.7476 49.9861ZM56.7063 40.9806C57.5238 42.0313 57.9444 43.3346 57.8947 44.6628C57.8088 46.7346 57.3737 48.7772 56.6077 50.7053L56.5897 50.7505C54.8581 54.8972 51.8348 58.3803 47.9654 60.6868C43.9379 63.0196 39.3492 64.2178 34.6905 64.1531C34.389 64.1531 34.0818 64.1485 33.7791 64.1396C29.1812 64.0439 24.6928 62.7245 20.7797 60.3183C17.3353 58.1687 14.5479 55.1207 12.7201 51.505C10.6144 51.1793 8.64847 50.253 7.06009 48.8383C5.08525 47.1581 3.82018 44.7974 3.51792 42.2283C3.38323 40.98 3.45589 39.7182 3.733 38.4935L2.86727 37.7645C2.16651 37.1617 1.59703 36.4226 1.19389 35.5924C0.790739 34.7623 0.562453 33.8588 0.523078 32.9376C0.452047 31.0252 0.783925 29.1193 1.49735 27.3424C3.2745 22.5106 7.36278 16.7571 12.4343 11.9514C14.6974 9.76439 17.208 7.84647 19.9154 6.23623C22.1736 4.79788 24.7672 3.96598 27.4438 3.82145C29.1701 3.77661 30.8516 4.37231 32.1616 5.49286C32.2364 5.55782 33.3572 6.64941 34.2073 7.47869C34.4206 7.38905 34.5741 7.32456 34.5785 7.32286C37.0934 6.23197 39.7961 5.63467 42.5383 5.56374C47.6192 5.56374 50.9063 8.27712 50.9127 12.4765C50.9167 15.0676 49.6392 17.9724 47.2841 20.7843C47.9249 21.7709 48.4096 22.8497 48.7213 23.983C49.0559 25.143 49.2391 26.3412 49.2664 27.5479C49.2893 28.067 49.3126 28.9 49.3315 29.6352C51.069 30.0732 52.6747 30.9223 54.0121 32.1105C54.9188 33.0064 55.5134 34.168 55.7088 35.425C55.9052 36.6657 55.7127 37.9366 55.1575 39.0645C55.2069 39.2058 55.2583 39.3591 55.3095 39.5216C55.3539 39.6634 55.3959 39.8 55.4351 39.9296C55.9242 40.1933 56.3562 40.5504 56.7063 40.9806Z" fill="white"/>
<path d="M50.6572 38.5239C50.9808 38.221 51.2333 37.8507 51.3964 37.4393C51.5595 37.0279 51.6294 36.5857 51.6009 36.1443C51.5361 35.6994 51.3277 35.2876 51.0071 34.9712C50.0665 34.1936 48.9473 33.6599 47.7493 33.4176C47.2021 33.263 46.8308 33.164 46.4308 33.0315C45.7195 32.7957 45.368 32.6059 45.2884 31.2593C45.2536 30.6704 45.1516 28.6187 45.1148 27.771C45.05 26.2854 44.8723 24.2548 43.6211 23.4165C43.3029 23.2063 42.9327 23.0872 42.5511 23.0722C42.3375 23.0592 42.1231 23.0803 41.9162 23.1348C41.2812 23.2825 40.7032 23.6115 40.2529 24.0813C39.6701 24.6114 38.9829 25.0149 38.2351 25.2663C37.4872 25.5177 36.695 25.6114 35.9089 25.5416C35.0331 25.5046 34.1051 25.3674 33.0412 25.3038C32.8342 25.2917 32.6266 25.2788 32.4193 25.2678C31.0447 25.3082 29.7304 25.8394 28.7162 26.7645C27.702 27.6895 27.0555 28.9467 26.8946 30.3069C26.2855 34.5259 29.32 36.7061 30.196 37.9854C30.3315 38.1487 30.4153 38.3483 30.4371 38.5589C30.4144 38.7926 30.3029 39.0088 30.1253 39.1632L30.1255 39.1645C28.9124 40.5244 28.0607 42.1654 27.6482 43.9374C27.2357 45.7095 27.2755 47.5563 27.764 49.3091C27.8797 49.7301 28.0281 50.1414 28.2079 50.5395C30.4221 55.7492 37.2909 58.1753 44.0015 55.9688C44.8805 55.6797 45.7334 55.3169 46.5509 54.8843C48.0222 54.1519 49.3456 53.1561 50.455 51.9468C52.1858 50.1985 53.3226 47.9538 53.7054 45.5285C53.9075 44.1859 53.6115 43.6663 53.2085 43.4163C52.9238 43.2569 52.5941 43.1963 52.2711 43.2441C52.1003 42.1901 51.8005 41.1609 51.3783 40.1795L50.6572 38.5239Z" fill="white"/>
<path d="M39.6604 18.403C39.7687 18.4277 39.8375 18.2415 39.7406 18.1874C38.1375 17.3601 36.3692 16.8992 34.5646 16.8385C34.5472 16.8382 34.5303 16.8332 34.5156 16.8239C34.501 16.8147 34.4892 16.8016 34.4815 16.7861C34.4739 16.7705 34.4707 16.7532 34.4723 16.736C34.4739 16.7188 34.4802 16.7024 34.4906 16.6885C34.7711 16.3234 35.0985 15.9966 35.4646 15.7165C35.481 15.7038 35.4929 15.6863 35.4985 15.6664C35.5042 15.6465 35.5033 15.6253 35.496 15.606C35.4887 15.5866 35.4754 15.5701 35.458 15.5588C35.4406 15.5476 35.42 15.5422 35.3993 15.5434C33.1897 15.7595 31.0655 16.5053 29.2083 17.7169C29.1925 17.7276 29.1738 17.7332 29.1547 17.7332C29.1356 17.7331 29.1169 17.7274 29.1012 17.7167C29.0854 17.7059 29.0732 17.6907 29.0662 17.6731C29.0591 17.6554 29.0576 17.636 29.0618 17.6174C29.2114 17.0618 29.4316 16.5275 29.7169 16.0275C29.7263 16.0103 29.73 15.9906 29.7273 15.9712C29.7246 15.9518 29.7157 15.9338 29.7019 15.9199C29.6882 15.9059 29.6703 15.8967 29.6509 15.8936C29.6315 15.8905 29.6117 15.8937 29.5942 15.9027C26.9124 17.3696 24.5222 19.312 22.5412 21.6342C22.5257 21.6519 22.5173 21.6746 22.5176 21.6981C22.5178 21.7216 22.5267 21.7441 22.5426 21.7614C22.5584 21.7788 22.5801 21.7897 22.6036 21.7922C22.627 21.7946 22.6505 21.7884 22.6696 21.7748C24.9652 20.1773 27.5514 19.0405 30.2836 18.4279C33.3678 17.7194 36.5725 17.7109 39.6604 18.403Z" fill="white"/>
<path d="M31.7619 10.8675C31.7619 10.8675 29.4386 8.18892 28.7373 7.99135C24.4225 6.83186 15.1021 13.224 9.15101 21.6691C6.74305 25.0861 3.29601 31.1372 4.94428 34.2494C5.53013 34.9482 6.19056 35.5814 6.91391 36.138C8.01827 34.5964 9.68037 33.5419 11.55 33.1966C13.8965 26.6638 18.0154 20.9066 23.4492 16.5644C26.0567 14.4392 28.8372 12.5337 31.7619 10.8675Z" fill="white"/>
<path d="M16.5469 43.7048C16.5803 43.7452 16.6007 43.7947 16.6054 43.8468C16.6101 43.8989 16.5988 43.9512 16.5731 43.9969C16.4478 44.1993 16.2683 44.3628 16.0547 44.4691C15.8411 44.5753 15.602 44.62 15.3642 44.5982C14.9406 44.5527 14.55 44.3488 14.2715 44.0276C13.993 43.7064 13.8474 43.2919 13.864 42.8679C13.8568 42.29 13.9627 41.7162 14.1759 41.1787C14.3104 40.8419 14.3245 40.4692 14.2156 40.1233C14.1068 39.7774 13.8817 39.4793 13.5782 39.2792C13.3986 39.1608 13.197 39.0795 12.9853 39.04C12.7736 39.0005 12.5562 39.0037 12.3457 39.0493C12.1395 39.0925 11.9441 39.1764 11.7709 39.2959C11.5978 39.4154 11.4503 39.5682 11.3373 39.7453C11.1775 40.0178 11.0532 40.3095 10.9675 40.6134C10.9509 40.6669 10.9376 40.7089 10.9275 40.736C10.787 41.1133 10.5632 41.2232 10.4115 41.203C10.3397 41.1932 10.2411 41.1454 10.1779 40.9727C10.0986 40.4736 10.1346 39.963 10.2832 39.4798C10.4318 38.9966 10.6891 38.5535 11.0355 38.1842C11.3265 37.8731 11.6876 37.6354 12.089 37.4909C12.4905 37.3463 12.9208 37.299 13.3442 37.3528C13.7928 37.4142 14.2191 37.5854 14.585 37.8512C14.9508 38.1169 15.2448 38.4689 15.4405 38.8755C15.6388 39.3753 15.7188 39.9139 15.6743 40.4494C15.6299 40.9849 15.4622 41.5031 15.1842 41.9637C15.1491 42.042 15.1169 42.1138 15.0898 42.1788C14.9898 42.3587 14.9349 42.56 14.9298 42.7655C14.9246 42.9711 14.9693 43.1748 15.0601 43.3594C15.1369 43.4695 15.2399 43.559 15.3598 43.6197C15.4798 43.6805 15.6131 43.7106 15.7476 43.7075C15.8745 43.7057 16.0006 43.688 16.123 43.6547C16.2823 43.6175 16.4469 43.5794 16.5469 43.7048ZM55.8131 44.681C55.7241 46.5019 55.3378 48.2962 54.6693 49.9933C51.3348 57.9751 43.3769 62.4186 33.8968 62.1373C25.0592 61.8751 17.5217 57.2167 14.2228 49.623C12.1402 49.565 10.1478 48.7637 8.60892 47.3651C7.01918 46.0155 5.99778 44.1194 5.74784 42.054C5.58653 40.633 5.763 39.1942 6.263 37.8536L4.41032 36.2859C-4.06685 29.1361 22.4475 -0.302632 30.9279 7.08598C30.9707 7.12317 33.8127 9.90873 33.8198 9.91559C33.8311 9.90986 35.3879 9.25044 35.3958 9.24722C42.8337 6.17056 48.8694 7.65609 48.877 12.565C48.8809 15.1179 47.2523 18.0936 44.6437 20.7946C45.6862 21.8514 46.4244 23.1678 46.7809 24.606C47.0685 25.6095 47.2239 26.6458 47.2434 27.6891C47.2886 28.7295 47.3387 31.1532 47.3438 31.1963C47.41 31.2163 48.163 31.4227 48.3913 31.4868C49.9088 31.8182 51.321 32.5169 52.503 33.521C53.1269 34.1286 53.5356 34.9217 53.6672 35.7808C53.828 36.8954 53.5487 38.0288 52.888 38.9426C53.0599 39.3331 53.2091 39.7331 53.3348 40.1407C53.5544 40.8438 53.7141 41.4272 53.7387 41.5137C54.5457 41.5137 55.8131 42.4417 55.8131 44.681ZM18.3503 40.3012C17.7738 36.574 15.2498 35.2605 13.5371 35.1668C13.1072 35.1441 12.6761 35.1747 12.2538 35.2579C9.1969 35.874 7.47043 38.4715 7.81015 41.8466C8.05757 43.3606 8.81038 44.7472 9.94692 45.7825C11.0835 46.8177 12.5373 47.441 14.0736 47.5518C14.3676 47.5596 14.6616 47.539 14.9516 47.4902C18.0499 46.9624 18.8611 43.6019 18.3503 40.3012ZM23.5752 16.6413C26.1647 14.5213 28.9269 12.6198 31.8333 10.9564C31.8333 10.9564 29.5256 8.28356 28.8286 8.08659C24.5422 6.92916 15.2826 13.308 9.37067 21.7353C6.97853 25.1451 3.5541 31.1837 5.19138 34.2893C5.77303 34.9863 6.42916 35.6182 7.14817 36.1738C8.2428 34.6373 9.89447 33.5848 11.7541 33.2388C14.0806 26.7258 18.172 20.9812 23.5752 16.6413ZM32.8914 46.1358C33.005 46.6312 33.2508 47.0868 33.6029 47.4545C33.9551 47.8222 34.4004 48.0883 34.8918 48.2248C35.4031 48.4145 35.9306 48.5576 36.4678 48.6523C43.2482 49.8173 49.587 45.9448 51.0142 44.9695C51.1213 44.8962 51.1921 44.9676 51.1062 45.0969C51.0632 45.1657 51.0165 45.2321 50.9664 45.296C49.2197 47.5465 44.5239 50.1527 38.4145 50.1518C35.75 50.1514 33.0869 49.2137 32.1091 47.7729C30.592 45.5373 32.0339 42.2742 34.5617 42.6142C34.5647 42.6147 35.4267 42.7122 35.6689 42.7391C39.5983 43.1154 43.559 42.4823 47.1728 40.9002C50.6216 39.301 51.9244 37.5411 51.729 36.1165C51.6636 35.674 51.4548 35.265 51.1343 34.9517C50.1912 34.1786 49.0714 33.6488 47.8738 33.409C47.3261 33.2554 46.9544 33.1574 46.5539 33.0256C45.8421 32.7914 45.4902 32.6029 45.4104 31.2657C45.3757 30.6809 45.2736 28.6436 45.2366 27.8016C45.1716 26.3265 44.9941 24.3101 43.7414 23.4775C43.4225 23.2685 43.0522 23.1503 42.6707 23.1357C42.4568 23.1227 42.2422 23.1437 42.0349 23.1979C41.4004 23.3441 40.8221 23.6707 40.3703 24.1379C39.7849 24.6648 39.0964 25.0656 38.3481 25.3151C37.5998 25.5646 36.8079 25.6575 36.0218 25.5878C35.1454 25.5513 34.2165 25.4149 33.1518 25.3518C32.9447 25.3396 32.7367 25.3268 32.5291 25.3162C31.1582 25.352 29.8459 25.8769 28.8309 26.7953C27.8159 27.7137 27.1659 28.9646 26.9992 30.3201C26.3896 34.5097 29.427 36.6746 30.3039 37.945C30.4394 38.1068 30.5234 38.3051 30.5452 38.5146C30.5221 38.747 30.4104 38.9618 30.2331 39.1146V39.116C29.0202 40.4617 28.1677 42.0903 27.7545 43.8511C27.3414 45.612 27.3809 47.4482 27.8694 49.1898C27.9854 49.608 28.1339 50.0166 28.3137 50.4117C30.5301 55.5851 37.4053 57.9941 44.1223 55.8028C45.0018 55.516 45.8554 55.1559 46.6742 54.7264C48.145 54.0003 49.4696 53.0115 50.582 51.8091C52.3119 50.0777 53.4502 47.8477 53.8354 45.4356C54.0376 44.102 53.7416 43.5863 53.338 43.3381C53.0527 43.1798 52.7229 43.1196 52.3997 43.1669C52.2286 42.1197 51.9286 41.0975 51.5062 40.1235C49.5879 41.565 47.4193 42.6424 45.109 43.3016C42.3294 44.0837 39.4378 44.3961 36.5544 44.2256C34.6995 44.0759 33.4723 43.5349 33.0107 45.0334C35.8166 45.9678 38.7958 46.2705 41.7334 45.9196C41.754 45.9175 41.7749 45.9195 41.7948 45.9255C41.8147 45.9314 41.8332 45.9412 41.8493 45.9543C41.8654 45.9674 41.8787 45.9835 41.8885 46.0018C41.8983 46.02 41.9044 46.04 41.9065 46.0606C41.9096 46.0952 41.9018 46.1299 41.8843 46.1599C41.8667 46.19 41.8403 46.2138 41.8085 46.2283C41.8085 46.2283 38.3631 47.8262 32.8914 46.1358ZM22.8008 21.8409C25.0797 20.2477 27.6493 19.1132 30.365 18.5013C33.4286 17.7943 36.6131 17.7858 39.6805 18.4763C39.7878 18.5009 39.8563 18.3151 39.7603 18.2614C38.1685 17.4361 36.4114 16.976 34.6179 16.915C34.6006 16.9147 34.5837 16.9097 34.5691 16.9005C34.5546 16.8912 34.5428 16.8781 34.5352 16.8627C34.5276 16.8472 34.5244 16.83 34.526 16.8129C34.5276 16.7957 34.534 16.7794 34.5443 16.7656C34.8229 16.4014 35.1483 16.0753 35.5122 15.7955C35.5285 15.7828 35.5404 15.7653 35.546 15.7455C35.5516 15.7257 35.5507 15.7046 35.5434 15.6853C35.5362 15.666 35.5229 15.6495 35.5056 15.6382C35.4883 15.627 35.4678 15.6215 35.4472 15.6226C33.2508 15.8389 31.1401 16.5832 29.2966 17.7917C29.2809 17.8023 29.2623 17.808 29.2433 17.808C29.2242 17.8079 29.2057 17.8022 29.19 17.7915C29.1743 17.7808 29.1622 17.7656 29.1552 17.748C29.1483 17.7303 29.1469 17.711 29.1511 17.6925C29.2996 17.1383 29.5183 16.6052 29.8019 16.106C29.8113 16.0889 29.8149 16.0693 29.8123 16.05C29.8097 16.0307 29.8009 16.0127 29.7872 15.9988C29.7736 15.9848 29.7558 15.9756 29.7365 15.9725C29.7172 15.9693 29.6974 15.9724 29.68 15.9813C27.014 17.4468 24.6393 19.3853 22.6733 21.7012C22.6578 21.7187 22.6495 21.7413 22.6497 21.7646C22.6499 21.788 22.6588 21.8104 22.6745 21.8276C22.6903 21.8449 22.7119 21.8558 22.7351 21.8582C22.7584 21.8607 22.7818 21.8545 22.8008 21.8409ZM40.6561 36.0622C40.8417 36.1792 41.064 36.2241 41.2807 36.1882C41.4973 36.1524 41.6932 36.0383 41.8308 35.8678C42.0018 35.5382 41.7535 35.0911 41.2759 34.869C41.0903 34.752 40.8679 34.7072 40.6512 34.7432C40.4345 34.7791 40.2387 34.8933 40.1012 35.0638C39.93 35.3933 40.1785 35.8404 40.6561 36.0622ZM42.1209 30.7166C42.2355 31.3102 42.4827 31.8704 42.8442 32.3558C43.2177 32.3101 43.5954 32.3101 43.9689 32.3558C44.1873 31.7044 44.2064 31.003 44.0239 30.3407C43.7539 29.1186 43.3886 28.379 42.6337 28.494C41.879 28.6092 41.8512 29.4946 42.1209 30.7166ZM43.7268 33.5239C43.5364 33.4695 43.3337 33.4758 43.1472 33.5421C42.9606 33.6083 42.7996 33.7311 42.6867 33.8932C42.5739 34.0552 42.5148 34.2484 42.5179 34.4456C42.5209 34.6428 42.586 34.8341 42.7038 34.9927C42.8217 35.1512 42.9865 35.2689 43.175 35.3294C43.3635 35.3898 43.5663 35.3899 43.7549 35.3297C43.9435 35.2694 44.1084 35.1518 44.2264 34.9935C44.3445 34.8351 44.4097 34.6438 44.413 34.4466C44.4403 34.2344 44.3842 34.0198 44.2563 33.8478C44.1284 33.6758 43.9387 33.5597 43.7268 33.5239Z" fill="black"/>
<path d="M31.1943 33.4146C31.0739 33.3978 31.0226 33.3464 31.0074 33.2785C30.9607 33.0677 31.2862 32.7207 31.6295 32.4703C32.1303 32.1056 32.717 31.8753 33.3331 31.8017C33.9491 31.728 34.5739 31.8134 35.1472 32.0497C35.6829 32.2698 36.1436 32.639 36.474 33.1131C36.5967 33.3125 36.6204 33.4671 36.5411 33.5481C36.4175 33.6779 36.1023 33.5292 35.5892 33.305C34.9728 33.0039 34.2916 32.8578 33.6054 32.8796C32.7922 33.0128 31.9873 33.1914 31.1943 33.4146ZM36.3086 34.4632C36.0869 34.2311 35.8108 34.0573 35.5051 33.9576C35.1995 33.8578 34.8737 33.8351 34.557 33.8914C34.0901 33.9409 33.6476 34.1245 33.2836 34.42C33.114 34.5412 32.9974 34.7225 32.9578 34.9267C32.9569 34.9494 32.961 34.972 32.9698 34.993C32.9786 35.0139 32.9919 35.0327 33.0089 35.048C33.0389 35.0752 33.0783 35.0901 33.1189 35.0896C33.2869 35.0651 33.4511 35.0197 33.6078 34.9546C34.2939 34.6971 35.035 34.6205 35.7595 34.7321C36.0953 34.7696 36.2539 34.7906 36.3276 34.6758C36.3464 34.6426 36.3548 34.6045 36.3514 34.5665C36.348 34.5286 36.333 34.4925 36.3086 34.4632Z" fill="black"/>
<path d="M35.3582 34.7696C35.57 34.0187 35.5822 33.2258 35.3934 32.4689C35.1203 31.245 34.7072 30.5456 33.9418 30.6608C33.1764 30.776 33.1565 31.7623 33.4032 32.9913C33.5167 33.5546 33.7377 34.0908 34.0541 34.5711C34.6632 35.4176 35.0773 35.1985 35.3582 34.7696Z" fill="black"/>
<path d="M84.3728 35.851C80.1634 35.851 80.0902 40.4277 79.0938 40.4277C78.8864 40.4277 78.7217 40.2455 78.7217 39.9944C78.7217 39.6602 78.8091 39.3706 78.8091 38.8299C78.8091 37.1876 77.648 35.851 75.2139 35.851C73.1478 35.851 71.6349 36.8818 70.7117 38.7874C70.244 39.7534 70.2846 40.4257 69.8108 40.4257C69.6359 40.4257 69.4997 40.2617 69.4997 40.0247C69.4997 39.3241 70.1199 38.6841 70.1199 37.1795C70.1199 36.7886 70.0894 36.4586 70.0264 36.1892H66.0244V51.6488H71.458V43.2608C71.458 41.6084 72.1697 40.5492 73.3837 40.5492C74.189 40.5492 74.9048 41.2499 74.9048 42.5318V51.6488H80.3383V43.2608C80.3383 41.4038 81.2005 40.5492 82.2641 40.5492C83.1547 40.5492 83.7851 41.3694 83.7851 42.5318V51.6488H89.1556V42.1572C89.1556 38.0098 87.5024 35.849 84.3748 35.849L84.3728 35.851Z" fill="black"/>
<path d="M121.536 31.8616H116.165V51.6488H121.536V31.8616Z" fill="black"/>
<path d="M123.307 43.7349C123.307 48.994 126.725 52.0215 131.162 52.0215C133.706 52.0215 135.65 51.0191 136.844 50.043V44.9418C135.636 45.764 133.777 46.7037 131.782 46.7037C129.293 46.7037 127.994 45.6749 127.994 43.8908C127.994 42.1067 129.493 41.1083 131.689 41.1083C133.678 41.1083 135.502 41.8961 136.842 42.8094V37.3983C135.707 36.5579 133.704 35.8208 131.16 35.8208C126.398 35.8208 123.305 38.7855 123.305 43.7369L123.307 43.7349Z" fill="black"/>
<path d="M148.673 35.8815C146.489 35.8815 145.224 36.8899 144.295 38.7571C143.886 39.5813 143.855 40.3954 143.394 40.3954C143.221 40.3954 143.083 40.2354 143.083 39.9944C143.083 39.1378 144.107 37.86 144.107 34.0892C144.107 33.1415 144.014 32.4104 143.829 31.894H139.142V51.6509H144.575V43.3297C144.575 41.7704 145.399 40.5817 146.655 40.5817C147.591 40.5817 148.24 41.3391 148.24 42.5643V51.6509H153.673V41.9729C153.673 37.9349 151.904 35.8815 148.675 35.8815H148.673Z" fill="black"/>
<path d="M198.534 35.8207C196.133 35.8207 194.906 37.1836 194.221 38.4432C193.678 39.4395 193.599 40.3974 193.133 40.3974C192.905 40.3974 192.792 40.2637 192.792 39.9964C192.792 39.5225 193.412 38.7186 193.412 37.4003C193.412 36.8636 193.369 36.4626 193.288 36.1953H189.221V55.6119H194.685V49.5123C195.378 50.9866 196.83 51.9627 198.815 51.9627C202.394 51.9627 204.838 49.0223 204.838 43.8927C204.838 39.1601 202.573 35.8227 198.536 35.8227L198.534 35.8207ZM197.074 48.4046C195.978 48.4046 194.776 47.2726 194.776 44.4152C194.776 41.9263 195.758 40.4581 197.074 40.4581C198.587 40.4581 199.433 41.9101 199.433 44.4152C199.433 47.1997 198.459 48.4046 197.074 48.4046Z" fill="black"/>
<path d="M98.5608 36.0018C95.7546 36.0018 93.1842 36.6923 91.3988 37.5773V42.0548C93.4771 40.9369 95.6082 40.1087 97.477 40.1087C99.478 40.1087 100.326 41.1597 100.206 42.5428C99.3987 42.4598 98.5019 42.4254 97.4139 42.4254C93.1639 42.4254 90.5 44.0779 90.5 47.6744C90.5 50.629 92.8101 52.1519 95.3377 52.1519C97.8654 52.1519 99.5003 50.9773 100.483 49.2074C101.042 48.1989 100.995 47.5813 101.359 47.5813C101.538 47.5813 101.662 47.7088 101.662 47.9073C101.662 48.5533 101.477 48.93 101.477 49.8048C101.477 50.623 101.585 51.3115 101.755 51.8117H105.662V43.5351C105.662 38.8349 103.502 35.9998 98.5608 35.9998V36.0018ZM96.7307 48.3528C95.7221 48.3528 95.1811 47.9134 95.1811 47.1479C95.1811 46.1515 96.1227 45.3881 98.5608 45.3881C99.0977 45.3881 99.5837 45.4063 100.025 45.4428C99.8094 46.8664 98.5649 48.3528 96.7307 48.3528Z" fill="black"/>
<path d="M118.235 21.6209V12.9474H114.495V21.1774C114.495 23.2166 113.124 24.5795 111.325 24.5795C109.525 24.5795 108.154 23.2146 108.154 21.1774V12.9474H104.421L104.441 21.6209C104.441 25.3977 107.477 28.1599 111.335 28.1599C115.192 28.1599 118.235 25.4037 118.235 21.6209Z" fill="black"/>
<path d="M132.677 27.8603H136.411V16.4307H140.866V12.9475H128.218V16.4307H132.677V27.8603Z" fill="black"/>
<path d="M125.804 12.9534H122.07V27.8662H125.804V12.9534Z" fill="black"/>
<path d="M93.8141 27.8603H97.5476V16.4307H102.001V12.9475H89.3525V16.4307H93.8141V27.8603Z" fill="black"/>
<path d="M69.7579 20.4119V12.9535H66.0244V27.8643H69.7579V20.4119Z" fill="black"/>
<path d="M77.3244 19.6301C77.3244 17.5908 78.695 16.2279 80.4947 16.2279C82.2943 16.2279 83.6649 17.5929 83.6649 19.6301V27.8601H87.3985L87.3883 19.1866C87.3863 15.4078 84.3462 12.6476 80.4886 12.6476C76.631 12.6476 73.5889 15.4037 73.5889 19.1866V27.8601H77.3224V19.6301H77.3244Z" fill="black"/>
<path d="M182.173 35.851C177.963 35.851 177.89 40.4277 176.894 40.4277C176.686 40.4277 176.522 40.2455 176.522 39.9944C176.522 39.6602 176.609 39.3706 176.609 38.8299C176.609 37.1876 175.448 35.851 173.014 35.851C170.948 35.851 169.435 36.8818 168.512 38.7874C168.044 39.7534 168.085 40.4257 167.611 40.4257C167.436 40.4257 167.3 40.2617 167.3 40.0247C167.3 39.3241 167.92 38.6841 167.92 37.1795C167.92 36.7886 167.889 36.4586 167.826 36.1892H163.82V51.6488H169.254V43.2608C169.254 41.6084 169.966 40.5492 171.18 40.5492C171.985 40.5492 172.701 41.2499 172.701 42.5318V51.6488H178.134V43.2608C178.134 41.4038 178.996 40.5492 180.06 40.5492C180.951 40.5492 181.581 41.3694 181.581 42.5318V51.6488H186.952V42.1572C186.952 38.0098 185.298 35.849 182.171 35.849L182.173 35.851Z" fill="black"/>
<path d="M158.669 37.2726C157.53 37.2726 156.63 37.1085 155.969 36.7784V51.6507H161.339V36.7784C160.642 37.0842 159.812 37.2726 158.669 37.2726Z" fill="black"/>
<path d="M158.639 31.7708C156.418 31.7708 155.255 32.7489 155.255 33.8728C155.255 35.0838 156.632 35.9748 158.639 35.9748C160.646 35.9748 162.022 35.0838 162.022 33.8728C162.022 32.7489 160.857 31.7708 158.639 31.7708Z" fill="black"/>
<path d="M111.089 37.2726C109.95 37.2726 109.05 37.1085 108.389 36.7784V51.6507H113.759V36.7784C113.062 37.0842 112.232 37.2726 111.089 37.2726Z" fill="black"/>
<path d="M111.059 31.7708C108.838 31.7708 107.675 32.7489 107.675 33.8728C107.675 35.0838 109.051 35.9748 111.059 35.9748C113.066 35.9748 114.442 35.0838 114.442 33.8728C114.442 32.7489 113.277 31.7708 111.059 31.7708Z" fill="black"/>
</g>
<defs>
<clipPath id="clip0_176_1750">
<rect width="209" height="67.5031" fill="white" transform="translate(0.5 0.272095)"/>
</clipPath>
</defs>
</svg>
