<svg width="162" height="47" viewBox="0 0 162 47" fill="none" xmlns="http://www.w3.org/2000/svg">
<g clip-path="url(#clip0_176_1830)">
<mask id="mask0_176_1830" style="mask-type:luminance" maskUnits="userSpaceOnUse" x="0" y="0" width="162" height="47">
<path d="M161.5 0H0.5V47H161.5V0Z" fill="white"/>
</mask>
<g mask="url(#mask0_176_1830)">
<path fill-rule="evenodd" clip-rule="evenodd" d="M0.5 42.1488H10.3389C11.3549 42.1488 12.1859 41.3169 12.1859 40.2995V23.231L30.5511 43.7105L48.9172 23.231V40.2995C48.9172 41.3169 49.7481 42.1488 50.7642 42.1488H60.6022V5.57532H52.2482C49.8339 5.57532 48.0343 6.7397 47.062 7.82281L30.5511 26.2338L14.0402 7.82281C13.0688 6.7397 11.2683 5.57532 8.85487 5.57532H0.5V42.1488Z" fill="#24ABE2"/>
<path fill-rule="evenodd" clip-rule="evenodd" d="M110.98 42.1489H159.653C160.669 42.1489 161.5 41.3169 161.5 40.2995V30.5589H137.834L161.432 5.60913H112.788C111.773 5.60913 110.941 6.44201 110.941 7.45845V17.1991H134.578L110.98 42.1489Z" fill="#24ABE2"/>
<path fill-rule="evenodd" clip-rule="evenodd" d="M87.2087 0C102.062 0 114.104 10.3954 114.104 23.5005C114.104 36.6046 102.062 47 87.2087 47C72.3542 47 60.3135 36.6046 60.3135 23.5005C60.3135 10.3954 72.3542 0 87.2087 0ZM87.2087 11.7434C94.4517 11.7434 100.663 17.0073 100.663 23.5005C100.663 29.9927 94.6396 35.2566 87.2087 35.2566C79.7778 35.2566 73.7533 29.9927 73.7533 23.5005C73.7533 17.0073 79.9657 11.7434 87.2087 11.7434Z" fill="#24ABE2"/>
</g>
</g>
<defs>
<clipPath id="clip0_176_1830">
<rect width="161" height="47" fill="white" transform="translate(0.5)"/>
</clipPath>
</defs>
</svg>
