<svg width="180" height="94" viewBox="0 0 180 94" fill="none" xmlns="http://www.w3.org/2000/svg">
<path d="M76.9746 49.4609C76.9746 49.4609 76.9865 49.4669 76.9905 49.4709C76.9845 49.4669 76.9786 49.4649 76.9746 49.4609Z" fill="#1C1C1C"/>
<path d="M108.233 7.93193C103.477 3.0964 96.9237 0.321533 90.2535 0.321533C90.1394 0.321533 90.023 0.321533 89.9089 0.323805H89.8814C89.7834 0.323805 89.6852 0.323805 89.587 0.323805C83.0241 0.323805 76.7737 2.88419 71.9884 7.53257C67.1347 12.2494 64.378 18.5864 64.232 25.38C64.0791 32.4359 66.6669 39.0512 71.5183 44.0099C76.3584 48.955 82.878 51.6797 89.8792 51.6797H89.9066C96.7547 51.6729 103.174 49.0487 107.977 44.293C112.758 39.5601 115.456 33.2093 115.572 26.4159C115.691 19.4308 113.085 12.8678 108.233 7.93193ZM90.7372 39.2817C89.7172 42.2346 86.9834 44.1424 83.7702 44.1424C82.5197 44.1424 81.2921 43.8547 80.1214 43.2866C76.9266 41.7371 74.3959 39.1676 72.3787 35.4367C69.6722 30.4277 69.2409 24.49 71.1966 19.1456C73.1591 13.7806 77.3374 9.50192 82.6658 7.41163C86.1596 6.04015 89.0325 5.9215 89.0325 5.9215C89.0325 5.9215 86.8532 6.48743 85.1144 8.73062C83.4941 10.8209 83.1792 13.0732 83.2911 15.3163C83.4188 17.8951 84.165 20.5284 85.6369 23.6046C86.1596 24.6931 86.698 25.7998 87.2207 26.8678C88.1905 28.8532 89.1922 30.9068 90.1278 32.9561C91.1982 35.302 91.399 37.3694 90.7394 39.2772L90.7372 39.2817ZM104.064 39.9868C102.699 41.4222 101.161 42.5883 99.4018 43.5149C98.1286 44.1857 96.7524 44.6444 95.3399 44.9183L93.0168 45.37C93.0168 45.37 93.8385 44.9503 95.1711 43.2501C95.9652 42.2346 96.1934 41.9425 96.7297 40.11C97.2363 38.3781 96.9121 33.732 95.2988 30.0899C94.6096 28.5313 93.8269 26.9681 93.0717 25.4576C92.435 24.1842 91.7778 22.8675 91.1685 21.5439C90.3401 19.7457 89.7809 18.2237 89.4068 16.754C88.9025 14.7687 89.2174 12.788 90.2991 11.1792C91.4377 9.48138 93.2815 8.37462 95.486 8.06428C95.8899 8.00723 96.2961 7.97755 96.6886 7.97755C98.9796 7.97755 101.077 8.93143 103.105 10.8939C106.499 14.1777 108.635 18.3514 109.458 23.2987C110.492 29.5195 108.676 35.1332 104.062 39.9846L104.064 39.9868Z" fill="#1C1C1C"/>
<path d="M16.3897 65.7168C14.2051 64.4706 11.5791 64.1612 9.12292 64.5708C5.89988 65.1561 3.16056 67.4409 1.60782 70.2703C0.390658 72.4868 0.130717 75.1216 0.509781 77.5922C1.01809 80.6787 3.00362 83.4166 5.6297 85.0696C7.94791 86.4987 10.8165 86.872 13.4673 86.3563C16.3475 85.7812 18.8211 83.8364 20.4029 81.4093C21.9555 79.0505 22.4218 76.0686 21.8974 73.3118C21.3252 70.1207 19.1769 67.3189 16.3882 65.7182L16.3897 65.7168ZM18.7106 78.3823C17.755 80.8516 15.6604 82.9765 13.0359 83.5909C11.2202 83.9642 9.25072 83.7739 7.60077 82.8923C5.36387 81.6591 3.7008 79.3715 3.3145 76.834C3.06758 75.0271 3.28836 73.1099 4.17874 71.4977C5.27678 69.5121 7.16643 67.9086 9.40611 67.4075C11.6735 66.8918 14.208 67.3261 16.0193 68.8411C18.8312 71.0197 19.9802 75.0547 18.7121 78.3823H18.7106Z" fill="#1C1C1C"/>
<path d="M66.0177 65.9474C63.3816 64.2538 59.9824 63.8602 57.0048 64.8028C54.556 65.6119 52.4949 67.3679 51.0759 69.4957C49.33 72.1581 48.9407 75.5801 49.802 78.6173C50.5821 81.3101 52.4993 83.5876 54.8509 85.0692C57.9882 87.0547 62.1803 87.0881 65.4426 85.38C67.9642 84.0916 69.8973 81.7807 70.7882 79.098H67.7028C67.3057 79.9013 66.8419 80.6812 66.2223 81.3348C63.9655 83.9028 59.9432 84.3545 56.9352 82.9514C54.4311 81.7619 52.5806 79.2752 52.3178 76.4937C58.6403 76.4894 64.9599 76.4937 71.2843 76.4909C71.3043 75.0878 71.3277 73.6557 70.9228 72.2961C70.1676 69.6599 68.3067 67.4129 66.0155 65.9459L66.0177 65.9474ZM52.3264 73.811C52.7695 71.7239 53.9837 69.7892 55.7862 68.617C59.0601 66.341 63.9956 66.9293 66.5749 69.9998C67.5237 71.0804 68.1232 72.4225 68.428 73.8213C63.0612 73.8183 57.6918 73.8386 52.325 73.811H52.3264Z" fill="#1C1C1C"/>
<path d="M127.526 65.0877C124.442 63.8298 120.742 64.068 117.921 65.8764C115.329 67.5438 113.296 70.2163 112.74 73.2854C112.265 76.0335 112.676 79.0082 114.245 81.3568C115.777 83.6503 118.063 85.5268 120.756 86.256C123.637 87.0113 126.832 86.5538 129.356 84.9589C131.525 83.6314 133.161 81.5123 133.967 79.107C132.941 79.0938 131.914 79.0967 130.889 79.1025C130.397 80.0917 129.788 81.0343 128.977 81.7897C126.104 84.4128 121.282 84.3446 118.366 81.8259C116.738 80.5188 115.723 78.5492 115.503 76.4852C121.812 76.5114 128.122 76.4881 134.432 76.4953C134.436 75.0444 134.534 73.557 134.059 72.1583C133.078 68.9934 130.566 66.3673 127.526 65.0906V65.0877ZM115.516 73.8155C115.894 72.0465 116.796 70.3733 118.2 69.2069C120.579 67.0761 124.237 66.6796 127.108 67.997C129.432 69.0747 131.126 71.3145 131.615 73.8214C126.248 73.8243 120.88 73.8287 115.514 73.8155H115.516Z" fill="#1C1C1C"/>
<path d="M149.543 65.1288C147.612 64.3401 145.434 64.2471 143.411 64.7018C141.812 65.0634 140.354 65.9044 139.195 67.0504V64.8848H136.403V79.4952H136.404C136.404 81.6927 136.404 83.8918 136.404 86.0894H139.329C139.326 82.0065 139.334 77.9206 139.324 73.8378C139.138 70.3374 142.381 67.1637 145.847 67.2378C149.191 67.2203 152.288 70.1964 152.297 73.5604C152.297 77.7377 152.293 81.9121 152.297 86.0894H155.156C155.156 81.8279 155.16 77.5648 155.153 73.3033C155.075 69.7927 152.796 66.4549 149.543 65.1273V65.1288Z" fill="#1C1C1C"/>
<path d="M43.339 67.3507C41.201 65.2025 38.0767 64.2032 35.0817 64.4573C32.2698 64.6273 29.6858 66.0623 27.847 68.1553V64.8844H25.0553V78.5129C25.0495 83.4964 25.0553 88.4797 25.0553 93.4632H27.847C27.8499 89.9598 27.8513 86.4536 27.847 82.9488C29.9821 85.3468 33.163 86.76 36.3846 86.6046C42.0565 86.5378 46.9658 81.2247 46.7973 75.5963C46.9353 72.5099 45.602 69.4393 43.3405 67.3521L43.339 67.3507ZM38.5387 83.3293C36.3018 84.1383 33.667 83.9248 31.667 82.6017C29.6408 81.2537 28.1796 79.0227 27.9298 76.5811C27.327 72.549 30.1753 68.257 34.187 67.3899C36.206 66.9803 38.4123 67.3187 40.1306 68.4851C42.3673 70 43.9113 72.5941 43.9345 75.3233C44.103 78.7889 41.7791 82.1441 38.5401 83.3264L38.5387 83.3293Z" fill="#1C1C1C"/>
<path d="M86.6686 64.9586C83.4575 63.8852 79.5979 64.4067 77.0741 66.7684C76.984 66.8483 76.8973 66.9325 76.8094 67.0167V64.8845H74.0176V86.0906H76.8784C76.8828 81.9191 76.8717 77.7491 76.8806 73.5776C76.8984 70.2877 79.8292 67.3508 83.1049 67.252C86.5952 67.0211 89.862 70.1076 89.8953 73.592C89.9254 77.7592 89.8976 81.9234 89.9076 86.0906H92.7684V75.842C92.7606 74.5376 92.8351 73.2202 92.5781 71.9349C92.042 68.783 89.6873 66.0087 86.6686 64.9586Z" fill="#1C1C1C"/>
<path d="M179.498 71.4806C179.498 66.8603 179.498 62.2386 179.497 57.6168C178.544 57.6168 177.59 57.6168 176.64 57.6197C176.64 61.1231 176.636 64.6264 176.64 68.1298C174.454 65.6504 171.127 64.2575 167.826 64.5306C162.597 64.7877 158.142 69.4748 157.811 74.6383C157.506 77.7379 158.543 80.9566 160.707 83.2137C162.669 85.4229 165.597 86.7446 168.561 86.6706C171.65 86.7984 174.638 85.3474 176.71 83.0801V86.0911H179.5V71.4806H179.498ZM175.632 79.6493C174.47 81.7134 172.466 83.404 170.082 83.7831C168.371 84.0271 166.548 83.8238 165.02 82.9799C163.743 82.2653 162.682 81.1977 161.9 79.9674C160.351 77.5273 160.236 74.2679 161.562 71.7043C162.594 69.8176 164.322 68.2751 166.4 67.6447C168.192 67.1436 170.183 67.2075 171.896 67.9656C173.787 68.8473 175.285 70.4974 176.066 72.4247C176.948 74.7415 176.872 77.4736 175.632 79.6493Z" fill="#1C1C1C"/>
<path d="M106.27 64.5618C101.688 63.5552 98.6334 67.4363 98.8147 70.4574C98.9104 72.058 99.6367 73.3871 100.592 74.6057C101.706 76.0262 102.936 77.3596 103.978 78.828C105.397 80.8251 104.703 82.6756 102.979 83.4541C101.772 83.9 100.766 83.794 99.6601 83.197C98.3654 82.356 97.3988 80.6189 97.3988 80.6189L95.0908 82.3474C95.0908 82.3474 96.0407 84.0002 97.3476 85.1447C98.5789 86.1238 99.8313 86.4607 101.354 86.5624C105.108 86.8035 108.3 83.4425 107.406 79.3988C107.02 77.6514 105.792 76.3675 104.698 75.0255C103.827 73.9593 102.915 72.912 102.176 71.7574C101.39 70.533 101.538 69.2504 102.353 68.2584C103.165 67.2692 104.941 66.2772 106.92 67.5583C108.304 68.5765 108.697 69.6367 108.697 69.6367L110.995 68.5634C110.995 68.5634 109.917 65.3563 106.271 64.5618H106.27Z" fill="#1C1C1C"/>
</svg>
