<svg width="162" height="161" viewBox="0 0 162 161" fill="none" xmlns="http://www.w3.org/2000/svg">
<path d="M133.807 31.6155C133.696 30.8105 132.991 30.365 132.408 30.3159C131.826 30.2674 119.515 29.3549 119.515 29.3549C119.515 29.3549 110.965 20.8665 110.027 19.927C109.088 18.988 107.254 19.2736 106.542 19.4831C106.437 19.514 104.674 20.0582 101.757 20.9608C98.901 12.7421 93.8604 5.18942 84.9927 5.18942C84.7479 5.18942 84.4959 5.19934 84.244 5.21368C81.722 1.87844 78.5979 0.429443 75.8995 0.429443C55.2425 0.429443 45.3735 26.2529 42.2792 39.3755C34.2524 41.8627 28.5501 43.6309 27.8217 43.8597C23.3413 45.2652 23.1996 45.4063 22.6113 49.6282C22.1685 52.8245 10.4453 143.486 10.4453 143.486L101.795 160.601L151.292 149.894C151.292 149.894 133.916 32.4205 133.807 31.6155ZM96.7082 22.5223L88.9786 24.9147C88.9813 24.3699 88.9841 23.834 88.9841 23.2479C88.9841 18.14 88.275 14.0273 87.1376 10.7671C91.7068 11.3405 94.7498 16.5394 96.7082 22.5223ZM81.4695 11.7799C82.7398 14.963 83.5658 19.5311 83.5658 25.6954C83.5658 26.0108 83.563 26.2992 83.5603 26.5908C78.5334 28.1479 73.071 29.8384 67.5965 31.5344C70.6703 19.6712 76.4322 13.9413 81.4695 11.7799ZM75.3322 5.97016C76.2237 5.97016 77.1219 6.27286 77.9815 6.86448C71.3612 9.97972 64.2651 17.8257 61.2684 33.494L48.6497 37.4021C52.1598 25.4512 60.4948 5.97016 75.3322 5.97016Z" fill="#95BF46"/>
<path d="M132.408 30.3159C131.826 30.2674 119.515 29.3549 119.515 29.3549C119.515 29.3549 110.965 20.8665 110.027 19.927C109.676 19.5774 109.202 19.3982 108.707 19.321L101.8 160.6L151.292 149.894C151.292 149.894 133.916 32.4205 133.807 31.6155C133.696 30.8105 132.991 30.365 132.408 30.3159Z" fill="#5E8E3E"/>
<path d="M84.9929 57.665L78.8898 75.8194C78.8898 75.8194 73.5426 72.9656 66.9879 72.9656C57.3786 72.9656 56.8951 78.9959 56.8951 80.5155C56.8951 88.807 78.5088 91.984 78.5088 111.405C78.5088 126.686 68.8174 136.525 55.7499 136.525C40.0689 136.525 32.0498 126.765 32.0498 126.765L36.2485 112.893C36.2485 112.893 44.4915 119.97 51.447 119.97C55.9919 119.97 57.8407 116.391 57.8407 113.777C57.8407 102.961 40.1086 102.479 40.1086 84.7064C40.1086 69.7483 50.8449 55.2732 72.517 55.2732C80.8675 55.2732 84.9929 57.665 84.9929 57.665Z" fill="white"/>
</svg>
