<svg width="144" height="143" viewBox="0 0 144 143" fill="none" xmlns="http://www.w3.org/2000/svg">
<g clip-path="url(#clip0_176_1821)">
<path d="M10.873 71.4983C10.873 95.7389 24.9607 116.688 45.389 126.615L16.1753 46.5748C12.7772 54.1912 10.873 62.6199 10.873 71.4983Z" fill="#21759B"/>
<path d="M113.46 68.408C113.46 60.8394 110.741 55.5978 108.409 51.5181C105.305 46.4735 102.395 42.2015 102.395 37.1569C102.395 31.5273 106.665 26.287 112.679 26.287C112.95 26.287 113.208 26.3208 113.472 26.3359C102.577 16.3539 88.06 10.2594 72.116 10.2594C50.7205 10.2594 31.8969 21.2365 20.9463 37.8631C22.3831 37.9062 23.7373 37.9365 24.8874 37.9365C31.2933 37.9365 41.2091 37.1592 41.2091 37.1592C44.5105 36.9646 44.8997 41.8135 41.6018 42.2038C41.6018 42.2038 38.2841 42.5942 34.5923 42.7877L56.8944 109.122L70.2969 68.9277L60.7552 42.7853C57.4573 42.5919 54.333 42.2015 54.333 42.2015C51.0328 42.0081 51.4197 36.9623 54.7199 37.1569C54.7199 37.1569 64.8338 37.9342 70.8516 37.9342C77.2563 37.9342 87.1732 37.1569 87.1732 37.1569C90.4769 36.9623 90.865 41.8111 87.5659 42.2015C87.5659 42.2015 84.2412 42.5919 80.5565 42.7853L102.688 108.618L108.797 88.2053C111.445 79.7347 113.46 73.6507 113.46 68.408Z" fill="#21759B"/>
<path d="M73.1904 76.8552L54.8154 130.248C60.3018 131.861 66.104 132.743 72.1159 132.743C79.2478 132.743 86.0871 131.51 92.4533 129.272C92.289 129.009 92.1398 128.731 92.0175 128.428L73.1904 76.8552Z" fill="#21759B"/>
<path d="M125.855 42.1166C126.118 44.0673 126.267 46.1613 126.267 48.4139C126.267 54.6284 125.106 61.6144 121.61 70.3495L102.903 124.435C121.11 113.818 133.357 94.0926 133.357 71.4997C133.358 60.8523 130.638 50.84 125.855 42.1166Z" fill="#21759B"/>
<path d="M72.1161 0.111938C32.7524 0.111938 0.725586 32.1356 0.725586 71.4984C0.725586 110.866 32.7524 142.888 72.1161 142.888C111.479 142.888 143.51 110.866 143.51 71.4984C143.509 32.1356 111.479 0.111938 72.1161 0.111938ZM72.1161 139.616C34.5575 139.616 3.999 109.058 3.999 71.4984C3.999 33.9407 34.5563 3.38527 72.1161 3.38527C109.674 3.38527 140.23 33.9407 140.23 71.4984C140.23 109.058 109.674 139.616 72.1161 139.616Z" fill="#21759B"/>
</g>
<defs>
<clipPath id="clip0_176_1821">
<rect width="142.773" height="142.776" fill="white" transform="translate(0.725586 0.111938)"/>
</clipPath>
</defs>
</svg>
