<svg width="24" height="20" viewBox="0 0 24 20" fill="none" xmlns="http://www.w3.org/2000/svg">
<path d="M22.2665 2.88678C22.266 2.38269 22.0656 1.89937 21.7092 1.54293C21.3527 1.18648 20.8694 0.986036 20.3653 0.985596H2.56329C2.0592 0.986036 1.57589 1.18648 1.21944 1.54293C0.862994 1.89937 0.662549 2.38269 0.662109 2.88678V4.30935H22.2665V2.88678ZM3.57039 3.47841C3.48822 3.47841 3.40789 3.45404 3.33957 3.40839C3.27125 3.36274 3.21799 3.29785 3.18655 3.22193C3.1551 3.14602 3.14687 3.06248 3.1629 2.98189C3.17894 2.90129 3.21851 2.82726 3.27661 2.76916C3.33471 2.71105 3.40874 2.67148 3.48934 2.65545C3.56993 2.63942 3.65347 2.64765 3.72938 2.6791C3.8053 2.71054 3.87019 2.76379 3.91584 2.83212C3.96149 2.90044 3.98586 2.98077 3.98586 3.06294C3.98586 3.17313 3.94209 3.27881 3.86417 3.35672C3.78626 3.43464 3.68058 3.47841 3.57039 3.47841ZM5.23227 3.47841C5.15009 3.47841 5.06977 3.45404 5.00144 3.40839C4.93312 3.36274 4.87987 3.29785 4.84842 3.22193C4.81698 3.14602 4.80875 3.06248 4.82478 2.98189C4.84081 2.90129 4.88038 2.82726 4.93849 2.76916C4.99659 2.71105 5.07062 2.67148 5.15121 2.65545C5.2318 2.63942 5.31534 2.64765 5.39126 2.6791C5.46718 2.71054 5.53206 2.76379 5.57772 2.83212C5.62337 2.90044 5.64773 2.98077 5.64773 3.06294C5.64773 3.17313 5.60396 3.27881 5.52605 3.35672C5.44813 3.43464 5.34245 3.47841 5.23227 3.47841ZM6.89414 3.47841C6.81197 3.47841 6.73164 3.45404 6.66332 3.40839C6.595 3.36274 6.54174 3.29785 6.5103 3.22193C6.47885 3.14602 6.47062 3.06248 6.48665 2.98189C6.50269 2.90129 6.54226 2.82726 6.60036 2.76916C6.65846 2.71105 6.73249 2.67148 6.81309 2.65545C6.89368 2.63942 6.97722 2.64765 7.05313 2.6791C7.12905 2.71054 7.19394 2.76379 7.23959 2.83212C7.28524 2.90044 7.30961 2.98077 7.30961 3.06294C7.30961 3.17313 7.26584 3.27881 7.18792 3.35672C7.11001 3.43464 7.00433 3.47841 6.89414 3.47841Z" fill="#007DFE"/>
<path d="M19.3582 9.58661C20.3888 9.58694 21.3979 9.88188 22.2665 10.4367V5.14026H0.662109V15.7031C0.662549 16.2072 0.862994 16.6905 1.21944 17.047C1.57589 17.4034 2.0592 17.6039 2.56329 17.6043H14.5712C14.1241 16.776 13.8998 15.8458 13.9203 14.9047C13.9407 13.9637 14.2051 13.0441 14.6876 12.2359C15.1701 11.4277 15.8542 10.7587 16.6729 10.2943C17.4917 9.8299 18.4169 9.58605 19.3582 9.58661ZM3.57039 7.63307H19.3582C19.4684 7.63307 19.5741 7.67684 19.652 7.75476C19.7299 7.83267 19.7737 7.93835 19.7737 8.04854C19.7737 8.15873 19.7299 8.26441 19.652 8.34232C19.5741 8.42024 19.4684 8.46401 19.3582 8.46401H3.57039C3.4602 8.46401 3.35453 8.42024 3.27661 8.34232C3.19869 8.26441 3.15492 8.15873 3.15492 8.04854C3.15492 7.93835 3.19869 7.83267 3.27661 7.75476C3.35453 7.67684 3.4602 7.63307 3.57039 7.63307ZM12.6949 13.4496H3.57039C3.4602 13.4496 3.35453 13.4059 3.27661 13.3279C3.19869 13.25 3.15492 13.1444 3.15492 13.0342C3.15492 12.924 3.19869 12.8183 3.27661 12.7404C3.35453 12.6625 3.4602 12.6187 3.57039 12.6187H12.6949C12.8051 12.6187 12.9108 12.6625 12.9887 12.7404C13.0666 12.8183 13.1104 12.924 13.1104 13.0342C13.1104 13.1444 13.0666 13.25 12.9887 13.3279C12.9108 13.4059 12.8051 13.4496 12.6949 13.4496ZM12.6949 10.9568H3.57039C3.4602 10.9568 3.35453 10.913 3.27661 10.8351C3.19869 10.7572 3.15492 10.6515 3.15492 10.5414C3.15492 10.4312 3.19869 10.3255 3.27661 10.2476C3.35453 10.1697 3.4602 10.1259 3.57039 10.1259H12.6949C12.8051 10.1259 12.9108 10.1697 12.9887 10.2476C13.0666 10.3255 13.1104 10.4312 13.1104 10.5414C13.1104 10.6515 13.0666 10.7572 12.9887 10.8351C12.9108 10.913 12.8051 10.9568 12.6949 10.9568Z" fill="#007DFE"/>
<path d="M19.3584 10.4176C18.447 10.4176 17.5562 10.6878 16.7984 11.1941C16.0406 11.7003 15.4499 12.4199 15.101 13.2619C14.7522 14.1038 14.6608 15.0302 14.8384 15.9241C15.016 16.818 15.4546 17.6391 16.0989 18.2837C16.7431 18.9283 17.564 19.3674 18.4578 19.5455C19.3516 19.7236 20.2781 19.6327 21.1202 19.2843C21.9623 18.9359 22.6822 18.3456 23.1889 17.5881C23.6956 16.8306 23.9663 15.9398 23.9668 15.0285C23.9661 13.8062 23.4804 12.6342 22.6164 11.7697C21.7524 10.9052 20.5806 10.4189 19.3584 10.4176ZM21.2205 15.5536H17.4963C17.3861 15.5536 17.2804 15.5099 17.2025 15.4319C17.1246 15.354 17.0808 15.2483 17.0808 15.1382C17.0808 15.028 17.1246 14.9223 17.2025 14.8444C17.2804 14.7665 17.3861 14.7227 17.4963 14.7227H21.2205C21.3307 14.7227 21.4364 14.7665 21.5143 14.8444C21.5922 14.9223 21.636 15.028 21.636 15.1382C21.636 15.2483 21.5922 15.354 21.5143 15.4319C21.4364 15.5099 21.3307 15.5536 21.2205 15.5536Z" fill="#007DFE"/>
</svg>
