<svg width="27" height="27" viewBox="0 0 27 27" fill="none" xmlns="http://www.w3.org/2000/svg">
<path fill-rule="evenodd" clip-rule="evenodd" d="M6.52638 3.20021C4.86805 4.31035 3.50914 5.81239 2.57007 7.57325C1.63099 9.3341 1.14073 11.2994 1.14274 13.295C1.14274 20.0067 6.58351 25.4475 13.2952 25.4475C13.3778 25.4475 13.4571 25.4803 13.5155 25.5387C13.574 25.5972 13.6068 25.6764 13.6068 25.7591C13.6068 25.8417 13.574 25.921 13.5155 25.9794C13.4571 26.0378 13.3778 26.0707 13.2952 26.0707C6.2395 26.0707 0.519532 20.3507 0.519532 13.295C0.518836 11.2137 1.02698 9.16372 1.99971 7.32367C2.97244 5.48362 4.38026 3.90928 6.10057 2.73774L4.62083 2.62422C4.53851 2.61808 4.462 2.57949 4.40814 2.51695C4.35427 2.4544 4.32745 2.37302 4.33359 2.2907C4.33972 2.20838 4.37831 2.13187 4.44086 2.078C4.5034 2.02413 4.58479 1.99732 4.6671 2.00345C4.93929 2.02423 7.07064 2.17712 7.15114 2.20111C7.23022 2.22469 7.29671 2.27871 7.33597 2.35129C7.37522 2.42388 7.38404 2.50909 7.36048 2.58817L6.68317 4.83835C6.65847 4.91608 6.60424 4.981 6.53215 5.01915C6.46006 5.0573 6.37588 5.06562 6.29772 5.04233C6.21956 5.01904 6.15367 4.96599 6.11422 4.89461C6.07478 4.82322 6.06494 4.73921 6.08681 4.66064L6.52638 3.20021ZM9.81757 18.9935L8.57781 21.1409L10.5427 20.6145L11.0692 22.5792L12.3085 20.4326C11.3479 20.2259 10.4765 19.7225 9.81767 18.9935H9.81757ZM16.7728 18.9935L18.0126 21.1409L16.0477 20.6144L15.5214 22.5792L14.2819 20.4326C15.2425 20.2259 16.1139 19.7225 16.7727 18.9935H16.7728ZM13.2952 11.7797C12.4908 11.7797 11.7045 12.0183 11.0357 12.4652C10.3669 12.912 9.84562 13.5472 9.5378 14.2904C9.22998 15.0335 9.14944 15.8512 9.30637 16.6401C9.46329 17.4291 9.85064 18.1537 10.4194 18.7225C10.9882 19.2913 11.7129 19.6786 12.5018 19.8355C13.2907 19.9925 14.1084 19.9119 14.8516 19.6041C15.5947 19.2963 16.2299 18.775 16.6768 18.1062C17.1236 17.4374 17.3622 16.6511 17.3622 15.8467C17.3622 15.3126 17.257 14.7838 17.0526 14.2904C16.8482 13.7969 16.5486 13.3486 16.171 12.9709C15.7933 12.5933 15.345 12.2937 14.8516 12.0893C14.3581 11.8849 13.8293 11.7797 13.2952 11.7797ZM13.5916 13.2456C13.5716 13.1829 13.5322 13.1281 13.4792 13.0892C13.4261 13.0503 13.3621 13.0292 13.2963 13.029C13.2305 13.0288 13.1663 13.0494 13.113 13.088C13.0597 13.1266 13.0199 13.181 12.9995 13.2436L12.5086 14.7644L10.9326 14.7613C10.8651 14.7565 10.7979 14.7738 10.7412 14.8105C10.6844 14.8473 10.6412 14.9015 10.618 14.9651C10.5948 15.0286 10.5929 15.0979 10.6126 15.1626C10.6324 15.2273 10.6726 15.2838 10.7273 15.3236L12.022 16.2604L11.526 17.7799C11.506 17.8422 11.5062 17.9092 11.5266 17.9713C11.5469 18.0335 11.5864 18.0876 11.6393 18.126C11.6922 18.1645 11.7559 18.1852 11.8213 18.1853C11.8867 18.1853 11.9505 18.1648 12.0035 18.1265L13.2952 17.1843L14.5676 18.1126C14.6192 18.1564 14.6836 18.1822 14.7512 18.1861C14.8188 18.19 14.8858 18.1717 14.942 18.1341C14.9983 18.0964 15.0407 18.0415 15.0629 17.9775C15.0851 17.9136 15.0859 17.8441 15.0651 17.7797L14.5684 16.2604L15.8627 15.3229C15.9155 15.2843 15.9548 15.23 15.975 15.1677C15.9952 15.1054 15.9951 15.0384 15.975 14.9761C15.9548 14.9139 15.9155 14.8596 15.8626 14.821C15.8098 14.7824 15.7461 14.7614 15.6806 14.7611L14.0818 14.7643L13.5916 13.2455V13.2456ZM13.56 15.1701L13.2951 14.3496L13.0303 15.1701C13.0102 15.2327 12.9707 15.2873 12.9176 15.326C12.8644 15.3647 12.8004 15.3856 12.7347 15.3856L11.8721 15.3839L12.5708 15.8896C12.624 15.9282 12.6636 15.9826 12.6839 16.0451C12.7043 16.1077 12.7043 16.175 12.684 16.2375L12.4156 17.0581L13.1076 16.5533C13.1607 16.513 13.2254 16.4908 13.2921 16.4902C13.3588 16.4895 13.4239 16.5103 13.4778 16.5496L14.1748 17.0581L13.91 16.2487C13.8866 16.185 13.8847 16.1155 13.9044 16.0507C13.9242 15.9858 13.9646 15.9292 14.0195 15.8894L14.7182 15.3838L13.8702 15.3854C13.802 15.3886 13.7346 15.3692 13.6785 15.3303C13.6225 15.2913 13.5808 15.235 13.5599 15.17L13.56 15.1701ZM13.2952 3.19788C12.7703 3.19788 12.2572 3.35352 11.8208 3.64512C11.3844 3.93673 11.0443 4.35119 10.8434 4.83611C10.6425 5.32103 10.59 5.85463 10.6924 6.36941C10.7948 6.8842 11.0475 7.35706 11.4187 7.72821C11.7898 8.09935 12.2627 8.3521 12.7775 8.4545C13.2923 8.55689 13.8258 8.50434 14.3108 8.30348C14.7957 8.10262 15.2101 7.76247 15.5018 7.32606C15.7934 6.88964 15.949 6.37655 15.949 5.85168C15.949 5.14785 15.6694 4.47284 15.1717 3.97516C14.674 3.47747 13.999 3.19788 13.2952 3.19788ZM19.1825 15.2936V12.9038C19.1655 11.2783 17.8727 9.95916 16.2389 9.95916H10.3515C8.71772 9.95916 7.42493 11.2783 7.40785 12.9038V15.2936C7.40812 15.4402 7.46648 15.5808 7.57015 15.6844C7.67381 15.7881 7.81434 15.8464 7.96094 15.8467H8.60492C8.60492 15.2308 8.72623 14.6209 8.96194 14.0519C9.19764 13.4828 9.54311 12.9658 9.97864 12.5303C10.4142 12.0947 10.9312 11.7493 11.5002 11.5136C12.0693 11.2779 12.6792 11.1565 13.2951 11.1565C13.911 11.1565 14.5209 11.2779 15.0899 11.5136C15.659 11.7493 16.176 12.0947 16.6115 12.5303C17.0471 12.9658 17.3925 13.4828 17.6282 14.0519C17.864 14.6209 17.9853 15.2308 17.9853 15.8467H18.6292C18.7758 15.8464 18.9164 15.7881 19.02 15.6844C19.1237 15.5808 19.1821 15.4402 19.1823 15.2936H19.1825ZM20.064 23.3901L20.5036 21.9296C20.5159 21.8903 20.5202 21.8489 20.5163 21.8079C20.5125 21.7668 20.5006 21.727 20.4812 21.6906C20.4618 21.6542 20.4354 21.6221 20.4035 21.596C20.3716 21.5699 20.3349 21.5504 20.2954 21.5387C20.2559 21.5269 20.2145 21.5231 20.1735 21.5275C20.1325 21.5318 20.0928 21.5443 20.0567 21.5641C20.0206 21.584 19.9888 21.6108 19.9631 21.643C19.9374 21.6752 19.9184 21.7122 19.9072 21.7519L19.2299 24.0021C19.2182 24.0412 19.2143 24.0823 19.2185 24.1229C19.2227 24.1636 19.2349 24.203 19.2544 24.2389C19.2738 24.2749 19.3001 24.3067 19.3318 24.3324C19.3636 24.3582 19.4 24.3775 19.4392 24.3891C19.5197 24.4131 21.651 24.5663 21.9232 24.5868C22.0056 24.593 22.0869 24.5661 22.1495 24.5123C22.212 24.4584 22.2506 24.3819 22.2568 24.2996C22.2629 24.2173 22.2361 24.1359 22.1822 24.0733C22.1283 24.0108 22.0518 23.9722 21.9695 23.9661L20.4898 23.8525C22.2101 22.681 23.618 21.1066 24.5907 19.2665C25.5635 17.4264 26.0716 15.3764 26.0709 13.295C26.0709 6.23931 20.3509 0.519348 13.2952 0.519348C13.2126 0.519348 13.1333 0.552178 13.0749 0.610614C13.0164 0.669051 12.9836 0.748308 12.9836 0.83095C12.9836 0.913592 13.0164 0.992849 13.0749 1.05129C13.1333 1.10972 13.2126 1.14255 13.2952 1.14255C20.0069 1.14255 25.4477 6.58332 25.4477 13.295C25.4497 15.2906 24.9594 17.2559 24.0203 19.0168C23.0812 20.7776 21.7223 22.2797 20.064 23.3898V23.3901Z" fill="#007DFE"/>
</svg>
