<svg width="27" height="23" viewBox="0 0 27 23" fill="none" xmlns="http://www.w3.org/2000/svg">
<path fill-rule="evenodd" clip-rule="evenodd" d="M12.9144 8.81631C12.8996 9.05904 12.9008 9.30183 12.918 9.54322H11.8407L11.4728 10.8141C11.4302 10.9648 11.2951 11.0707 11.1373 11.0765C10.9821 11.0814 10.837 10.9866 10.7819 10.8392L10.2337 9.35127L9.66046 11.3688C9.61538 11.5283 9.47022 11.6347 9.30502 11.6332C9.13982 11.6299 8.99711 11.5153 8.95707 11.3548L7.84314 6.71409L6.67666 11.3901C6.63912 11.5443 6.50393 11.6559 6.34621 11.6647C6.33868 11.6652 6.3312 11.6656 6.32622 11.6656C6.17353 11.6656 6.03835 11.5723 5.98579 11.4296L4.6766 7.93962L4.19595 9.30059C4.14589 9.446 4.00821 9.54317 3.85298 9.54317H2.57609V8.81625H3.59513L4.32106 6.75439C4.37362 6.60996 4.5088 6.51305 4.66149 6.51134H4.66398C4.81666 6.51134 4.95185 6.60544 5.0044 6.74712L6.256 10.0802L7.49758 5.09677C7.53762 4.93484 7.68283 4.82168 7.85052 4.82168H7.85301C8.02071 4.82194 8.16591 4.93733 8.20346 5.09978L9.33992 9.83363L9.83558 8.07989C9.8806 7.92871 10.0158 7.82183 10.1735 7.81607C10.3312 7.8103 10.4739 7.90544 10.5265 8.05288L11.0821 9.55106L11.2198 9.07893C11.2624 8.92324 11.4051 8.81636 11.5678 8.81636H12.9143L12.9144 8.81631ZM25.1162 0.275879H1.47188C0.976018 0.275879 0.570312 0.681584 0.570312 1.1775V17.1822C0.570312 17.678 0.97607 18.0838 1.47188 18.0838H21.2905L19.9161 15.7033H2.11071V1.81628H24.4774V8.81631H23.413C23.4275 9.05785 23.4261 9.30069 23.4087 9.54322H24.4774V15.7033H23.9655L24.7049 16.984C24.904 17.3288 24.9716 17.7151 24.9235 18.0837H25.1162C25.6119 18.0837 26.0177 17.6778 26.0177 17.1821V1.17745C26.0177 0.681792 25.6119 0.275879 25.1162 0.275879H25.1162ZM17.312 20.4799H14.8582V18.8108H11.7299V20.4799H9.27594C8.46302 20.4799 7.79999 21.1429 7.79999 21.9559V22.3141H18.788V21.9559C18.788 21.1431 18.125 20.4799 17.312 20.4799ZM24.0753 17.3475C24.3575 17.8364 24.1885 18.4673 23.6996 18.7495C23.2107 19.0319 22.5798 18.8628 22.2975 18.3739L20.3216 14.9516C20.1911 14.7257 20.2601 14.4377 20.4731 14.2938L20.3899 14.1497C20.1993 13.8196 19.8215 13.666 19.4547 13.7694C18.6518 13.9958 17.7794 14.0156 16.9152 13.7841C14.3556 13.0982 12.8367 10.4673 13.5225 7.90783C14.2083 5.34829 16.8392 3.82933 19.3987 4.51517C21.9583 5.201 23.4772 7.83191 22.7914 10.3915C22.5598 11.2557 22.1064 12.0013 21.509 12.5834C21.2359 12.8494 21.1801 13.2534 21.3707 13.5836L21.4538 13.7277C21.685 13.6151 21.9688 13.6993 22.0993 13.9253L24.0751 17.3476L24.0753 17.3475ZM21.5581 10.0608C22.0614 8.18246 20.9467 6.25172 19.0683 5.74838C17.1899 5.24509 15.2592 6.3598 14.7558 8.23818C14.2525 10.1166 15.3672 12.0473 17.2456 12.5506C19.124 13.054 21.0547 11.9392 21.5581 10.0608ZM20.1365 8.35119L18.8559 8.1902L18.3071 7.02205C18.2787 6.96165 18.2216 6.92535 18.1549 6.92535C18.0881 6.92535 18.031 6.9616 18.0026 7.02205L17.4538 8.1902L16.1732 8.35119C16.107 8.3595 16.0548 8.4026 16.0342 8.46612C16.0135 8.52958 16.0304 8.59512 16.0791 8.64077L17.0205 9.52369L16.7779 10.7913C16.7653 10.8569 16.7902 10.9198 16.8442 10.959C16.8982 10.9982 16.9657 11.0025 17.0242 10.9703L18.1549 10.3478L19.2855 10.9703C19.344 11.0025 19.4115 10.9982 19.4655 10.959C19.5195 10.9198 19.5444 10.8569 19.5318 10.7913L19.2892 9.52369L20.2306 8.64077C20.2793 8.59512 20.2961 8.52958 20.2755 8.46612C20.2549 8.40266 20.2027 8.35955 20.1365 8.35119Z" fill="#007DFE"/>
</svg>
