<svg width="24" height="26" viewBox="0 0 24 26" fill="none" xmlns="http://www.w3.org/2000/svg">
<path d="M23.169 4.36056V23.751C23.169 24.5257 22.5371 25.1576 21.7624 25.1576H5.9603C5.18559 25.1576 4.55373 24.5258 4.55368 23.751V21.7302C4.58833 21.7341 4.62348 21.7362 4.65908 21.7362H5.86324C5.89884 21.7362 5.93404 21.7341 5.96874 21.7302V23.7425H21.7539V22.3775H21.7313V19.7531C21.7313 19.6458 21.7391 19.5402 21.7539 19.4367V4.36905H18.8142V2.95394H21.7624C22.5371 2.95394 23.169 3.5858 23.169 4.36056ZM4.65908 10.8898H5.86329C5.89889 10.8898 5.93409 10.8919 5.96879 10.8958V4.36905H8.90847V2.95394H5.9603C5.18559 2.95394 4.55368 3.5858 4.55368 4.36056V10.8957C4.58833 10.8918 4.62353 10.8897 4.65913 10.8897L4.65908 10.8898ZM18.1113 4.72999V2.95128C18.1113 2.70126 18.0111 2.48604 17.8196 2.3252C17.6282 2.16437 17.399 2.1027 17.1527 2.14574L15.5141 2.43216V2.20514C15.5141 1.29233 14.7742 0.552368 13.8614 0.552368C12.9486 0.552368 12.2086 1.29233 12.2086 2.20514V2.43216L10.57 2.14574C10.3238 2.1027 10.0945 2.16437 9.90312 2.3252C9.7117 2.48604 9.61147 2.70131 9.61147 2.95128V4.72999H18.1113H18.1113ZM11.4861 17.5815H16.5752C16.7693 17.5815 16.9267 17.4241 16.9267 17.23C16.9267 17.0358 16.7693 16.8785 16.5752 16.8785H11.4861C11.292 16.8785 11.1346 17.0358 11.1346 17.23C11.1346 17.4241 11.292 17.5815 11.4861 17.5815ZM11.4861 15.8303H16.5752C16.7693 15.8303 16.9267 15.6729 16.9267 15.4788C16.9267 15.2846 16.7693 15.1273 16.5752 15.1273H11.4861C11.292 15.1273 11.1346 15.2846 11.1346 15.4788C11.1346 15.6729 11.292 15.8303 11.4861 15.8303ZM19.852 19.6525H10.3312C10.1371 19.6525 9.9797 19.8099 9.9797 20.004C9.9797 20.1982 10.1371 20.3555 10.3312 20.3555H19.852C20.0462 20.3555 20.2035 20.1982 20.2035 20.004C20.2035 19.8099 20.0462 19.6525 19.852 19.6525ZM19.852 16.8785H18.3707C18.1766 16.8785 18.0192 17.0359 18.0192 17.23C18.0192 17.4242 18.1766 17.5815 18.3707 17.5815H19.852C20.0462 17.5815 20.2035 17.4242 20.2035 17.23C20.2035 17.0359 20.0462 16.8785 19.852 16.8785ZM19.852 21.4037H7.87068C7.67654 21.4037 7.51917 21.5611 7.51917 21.7552C7.51917 21.9494 7.67654 22.1067 7.87068 22.1067H19.852C20.0462 22.1067 20.2035 21.9494 20.2035 21.7552C20.2035 21.5611 20.0462 21.4037 19.852 21.4037ZM19.852 15.1273H18.3707C18.1766 15.1273 18.0192 15.2846 18.0192 15.4788C18.0192 15.6729 18.1766 15.8303 18.3707 15.8303H19.852C20.0462 15.8303 20.2035 15.6729 20.2035 15.4788C20.2035 15.2846 20.0462 15.1273 19.852 15.1273ZM4.65913 21.0332C4.55122 21.0332 4.46064 20.9587 4.43975 20.8528L4.3116 20.203L3.18207 19.735L2.63186 20.104C2.54228 20.1641 2.42553 20.1527 2.34925 20.0764L1.49776 19.225C1.42148 19.1487 1.41003 19.0319 1.47019 18.9423L1.83912 18.3921L1.37117 17.2626L0.721337 17.1345C0.615484 17.1136 0.541016 17.023 0.541016 16.9151V15.7109C0.541016 15.603 0.615484 15.5124 0.721387 15.4915L1.37117 15.3634L1.83912 14.2339L1.47019 13.6837C1.41008 13.5941 1.42148 13.4773 1.49776 13.401L2.34925 12.5495C2.42553 12.4733 2.54228 12.4619 2.63186 12.522L3.18207 12.8909L4.3116 12.4229L4.43975 11.7731C4.46064 11.6672 4.55122 11.5928 4.65913 11.5928H5.86334C5.9712 11.5928 6.06184 11.6672 6.08267 11.7731L6.21082 12.4229L7.34036 12.8909L7.89051 12.522C7.98014 12.4619 8.09689 12.4733 8.17317 12.5495L9.02466 13.401C9.10094 13.4773 9.11234 13.5941 9.05228 13.6837L8.6833 14.2339L9.1513 15.3634L9.80108 15.4915C9.90694 15.5124 9.98146 15.603 9.98146 15.7109V16.9151C9.98146 17.023 9.90699 17.1136 9.80114 17.1345L9.1513 17.2626L8.6833 18.3921L9.05228 18.9423C9.11234 19.0319 9.10099 19.1486 9.02466 19.225L8.17317 20.0764C8.09689 20.1527 7.98014 20.1641 7.89051 20.104L7.34036 19.735L6.21082 20.203L6.08267 20.8528C6.06179 20.9587 5.9712 21.0332 5.86334 21.0332H4.65918H4.65913ZM5.26121 18.7337C6.59813 18.7337 7.68187 17.6499 7.68187 16.313C7.68187 14.9761 6.59808 13.8923 5.26121 13.8923C3.92434 13.8923 2.84055 14.9761 2.84055 16.313C2.84055 17.6499 3.92434 18.7337 5.26121 18.7337ZM18.588 6.72392L18.6993 6.74978L12.8022 9.49257C12.6263 9.57372 12.5494 9.78211 12.6306 9.95801C12.7117 10.1339 12.9201 10.2108 13.096 10.1296L19.0518 7.35954L18.9799 7.51556C18.8988 7.69146 18.9756 7.8999 19.1515 7.981C19.3274 8.06215 19.5359 7.98527 19.617 7.80937L20.0827 6.79874C20.1859 6.59733 20.0731 6.34857 19.8499 6.29659L18.7473 6.0401C18.5585 5.99611 18.3697 6.11351 18.3258 6.30237C18.2818 6.49123 18.3992 6.67993 18.588 6.72392ZM20.675 13.3161C20.675 13.122 20.5176 12.9646 20.3235 12.9646H19.6977V8.79679H18.2189V12.9646H17.0991V9.84176H15.6202V12.9646H14.5004V11.0565H13.0216V12.9646H12.3959C12.2018 12.9646 12.0444 13.122 12.0444 13.3161C12.0444 13.5103 12.2018 13.6676 12.3959 13.6676H20.3234C20.5175 13.6676 20.6749 13.5103 20.6749 13.3161H20.675ZM7.72309 8.19477C7.7012 8.2621 7.71908 8.33165 7.77075 8.38011L8.76977 9.31712L8.51232 10.6624C8.49901 10.7319 8.52538 10.7987 8.58272 10.8403C8.64007 10.882 8.71167 10.8864 8.77374 10.8523L9.97362 10.1917L11.1735 10.8523C11.2356 10.8864 11.3072 10.882 11.3645 10.8403C11.4218 10.7987 11.4482 10.7319 11.4349 10.6624L11.1774 9.31707L12.1764 8.38006C12.2281 8.3316 12.246 8.26205 12.2241 8.19472C12.2022 8.12733 12.1469 8.08158 12.0766 8.07279L10.7176 7.90196L10.1352 6.66226C10.1051 6.59819 10.0445 6.55967 9.97362 6.55967C9.90277 6.55967 9.84221 6.59813 9.81203 6.66226L9.22964 7.90196L7.87063 8.07279C7.80037 8.08163 7.74504 8.12738 7.72309 8.19472V8.19477Z" fill="#007DFE"/>
</svg>
