<svg width="26" height="27" viewBox="0 0 26 27" fill="none" xmlns="http://www.w3.org/2000/svg">
<path fill-rule="evenodd" clip-rule="evenodd" d="M24.1375 0.000259399H2.44415C1.95444 0.00552197 1.48655 0.203645 1.14198 0.551652C0.797401 0.899659 0.603925 1.36949 0.603516 1.85922V18.2887C0.60386 18.7817 0.799852 19.2544 1.14845 19.603C1.49705 19.9516 1.96975 20.1476 2.46274 20.1479H7.66861C7.85258 20.3861 8.05141 20.6123 8.26393 20.8254C9.50981 22.0684 11.1754 22.8008 12.9336 22.8787C14.6918 22.9566 16.4156 22.3745 17.7666 21.2465L18.1904 21.6705L17.8401 22.0228C17.7819 22.0805 17.7356 22.1491 17.7041 22.2247C17.6726 22.3003 17.6563 22.3815 17.6563 22.4634C17.6563 22.5453 17.6726 22.6265 17.7041 22.7021C17.7356 22.7777 17.7819 22.8464 17.8401 22.904L21.015 26.0806C21.3426 26.4054 21.7856 26.5872 22.247 26.5862C22.7083 26.5852 23.1505 26.4014 23.4767 26.0752C23.8029 25.7489 23.9866 25.3067 23.9876 24.8454C23.9885 24.384 23.8067 23.941 23.4818 23.6134L20.307 20.4369C20.19 20.32 20.0314 20.2543 19.866 20.2543C19.7006 20.2543 19.542 20.32 19.4251 20.4369L19.0723 20.789L18.6485 20.3651C18.7097 20.2936 18.7686 20.2212 18.825 20.1478H24.1188C24.6118 20.1475 25.0845 19.9515 25.4331 19.6029C25.7817 19.2543 25.9777 18.7816 25.9781 18.2886V1.85922C25.9777 1.3695 25.7842 0.899693 25.4396 0.551688C25.0951 0.203684 24.6272 0.00554912 24.1375 0.000259399ZM24.1188 18.9014H19.5966C20.2294 17.5847 20.4375 16.1039 20.1922 14.6637C19.9469 13.2235 19.2602 11.8951 18.2271 10.8621C15.4809 8.11545 11.0126 8.11545 8.26393 10.8621C7.23172 11.8957 6.54584 13.2242 6.30098 14.6642C6.05613 16.1043 6.26438 17.5848 6.89698 18.9014H2.46289C2.30019 18.9014 2.14415 18.8369 2.02891 18.722C1.91367 18.6071 1.84862 18.4513 1.848 18.2886V6.96191H24.7337V18.2886C24.7331 18.4513 24.668 18.6071 24.5528 18.722C24.4376 18.8368 24.2815 18.9014 24.1188 18.9014ZM20.4319 22.325L19.7264 23.0293L19.1603 22.4632L19.8658 21.7587L20.4319 22.3247V22.325ZM22.747 24.847C22.7467 24.9454 22.7173 25.0414 22.6625 25.1231C22.6077 25.2048 22.53 25.2685 22.4391 25.3061C22.3483 25.3437 22.2483 25.3537 22.1518 25.3346C22.0553 25.3155 21.9666 25.2684 21.8969 25.199L20.6083 23.9107L21.3139 23.2064L22.6024 24.4947C22.6486 24.541 22.6851 24.5959 22.7099 24.6564C22.7347 24.7169 22.7473 24.7816 22.747 24.847ZM15.0228 14.3591L14.8881 14.375C14.8068 14.3847 14.7244 14.3782 14.6457 14.356C14.5669 14.3338 14.4932 14.2964 14.4289 14.2457C14.3646 14.1951 14.3109 14.1322 14.2709 14.0608C14.2309 13.9894 14.2053 13.9109 14.1957 13.8296C14.186 13.7483 14.1924 13.6659 14.2146 13.5871C14.2368 13.5083 14.2743 13.4347 14.325 13.3704C14.3756 13.3061 14.4384 13.2524 14.5098 13.2124C14.5812 13.1723 14.6598 13.1468 14.7411 13.1371L16.3261 12.9504C16.4904 12.9312 16.6557 12.9779 16.7857 13.0803C16.9156 13.1827 16.9997 13.3325 17.0194 13.4968L17.2056 15.0817C17.2152 15.163 17.2086 15.2454 17.1864 15.3242C17.1641 15.403 17.1265 15.4766 17.0758 15.5408C17.0251 15.6051 16.9622 15.6587 16.8907 15.6986C16.8192 15.7386 16.7406 15.764 16.6593 15.7736C16.6349 15.7764 16.6104 15.7778 16.5858 15.7779C16.4334 15.7777 16.2863 15.7215 16.1725 15.62C16.0587 15.5186 15.9861 15.3789 15.9684 15.2274L15.9611 15.1787L14.3785 17.0503C14.289 17.1564 14.1667 17.2295 14.0309 17.2581C13.8951 17.2867 13.7536 17.2692 13.6289 17.2084L12.0758 16.4494L10.3879 18.5124C10.3361 18.5758 10.2723 18.6283 10.2002 18.6671C10.1281 18.7058 10.0491 18.7299 9.96767 18.7381C9.88623 18.7463 9.80398 18.7384 9.72561 18.7148C9.64724 18.6912 9.57428 18.6524 9.51091 18.6006C9.44753 18.5488 9.39498 18.485 9.35625 18.4129C9.31752 18.3408 9.29337 18.2618 9.28518 18.1803C9.27699 18.0989 9.28493 18.0167 9.30852 17.9383C9.33212 17.8599 9.37093 17.787 9.42272 17.7236L11.4218 15.2784C11.5109 15.1698 11.6341 15.0943 11.7714 15.0642C11.9087 15.0341 12.0522 15.0512 12.1786 15.1127L13.7418 15.8751L15.023 14.3589L15.0228 14.3591ZM4.6628 3.48111C4.66274 3.56306 4.64653 3.64419 4.61509 3.71987C4.58366 3.79555 4.53762 3.8643 4.4796 3.92218C4.42158 3.98005 4.35273 4.02593 4.27697 4.05718C4.20121 4.08843 4.12004 4.10445 4.03809 4.10431H4.00382C3.83853 4.10431 3.68002 4.03865 3.56314 3.92178C3.44627 3.80491 3.38061 3.64639 3.38061 3.48111C3.38061 3.31582 3.44627 3.15731 3.56314 3.04044C3.68002 2.92356 3.83853 2.85791 4.00382 2.85791H4.03809C4.12004 2.85778 4.20121 2.8738 4.27696 2.90505C4.35272 2.9363 4.42157 2.98218 4.47958 3.04006C4.5376 3.09793 4.58364 3.16667 4.61508 3.24235C4.64652 3.31803 4.66273 3.39916 4.6628 3.48111ZM6.65445 3.48111C6.65439 3.56306 6.63818 3.64419 6.60675 3.71987C6.57531 3.79555 6.52927 3.8643 6.47125 3.92218C6.41324 3.98005 6.34438 4.02593 6.26862 4.05718C6.19287 4.08843 6.11169 4.10445 6.02975 4.10431H5.99547C5.83019 4.10431 5.67167 4.03865 5.5548 3.92178C5.43792 3.80491 5.37227 3.64639 5.37227 3.48111C5.37227 3.31582 5.43792 3.15731 5.5548 3.04044C5.67167 2.92356 5.83019 2.85791 5.99547 2.85791H6.02975C6.11169 2.85778 6.19286 2.8738 6.26862 2.90505C6.34437 2.9363 6.41322 2.98218 6.47124 3.04006C6.52925 3.09793 6.5753 3.16667 6.60673 3.24235C6.63817 3.31803 6.65439 3.39916 6.65445 3.48111ZM8.64611 3.48111C8.64605 3.56306 8.62984 3.64419 8.5984 3.71987C8.56697 3.79555 8.52092 3.8643 8.46291 3.92218C8.40489 3.98005 8.33604 4.02593 8.26028 4.05718C8.18452 4.08843 8.10335 4.10445 8.0214 4.10431H7.98712C7.82184 4.10431 7.66332 4.03865 7.54645 3.92178C7.42958 3.80491 7.36392 3.64639 7.36392 3.48111C7.36392 3.31582 7.42958 3.15731 7.54645 3.04044C7.66332 2.92356 7.82184 2.85791 7.98712 2.85791H8.0214C8.10335 2.85778 8.18452 2.8738 8.26027 2.90505C8.33602 2.9363 8.40488 2.98218 8.46289 3.04006C8.52091 3.09793 8.56695 3.16667 8.59839 3.24235C8.62982 3.31803 8.64604 3.39916 8.64611 3.48111ZM14.9493 3.48111C14.9491 3.39929 14.9651 3.31823 14.9963 3.24258C15.0274 3.16694 15.0733 3.0982 15.1311 3.0403C15.1889 2.9824 15.2576 2.93648 15.3332 2.90518C15.4088 2.87388 15.4898 2.85782 15.5716 2.85791H22.5779C22.7432 2.85791 22.9017 2.92356 23.0186 3.04044C23.1355 3.15731 23.2011 3.31582 23.2011 3.48111C23.2011 3.64639 23.1355 3.80491 23.0186 3.92178C22.9017 4.03865 22.7432 4.10431 22.5779 4.10431H15.5716C15.4898 4.1044 15.4088 4.08834 15.3332 4.05704C15.2576 4.02574 15.1889 3.97982 15.1311 3.92192C15.0733 3.86402 15.0274 3.79528 14.9963 3.71963C14.9651 3.64399 14.9491 3.56293 14.9493 3.48111Z" fill="#007DFE"/>
</svg>
