<svg width="27" height="27" viewBox="0 0 27 27" fill="none" xmlns="http://www.w3.org/2000/svg">
<path d="M20.0455 6.02429C19.7587 6.02429 19.5262 5.79179 19.5262 5.50496V0.830933H8.10078C6.95533 0.830933 6.02344 1.76283 6.02344 2.90828V12.2563H20.3052C21.8802 12.2563 23.1615 13.5377 23.1615 15.1127V20.306C23.1615 21.881 21.8802 23.1624 20.3052 23.1624H6.02344V23.6817C6.02344 24.8272 6.95533 25.7591 8.10078 25.7591H22.6422C23.7876 25.7591 24.7195 24.8272 24.7195 23.6817V6.02429H20.0455ZM9.13945 3.94695H13.2941C13.581 3.94695 13.8135 4.17946 13.8135 4.46628C13.8135 4.75311 13.581 4.98562 13.2941 4.98562H9.13945C8.85262 4.98562 8.62012 4.75311 8.62012 4.46628C8.62012 4.17946 8.85262 3.94695 9.13945 3.94695ZM17.4488 9.14031H9.13945C8.85262 9.14031 8.62012 8.9078 8.62012 8.62097C8.62012 8.33414 8.85262 8.10164 9.13945 8.10164H17.4488C17.7357 8.10164 17.9682 8.33414 17.9682 8.62097C17.9682 8.9078 17.7357 9.14031 17.4488 9.14031ZM17.4488 7.06296H9.13945C8.85262 7.06296 8.62012 6.83046 8.62012 6.54363C8.62012 6.2568 8.85262 6.02429 9.13945 6.02429H17.4488C17.7357 6.02429 17.9682 6.2568 17.9682 6.54363C17.9682 6.83046 17.7357 7.06296 17.4488 7.06296Z" fill="#007DFE"/>
<path d="M20.5645 1.13513V4.98564H24.415L20.5645 1.13513Z" fill="#007DFE"/>
<path d="M22.1232 20.3061V15.1127C22.1232 14.1104 21.3078 13.295 20.3056 13.295C2.22992 13.295 3.40918 13.2962 3.34686 13.293C2.79371 13.2761 2.28341 13.086 1.86914 12.7743V19.302C1.86914 20.8579 3.13497 22.1237 4.6909 22.1237H20.3056C21.3078 22.1237 22.1232 21.3083 22.1232 20.3061ZM9.13984 20.0464C9.13984 20.27 8.99682 20.4684 8.78472 20.5391C8.57081 20.6102 8.3382 20.5355 8.20504 20.358L7.0625 18.8346L5.91996 20.358C5.78582 20.5369 5.55222 20.6097 5.34028 20.5391C5.12818 20.4684 4.98516 20.27 4.98516 20.0464V15.3724C4.98516 15.0856 5.21766 14.853 5.50449 14.853C5.79132 14.853 6.02383 15.0856 6.02383 15.3724V18.4884L6.64703 17.6575C6.85482 17.3804 7.2706 17.381 7.47797 17.6575L8.10117 18.4884V15.3724C8.10117 15.0856 8.33368 14.853 8.62051 14.853C8.90734 14.853 9.13984 15.0856 9.13984 15.3724V20.0464ZM14.3332 20.0464C14.3332 20.3332 14.1007 20.5657 13.8139 20.5657C13.527 20.5657 13.2945 20.3332 13.2945 20.0464V16.9304L12.6713 17.7613C12.4635 18.0384 12.0478 18.0378 11.8404 17.7613L11.2172 16.9304V20.0464C11.2172 20.3332 10.9847 20.5657 10.6979 20.5657C10.411 20.5657 10.1785 20.3332 10.1785 20.0464V15.3724C10.1785 15.1488 10.3215 14.9504 10.5336 14.8797C10.7456 14.8092 10.9792 14.882 11.1133 15.0608L12.2559 16.5841L13.3984 15.0608C13.5325 14.882 13.7661 14.8092 13.9781 14.8797C14.1902 14.9504 14.3332 15.1489 14.3332 15.3724V20.0464ZM19.4999 15.5366L17.9419 20.2106C17.8712 20.4227 17.6728 20.5657 17.4492 20.5657C17.2256 20.5657 17.0272 20.4227 16.9565 20.2106L15.3985 15.5366C15.3078 15.2645 15.4549 14.9704 15.727 14.8797C15.9992 14.789 16.2932 14.9361 16.3839 15.2082L17.4492 18.4041L18.5145 15.2082C18.6053 14.9361 18.8993 14.789 19.1714 14.8797C19.4435 14.9704 19.5906 15.2645 19.4999 15.5366Z" fill="#007DFE"/>
<path d="M3.42715 12.2563H4.98516V9.14026H3.42715C2.56666 9.14026 1.86914 9.83783 1.86914 10.6983C1.86914 11.5587 2.56666 12.2563 3.42715 12.2563Z" fill="#007DFE"/>
</svg>
