<svg width="59" height="18" viewBox="0 0 59 18" fill="none" xmlns="http://www.w3.org/2000/svg">
<g clip-path="url(#clip0_11_39)">
<path d="M18.1273 0.8125H15.5078V17.1849H18.1273V0.8125Z" fill="white"/>
<path d="M27.2964 11.9649C27.3224 12.3296 27.2693 12.6956 27.1408 13.0378C27.0123 13.3801 26.8113 13.6906 26.5517 13.948C26.2921 14.2054 25.9799 14.4036 25.6366 14.5292C25.2932 14.6548 24.9268 14.7047 24.5623 14.6756C22.9963 14.6756 22.7142 13.2094 22.7142 12.3259V6.05078H20.0922V12.3038C20.0615 12.9764 20.1643 13.6484 20.3945 14.2812C20.6248 14.9139 20.9781 15.4947 21.434 15.9903C22.2767 16.7734 23.394 17.1931 24.5439 17.1583C25.5316 17.1811 26.4994 16.878 27.2976 16.2958V17.1903H29.9171V6.05078H27.2964V11.9649Z" fill="white"/>
<path d="M35.156 2.12109H32.5365V6.05031H30.5713V8.66979H32.5365V17.1837H35.156V8.66979H37.1212V6.05031H35.156V2.12109Z" fill="white"/>
<path d="M45.3758 13.8569C44.7831 14.3806 44.0166 14.6648 43.2257 14.654C42.806 14.6666 42.3882 14.5929 41.9982 14.4376C41.6081 14.2823 41.254 14.0486 40.9578 13.751C40.6616 13.4534 40.4295 13.0983 40.2761 12.7074C40.1226 12.3166 40.0508 11.8985 40.0654 11.4789C40.0485 11.0612 40.119 10.6447 40.2724 10.2559C40.4258 9.86708 40.6587 9.5146 40.9562 9.22103C41.2537 8.92746 41.6093 8.69926 42.0001 8.55106C42.3909 8.40286 42.8084 8.33791 43.2257 8.36039C44.0186 8.34974 44.7882 8.62832 45.3906 9.14401L45.7885 9.48531L47.5554 7.71969L47.1131 7.32048C46.0436 6.36727 44.6583 5.8452 43.2257 5.8555C42.4795 5.82713 41.7355 5.95245 41.0397 6.22368C40.344 6.49492 39.7114 6.90628 39.1813 7.43222C38.6512 7.95816 38.2349 8.58746 37.9582 9.28104C37.6815 9.97462 37.5503 10.7177 37.5728 11.4641C37.5543 12.2127 37.6877 12.9574 37.9649 13.6531C38.2421 14.3488 38.6574 14.9811 39.1857 15.5119C39.714 16.0427 40.3443 16.461 41.0386 16.7415C41.733 17.0221 42.477 17.159 43.2257 17.1441C44.6709 17.1639 46.0699 16.6356 47.1414 15.6656L47.5689 15.2664L45.775 13.502L45.3758 13.8569Z" fill="white"/>
<path d="M57.8057 7.02236C57.0989 6.32959 56.1642 5.91757 55.176 5.86316C54.1878 5.80876 53.2135 6.11567 52.4349 6.72665V0.8125H49.8154V17.1849H52.4349V11.0514C52.4349 8.54526 54.2153 8.34073 54.8412 8.34073C56.4072 8.34073 56.3641 9.80694 56.3641 10.6904V17.1787H58.9811V10.7101C59.0378 10.048 58.9627 9.38125 58.7603 8.74831C58.558 8.11537 58.2323 7.52878 57.802 7.02236" fill="white"/>
<path d="M43.1408 9.60938C43.5154 9.60938 43.8815 9.72043 44.1929 9.92852C44.5044 10.1366 44.7471 10.4324 44.8904 10.7784C45.0338 11.1245 45.0713 11.5052 44.9982 11.8726C44.9251 12.2399 44.7448 12.5774 44.4799 12.8422C44.2151 13.1071 43.8776 13.2874 43.5103 13.3605C43.1429 13.4336 42.7622 13.3961 42.4161 13.2527C42.0701 13.1094 41.7743 12.8667 41.5662 12.5553C41.3581 12.2438 41.2471 11.8777 41.2471 11.5031C41.2471 11.0009 41.4466 10.5192 41.8017 10.164C42.1569 9.80889 42.6386 9.60938 43.1408 9.60938Z" fill="#FF3D2E"/>
<path d="M11.8434 13.0749C11.353 13.5783 10.7662 13.9778 10.1179 14.2494C9.46973 14.521 8.77343 14.6592 8.07062 14.6557C7.37555 14.6517 6.68869 14.5051 6.05251 14.2251C5.41632 13.9451 4.84433 13.5376 4.37189 13.0278C3.89946 12.5179 3.53663 11.9166 3.30583 11.2609C3.07503 10.6053 2.98116 9.90926 3.03004 9.2159C2.97995 8.52166 3.07288 7.82454 3.30309 7.16767C3.53329 6.51081 3.89587 5.90818 4.36837 5.3971C4.84088 4.88601 5.41326 4.47735 6.05008 4.19641C6.6869 3.91547 7.3746 3.76822 8.07062 3.76379C8.7694 3.76365 9.46129 3.90197 10.1063 4.17076C10.7513 4.43955 11.3367 4.83349 11.8286 5.3298L12.2266 5.72901L13.9786 3.9831L13.5991 3.57774C12.5236 2.46837 11.1358 1.71281 9.62038 1.41159C8.10492 1.11037 6.53366 1.27776 5.11568 1.89151C3.6977 2.50525 2.50023 3.53624 1.68261 4.84729C0.864995 6.15834 0.465994 7.68729 0.538703 9.23068C0.473092 10.7725 0.877942 12.2977 1.69951 13.604C2.52108 14.9103 3.72051 15.9359 5.13859 16.5445C6.55667 17.1532 8.12632 17.3161 9.63919 17.0118C11.1521 16.7074 12.5366 15.9502 13.609 14.8405L13.9934 14.4413L12.2561 12.6621L11.8434 13.0749Z" fill="white"/>
</g>
<defs>
<clipPath id="clip0_11_39">
<rect width="59" height="18" fill="white"/>
</clipPath>
</defs>
</svg>
