<svg width="87" height="24" viewBox="0 0 87 24" fill="none" xmlns="http://www.w3.org/2000/svg">
<mask id="mask0_11_27" style="mask-type:luminance" maskUnits="userSpaceOnUse" x="0" y="0" width="87" height="24">
<path d="M86.3525 0H0.352539V24H86.3525V0Z" fill="white"/>
</mask>
<g mask="url(#mask0_11_27)">
<path fill-rule="evenodd" clip-rule="evenodd" d="M1.09072 11.9881L1.09084 9.92732C1.09112 6.72162 1.0914 3.51583 1.08561 0.309611C1.08561 0.0745122 1.1316 0 1.38393 0C8.16735 0.00674464 14.9508 0.00660413 21.7342 0.00646361L24.6414 0.00642347C24.7936 0.00642347 24.8702 0.00642347 24.9088 0.0447483C24.948 0.0836411 24.948 0.162003 24.948 0.319889V23.6769C24.948 23.8372 24.948 23.9163 24.9084 23.9554C24.8698 23.9936 24.7935 23.9936 24.6427 23.9936L21.5404 23.9935C14.822 23.9934 8.10361 23.9932 1.38521 23.9994C1.13608 23.9994 1.08433 23.9287 1.08497 23.6904C1.09169 20.533 1.0913 17.3752 1.09091 14.2173L1.09072 11.9881ZM9.28905 3.32277C10.0308 3.32746 10.8285 3.33251 11.6259 3.29024C11.6757 3.28757 11.73 3.27427 11.7841 3.26103C11.8989 3.23295 12.0126 3.20512 12.0795 3.27932C12.1513 3.35888 12.1368 3.48733 12.1225 3.61482C12.1165 3.66748 12.1106 3.71997 12.1108 3.76879C12.1126 4.26094 12.1125 4.75288 12.1125 5.24485C12.1125 5.62744 12.1125 6.01005 12.1133 6.39278L12.1134 6.40642C12.1143 6.52973 12.115 6.63426 11.9338 6.61567C11.9072 6.61297 11.8804 6.61255 11.8543 6.61213C11.7377 6.61028 11.6352 6.60865 11.6253 6.40498C11.6074 6.02921 11.5473 5.65536 11.4464 5.29115C11.1954 4.38416 10.7367 4.00261 9.80339 3.91204C9.2803 3.861 8.75637 3.86452 8.23253 3.86805C7.95865 3.8699 7.68479 3.87174 7.41108 3.86579C7.28907 3.86322 7.24116 3.90047 7.2418 4.0283C7.245 5.4087 7.24436 6.78846 7.2418 8.16887C7.2418 8.29091 7.27885 8.33973 7.40597 8.33588C7.62193 8.32944 7.83805 8.33141 8.05419 8.33338C8.4205 8.33671 8.78687 8.34004 9.15245 8.30247C9.80211 8.23631 9.96177 8.09179 10.08 7.4488C10.0973 7.35437 10.1113 7.25802 10.112 7.16231C10.113 6.98293 10.2169 6.98237 10.3279 6.98176C10.3504 6.98164 10.3733 6.98151 10.3956 6.97988C10.5507 6.96879 10.5505 7.06243 10.5502 7.16653V7.17965C10.5489 8.14205 10.5495 9.10445 10.5502 10.0668V10.0683V10.0813C10.5505 10.1769 10.5508 10.2676 10.4084 10.2565C10.3831 10.2545 10.3568 10.2555 10.3307 10.2564C10.2275 10.2601 10.128 10.2636 10.1132 10.0882C10.0973 9.89742 10.0583 9.70793 10.0181 9.52036C9.95607 9.23259 9.77401 9.06366 9.48719 8.99942C9.18887 8.93262 8.88671 8.92041 8.58392 8.91784C8.42877 8.91654 8.27362 8.91703 8.11851 8.91752C7.89046 8.91824 7.66246 8.91896 7.43472 8.91399C7.29418 8.91078 7.23989 8.94097 7.24053 9.09706C7.24372 9.72679 7.24356 10.3567 7.2434 10.9866C7.24324 11.6166 7.24308 12.2468 7.24627 12.8766C7.24947 13.4207 7.41236 13.6134 7.94576 13.7046C8.19617 13.7476 8.45425 13.7701 8.70785 13.7611C8.91432 13.7537 8.91086 13.8573 8.9072 13.9675C8.90613 13.9994 8.90505 14.0319 8.90907 14.0624C8.93335 14.2468 8.8388 14.2673 8.68549 14.2667C7.87737 14.2628 7.06924 14.2633 6.26139 14.2638C5.99212 14.2639 5.72236 14.2641 5.45316 14.2641C5.31561 14.2641 5.17802 14.2634 5.04041 14.2628C4.69107 14.2611 4.34159 14.2594 3.99287 14.2686C3.81272 14.2731 3.77376 14.2018 3.78845 14.0444C3.79095 14.018 3.79059 13.9907 3.79024 13.9638C3.78879 13.8532 3.78746 13.7513 3.98584 13.7637C4.18323 13.7759 4.38445 13.7515 4.58184 13.7264C4.98684 13.6751 5.18998 13.4528 5.21808 13.0443C5.22295 12.9698 5.22278 12.8949 5.22262 12.8203L5.22256 12.7796V4.81132C5.22256 4.71497 5.22256 4.61861 5.21617 4.52291C5.18806 4.13493 4.99834 3.91974 4.6157 3.86193C4.42725 3.83367 4.23369 3.81119 4.04461 3.82275C3.8255 3.83624 3.78589 3.75081 3.7827 3.54782C3.77951 3.33392 3.87277 3.323 4.03886 3.32365C4.91288 3.32542 5.78811 3.32505 6.73611 3.32465C7.162 3.32447 7.60282 3.32429 8.06458 3.32429C8.44658 3.31745 8.85839 3.32005 9.28905 3.32277ZM19.1169 8.53055V8.51812C19.1169 8.16283 19.1173 7.80754 19.1176 7.45227C19.1187 6.34692 19.1197 5.24175 19.1105 4.13732C19.1086 3.908 19.1802 3.85661 19.3929 3.86304C19.489 3.86588 19.5851 3.8681 19.6812 3.87032C19.9758 3.87713 20.2701 3.88394 20.5644 3.90864C21.5533 3.99215 22.0586 4.42445 22.2668 5.39696C22.3409 5.74126 22.4048 6.09005 22.4387 6.44013C22.4565 6.62706 22.5531 6.62085 22.6527 6.61446C22.6852 6.61237 22.718 6.61027 22.7485 6.61485C22.9025 6.63797 22.9127 6.54162 22.9127 6.42536C22.9127 5.42265 22.9127 4.41931 22.9171 3.41596C22.9178 3.28428 22.8897 3.23032 22.7402 3.25281C22.2815 3.32154 21.8178 3.32411 21.3553 3.32475C19.1917 3.32732 17.0287 3.32732 14.8651 3.32475L14.84 3.32471C14.4017 3.32411 13.9618 3.3235 13.5281 3.25795C13.3383 3.22904 13.2994 3.27143 13.3006 3.45579C13.3058 4.12006 13.3055 4.78463 13.3051 5.44909C13.3049 5.76384 13.3047 6.07857 13.3051 6.39324C13.3052 6.40962 13.3042 6.42682 13.3032 6.4441C13.2977 6.53597 13.2921 6.63029 13.454 6.61678C13.4829 6.6143 13.5126 6.61471 13.5418 6.61512C13.6641 6.61682 13.7775 6.61839 13.7893 6.40737C13.8117 6.0149 13.8826 5.62692 13.9822 5.24601C14.1758 4.50474 14.6236 4.0506 15.4023 3.9459C15.8315 3.88839 16.2612 3.87782 16.6923 3.86722C16.7475 3.86586 16.8028 3.8645 16.8581 3.86304C17.0677 3.85725 17.1028 3.92856 17.1021 4.12062C17.0978 6.26335 17.0978 8.40609 17.0978 10.5488C17.0978 11.2632 17.0978 11.9777 17.0977 12.6921C17.0977 12.7878 17.0964 12.8848 17.09 12.9805C17.0619 13.3955 16.899 13.5888 16.4991 13.6871C16.2014 13.7597 15.8961 13.7616 15.5946 13.7622C15.3991 13.7622 15.4075 13.8603 15.4161 13.9603C15.4191 13.9942 15.422 14.0284 15.417 14.059C15.3921 14.21 15.4457 14.271 15.6099 14.2671C15.95 14.2597 16.2903 14.261 16.6306 14.2623C16.7614 14.2628 16.8922 14.2633 17.0229 14.2633C17.3184 14.2633 17.6138 14.2631 17.9092 14.2629C18.7953 14.2623 19.6813 14.2617 20.5676 14.2665C20.7261 14.2671 20.8104 14.2382 20.7836 14.0596C20.7788 14.0284 20.7806 13.9945 20.7824 13.9613C20.788 13.8552 20.7933 13.7548 20.5862 13.7597C20.2936 13.7661 19.9953 13.7571 19.7059 13.6864C19.3354 13.5952 19.1789 13.4244 19.1316 13.0441C19.1176 12.933 19.1176 12.8199 19.1176 12.7075C19.1169 11.3152 19.1169 9.92287 19.1169 8.53055Z" fill="#FEFEFE"/>
<path d="M46.6005 14.8455C46.1932 16.0499 45.7859 17.2544 45.3779 18.4589C45.0695 19.3707 44.761 20.2824 44.4499 21.1935C44.4271 21.2593 44.4305 21.3668 44.3357 21.3668C44.2415 21.3668 44.2455 21.2613 44.2235 21.1942C43.6219 19.3653 43.0217 17.5364 42.4207 15.7069C42.3279 15.4242 42.2325 15.1422 42.0902 14.8649C42.0228 15.5424 41.9547 16.2198 41.8886 16.8973C41.7891 17.9151 41.6916 18.9329 41.5935 19.9508C41.5868 20.0172 41.5801 20.0844 41.5748 20.1515C41.528 20.7638 41.6349 20.8867 42.2518 20.9317C42.2932 20.935 42.3359 20.9465 42.376 20.9411C42.5176 20.9216 42.5362 20.9968 42.5383 21.117C42.5403 21.2479 42.4788 21.2654 42.3707 21.2654C41.6863 21.262 41.0019 21.262 40.3182 21.2654C40.1993 21.266 40.1366 21.2466 40.1339 21.1036C40.1312 20.9579 40.2027 20.9471 40.3155 20.935C40.9365 20.8699 41.0173 20.7732 41.08 20.1421C41.2463 18.4656 41.4205 16.7898 41.5908 15.114C41.5995 15.0308 41.6082 14.9468 41.6095 14.8636C41.6135 14.5581 41.5147 14.4399 41.2089 14.3923C41.094 14.3748 40.9765 14.3681 40.8597 14.3694C40.7368 14.3708 40.7308 14.2976 40.7301 14.2056C40.7295 14.1123 40.7368 14.0425 40.859 14.0431C41.6182 14.0458 42.378 14.0472 43.1372 14.0418C43.2807 14.0411 43.2921 14.1378 43.3208 14.2325C43.6626 15.345 44.0045 16.4575 44.3464 17.5693C44.4799 18.0044 44.6154 18.4388 44.773 18.9484C45.0027 18.2562 45.207 17.6405 45.4113 17.0248C45.7191 16.0949 46.0283 15.165 46.3307 14.2331C46.3755 14.0948 46.4369 14.0371 46.5911 14.0391C47.2922 14.0485 47.9933 14.0445 48.6937 14.0418C48.8119 14.0411 48.896 14.0384 48.8947 14.2063C48.8933 14.3768 48.8039 14.3701 48.689 14.3688C48.6062 14.3674 48.5221 14.3721 48.4393 14.3835C48.0901 14.4326 47.9699 14.5997 48.0073 14.9536C48.1842 16.6455 48.3585 18.3387 48.5334 20.0307C48.5415 20.1059 48.5488 20.1804 48.5602 20.2549C48.6436 20.8175 48.7177 20.8894 49.2906 20.9364C49.4088 20.9458 49.4902 20.9491 49.4876 21.1109C49.4842 21.2902 49.3761 21.2627 49.2706 21.2627C48.3859 21.2634 47.5012 21.2634 46.6172 21.2627C46.5123 21.2627 46.4049 21.2929 46.3962 21.113C46.3875 20.923 46.503 20.9438 46.6178 20.9344C47.1787 20.8874 47.2655 20.7551 47.2047 20.1958C47.0365 18.6462 46.8849 17.094 46.7267 15.543C46.7033 15.3121 46.6773 15.0811 46.6526 14.8502C46.6352 14.8488 46.6178 14.8475 46.6005 14.8455Z" fill="#FEFEFE"/>
<path d="M55.9921 4.43897C55.9921 4.52759 55.9921 4.61622 55.9921 4.70484C55.9921 6.17252 55.9921 7.64086 55.9921 9.10854C55.9921 9.83231 56.135 9.98539 56.8641 10.0143C57.0036 10.0196 57.0811 10.0344 57.0711 10.2029C57.0637 10.3258 57.0216 10.358 56.9075 10.358C56.165 10.3547 55.4225 10.354 54.6801 10.3587C54.5512 10.3594 54.5065 10.3184 54.5058 10.1855C54.5051 10.0505 54.5539 10.0109 54.6814 10.0149C54.7889 10.0183 54.8977 10.0028 55.0046 9.98471C55.3304 9.93033 55.4913 9.76315 55.5006 9.42611C55.5153 8.88161 55.512 8.33576 55.5127 7.79059C55.514 6.55723 55.5027 5.32454 55.5207 4.09186C55.5247 3.82128 55.4085 3.69103 55.1995 3.59099C54.9678 3.48021 54.7174 3.46343 54.4664 3.46208C54.3489 3.46141 54.2881 3.44798 54.2881 3.30162C54.2881 3.14988 54.3455 3.12639 54.4784 3.12706C55.1875 3.13243 55.8966 3.13578 56.6057 3.12504C56.7566 3.12303 56.828 3.19285 56.9081 3.29692C58.0626 4.79481 59.2197 6.29001 60.3761 7.78656C60.4062 7.82483 60.4376 7.86243 60.4823 7.91748C60.5377 7.81879 60.517 7.7268 60.517 7.64154C60.519 6.50889 60.5183 5.37691 60.5183 4.24426C60.5183 3.68029 60.3895 3.53795 59.8266 3.47887C59.7438 3.47014 59.6604 3.45537 59.5782 3.46074C59.4313 3.47081 59.4487 3.37615 59.4454 3.28215C59.442 3.18547 59.4574 3.12706 59.5776 3.12773C60.3621 3.13176 61.146 3.13176 61.9305 3.12773C62.052 3.12706 62.0607 3.19151 62.0614 3.28551C62.062 3.3889 62.0547 3.46074 61.9192 3.46208C61.7703 3.46343 61.618 3.4782 61.4725 3.50975C61.14 3.58226 61.0131 3.75481 61.0124 4.1261C61.0098 5.14931 61.0118 6.17252 61.0118 7.1964C61.0118 8.20282 61.0131 9.20925 61.0091 10.2163C61.0091 10.2996 61.0645 10.4225 60.9543 10.4614C60.8462 10.4997 60.8061 10.3761 60.752 10.3083C59.1983 8.36933 57.6459 6.42966 56.0949 4.48865C56.0755 4.46448 56.0755 4.4242 56.0662 4.3913C56.0408 4.40741 56.0168 4.42353 55.9921 4.43897Z" fill="#FEFEFE"/>
<path d="M45.286 7.97031C45.286 7.72592 45.286 7.5527 45.286 7.38015C45.286 6.33142 45.2867 5.28337 45.286 4.23465C45.2854 3.69484 45.1438 3.53841 44.6043 3.48C44.5135 3.46993 44.422 3.45918 44.3306 3.46053C44.1937 3.46254 44.2231 3.36653 44.2191 3.28731C44.2144 3.19734 44.2164 3.12751 44.3439 3.12818C45.1285 3.13288 45.9123 3.13221 46.6969 3.12886C46.8197 3.12818 46.8277 3.19667 46.8251 3.28999C46.8224 3.3766 46.8317 3.45985 46.7035 3.4612C46.5787 3.46321 46.4538 3.47463 46.3296 3.49141C45.9364 3.54579 45.7775 3.72841 45.7768 4.12991C45.7748 5.01078 45.7761 5.89099 45.7761 6.77186C45.7761 7.92129 45.7775 9.07006 45.7734 10.2195C45.7734 10.3021 45.8322 10.4256 45.7187 10.4632C45.6139 10.4974 45.5685 10.3779 45.5137 10.3095C44.0388 8.46848 42.5652 6.62617 41.0909 4.78452C40.9988 4.66971 40.9033 4.55759 40.7718 4.39914C40.7651 4.54081 40.7578 4.62809 40.7578 4.71537C40.7571 6.18305 40.7571 7.65072 40.7571 9.11907C40.7571 9.83209 40.8966 9.97711 41.6104 10.0201C41.6939 10.0248 41.8234 9.95764 41.8334 10.1322C41.8414 10.2745 41.8307 10.3632 41.6424 10.3605C40.892 10.3497 40.1408 10.3538 39.3897 10.3578C39.2668 10.3585 39.2087 10.3316 39.2127 10.192C39.2161 10.0698 39.2368 9.99591 39.3763 10.0174C39.3923 10.0201 39.4097 10.0181 39.4264 10.0174C40.1261 9.9845 40.265 9.83746 40.265 9.13451C40.265 7.45669 40.265 5.77953 40.265 4.10171C40.265 3.7452 40.1875 3.63039 39.8444 3.52767C39.7102 3.48738 39.5666 3.4706 39.4264 3.46254C39.3029 3.45516 39.2074 3.46791 39.21 3.28395C39.2127 3.07984 39.3409 3.13087 39.4457 3.1302C40.08 3.12751 40.7137 3.13288 41.348 3.1255C41.4882 3.12416 41.5723 3.17183 41.6578 3.28261C42.8109 4.78117 43.9693 6.2757 45.1271 7.7709C45.1632 7.8179 45.2006 7.86288 45.286 7.97031Z" fill="#FEFEFE"/>
<path d="M52.8179 21.2665C51.9586 21.2665 51.0993 21.2679 50.2399 21.2645C50.1318 21.2639 49.9849 21.329 49.9815 21.1061C49.9782 20.906 50.1077 20.9483 50.2119 20.9396C50.7587 20.8912 50.8702 20.7717 50.8709 20.2145C50.8722 18.5118 50.8722 16.8098 50.8709 15.1071C50.8702 14.5237 50.7601 14.4049 50.1745 14.3746C50.043 14.3679 49.9815 14.3485 49.9822 14.1954C49.9829 14.0369 50.0703 14.0463 50.1752 14.0463C51.8604 14.047 53.5457 14.0497 55.2303 14.043C55.4045 14.0423 55.4372 14.1034 55.4352 14.2605C55.4306 14.7298 55.4392 15.1998 55.4446 15.6691C55.4459 15.7611 55.47 15.8544 55.3204 15.8557C55.1915 15.8571 55.1355 15.8121 55.1381 15.6832C55.1388 15.6422 55.1228 15.6013 55.1134 15.5603C54.9178 14.6815 54.6941 14.4801 53.7914 14.4324C53.3173 14.4075 52.8406 14.427 52.3652 14.4176C52.233 14.4149 52.1936 14.4599 52.1943 14.5908C52.1989 15.4549 52.1989 16.3183 52.1949 17.1824C52.1943 17.312 52.235 17.361 52.3665 17.3577C52.7585 17.3496 53.1511 17.3651 53.5423 17.3449C54.1319 17.3147 54.2267 17.2207 54.3282 16.65C54.3329 16.6252 54.3369 16.5997 54.3362 16.5748C54.3316 16.4607 54.4083 16.4681 54.4871 16.4647C54.5893 16.46 54.6126 16.511 54.612 16.6023C54.61 17.2314 54.6106 17.8605 54.6113 18.4896C54.6113 18.5695 54.6086 18.6387 54.4958 18.638C54.3983 18.6374 54.3309 18.6219 54.3362 18.5044C54.3376 18.4715 54.3282 18.4379 54.3222 18.405C54.2294 17.8948 54.0965 17.7679 53.5777 17.7471C53.1698 17.731 52.7605 17.7457 52.3518 17.739C52.2303 17.737 52.1949 17.782 52.1956 17.8995C52.1996 18.7381 52.1923 19.5766 52.203 20.4152C52.207 20.7207 52.3291 20.861 52.6203 20.8785C53.1611 20.91 53.7033 20.9161 54.2427 20.8442C54.9091 20.7549 55.2516 20.3125 55.4473 19.7156C55.502 19.5484 55.5528 19.3792 55.5895 19.208C55.6155 19.0865 55.6896 19.0986 55.7764 19.106C55.8819 19.1154 55.8873 19.1785 55.8773 19.2644C55.8078 19.8553 55.735 20.4461 55.6783 21.0383C55.6596 21.2316 55.5788 21.2753 55.3958 21.2733C54.5365 21.2612 53.6772 21.2665 52.8179 21.2665Z" fill="#FEFEFE"/>
<path d="M30.2108 6.70979C30.2108 5.86316 30.2108 5.01585 30.2108 4.16922C30.2108 3.59988 30.118 3.50185 29.5538 3.45888C29.475 3.45284 29.3588 3.50789 29.3488 3.35146C29.3401 3.20979 29.3508 3.12184 29.5397 3.1252C30.2068 3.13728 30.8745 3.13527 31.5415 3.12855C32.5998 3.11848 33.6601 3.17018 34.717 3.08357C34.8766 3.07081 34.904 3.13795 34.9053 3.26283C34.9113 3.83285 34.9147 4.40287 34.924 4.97288C34.9253 5.06419 34.91 5.11186 34.8052 5.10918C34.713 5.10649 34.6456 5.09911 34.6289 4.98564C34.5982 4.77885 34.5681 4.57072 34.5187 4.36795C34.3898 3.84225 34.1128 3.60189 33.5833 3.53676C32.9597 3.4609 32.334 3.50857 31.7091 3.49178C31.5809 3.48842 31.5582 3.54482 31.5582 3.65694C31.5615 4.52909 31.5622 5.40124 31.5575 6.27338C31.5568 6.40699 31.6022 6.44795 31.7311 6.44392C32.1224 6.43049 32.5143 6.43452 32.9056 6.41505C33.3676 6.39222 33.5045 6.25525 33.5666 5.79602C33.5719 5.75439 33.5799 5.71344 33.5833 5.67114C33.592 5.55901 33.6607 5.54491 33.7562 5.54424C33.8704 5.54357 33.8697 5.61205 33.8697 5.69128C33.8691 6.31165 33.8691 6.93202 33.8704 7.55307C33.8704 7.6437 33.8684 7.71487 33.7422 7.71353C33.636 7.71219 33.59 7.67257 33.5819 7.57119C33.5753 7.48794 33.5673 7.40334 33.5486 7.32211C33.4785 7.01729 33.3456 6.8951 33.0351 6.86153C32.5951 6.81386 32.1524 6.82863 31.7104 6.82393C31.5829 6.82259 31.5588 6.87898 31.5588 6.99111C31.5622 7.82968 31.5575 8.66826 31.5628 9.50683C31.5648 9.78278 31.6877 9.92579 31.9581 9.97278C32.1297 10.0023 32.306 10.0124 32.4803 10.0164C32.5958 10.0191 32.6639 10.0299 32.6639 10.1769C32.6639 10.3233 32.6151 10.3609 32.4762 10.3602C31.4921 10.3555 30.5079 10.3562 29.5237 10.3595C29.3995 10.3602 29.3448 10.33 29.3468 10.1917C29.3488 10.0641 29.3808 10.0037 29.5157 10.0178C29.5731 10.0238 29.6319 10.0144 29.69 10.0077C30.1046 9.9607 30.2108 9.84522 30.2114 9.42828C30.2114 8.52122 30.2108 7.61551 30.2108 6.70979Z" fill="#FEFEFE"/>
<path d="M61.0585 15.0932C61.0585 15.3275 61.0652 15.5625 61.0552 15.7962C61.0512 15.8928 61.1527 16.0412 60.9497 16.0708C60.7567 16.099 60.7888 15.9445 60.7628 15.8445C60.6065 15.2369 60.2814 14.7629 59.7038 14.4889C59.3499 14.3211 58.9767 14.2963 58.6034 14.3856C58.1841 14.4856 57.8877 14.7367 57.7902 15.1785C57.6914 15.6276 57.8483 15.9909 58.1975 16.2661C58.6335 16.6092 59.1423 16.8308 59.625 17.094C59.9255 17.2578 60.2206 17.4297 60.5077 17.617C61.9232 18.5429 61.5273 20.3321 60.3828 20.9955C59.5282 21.491 58.6422 21.5091 57.7428 21.1143C57.636 21.0673 57.5311 21.0156 57.423 20.9713C57.2293 20.8914 57.0784 20.9371 56.993 21.1371C56.9549 21.2278 56.9189 21.305 56.7987 21.2855C56.6698 21.264 56.7085 21.1593 56.7039 21.0868C56.6638 20.5013 56.6277 19.9152 56.5957 19.3297C56.591 19.2411 56.5409 19.1256 56.7065 19.1008C56.8768 19.0753 56.8715 19.1901 56.8942 19.2955C57.1472 20.463 58.0573 21.1123 59.2271 20.9606C59.7726 20.8901 60.1338 20.596 60.2647 20.1159C60.4022 19.611 60.2413 19.137 59.812 18.8C59.3679 18.4522 58.8525 18.228 58.3591 17.9654C58.0346 17.7929 57.7087 17.6224 57.4183 17.3948C56.384 16.5857 56.4535 15.0274 57.5605 14.3171C58.3597 13.8041 59.1937 13.8061 60.0443 14.1801C60.1285 14.217 60.2072 14.2647 60.2927 14.2983C60.4696 14.3681 60.6245 14.354 60.7067 14.1533C60.7441 14.0626 60.8001 14.0176 60.8976 14.0344C61.0091 14.0532 60.9798 14.1439 60.9838 14.2137C60.9991 14.5064 61.0111 14.7998 61.0245 15.0932C61.0358 15.0939 61.0472 15.0932 61.0585 15.0932Z" fill="#FEFEFE"/>
<path d="M32.4811 14.051C33.5481 14.0221 34.6157 14.0893 35.682 14.006C35.8055 13.9966 35.861 14.0148 35.861 14.1584C35.8623 14.762 35.875 15.3649 35.8837 15.9685C35.885 16.0645 35.8923 16.1505 35.7495 16.1511C35.6253 16.1518 35.5952 16.0941 35.5845 15.9867C35.5572 15.7027 35.5071 15.4247 35.4123 15.1534C35.2774 14.7667 35.0043 14.5505 34.6177 14.4693C34.2231 14.3867 33.8212 14.4129 33.4212 14.4022C33.2817 14.3981 33.2817 14.4814 33.2823 14.5801C33.2837 15.0413 33.283 15.5026 33.283 15.9638C33.283 17.3644 33.283 18.7642 33.283 20.1648C33.283 20.7596 33.3992 20.8865 33.9834 20.9322C34.0582 20.9382 34.1336 20.9483 34.2078 20.9443C34.3259 20.9375 34.3907 20.9597 34.3887 21.1047C34.3867 21.245 34.3293 21.2699 34.2078 21.2685C33.7324 21.2632 33.257 21.2665 32.7816 21.2665C32.198 21.2665 31.6138 21.2645 31.0302 21.2679C30.91 21.2685 30.8246 21.2659 30.8252 21.1014C30.8259 20.9516 30.8987 20.9503 31.0109 20.9429C31.9169 20.8818 31.9563 20.8375 31.9563 19.9231C31.9563 18.162 31.9536 16.4016 31.9603 14.6405C31.961 14.4606 31.9289 14.386 31.7313 14.3988C31.3741 14.4223 31.0142 14.3934 30.6596 14.4599C30.2297 14.5398 29.9305 14.7694 29.8037 15.2031C29.7329 15.4442 29.6695 15.6865 29.6468 15.9383C29.6374 16.0444 29.6408 16.1572 29.4718 16.1505C29.2976 16.1438 29.3503 16.0256 29.3503 15.9376C29.353 15.3676 29.3643 14.7976 29.3617 14.2276C29.361 14.0416 29.4131 13.9906 29.6067 14.0067C30.5628 14.0886 31.523 14.0248 32.4811 14.051Z" fill="#FEFEFE"/>
<path d="M68.4291 4.20769C68.4291 4.50109 68.4284 4.79382 68.4291 5.08722C68.4291 5.17786 68.4511 5.26984 68.3102 5.28864C68.164 5.30811 68.142 5.22083 68.126 5.11475C68.1246 5.10669 68.1233 5.09796 68.1213 5.08991C67.9584 4.25871 67.5544 3.63834 66.6711 3.46378C65.7777 3.2872 65.0139 3.52689 64.4403 4.25402C63.8674 4.9798 63.7399 5.83717 63.8173 6.72812C63.9035 7.72246 64.2487 8.60333 65.0492 9.25056C65.9827 10.0045 67.4523 10.0831 68.3376 9.16328C68.4077 9.09077 68.4591 9.03974 68.5593 9.13776C68.6628 9.23847 68.6541 9.30696 68.566 9.40834C67.9163 10.1502 67.0784 10.4624 66.1189 10.4745C63.6985 10.5041 61.9578 8.28307 62.5247 5.90028C63.0048 3.88273 64.9117 2.64132 66.8547 3.0925C67.1284 3.15628 67.3902 3.27646 67.6559 3.37448C67.8542 3.44699 68.0191 3.43357 68.1073 3.20999C68.14 3.12674 68.1947 3.08377 68.2802 3.10928C68.367 3.13479 68.345 3.21603 68.345 3.27982C68.347 3.59 68.3456 3.89952 68.3456 4.2097C68.375 4.20769 68.4024 4.20769 68.4291 4.20769Z" fill="#FEFEFE"/>
<path d="M81.5809 6.75379C81.5809 5.89843 81.5815 5.0424 81.5809 4.18704C81.5802 3.60628 81.4834 3.49751 80.9072 3.46528C80.7696 3.4579 80.6855 3.44514 80.6988 3.27528C80.7069 3.16853 80.7369 3.12959 80.8451 3.12959C81.7798 3.13227 82.7139 3.13294 83.6487 3.12891C83.7635 3.12824 83.7963 3.17255 83.7849 3.27595C83.7756 3.3592 83.8216 3.47468 83.6634 3.46126C83.606 3.45656 83.5465 3.4626 83.4891 3.46931C83.0191 3.519 82.9196 3.62776 82.9196 4.11117C82.9183 5.87292 82.9183 7.63399 82.9196 9.39574C82.9203 9.83349 83.0505 9.9671 83.4858 9.97449C83.8777 9.9812 84.2697 9.98187 84.6609 9.93823C85.2258 9.87579 85.6277 9.59313 85.8367 9.0587C85.9309 8.81767 86.0036 8.56791 86.0811 8.32083C86.1045 8.24564 86.1125 8.17313 86.222 8.19058C86.3241 8.20737 86.3542 8.25839 86.3522 8.36045C86.3402 8.99089 86.2267 9.61059 86.1746 10.237C86.1632 10.374 86.0624 10.3572 85.9709 10.3572C85.6204 10.3572 85.2699 10.3572 84.9193 10.3572C83.5926 10.3572 82.2659 10.3579 80.9392 10.3558C80.833 10.3558 80.7062 10.4022 80.6968 10.2021C80.6875 9.9953 80.8063 10.0228 80.9332 10.0168C81.464 9.99261 81.5802 9.86706 81.5809 9.31987C81.5815 8.46451 81.5809 7.60915 81.5809 6.75379Z" fill="#FEFEFE"/>
<path d="M71.4619 6.73458C71.4619 7.598 71.4613 8.46209 71.4619 9.32551C71.4619 9.86464 71.5834 9.99556 72.1149 10.015C72.2491 10.0197 72.354 10.0076 72.3453 10.2057C72.3359 10.4091 72.2043 10.3541 72.1015 10.3541C71.2255 10.3568 70.3502 10.3554 69.4742 10.3554C69.3594 10.3554 69.2478 10.3836 69.2451 10.1903C69.2431 10.0029 69.3433 10.0211 69.4649 10.015C70.0017 9.98952 70.1178 9.88344 70.1198 9.35438C70.1264 7.61009 70.1264 5.8658 70.1198 4.12218C70.1178 3.59513 70.0089 3.49576 69.4634 3.46152C69.3399 3.45346 69.2424 3.46756 69.2457 3.2836C69.2491 3.08017 69.378 3.13052 69.4828 3.13052C70.3668 3.12851 71.2508 3.12985 72.1348 3.12851C72.2437 3.12851 72.3466 3.10635 72.3446 3.2836C72.3426 3.43802 72.2798 3.46219 72.1496 3.46219C72.0261 3.46219 71.8979 3.47562 71.7791 3.50852C71.512 3.58237 71.4612 3.79923 71.4612 4.04161C71.4618 4.93994 71.4619 5.8376 71.4619 6.73458Z" fill="#FEFEFE"/>
<path d="M38.0711 21.264C37.6291 21.264 37.1877 21.2627 36.7457 21.2654C36.6295 21.266 36.5407 21.2721 36.5381 21.1029C36.5354 20.9297 36.6349 20.9444 36.7437 20.9377C36.8352 20.9323 36.926 20.9203 37.0168 20.9062C37.2565 20.8686 37.3814 20.7168 37.4101 20.4838C37.4248 20.3677 37.4208 20.2495 37.4208 20.1327C37.4214 18.4817 37.4214 16.8308 37.4214 15.1798C37.4214 15.1462 37.4214 15.1127 37.4214 15.0791C37.4161 14.5252 37.3019 14.4064 36.7524 14.3681C36.6749 14.3627 36.5574 14.4171 36.5441 14.2633C36.5314 14.1183 36.5494 14.0371 36.7357 14.0391C37.6358 14.0492 38.5365 14.0438 39.4365 14.0445C39.5333 14.0445 39.6322 14.0183 39.6368 14.1841C39.6415 14.3547 39.5647 14.3667 39.4278 14.3721C38.869 14.3943 38.7588 14.5131 38.7588 15.0684C38.7581 16.7865 38.7581 18.5046 38.7588 20.2227C38.7588 20.788 38.855 20.8887 39.4152 20.9417C39.4893 20.9485 39.6168 20.88 39.6301 21.0357C39.6415 21.1673 39.6482 21.2761 39.4472 21.2694C38.9885 21.2533 38.5291 21.264 38.0711 21.264Z" fill="#FEFEFE"/>
<path d="M37.7879 6.73478C37.7879 7.59014 37.7852 8.44483 37.7886 9.30019C37.7906 9.87423 37.9048 9.9924 38.471 10.0166C38.5905 10.0219 38.6739 10.0179 38.6726 10.1837C38.6713 10.3395 38.6065 10.3597 38.477 10.359C37.5763 10.355 36.6755 10.3556 35.7755 10.3583C35.6513 10.359 35.5745 10.3469 35.5738 10.1864C35.5732 10.0246 35.652 10.0199 35.7748 10.0152C36.347 9.99374 36.4579 9.87558 36.4579 9.30489C36.4585 7.59484 36.4585 5.88479 36.4579 4.17474C36.4579 3.61076 36.357 3.49998 35.7989 3.46305C35.6787 3.455 35.5732 3.47715 35.5732 3.28983C35.5738 3.09043 35.698 3.13205 35.8069 3.13138C36.6822 3.13004 37.5582 3.12937 38.4336 3.13205C38.5357 3.13205 38.6693 3.07566 38.6726 3.28178C38.6753 3.46104 38.5858 3.45567 38.4576 3.46373C37.9001 3.4973 37.7919 3.60808 37.7886 4.16936C37.7839 5.02473 37.7879 5.87942 37.7879 6.73478Z" fill="#FEFEFE"/>
<path fill-rule="evenodd" clip-rule="evenodd" d="M52.2667 10.3549C52.3904 10.3553 52.5142 10.3557 52.6379 10.3557C52.7579 10.3557 52.878 10.3555 52.998 10.3553C53.3282 10.3548 53.6583 10.3542 53.9873 10.3577C54.1055 10.359 54.1529 10.3174 54.1449 10.1972C54.1442 10.186 54.1438 10.1748 54.1434 10.1638C54.1404 10.0816 54.1378 10.0089 54.0107 10.0166C53.6501 10.0381 53.4699 9.81789 53.349 9.51375C53.115 8.92505 52.8803 8.33662 52.6455 7.74818C52.0557 6.26964 51.4658 4.79106 50.8879 3.30802C50.796 3.07267 50.6581 3.06818 50.4886 3.06266C50.4686 3.062 50.4481 3.06134 50.4272 3.06027C50.2269 3.0502 50.104 3.07974 50.0206 3.30802C49.6732 4.25693 49.32 5.20367 48.9668 6.15041C48.5861 7.17103 48.2053 8.19165 47.8319 9.21498C47.6429 9.73397 47.3378 10.0348 46.7703 10.0173C46.76 10.017 46.7496 10.0173 46.7392 10.0176C46.7245 10.018 46.7099 10.0185 46.6955 10.0173C46.5706 10.0059 46.5693 10.0878 46.5693 10.1784V10.1839C46.5692 10.2801 46.5692 10.3577 46.7068 10.357C47.4827 10.353 48.2585 10.3537 49.0337 10.3577C49.1646 10.3584 49.1813 10.2953 49.1799 10.1872C49.1793 10.0831 49.1719 10.0153 49.0371 10.0139C48.8628 10.0119 48.6859 9.99783 48.5163 9.9609C48.2352 9.89913 48.1323 9.73262 48.2238 9.46138C48.3444 9.10448 48.4717 8.75005 48.599 8.39562C48.6923 8.13597 48.7855 7.87632 48.8761 7.61571C48.9135 7.50963 48.969 7.47673 49.0765 7.4774C49.7185 7.48143 50.36 7.48008 51.0021 7.47874C51.0903 7.47874 51.161 7.48613 51.1997 7.58818C51.2982 7.84634 51.3987 8.10371 51.4991 8.36108C51.6602 8.77373 51.8213 9.1864 51.9742 9.60237C52.0664 9.8528 51.9856 9.95351 51.7132 9.9891C51.581 10.0066 51.4474 10.0153 51.3146 10.0153C51.2024 10.0153 51.1263 10.0207 51.1276 10.1717C51.1289 10.3134 51.169 10.3611 51.3119 10.3584C51.6301 10.353 51.9484 10.354 52.2667 10.3549ZM50.2432 5.15375C50.1668 4.95864 50.0901 4.76293 50.0131 4.56647C50.0021 4.57912 49.9922 4.58922 49.9836 4.59799C49.9681 4.61388 49.9568 4.62537 49.9516 4.63965C49.8658 4.87646 49.7802 5.11346 49.6947 5.35052C49.5019 5.88435 49.3091 6.41845 49.113 6.95127C49.0709 7.06608 49.1123 7.08018 49.2072 7.08018C49.7573 7.07951 50.3082 7.07884 50.8584 7.08085C50.9585 7.08085 50.9926 7.05802 50.9498 6.9506C50.7132 6.35406 50.4793 5.75675 50.2432 5.15375Z" fill="#FEFEFE"/>
<path fill-rule="evenodd" clip-rule="evenodd" d="M78.3654 10.3545C78.4837 10.3546 78.6021 10.3548 78.7204 10.3548C78.8383 10.3548 78.9561 10.3546 79.074 10.3544C79.3982 10.3539 79.7225 10.3534 80.0471 10.3568C80.1667 10.3581 80.2328 10.3373 80.2281 10.1937C80.2241 10.0735 80.2081 10.009 80.0658 10.0137C79.772 10.0238 79.5811 9.87071 79.4749 9.60014C79.4423 9.51648 79.4068 9.43398 79.3712 9.35149C79.3406 9.28041 79.31 9.20934 79.2813 9.13755C79.1052 8.69601 78.9286 8.2546 78.7521 7.81319C78.1549 6.32019 77.5577 4.82707 76.9764 3.32794C76.8766 3.06984 76.7182 3.06773 76.5462 3.06544C76.4985 3.06481 76.4497 3.06416 76.4009 3.05804C76.1987 3.03255 76.1557 3.15676 76.1112 3.28555C76.1053 3.30262 76.0994 3.31978 76.0931 3.33667C75.9339 3.76314 75.7746 4.18958 75.6153 4.61603C75.025 6.19626 74.4347 7.77651 73.849 9.35844C73.7001 9.76128 73.4483 10.011 73.005 10.0124C72.8708 10.0131 72.8194 10.0433 72.8174 10.1916C72.8147 10.3574 72.9 10.3569 73.0146 10.3562L73.0204 10.3561C73.6961 10.3541 74.3718 10.3534 75.0475 10.3568C75.169 10.3575 75.2504 10.3528 75.2504 10.189C75.2504 10.0325 75.1837 10.0117 75.0548 10.0137C74.9306 10.0157 74.8044 10.0003 74.6816 9.98015C74.3204 9.92174 74.2068 9.74449 74.325 9.39604C74.4363 9.06913 74.5523 8.74386 74.6682 8.41864C74.763 8.15273 74.8578 7.88687 74.95 7.62019C74.986 7.51612 75.0361 7.47584 75.147 7.47651C75.6889 7.48043 76.2314 7.47968 76.7735 7.47893C76.8819 7.47878 76.9903 7.47864 77.0986 7.47852C77.1761 7.47852 77.2435 7.47987 77.2789 7.57319C77.3749 7.82574 77.4723 8.07784 77.5696 8.32995C77.7374 8.76483 77.9053 9.19974 78.0668 9.63707C78.1395 9.83446 78.0434 9.9627 77.8311 9.98485C77.6902 9.99895 77.5493 10.0131 77.4078 10.0144C77.404 10.0144 77.4003 10.0145 77.3966 10.0145C77.2856 10.0156 77.2067 10.0164 77.2028 10.1782C77.1988 10.3585 77.2905 10.3575 77.4169 10.3562L77.4191 10.3561C77.7347 10.3537 78.05 10.3541 78.3654 10.3545ZM76.2345 4.93563C76.1831 4.80731 76.1292 4.67263 76.071 4.52709C75.9871 4.75912 75.905 4.98613 75.8243 5.20946C75.6099 5.80293 75.4049 6.37037 75.1977 6.93674C75.1523 7.06162 75.205 7.07974 75.3099 7.07907C75.3455 7.07894 75.3812 7.0788 75.4168 7.07866C75.9139 7.07674 76.4105 7.07482 76.9077 7.08109C77.0639 7.0831 77.0679 7.02805 77.0185 6.90518C76.8864 6.57876 76.757 6.2514 76.6277 5.92417C76.5669 5.77017 76.5061 5.61619 76.4449 5.46235C76.3769 5.29099 76.3083 5.11986 76.2345 4.93563Z" fill="#FEFEFE"/>
</g>
</svg>
