<svg width="66" height="17" viewBox="0 0 66 17" fill="none" xmlns="http://www.w3.org/2000/svg">
<mask id="mask0_11_38" style="mask-type:luminance" maskUnits="userSpaceOnUse" x="0" y="0" width="66" height="17">
<path d="M65.1667 0H0V17H65.1667V0Z" fill="white"/>
</mask>
<g mask="url(#mask0_11_38)">
<path d="M37.0778 5.40446C37.1886 5.35612 37.2828 5.3184 37.374 5.27477C38.3058 4.82796 39.2991 4.71684 40.3055 4.83827C41.3688 4.96648 42.2357 5.50496 42.9127 6.32491C43.7148 7.29636 44.1252 8.42342 44.1987 9.6772C44.2363 10.3206 44.257 10.9643 44.1649 11.6036C43.9467 13.1177 43.4008 14.474 42.2164 15.5121C41.3637 16.2592 40.3621 16.6954 39.25 16.8797C38.4678 17.009 37.6755 16.9866 36.8868 16.9572C35.8185 16.9171 34.7754 16.6957 33.7311 16.4877C33.6114 16.4638 33.5889 16.4128 33.5901 16.3014C33.6209 13.7422 33.6648 11.183 33.6695 8.62384C33.6728 6.85573 33.6215 5.08762 33.5925 3.3195C33.586 2.91778 33.5099 2.53079 33.3396 2.16297C33.2143 1.89269 33.0241 1.70524 32.725 1.63775C32.552 1.59884 32.3814 1.54992 32.2085 1.51101C32.0793 1.48183 32.0204 1.41463 32.0166 1.27611C32.0071 0.93687 32.0015 0.93746 32.3287 0.87527C33.8099 0.59409 35.2907 0.312621 36.7719 0.0314442C37.0992 -0.0307448 37.0953 -0.0283868 37.0929 0.301421C37.0814 1.94693 37.0734 3.59272 37.0648 5.23823C37.0645 5.28538 37.0719 5.33254 37.0778 5.40446ZM40.5875 10.6608C40.6091 9.86 40.5428 9.0459 40.2851 8.25572C40.0926 7.66596 39.8408 7.10891 39.3726 6.67889C39.1004 6.42896 38.79 6.22736 38.4151 6.18816C38.0108 6.14601 37.6083 6.18492 37.2162 6.31195C37.1063 6.34761 37.0728 6.39536 37.0725 6.50647C37.0681 7.70044 37.0429 8.89441 37.0538 10.0881C37.0713 11.9697 37.111 13.851 37.1439 15.7323C37.1477 15.9533 37.1827 15.9831 37.4024 16.0043C37.5055 16.0143 37.6089 16.0229 37.7122 16.0282C38.3375 16.0612 38.8454 15.8251 39.2571 15.3641C39.5997 14.9804 39.8367 14.5353 40.0194 14.0605C40.4376 12.9741 40.6195 11.8465 40.5875 10.6608Z" fill="white"/>
<path d="M13.2574 0.31115C13.3465 1.85821 13.3216 3.41323 13.3658 4.97768C13.1576 5.03722 12.9597 5.09617 12.7607 5.14981C12.6093 5.19078 12.5042 5.1389 12.4453 4.98888C12.3395 4.7195 12.2326 4.45011 12.1183 4.18426C11.8488 3.55795 11.5289 2.96081 11.0346 2.47716C10.4941 1.9484 9.85052 1.62861 9.08284 1.6124C8.14546 1.59266 7.20778 1.59177 6.2701 1.58293C6.25115 1.58264 6.2319 1.58706 6.18392 1.59236C6.07078 3.72418 6.04235 5.85776 6.04945 7.99695C6.07374 8.00461 6.09181 8.01551 6.10928 8.01493C6.72532 7.99223 7.34284 7.98516 7.95739 7.93977C8.45496 7.90322 8.81274 7.61615 9.07662 7.20588C9.31712 6.83186 9.43381 6.41127 9.53895 5.98656C9.59877 5.74488 9.59818 5.74399 9.84522 5.74164C10.0119 5.74016 10.1784 5.74134 10.3546 5.74134C10.3546 7.60289 10.3546 9.45795 10.3546 11.3195C10.1049 11.3195 9.85672 11.3195 9.60144 11.3195C9.54961 11.1158 9.50459 10.9254 9.45247 10.7371C9.34673 10.356 9.19243 9.9985 8.95549 9.6763C8.67679 9.29732 8.29414 9.13197 7.83744 9.10751C7.26583 9.07715 6.69422 9.04944 6.12261 9.02144C6.10395 9.02056 6.08529 9.02616 6.05804 9.02999C6.05508 9.07155 6.04886 9.10957 6.04975 9.14729C6.08885 10.5367 6.12054 11.9261 6.17237 13.3151C6.19073 13.81 6.25766 14.3034 6.42589 14.7755C6.45551 14.8587 6.48779 14.9412 6.52511 15.0211C6.71614 15.4322 7.02267 15.6945 7.48293 15.7664C7.77495 15.8121 8.0649 15.872 8.35663 15.92C8.49257 15.9421 8.57313 16.0037 8.57165 16.149C8.57047 16.271 8.57313 16.3931 8.57165 16.5148C8.57017 16.638 8.50649 16.6804 8.38269 16.6801C7.89401 16.6781 7.40562 16.6884 6.91694 16.6881C4.69595 16.6857 2.47496 16.6813 0.253965 16.6772C0.0297627 16.6769 0.0235428 16.6692 0.00932675 16.4493C-0.0208822 15.9843 -0.00281629 15.9598 0.456843 15.864C0.611148 15.8319 0.765749 15.8 0.920939 15.7735C1.49996 15.6745 1.86307 15.3176 2.01145 14.7776C2.13288 14.3358 2.21995 13.876 2.24927 13.4195C2.4332 10.5488 2.38314 7.67451 2.33368 4.80114C2.32124 4.07521 2.29015 3.34751 2.13643 2.63278C2.10445 2.48452 2.05973 2.33834 2.01115 2.1945C1.7985 1.56525 1.33588 1.25312 0.692889 1.17266C0.477871 1.14584 0.263146 1.11754 0.0356857 1.08837C0.0244317 0.83401 0.0134737 0.58614 0.00251474 0.342097C0.215167 0.273719 12.7625 0.244245 13.2574 0.31115Z" fill="white"/>
<path d="M17.2604 16.9985C16.3876 17 15.5456 16.873 14.7489 16.5104C13.372 15.8841 12.4826 14.8263 12.0039 13.4122C11.6473 12.3591 11.5514 11.2748 11.6364 10.171C11.7078 9.24081 11.9166 8.34718 12.3795 7.52752C13.2784 5.93595 14.6292 4.98337 16.4489 4.70662C17.5764 4.53508 18.6856 4.61377 19.7568 5.01373C21.2119 5.55722 22.1543 6.60618 22.6922 8.03741C23.119 9.17332 23.1972 10.349 23.1119 11.5477C23.0331 12.6556 22.696 13.6739 22.0767 14.5932C21.2306 15.8488 20.0355 16.593 18.5541 16.875C18.1302 16.9558 17.6919 16.9596 17.2604 16.9985ZM19.5042 11.0184C19.5042 10.871 19.5066 10.7236 19.5039 10.5763C19.4861 9.573 19.4189 8.57501 19.1384 7.60415C18.9536 6.96399 18.6814 6.37157 18.1767 5.90913C17.5974 5.37891 16.7504 5.40691 16.2445 6.00875C16.0461 6.24513 15.8921 6.53014 15.7689 6.81485C15.5213 7.38634 15.4161 7.99851 15.3471 8.61421C15.2375 9.5924 15.2461 10.5751 15.268 11.5574C15.2817 12.1619 15.3368 12.7623 15.4629 13.3553C15.5829 13.9183 15.7295 14.4729 16.0014 14.9846C16.1 15.17 16.214 15.3515 16.3467 15.5139C16.9657 16.2717 17.9049 16.282 18.5523 15.5467C18.953 15.0916 19.1263 14.5348 19.2545 13.9619C19.4719 12.9928 19.4974 12.006 19.5042 11.0184Z" fill="white"/>
<path d="M48.6647 10.3405C48.6639 11.5215 48.8232 12.6395 49.492 13.6035C50.2365 14.6772 51.2885 15.1933 52.6166 15.1615C53.3973 15.1429 54.1188 14.9752 54.7683 14.5346C54.8088 14.5069 54.853 14.4845 54.8959 14.4603C55.1109 14.3404 55.1352 14.341 55.2537 14.4686C55.4506 14.6808 55.4791 14.7928 55.3375 14.9699C54.8574 15.57 54.268 16.0386 53.5791 16.3835C52.5677 16.8898 51.4917 17.0227 50.3737 16.9644C48.3558 16.8589 46.0969 15.5956 45.3245 12.7181C45.1196 11.9545 45.1199 11.1743 45.1385 10.3927C45.1628 9.37733 45.4317 8.42445 45.9106 7.53406C46.7755 5.92598 48.1334 4.99816 49.935 4.7105C50.7729 4.57669 51.609 4.5982 52.4255 4.84431C53.6434 5.21155 54.4839 6.01205 55.004 7.1512C55.4415 8.10938 55.6123 9.12533 55.6005 10.174C55.5999 10.2217 55.5931 10.2692 55.5872 10.3408C53.2809 10.3405 50.9835 10.3405 48.6647 10.3405ZM48.649 9.35935C49.8195 9.33105 50.9367 9.30394 52.05 9.27712C52.0595 9.24145 52.0675 9.22731 52.066 9.21404C51.9973 8.54116 51.9475 7.86534 51.8516 7.19629C51.7888 6.7592 51.6433 6.33714 51.375 5.97226C51.0309 5.50451 50.5072 5.41609 50.0239 5.7403C49.773 5.90859 49.5909 6.13878 49.4392 6.3955C49.1152 6.94429 48.9369 7.54555 48.8208 8.16479C48.7492 8.54824 48.7086 8.93758 48.649 9.35935Z" fill="white"/>
<path d="M56.2491 14.5218C56.2491 13.9913 56.2529 13.4608 56.2461 12.9305C56.2446 12.823 56.279 12.7664 56.3776 12.7384C56.4155 12.7278 56.4514 12.7098 56.4893 12.7C56.8438 12.6093 56.8713 12.6225 57.0067 12.9565C57.2774 13.6232 57.5884 14.2669 58.059 14.8224C58.728 15.6126 59.5855 15.8888 60.5913 15.7228C61.3163 15.6032 61.8654 14.9256 61.906 14.1596C61.9377 13.5613 61.7072 13.1038 61.2106 12.769C60.7376 12.4501 60.2142 12.2353 59.6921 12.0151C59.1933 11.8049 58.6812 11.6172 58.2062 11.362C56.9676 10.6961 56.4194 9.6363 56.4712 8.24189C56.531 6.63205 57.7522 5.32697 59.2457 4.88545C59.9527 4.67649 60.6751 4.60369 61.4105 4.6364C62.3209 4.67708 63.2165 4.80145 64.0843 5.08912C64.5078 5.22941 64.5052 5.23177 64.5149 5.67063C64.5336 6.52035 64.5523 7.36977 64.5768 8.21949C64.5801 8.33061 64.5484 8.38337 64.4412 8.42109C63.9958 8.57848 63.9727 8.57229 63.8056 8.13579C63.593 7.57933 63.3599 7.03319 62.9861 6.56043C62.4805 5.92086 61.8224 5.58132 60.9988 5.61581C60.3016 5.64499 59.7134 6.21058 59.6287 6.90085C59.616 7.00312 59.6083 7.10599 59.6023 7.20914C59.5781 7.62059 59.7196 7.9672 60.0099 8.26017C60.3339 8.58703 60.721 8.82134 61.1318 9.01557C61.8038 9.3333 62.493 9.6157 63.1552 9.9516C63.5296 10.1418 63.8891 10.3793 64.2117 10.6478C64.772 11.1141 65.0845 11.7321 65.1416 12.461C65.1973 13.1702 65.1784 13.8707 64.8852 14.5427C64.4625 15.5112 63.7363 16.152 62.7737 16.5572C62.0227 16.8732 61.2384 16.9392 60.4313 16.9616C59.1933 16.9958 57.9941 16.8181 56.8139 16.4703C56.3237 16.3259 56.3208 16.3235 56.3145 15.8186C56.3092 15.3866 56.3134 14.9542 56.3134 14.5221C56.2917 14.5218 56.2704 14.5218 56.2491 14.5218Z" fill="white"/>
<path d="M30.1662 16.6777C29.5229 16.6777 28.9113 16.6779 28.2997 16.6777C26.6953 16.6765 25.0913 16.675 23.4869 16.6735C23.4226 16.6735 23.3581 16.6662 23.2944 16.6712C23.157 16.6818 23.1167 16.611 23.1102 16.4867C23.0835 15.9794 23.0891 15.9691 23.5799 15.8813C24.2427 15.7628 24.5395 15.4816 24.6233 14.8102C24.6885 14.2897 24.7246 13.7627 24.729 13.2384C24.7427 11.686 24.7453 10.1334 24.7276 8.581C24.7219 8.09763 24.6633 7.61073 24.5824 7.13355C24.506 6.68261 24.2309 6.38699 23.7478 6.32274C23.587 6.30122 23.4291 6.25613 23.2686 6.23167C23.1463 6.2131 23.1075 6.15003 23.1057 6.03154C23.0992 5.66165 23.0939 5.6534 23.4626 5.57971C25.0042 5.27172 26.5466 4.96902 28.0891 4.66545C28.1362 4.65631 28.1851 4.65719 28.2558 4.65159C28.2274 5.45357 28.1996 6.24169 28.1717 7.02951C28.1809 7.03423 28.1901 7.03894 28.1993 7.04396C28.2327 6.98471 28.2668 6.92606 28.2997 6.86653C28.6086 6.30771 28.9675 5.7875 29.4681 5.37812C30.3362 4.6681 31.3115 4.43496 32.4037 4.73058C32.4274 4.73707 32.4511 4.74414 32.4742 4.7521C32.8601 4.8865 32.898 4.94869 32.758 5.32329C32.4177 6.23314 32.0664 7.13886 31.7243 8.04812C31.6743 8.18075 31.6112 8.19784 31.4826 8.14744C31.0849 7.99182 30.6907 7.8138 30.2784 7.71006C29.6867 7.56092 29.1038 7.65317 28.5511 7.91843C28.2982 8.03986 28.1706 8.21818 28.1626 8.51616C28.1101 10.457 28.0983 12.3969 28.2396 14.3348C28.2597 14.6119 28.3115 14.8907 28.3862 15.1586C28.4925 15.5391 28.7428 15.7855 29.1553 15.8353C29.4488 15.8707 29.742 15.9116 30.0361 15.9396C30.1294 15.9485 30.1685 15.9762 30.1667 16.0702C30.1638 16.2653 30.1662 16.461 30.1662 16.6777Z" fill="white"/>
</g>
</svg>
