<svg width="44" height="26" viewBox="0 0 44 26" fill="none" xmlns="http://www.w3.org/2000/svg">
<path d="M5.2624 11.4868V8.9804H6.81721V2.6728H5.2624V0H13.1248V2.678H11.57V8.9856H13.1248V11.4868H5.2624ZM20.6388 11.4868V8.9804H21.6736V6.3908C21.6736 5.6108 21.1536 5.2676 20.3788 5.2676C19.5156 5.2676 18.824 5.8708 18.7356 6.734V6.8224V8.9804H19.8588V11.4868H13.8164V8.9804H14.8512V5.2676H13.8164V2.7612H18.6524V4.4876C18.7408 4.3992 18.824 4.316 18.9124 4.2276C19.6924 3.276 20.9872 2.7612 22.1936 2.8444C24.0916 2.8444 25.6464 3.6244 25.6464 5.694V8.9752H26.6864V11.4868H20.6388ZM36.7068 6.3908L33.3372 6.734C33.3372 5.7824 33.0772 4.836 31.954 4.836C30.4876 4.836 30.3992 6.0476 30.3992 7.1708C30.3992 8.3824 30.4876 9.5888 31.954 9.5888C32.6456 9.6772 33.3372 9.1572 33.4204 8.3772C33.4204 8.2888 33.4204 8.2888 33.4204 8.2056H36.79V8.4656C36.27 11.232 33.7688 11.6636 32.0372 11.6636C29.2708 11.6636 26.5096 10.2804 26.5096 7.1708C26.5096 4.0612 29.276 2.678 32.0372 2.678C31.954 2.7612 36.3636 2.5012 36.7068 6.3908ZM39.2964 10.1036C39.2964 10.8836 38.6932 11.4868 37.9132 11.4868C37.1332 11.4868 36.53 10.8836 36.53 10.1036C36.53 9.3236 37.1332 8.7204 37.9132 8.7204C38.6932 8.7204 39.2964 9.3288 39.2964 10.1036ZM15.6312 12.61C12.2616 12.61 10.3636 14.8564 10.3636 19.2608C10.3636 23.6652 12.2616 25.9116 15.6312 25.9116C19.0008 25.9116 20.8988 23.6652 20.8988 19.2608C20.8988 14.8564 18.9124 12.61 15.6312 12.61ZM15.6312 23.2336C14.4196 23.2336 14.1648 22.022 14.1648 19.2608C14.1648 16.4996 14.4248 15.288 15.6312 15.288C16.8376 15.288 17.0976 16.4996 17.0976 19.2608C17.0976 22.022 16.8376 23.2336 15.6312 23.2336ZM26.7748 12.61C23.4052 12.61 21.5072 14.8564 21.5072 19.2608C21.5072 23.6652 23.4052 25.9116 26.7748 25.9116C30.1444 25.9116 32.0424 23.6652 32.0424 19.2608C32.0424 14.8564 30.056 12.61 26.7748 12.61ZM26.7748 23.2336C25.5632 23.2336 25.3084 22.022 25.3084 19.2608C25.3084 16.4996 25.5684 15.288 26.7748 15.288C27.9864 15.288 28.2412 16.4996 28.2412 19.2608C28.2412 22.022 27.9812 23.2336 26.7748 23.2336ZM37.9184 12.61C34.5488 12.61 32.6508 14.8564 32.6508 19.2608C32.6508 23.6652 34.5488 25.9116 37.9184 25.9116C41.288 25.9116 43.186 23.6652 43.186 19.2608C43.186 14.8564 41.1996 12.61 37.9184 12.61ZM37.9184 23.2336C36.7068 23.2336 36.452 22.022 36.452 19.2608C36.452 16.4996 36.712 15.288 37.9184 15.288C39.13 15.288 39.3848 16.4996 39.3848 19.2608C39.3848 22.022 39.1248 23.2336 37.9184 23.2336ZM8.8088 17.966C7.9404 17.2744 6.9056 16.8428 5.7824 16.926C4.9192 16.926 3.9676 17.186 3.3644 17.7892L3.6244 15.7144H9.0636V12.6932H1.118L0.2548 18.7408L2.5896 19.9524C3.1928 19.4324 3.8844 19.0892 4.6644 19.0892C5.096 19.0892 5.4444 19.2608 5.7876 19.5208C6.2192 19.9524 6.3908 20.5556 6.3908 21.164C6.3908 21.424 6.3908 21.684 6.3024 21.8556C6.214 22.6356 5.5224 23.1504 4.7476 23.0672C3.2812 23.0672 3.3644 21.2524 3.7128 20.5608L0 22.5472C0.26 24.882 2.678 26 4.6644 26C6.0476 26 7.3424 25.5684 8.29401 24.7052C8.6372 24.362 8.9856 24.0136 9.2456 23.4936C9.6772 22.802 9.84877 21.9388 9.84877 21.1588C10.0152 19.9524 9.5836 18.8292 8.8088 17.966Z" fill="#FEFEFE"/>
</svg>
