<svg width="31" height="31" viewBox="0 0 31 31" fill="none" xmlns="http://www.w3.org/2000/svg">
<g clip-path="url(#clip0_265_2919)">
<path d="M29.417 0.79541H25.8428C25.357 0.79541 24.9639 1.18852 24.9639 1.67432V2.55322H17.7707C17.4067 1.5324 16.4402 0.79541 15.2959 0.79541C14.1516 0.79541 13.1851 1.5324 12.8211 2.55322H5.62793V1.67432C5.62793 1.18852 5.23482 0.79541 4.74902 0.79541H1.1748C0.689004 0.79541 0.295898 1.18852 0.295898 1.67432V5.18994C0.295898 5.67574 0.689004 6.06885 1.1748 6.06885H4.74902C5.23482 6.06885 5.62793 5.67574 5.62793 5.18994V4.29932H9.23754C6.18732 6.20484 4.17609 9.55166 3.93568 13.3002C2.88111 13.6454 2.1123 14.6271 2.1123 15.7954C2.1123 17.2494 3.29508 18.4321 4.74902 18.4321C6.20297 18.4321 7.38574 17.2494 7.38574 15.7954C7.38574 14.6739 6.67904 13.7204 5.69004 13.3399C5.98992 9.16072 8.90602 5.6383 12.9623 4.6333C13.401 5.48156 14.2768 6.06885 15.2959 6.06885C16.315 6.06885 17.1908 5.48156 17.6295 4.6333C21.6858 5.63824 24.6019 9.16066 24.9018 13.3399C23.9128 13.7204 23.2061 14.6739 23.2061 15.7954C23.2061 17.2494 24.3888 18.4321 25.8428 18.4321C27.2967 18.4321 28.4795 17.2494 28.4795 15.7954C28.4795 14.6271 27.7107 13.6454 26.6561 13.3002C26.4157 9.55166 24.4045 6.21656 21.3543 4.31104H24.9639V5.18994C24.9639 5.67574 25.357 6.06885 25.8428 6.06885H29.417C29.9028 6.06885 30.2959 5.67574 30.2959 5.18994V1.67432C30.2959 1.18852 29.9028 0.79541 29.417 0.79541Z" fill="black"/>
<path d="M21.2757 29.7053C20.816 28.2985 19.4916 27.2212 17.933 27.2212H12.6595C11.1009 27.2212 9.77649 28.2985 9.31677 29.7053C9.13952 30.2477 9.60094 30.7954 10.1716 30.7954H20.4209C20.9915 30.7954 21.453 30.2477 21.2757 29.7053Z" fill="black"/>
<path d="M23.0584 18.824L16.1748 8.49854V16.8367C17.1956 17.2007 17.9326 18.1671 17.9326 19.3115C17.9326 20.7654 16.7499 21.9482 15.2959 21.9482C13.842 21.9482 12.6592 20.7654 12.6592 19.3115C12.6592 18.1671 13.3962 17.2007 14.417 16.8367V8.49854L7.53341 18.824C7.30079 19.1724 7.34714 19.6368 7.64327 19.9329C9.25677 21.5464 10.2881 23.625 10.6862 25.8547C11.2967 25.607 11.9608 25.4638 12.6592 25.4638H17.9326C18.6311 25.4638 19.2951 25.607 19.9057 25.8546C20.3037 23.6248 21.335 21.5464 22.9485 19.9329C23.2447 19.6368 23.291 19.1724 23.0584 18.824Z" fill="black"/>
<path d="M15.2959 18.4321C14.811 18.4321 14.417 18.8261 14.417 19.311C14.417 19.796 14.811 20.1899 15.2959 20.1899C15.7808 20.1899 16.1748 19.796 16.1748 19.311C16.1748 18.8261 15.7808 18.4321 15.2959 18.4321Z" fill="black"/>
</g>
<defs>
<clipPath id="clip0_265_2919">
<rect width="30" height="30" fill="white" transform="translate(0.295898 0.79541)"/>
</clipPath>
</defs>
</svg>
