<svg width="31" height="31" viewBox="0 0 31 31" fill="none" xmlns="http://www.w3.org/2000/svg">
<g clip-path="url(#clip0_265_2908)">
<path d="M14.6723 15.4008L16.852 10.057C13.9036 8.85702 10.5333 10.268 9.33325 13.2211C8.12857 16.1742 9.54888 19.5398 12.4973 20.7398C15.4504 21.9445 18.8161 20.5289 20.0161 17.5758C20.4333 16.5539 20.5364 15.4805 20.3676 14.468L14.6723 15.4008Z" fill="black"/>
<path d="M18.1738 8.96436L15.9941 14.3081L21.6895 13.38C21.3754 11.4628 20.1051 9.75186 18.1738 8.96436Z" fill="black"/>
<path d="M28.1771 14.4444C27.8631 7.83037 22.5381 2.51006 15.9193 2.19131V0.0678711H14.6678V2.19131C8.05371 2.51006 2.7334 7.83037 2.41934 14.4444H0.295898V15.696H2.41934V15.7007C2.7334 22.3054 8.05371 27.6304 14.6725 27.9491V30.0679H15.924V27.9491C22.5428 27.6304 27.8678 22.3054 28.1818 15.696V15.6913H30.2959V14.4397H28.1771V14.4444ZM26.1006 15.696C25.7912 21.1663 21.3896 25.5632 15.9193 25.8772V23.7913H14.6678V25.8772C9.20215 25.5632 4.80059 21.1663 4.49121 15.696V15.6913H6.57246V14.4397H4.49121C4.80059 8.96943 9.20215 4.56787 14.6725 4.2585V6.34443H15.924V4.2585C21.3896 4.56787 25.7912 8.96943 26.1006 14.4444H24.0193V15.696H26.1006Z" fill="black"/>
</g>
<defs>
<clipPath id="clip0_265_2908">
<rect width="30" height="30" fill="white" transform="translate(0.295898 0.0678711)"/>
</clipPath>
</defs>
</svg>
