<svg width="31" height="31" viewBox="0 0 31 31" fill="none" xmlns="http://www.w3.org/2000/svg">
<path fill-rule="evenodd" clip-rule="evenodd" d="M21.9945 30.2182C21.6799 30.2182 21.3723 30.1249 21.1108 29.9501C20.8492 29.7753 20.6453 29.5269 20.5249 29.2362C20.4045 28.9456 20.373 28.6258 20.4344 28.3172C20.4958 28.0087 20.6473 27.7252 20.8697 27.5028C21.0922 27.2803 21.3756 27.1288 21.6842 27.0674C21.9927 27.0061 22.3125 27.0376 22.6032 27.158C22.8938 27.2784 23.1423 27.4822 23.317 27.7438C23.4918 28.0054 23.5851 28.3129 23.5851 28.6275C23.5851 29.0494 23.4175 29.454 23.1192 29.7523C22.8209 30.0506 22.4163 30.2182 21.9945 30.2182ZM11.4359 14.8783C12.4598 13.8545 13.8484 13.2794 15.2963 13.2794C16.7443 13.2794 18.1329 13.8545 19.1568 14.8783C19.2003 14.9219 19.252 14.9564 19.3089 14.98C19.3657 15.0035 19.4267 15.0157 19.4883 15.0157C19.5498 15.0157 19.6108 15.0036 19.6677 14.98C19.7245 14.9564 19.7762 14.9219 19.8198 14.8784C19.8633 14.8349 19.8978 14.7832 19.9214 14.7263C19.945 14.6694 19.9571 14.6085 19.9571 14.5469C19.9571 14.4853 19.945 14.4244 19.9214 14.3675C19.8979 14.3106 19.8634 14.2589 19.8198 14.2154C19.2258 13.6213 18.5206 13.1501 17.7445 12.8286C16.9683 12.5071 16.1365 12.3416 15.2964 12.3416C14.4563 12.3416 13.6244 12.5071 12.8483 12.8286C12.0722 13.1501 11.367 13.6213 10.7729 14.2154C10.6872 14.3037 10.6396 14.4223 10.6405 14.5454C10.6414 14.6685 10.6907 14.7864 10.7778 14.8734C10.8649 14.9605 10.9827 15.0098 11.1058 15.0107C11.229 15.0116 11.3475 14.964 11.4358 14.8782L11.4359 14.8783ZM15.2964 17.0843C15.0394 17.0843 14.7882 17.1604 14.5745 17.3032C14.3608 17.446 14.1943 17.6489 14.0959 17.8863C13.9976 18.1237 13.9718 18.385 14.022 18.637C14.0721 18.8891 14.1958 19.1206 14.3776 19.3023C14.5593 19.484 14.7908 19.6078 15.0428 19.6579C15.2949 19.7081 15.5561 19.6823 15.7935 19.584C16.031 19.4857 16.2339 19.3191 16.3767 19.1054C16.5194 18.8918 16.5956 18.6406 16.5956 18.3836C16.5956 18.039 16.4587 17.7085 16.2151 17.4649C15.9714 17.2212 15.641 17.0843 15.2964 17.0843ZM15.2964 18.7453C15.2248 18.7454 15.1549 18.7241 15.0954 18.6844C15.0358 18.6446 14.9895 18.5881 14.9621 18.522C14.9347 18.4559 14.9275 18.3831 14.9415 18.313C14.9554 18.2428 14.9899 18.1783 15.0405 18.1277C15.0911 18.0771 15.1556 18.0426 15.2258 18.0287C15.2959 18.0147 15.3687 18.0219 15.4348 18.0493C15.5009 18.0767 15.5574 18.123 15.5972 18.1825C15.6369 18.2421 15.6582 18.312 15.6581 18.3836C15.6582 18.4311 15.6488 18.4781 15.6306 18.522C15.6124 18.5659 15.5858 18.6058 15.5522 18.6394C15.5186 18.673 15.4787 18.6996 15.4348 18.7178C15.3909 18.736 15.3439 18.7453 15.2964 18.7453ZM13.6716 17.1139C14.1025 16.683 14.687 16.4409 15.2964 16.4409C15.9058 16.4409 16.4902 16.683 16.9211 17.1139C17.0095 17.1996 17.128 17.2472 17.2511 17.2463C17.3743 17.2454 17.4921 17.1961 17.5792 17.1091C17.6662 17.022 17.7156 16.9042 17.7165 16.7811C17.7174 16.6579 17.6698 16.5394 17.584 16.451C17.2836 16.1506 16.927 15.9123 16.5344 15.7497C16.1419 15.5871 15.7212 15.5034 15.2964 15.5034C14.8715 15.5034 14.4508 15.5871 14.0583 15.7497C13.6658 15.9123 13.3092 16.1506 13.0088 16.451C12.9234 16.5394 12.8761 16.6579 12.8772 16.7808C12.8783 16.9037 12.9276 17.0212 13.0145 17.1081C13.1014 17.1951 13.219 17.2444 13.3419 17.2454C13.4648 17.2465 13.5832 17.1992 13.6716 17.1139ZM12.5538 15.9961C13.2812 15.2687 14.2677 14.8602 15.2964 14.8602C16.325 14.8602 17.3116 15.2687 18.039 15.9961C18.1269 16.084 18.2462 16.1333 18.3705 16.1333C18.4948 16.1333 18.614 16.0838 18.7019 15.9959C18.7898 15.908 18.8392 15.7887 18.8392 15.6644C18.8391 15.5401 18.7897 15.4209 18.7018 15.333C18.2546 14.8857 17.7237 14.531 17.1394 14.2889C16.5551 14.0469 15.9288 13.9223 15.2964 13.9223C14.6639 13.9223 14.0376 14.0469 13.4533 14.2889C12.869 14.531 12.3381 14.8857 11.8909 15.333C11.8046 15.4212 11.7566 15.5399 11.7573 15.6633C11.758 15.7867 11.8073 15.9049 11.8946 15.9921C11.9819 16.0794 12.1 16.1287 12.2234 16.1294C12.3468 16.1301 12.4656 16.0821 12.5538 15.9958V15.9961ZM12.285 2.11626C14.4785 1.63145 16.7565 1.68246 18.9261 2.26495C21.0957 2.84744 23.093 3.94425 24.7487 5.46249L23.0835 5.32895C23.0221 5.32397 22.9603 5.33116 22.9017 5.3501C22.8431 5.36904 22.7888 5.39936 22.7419 5.43932C22.695 5.47928 22.6564 5.5281 22.6284 5.58298C22.6005 5.63786 22.5836 5.69772 22.5788 5.75914C22.5739 5.82056 22.5813 5.88232 22.6004 5.94089C22.6195 5.99947 22.6499 6.0537 22.69 6.10048C22.7301 6.14726 22.779 6.18568 22.834 6.21352C22.8889 6.24137 22.9488 6.2581 23.0103 6.26276L25.9562 6.49907C26.0241 6.50521 26.0926 6.49648 26.1569 6.47349C26.2211 6.45051 26.2796 6.41382 26.3282 6.36597C26.3769 6.31812 26.4145 6.26025 26.4385 6.19639C26.4626 6.13253 26.4724 6.06421 26.4674 5.99616L26.2304 3.04256C26.2256 2.98125 26.2087 2.92148 26.1808 2.86666C26.1529 2.81185 26.1145 2.76308 26.0677 2.72312C26.021 2.68316 25.9668 2.6528 25.9083 2.63378C25.8498 2.61476 25.7882 2.60744 25.7268 2.61225C25.6655 2.61706 25.6057 2.6339 25.5509 2.66181C25.4961 2.68972 25.4473 2.72815 25.4074 2.77491C25.3674 2.82167 25.3371 2.87584 25.3181 2.93433C25.299 2.99282 25.2917 3.05449 25.2965 3.11581L25.4335 4.82217C23.6663 3.18623 21.5294 2.00237 19.2053 1.37173C16.8812 0.741096 14.439 0.682424 12.0873 1.20073C11.9668 1.22789 11.862 1.30152 11.7955 1.4056C11.7291 1.50968 11.7064 1.63578 11.7325 1.75648C11.7586 1.87717 11.8313 1.98269 11.9347 2.05006C12.0382 2.11744 12.1641 2.14123 12.285 2.11626ZM2.61635 5.79548L4.32271 5.65854C2.68673 7.42572 1.50284 9.56266 0.872201 11.8868C0.241562 14.211 0.182914 16.6532 0.701269 19.005C0.713782 19.0655 0.738172 19.1231 0.773031 19.1742C0.807891 19.2253 0.852529 19.2689 0.904367 19.3027C0.956206 19.3365 1.01422 19.3596 1.07505 19.3708C1.13589 19.382 1.19834 19.3811 1.25881 19.368C1.31927 19.355 1.37655 19.33 1.42734 19.2947C1.47812 19.2594 1.52141 19.2144 1.55469 19.1622C1.58798 19.1101 1.6106 19.0519 1.62126 18.9909C1.63192 18.93 1.6304 18.8676 1.6168 18.8072C1.13197 16.6137 1.18297 14.3357 1.76547 12.166C2.34797 9.99642 3.44482 7.99916 4.96309 6.34344L4.82949 8.00874C4.82451 8.07014 4.8317 8.13192 4.85064 8.19055C4.86958 8.24917 4.8999 8.30348 4.93986 8.35037C4.97982 8.39725 5.02864 8.43579 5.08352 8.46378C5.1384 8.49177 5.19826 8.50866 5.25968 8.51348C5.3211 8.5183 5.38286 8.51095 5.44143 8.49186C5.50001 8.47277 5.55424 8.44231 5.60102 8.40222C5.6478 8.36214 5.68622 8.31322 5.71407 8.25827C5.74191 8.20332 5.75864 8.14341 5.7633 8.08198L5.99967 5.13606C6.00579 5.06811 5.99706 4.99963 5.97407 4.93539C5.95108 4.87115 5.91439 4.81268 5.86654 4.76404C5.8187 4.7154 5.76084 4.67775 5.69698 4.65371C5.63312 4.62968 5.5648 4.61982 5.49676 4.62483L2.54311 4.86161C2.41927 4.87132 2.30436 4.92983 2.22366 5.02426C2.14296 5.1187 2.10308 5.24132 2.11279 5.36516C2.12251 5.489 2.18101 5.60391 2.27545 5.68461C2.36988 5.76531 2.49251 5.80519 2.61635 5.79548ZM5.29602 28.4759L5.15908 26.7696C6.9263 28.4055 9.06326 29.5893 11.3874 30.2199C13.7115 30.8505 16.1538 30.9091 18.5055 30.3907C18.5661 30.3782 18.6236 30.3538 18.6747 30.3189C18.7258 30.284 18.7695 30.2394 18.8032 30.1876C18.837 30.1357 18.8601 30.0777 18.8714 30.0169C18.8826 29.9561 18.8816 29.8936 18.8686 29.8331C18.8555 29.7727 18.8306 29.7154 18.7953 29.6646C18.7599 29.6138 18.7149 29.5705 18.6628 29.5372C18.6106 29.504 18.5524 29.4813 18.4915 29.4707C18.4305 29.46 18.3681 29.4615 18.3078 29.4751C16.1143 29.96 13.8362 29.909 11.6666 29.3266C9.49702 28.7442 7.49974 27.6474 5.84398 26.1292L7.50904 26.2627C7.57045 26.2677 7.63223 26.2605 7.69085 26.2416C7.74948 26.2227 7.80378 26.1923 7.85067 26.1524C7.89756 26.1124 7.9361 26.0636 7.96409 26.0087C7.99208 25.9538 8.00897 25.894 8.01378 25.8326C8.0186 25.7711 8.01125 25.7094 7.99216 25.6508C7.97307 25.5922 7.94261 25.538 7.90253 25.4912C7.86245 25.4444 7.81353 25.406 7.75857 25.3782C7.70362 25.3503 7.64371 25.3336 7.58228 25.3289L4.63643 25.0926C4.56847 25.0865 4.49999 25.0952 4.43574 25.1182C4.3715 25.1412 4.31303 25.1779 4.26439 25.2257C4.21574 25.2736 4.17809 25.3314 4.15405 25.3953C4.13 25.4592 4.12014 25.5275 4.12514 25.5955L4.36221 28.5491C4.36686 28.6106 4.3836 28.6705 4.41144 28.7254C4.43929 28.7804 4.4777 28.8293 4.52449 28.8694C4.57127 28.9095 4.6255 28.9399 4.68407 28.959C4.74265 28.9781 4.80441 28.9854 4.86583 28.9806C4.92724 28.9758 4.98711 28.9589 5.04199 28.9309C5.09687 28.9029 5.14569 28.8644 5.18565 28.8175C5.22561 28.7706 5.25593 28.7163 5.27487 28.6577C5.29381 28.5991 5.30099 28.5373 5.29602 28.4759ZM27.9764 25.7962L26.2701 25.9332C27.906 24.1659 29.0898 22.029 29.7204 19.7048C30.351 17.3807 30.4096 14.9384 29.8912 12.5867C29.864 12.4663 29.7904 12.3614 29.6863 12.295C29.5823 12.2285 29.4562 12.2059 29.3355 12.232C29.2148 12.258 29.1093 12.3307 29.0419 12.4342C28.9745 12.5377 28.9507 12.6636 28.9757 12.7845C29.4605 14.978 29.4096 17.256 28.8272 19.4256C28.2447 21.5952 27.1479 23.5924 25.6297 25.2482L25.7633 23.5832C25.7681 23.5219 25.7608 23.4602 25.7418 23.4017C25.7228 23.3432 25.6924 23.2891 25.6525 23.2423C25.6125 23.1955 25.5637 23.1571 25.5089 23.1292C25.4541 23.1013 25.3943 23.0844 25.333 23.0796C25.2717 23.0748 25.21 23.0821 25.1516 23.1012C25.0931 23.1202 25.0389 23.1505 24.9921 23.1905C24.9454 23.2305 24.9069 23.2792 24.879 23.334C24.8511 23.3889 24.8343 23.4486 24.8295 23.5099L24.5932 26.4559C24.587 26.5238 24.5958 26.5923 24.6188 26.6565C24.6417 26.7208 24.6784 26.7792 24.7263 26.8279C24.7741 26.8765 24.832 26.9142 24.8959 26.9382C24.9597 26.9623 25.028 26.9721 25.0961 26.9671L28.0497 26.7301C28.111 26.7253 28.1708 26.7084 28.2256 26.6805C28.2804 26.6526 28.3292 26.6142 28.3691 26.5674C28.4091 26.5207 28.4394 26.4665 28.4585 26.408C28.4775 26.3495 28.4848 26.2878 28.48 26.2265C28.4752 26.1652 28.4583 26.1054 28.4304 26.0506C28.4025 25.9958 28.3641 25.947 28.3173 25.9071C28.2706 25.8671 28.2164 25.8368 28.1579 25.8177C28.0994 25.7987 28.0377 25.7914 27.9764 25.7962ZM23.6284 14.1259C23.4118 13.0398 22.9838 12.0068 22.3687 11.0858L23.5541 9.90032L21.1924 7.53852L20.0069 8.72405C19.0857 8.10872 18.0526 7.68052 16.9663 7.46382V5.78803H13.6265V7.46382C12.5403 7.68041 11.5074 8.10845 10.5864 8.72358L9.40092 7.53805L7.03912 9.89979L8.22465 11.0854C7.60931 12.0065 7.18109 13.0396 6.96436 14.1259H5.28857V17.4658H6.96436C7.18094 18.5519 7.60898 19.5848 8.22412 20.5057L7.03854 21.6913L9.40027 24.0532L10.5859 22.8675C11.507 23.4829 12.5401 23.9112 13.6265 24.1279V25.8037H16.9663V24.1279C18.0524 23.9113 19.0854 23.4833 20.0063 22.8681L21.1919 24.0537L23.5538 21.6919L22.3681 20.5063C22.9835 19.5852 23.4117 18.5521 23.6284 17.4658H25.3042V14.1259H23.6284ZM15.2964 21.6694C14.1347 21.6694 12.9991 21.3249 12.0332 20.6795C11.0673 20.0341 10.3145 19.1168 9.86993 18.0436C9.42537 16.9703 9.30906 15.7893 9.53569 14.65C9.76232 13.5106 10.3217 12.464 11.1432 11.6426C11.9646 10.8212 13.0112 10.2618 14.1505 10.0352C15.2899 9.80852 16.4708 9.92483 17.5441 10.3694C18.6173 10.8139 19.5347 11.5668 20.1801 12.5327C20.8255 13.4986 21.1699 14.6342 21.1699 15.7958C21.1699 17.3536 20.5511 18.8476 19.4496 19.9491C18.3481 21.0506 16.8541 21.6694 15.2964 21.6694ZM29.7187 9.09776C29.7187 9.41236 29.6254 9.7199 29.4506 9.98147C29.2759 10.2431 29.0274 10.4469 28.7368 10.5673C28.4461 10.6877 28.1263 10.7192 27.8177 10.6578C27.5092 10.5965 27.2258 10.445 27.0033 10.2225C26.7809 10.0001 26.6294 9.71663 26.568 9.40808C26.5066 9.09952 26.5381 8.7797 26.6585 8.48905C26.7789 8.19839 26.9828 7.94997 27.2444 7.77519C27.5059 7.60041 27.8135 7.50712 28.1281 7.50712C28.5499 7.50712 28.9545 7.6747 29.2528 7.973C29.5511 8.27131 29.7187 8.6759 29.7187 9.09776ZM8.59824 1.37352C8.91284 1.37351 9.22038 1.46679 9.48197 1.64157C9.74356 1.81634 9.94745 2.06476 10.0678 2.35541C10.1882 2.64606 10.2198 2.96589 10.1584 3.27445C10.097 3.58301 9.94553 3.86644 9.72308 4.0889C9.50062 4.31136 9.2172 4.46286 8.90864 4.52424C8.60008 4.58562 8.28026 4.55413 7.9896 4.43374C7.69895 4.31335 7.45052 4.10947 7.27573 3.84789C7.10095 3.58631 7.00766 3.27877 7.00766 2.96417C7.00767 2.54232 7.17525 2.13775 7.47354 1.83945C7.77183 1.54115 8.17639 1.37355 8.59824 1.37352ZM0.874062 22.4939C0.874062 22.1793 0.967352 21.8718 1.14213 21.6102C1.31692 21.3486 1.56534 21.1448 1.85599 21.0244C2.14665 20.904 2.46647 20.8725 2.77503 20.9339C3.08358 20.9952 3.36701 21.1467 3.58946 21.3692C3.81192 21.5916 3.96341 21.8751 4.02479 22.1836C4.08616 22.4922 4.05466 22.812 3.93427 23.1026C3.81388 23.3933 3.61 23.6417 3.34842 23.8165C3.08684 23.9913 2.77931 24.0846 2.46471 24.0846C2.04284 24.0846 1.63825 23.917 1.33995 23.6187C1.04165 23.3204 0.874062 22.9158 0.874062 22.4939Z" fill="black"/>
</svg>
