<svg width="30" height="30" viewBox="0 0 30 30" fill="none" xmlns="http://www.w3.org/2000/svg">
<path fill-rule="evenodd" clip-rule="evenodd" d="M23.5307 7.33994C22.7625 7.33994 22.1373 7.96514 22.1373 8.7333C22.1373 8.94365 22.1848 9.14346 22.2686 9.32275L18.948 11.8417C18.7043 11.6319 18.3873 11.5042 18.041 11.5042C17.5512 11.5042 17.1205 11.7585 16.8715 12.1411L13.9289 11.0249C13.9389 10.9563 13.9441 10.8866 13.9441 10.8157C13.9441 10.047 13.3195 9.42236 12.5508 9.42236C11.7826 9.42236 11.1574 10.047 11.1574 10.8157C11.1574 11.0015 11.1943 11.179 11.2611 11.3413L8.02031 13.5544C7.77012 13.3165 7.43262 13.1706 7.06113 13.1706C6.29297 13.1706 5.66777 13.7952 5.66777 14.564C5.66777 15.3321 6.29297 15.9573 7.06113 15.9573C7.8293 15.9573 8.45449 15.3321 8.45449 14.564C8.45449 14.3776 8.41758 14.2001 8.35137 14.0378L11.5922 11.8253C11.8418 12.0626 12.1799 12.2091 12.5508 12.2091C13.0406 12.2091 13.4713 11.9554 13.7203 11.5722L16.6629 12.6896C16.6529 12.7575 16.6477 12.8272 16.6477 12.8987C16.6477 13.6669 17.2723 14.2921 18.041 14.2921C18.8092 14.2921 19.4344 13.6669 19.4344 12.8987C19.4344 12.6878 19.3869 12.488 19.3031 12.3087L22.623 9.78975C22.8674 10.0001 23.1844 10.1272 23.5307 10.1272C24.2988 10.1272 24.924 9.50205 24.924 8.73389C24.924 7.96572 24.2988 7.33994 23.5307 7.33994ZM4.0248 4.14951C3.69844 4.14951 3.43301 3.88408 3.43301 3.55771C3.43301 3.23135 3.69785 2.96592 4.0248 2.96592C4.35176 2.96592 4.6166 3.23135 4.6166 3.55771C4.6166 3.88467 4.35117 4.14951 4.0248 4.14951ZM10.1889 3.55771C10.1889 3.23076 10.4543 2.96592 10.7807 2.96592C11.107 2.96592 11.3725 3.23135 11.3725 3.55771C11.3725 3.88408 11.107 4.14951 10.7807 4.14951C10.4543 4.14951 10.1889 3.88467 10.1889 3.55771ZM6.81094 3.55771C6.81094 3.23135 7.07578 2.96592 7.40273 2.96592C7.7291 2.96592 7.99453 3.23135 7.99453 3.55771C7.99453 3.88408 7.72852 4.14951 7.40273 4.14951C7.07637 4.14951 6.81094 3.88408 6.81094 3.55771ZM19.8111 3.08311H26.5682C26.8301 3.08311 27.0422 3.2958 27.0422 3.55771C27.0422 3.81963 26.8301 4.03232 26.5682 4.03232H19.8111C19.5498 4.03232 19.3365 3.81963 19.3365 3.55771C19.3365 3.2958 19.5498 3.08311 19.8111 3.08311ZM27.6012 23.3384H25.5838V14.0665C25.5838 13.5819 25.19 13.1876 24.7049 13.1876H22.3564C21.8719 13.1876 21.4775 13.5819 21.4775 14.0665V23.3384H20.0941V18.7657C20.0941 18.2812 19.6998 17.8868 19.2152 17.8868H16.8662C16.3816 17.8868 15.9873 18.2812 15.9873 18.7657V23.3384H14.6045V16.4161C14.6045 15.9315 14.2102 15.5372 13.7256 15.5372H11.3766C10.892 15.5372 10.4977 15.9315 10.4977 16.4161V23.3384H9.11426V20.6454C9.11426 20.1608 8.72051 19.7665 8.23535 19.7665H5.88691C5.40234 19.7665 5.00801 20.1608 5.00801 20.6454V23.3384H2.99121C2.1832 23.3384 1.52637 22.681 1.52637 21.8735V6.40303H29.0643V21.8735C29.0643 22.681 28.4086 23.3384 27.6012 23.3384ZM20.0941 23.9243H21.4775V28.8374H20.0941V23.9243ZM14.6045 23.9243H15.9873V28.8374H14.6045V23.9243ZM9.11426 23.9243H10.4977V28.8374H9.11426V23.9243ZM27.6012 0.712402C28.7309 0.712402 29.6514 1.63232 29.6514 2.76318V21.8735C29.6514 23.0044 28.7309 23.9243 27.6012 23.9243H25.5838V28.8374H27.7307C27.8906 28.8374 28.0225 28.9687 28.0225 29.1304C28.0225 29.2921 27.89 29.4233 27.7307 29.4233H2.86172C2.7 29.4233 2.56875 29.2921 2.56875 29.1304C2.56875 28.9687 2.7 28.8374 2.86172 28.8374H5.00801V23.9243H2.99121C1.86035 23.9243 0.94043 23.0044 0.94043 21.8735V2.76318C0.94043 1.63232 1.86035 0.712402 2.99121 0.712402H27.6012Z" fill="black"/>
</svg>
