<svg width="31" height="31" viewBox="0 0 31 31" fill="none" xmlns="http://www.w3.org/2000/svg">
<g clip-path="url(#clip0_265_1189)">
<path d="M29.4319 12.9773L26.1137 12.5227C25.841 11.5227 25.4773 10.5227 24.9319 9.61364L26.9319 6.93182C27.0682 6.75 27.0682 6.52273 26.8864 6.34091L24.2046 3.70455C24.0682 3.52273 23.7955 3.52273 23.6137 3.65909L20.9319 5.65909C20.0228 5.11364 19.0682 4.70455 18.0228 4.47727L17.5682 1.15909C17.5228 0.931818 17.341 0.75 17.1137 0.75H13.341C13.1137 0.75 12.9319 0.931818 12.8864 1.15909L12.4319 4.47727C11.4319 4.75 10.4773 5.11364 9.56823 5.65909L6.88641 3.65909C6.70459 3.52273 6.43186 3.52273 6.2955 3.70455L3.65914 6.34091C3.52277 6.52273 3.47732 6.75 3.61368 6.93182L5.61368 9.61364C5.06823 10.5227 4.70459 11.4773 4.43186 12.5227L1.11368 12.9773C0.886408 13.0227 0.70459 13.2045 0.70459 13.4318V17.2045C0.70459 17.4318 0.886408 17.6136 1.11368 17.6591L4.43186 18.1136C4.70459 19.1136 5.11368 20.0682 5.61368 20.9773L3.61368 23.6591C3.47732 23.8409 3.47732 24.1136 3.65914 24.25L6.2955 26.8864C6.47732 27.0682 6.70459 27.0682 6.88641 26.9318L9.56823 24.9318C10.4773 25.4773 11.4319 25.8864 12.4319 26.1136L12.8864 29.4318C12.9319 29.6591 13.1137 29.8409 13.341 29.8409H17.1137C17.341 29.8409 17.5228 29.6591 17.5682 29.4318L18.0682 25.9773L19.5682 24.4773C19.4319 24.3409 19.341 24.2045 19.2046 24.0682L19.0682 23.8864C12.841 26.5682 6.34095 21.9318 6.38641 15.5682C6.38641 10.6136 10.4773 6.56818 15.4319 6.56818C21.5682 6.56818 25.9773 12.6136 24.0228 18.5682C24.25 18.75 24.1591 18.6591 24.841 19.25L25.9773 18.1136L29.4319 17.6136C29.6591 17.5682 29.841 17.3864 29.841 17.1591V13.3864C29.7955 13.2045 29.6591 12.9773 29.4319 12.9773Z" fill="black"/>
<path d="M15.4772 7.47729C10.9772 7.47729 7.34082 11.1137 7.34082 15.5682C7.34082 17.9318 8.38628 20.2046 10.159 21.75C15.3408 26.2046 23.5681 22.6591 23.5681 15.6137C23.5681 11.1137 19.9772 7.47729 15.4772 7.47729ZM10.7499 21.0682L13.0226 16.6591L16.1135 17.5228C16.2954 17.5682 16.5226 17.4773 16.6135 17.3409L19.3408 13.0682L19.7499 14.7046C19.7954 14.9318 20.0681 15.1137 20.2954 15.0228C20.5226 14.9773 20.7045 14.7046 20.6135 14.4773L19.9317 11.75C19.8863 11.5227 19.6135 11.3409 19.3863 11.4318L16.659 12.1137C16.4317 12.1591 16.2499 12.4318 16.3408 12.6591C16.3863 12.8864 16.659 13.0682 16.8863 12.9773L18.5226 12.5682L16.0226 16.5228L12.8863 15.6137C12.659 15.5682 12.4772 15.6591 12.3408 15.8409L10.0226 20.2955C8.84082 18.9773 8.20446 17.2955 8.20446 15.4773C8.20446 11.5228 11.4772 8.29548 15.4317 8.29548C19.4317 8.29548 22.659 11.5227 22.6135 15.5228C22.659 21.8864 15.3408 25.0228 10.7499 21.0682Z" fill="black"/>
<path d="M23.6589 19.4318C22.8862 21.1136 21.568 22.5227 19.9316 23.4772C21.7953 25.659 23.6135 27.659 23.9771 28.0227C25.1589 29.2045 27.1135 29.2499 28.3407 28.0227C29.5225 26.8409 29.568 24.8863 28.3407 23.659C28.0225 23.3409 25.9771 21.4318 23.6589 19.4318Z" fill="black"/>
</g>
<defs>
<clipPath id="clip0_265_1189">
<rect width="30" height="30" fill="white" transform="translate(0.29541 0.29541)"/>
</clipPath>
</defs>
</svg>
