<svg width="31" height="31" viewBox="0 0 31 31" fill="none" xmlns="http://www.w3.org/2000/svg">
<path d="M26.1707 24.3749C25.5312 22.4708 22.9809 21.2789 21.1632 20.4799C20.451 20.168 18.4792 19.6387 18.2422 18.7419C18.1573 18.4191 18.1685 18.1145 18.2384 17.8226C18.1288 17.8438 18.0173 17.8559 17.9026 17.8559H16.718C15.7726 17.8559 15.0038 17.0868 15.0038 16.1414C15.0038 15.197 15.7726 14.4291 16.718 14.4291H17.9026C18.2939 14.4291 18.6653 14.5616 18.9642 14.798C19.4026 14.7395 19.8258 14.6458 20.2207 14.5229C20.7388 13.4374 21.1429 12.1393 21.2331 11.0221C21.6197 6.24168 18.6891 3.44487 14.4872 3.92837C11.4322 4.28004 9.60711 6.55809 9.40983 9.49087C9.21033 12.4802 10.3187 14.688 11.496 16.3072C12.0116 17.0153 12.5532 17.4709 12.47 18.3238C12.3734 19.3328 11.2946 19.6136 10.523 19.924C9.60869 20.2912 8.6239 20.8487 8.15882 21.1061C6.55678 21.9908 4.79845 23.0563 4.40326 24.5134C3.52806 27.7436 6.48372 28.722 8.92378 29.1737C11.0179 29.5604 13.3792 29.5909 15.3215 29.5909C18.8343 29.5909 25.1523 29.4498 26.1707 26.8093C26.4608 26.0596 26.3362 24.8657 26.1707 24.3749Z" fill="black"/>
<path d="M18.652 15.6585C18.4916 15.4136 18.2164 15.2509 17.9029 15.2509H16.7183C16.224 15.2509 15.8253 15.6503 15.8253 16.142C15.8253 16.6354 16.224 17.0356 16.7183 17.0356H17.9029C18.2488 17.0356 18.5424 16.8384 18.6904 16.5534C20.342 16.4235 21.7785 15.919 22.7868 15.1741C23.0181 15.3234 23.2923 15.4107 23.588 15.4107H23.6624C24.4855 15.4107 25.1513 14.7442 25.1513 13.9199V10.9439C25.1513 10.3511 24.8038 9.83964 24.3028 9.60202C24.0839 4.82291 20.1279 1 15.2954 1C10.4629 1 6.50628 4.82291 6.28867 9.60171C5.78643 9.83965 5.43921 10.3508 5.43921 10.9436V13.9196C5.43921 14.7439 6.10569 15.4104 6.9272 15.4104H7.00249C7.82464 15.4104 8.49144 14.7439 8.49144 13.9196V10.9436C8.49144 10.3594 8.15375 9.85553 7.66294 9.61187C7.87546 5.58533 11.2168 2.37585 15.2954 2.37585C19.3725 2.37585 22.7154 5.58533 22.9273 9.61187C22.4371 9.85585 22.0994 10.3594 22.0994 10.9436V13.9196C22.0994 14.1171 22.1378 14.3011 22.2055 14.4729C21.3376 15.094 20.0742 15.5365 18.652 15.6585Z" fill="black"/>
</svg>
