<svg width="31" height="31" viewBox="0 0 31 31" fill="none" xmlns="http://www.w3.org/2000/svg">
<path d="M2.67219 2.19644C2.78343 1.78857 3.15389 1.50562 3.57666 1.50562H27.0142C27.4369 1.50562 27.8074 1.78857 27.9186 2.19644L29.3249 7.35271C29.3468 7.4331 29.3579 7.51602 29.3579 7.59937C29.3579 8.84882 28.8147 9.97143 27.9517 10.7439V12.8728C27.9517 13.3906 27.5319 13.8103 27.0142 13.8103C26.4964 13.8103 26.0767 13.3906 26.0767 12.8728V11.7136C25.7752 11.782 25.4614 11.8181 25.1392 11.8181C23.8139 11.8181 22.6313 11.207 21.8579 10.2512C21.0845 11.207 19.902 11.8181 18.5767 11.8181C17.2514 11.8181 16.0688 11.207 15.2954 10.2512C14.522 11.207 13.3395 11.8181 12.0142 11.8181C10.6889 11.8181 9.50635 11.207 8.73291 10.2512C7.95947 11.207 6.77696 11.8181 5.45166 11.8181C5.12944 11.8181 4.81567 11.782 4.51416 11.7136V24.9431C4.51416 26.4964 5.77336 27.7556 7.32666 27.7556H12.9517C13.4694 27.7556 13.8892 28.1753 13.8892 28.6931C13.8892 29.2109 13.4694 29.6306 12.9517 29.6306H7.32666C4.73782 29.6306 2.63916 27.5319 2.63916 24.9431V10.7439C1.77607 9.97143 1.23291 8.84882 1.23291 7.59937C1.23291 7.51602 1.24402 7.4331 1.26594 7.35271L2.67219 2.19644Z" fill="black"/>
<path fill-rule="evenodd" clip-rule="evenodd" d="M20.0708 13.6931C19.553 13.6931 19.1333 14.1128 19.1333 14.6306V16.2157L18.0125 15.0949C17.8366 14.9191 17.5982 14.8203 17.3496 14.8203C17.1009 14.8203 16.8625 14.9191 16.6867 15.0949L14.8222 16.9594C14.4561 17.3255 14.4561 17.919 14.8222 18.2852L15.943 19.406H14.3579C13.8401 19.406 13.4204 19.8257 13.4204 20.3435V22.9802C13.4204 23.498 13.8401 23.9177 14.3579 23.9177H15.943L14.8222 25.0386C14.6464 25.2144 14.5476 25.4528 14.5476 25.7015C14.5476 25.9501 14.6464 26.1885 14.8222 26.3644L16.6867 28.2288C16.8624 28.4046 17.1009 28.5034 17.3496 28.5034C17.5982 28.5034 17.8366 28.4046 18.0125 28.2288L19.1333 27.108V28.6931C19.1333 29.2109 19.553 29.6306 20.0708 29.6306H22.7075C23.2253 29.6306 23.645 29.2109 23.645 28.6931V27.108L24.7659 28.2288C25.132 28.595 25.7256 28.595 26.0917 28.2288L27.9562 26.3644C28.132 26.1886 28.2308 25.9501 28.2308 25.7015C28.2308 25.4528 28.132 25.2144 27.9562 25.0386L26.8353 23.9177H28.4204C28.9382 23.9177 29.3579 23.498 29.3579 22.9802V20.3435C29.3579 19.8257 28.9382 19.406 28.4204 19.406H26.8353L27.9561 18.2851C28.1319 18.1093 28.2307 17.8708 28.2307 17.6222C28.2307 17.3736 28.1319 17.1351 27.9561 16.9593L26.0917 15.0949C25.7256 14.7288 25.132 14.7288 24.7658 15.0949L23.645 16.2157V14.6306C23.645 14.1128 23.2253 13.6931 22.7075 13.6931H20.0708ZM22.7954 21.6619C22.7954 22.4385 22.1658 23.0681 21.3892 23.0681C20.6125 23.0681 19.9829 22.4385 19.9829 21.6619C19.9829 20.8852 20.6125 20.2556 21.3892 20.2556C22.1658 20.2556 22.7954 20.8852 22.7954 21.6619Z" fill="black"/>
</svg>
