<svg width="31" height="31" viewBox="0 0 31 31" fill="none" xmlns="http://www.w3.org/2000/svg">
<path d="M5.76806 29.5687H24.8109C27.4278 29.5687 29.5687 27.4396 29.5687 24.8109V11.6558H1.02222V24.8109C1.02222 27.4396 3.15121 29.5687 5.76806 29.5687ZM19.7797 18.9233C19.28 18.495 19.2086 17.7457 19.6369 17.2461C20.0532 16.7466 20.8025 16.6752 21.3139 17.1034L24.4304 19.7202C24.7039 19.9462 24.8584 20.2792 24.8584 20.6361C24.8584 20.981 24.7039 21.3141 24.4304 21.54L21.3139 24.1687C20.7949 24.5786 20.0651 24.5279 19.6369 24.014C19.2086 23.5145 19.28 22.7651 19.7797 22.3489L21.8135 20.6361L19.7797 18.9233ZM13.0236 25.37L15.4144 15.2717C15.569 14.6294 16.1994 14.225 16.8416 14.3796C17.484 14.5223 17.8885 15.1646 17.7337 15.795L15.3429 25.9053C15.179 26.5915 14.476 26.957 13.9157 26.7973C13.2733 26.6546 12.8691 26.0123 13.0236 25.37ZM6.24386 19.7202L9.36018 17.1034C9.8717 16.6752 10.6209 16.7466 11.0373 17.2461C11.4654 17.7457 11.3941 18.495 10.8945 18.9233L8.86056 20.6361L10.8945 22.3489C11.3941 22.7651 11.4654 23.5145 11.0373 24.014C10.6465 24.5075 9.89951 24.5944 9.36018 24.1687L6.24386 21.54C5.67675 21.0503 5.70162 20.1885 6.24386 19.7202Z" fill="black"/>
<path d="M29.4141 9.27691H29.5687V5.77996C29.5687 3.15135 27.4278 1.02222 24.8109 1.02222H5.76806C3.15121 1.02222 1.02222 3.15135 1.02222 5.77996V9.27691H1.17685H29.4141ZM14.4985 4.55488C15.139 4.04328 15.7776 4.14472 16.1875 4.55488C16.6286 4.99583 16.6636 5.74143 16.1875 6.24386C15.7955 6.63614 15.1441 6.76032 14.4985 6.24386C14.0508 5.77113 14.0277 5.05197 14.4985 4.55488ZM10.0262 4.55488C10.4664 4.11479 11.2752 4.11479 11.7152 4.55488C12.1937 5.03369 12.2323 5.83102 11.5368 6.38659C11.0415 6.71681 10.4259 6.62242 10.0262 6.24386C9.53304 5.69585 9.61359 4.96776 10.0262 4.55488ZM5.5658 4.55488C6.13097 3.98971 7.04851 4.1714 7.38567 4.73332C7.71234 5.22283 7.69897 5.87979 7.0645 6.38659C6.56125 6.72277 5.93595 6.61388 5.5658 6.24386C5.12613 5.80419 5.05589 5.06541 5.5658 4.55488Z" fill="black"/>
</svg>
