<svg width="31" height="31" viewBox="0 0 31 31" fill="none" xmlns="http://www.w3.org/2000/svg">
<g clip-path="url(#clip0_265_1206)">
<path d="M20.1047 5.38686C20.1197 5.42523 20.1421 5.46028 20.1706 5.48999C20.1991 5.51971 20.2332 5.54352 20.271 5.56006C20.3087 5.5766 20.3493 5.58555 20.3905 5.5864C20.4317 5.58724 20.4726 5.57997 20.511 5.56499C20.5494 5.55001 20.5844 5.52762 20.6141 5.4991C20.6438 5.47057 20.6676 5.43648 20.6842 5.39875C20.7007 5.36103 20.7097 5.32042 20.7105 5.27923C20.7114 5.23805 20.7041 5.19711 20.6891 5.15874L20.3579 4.31811C22.1208 5.11812 23.6721 6.31963 24.8876 7.82652C26.1031 9.33342 26.9491 11.1039 27.3579 12.9962C27.5625 12.9473 27.7725 12.9242 27.9829 12.9275C27.5617 10.9286 26.6769 9.05668 25.3997 7.46247C24.1224 5.86826 22.4886 4.59639 20.6297 3.74936L21.4454 3.43686C21.521 3.40704 21.5821 3.34888 21.6156 3.27474C21.6491 3.2006 21.6523 3.11633 21.6247 3.03983C21.597 2.96333 21.5406 2.90063 21.4674 2.86507C21.3943 2.8295 21.3101 2.82387 21.2329 2.84936C19.6141 3.47436 19.5922 3.44936 19.5235 3.62436C19.4547 3.79936 19.3797 3.52749 20.1047 5.38686Z" fill="black"/>
<path d="M11.0829 27.2838L10.486 25.7494C10.471 25.711 10.4486 25.676 10.4201 25.6463C10.3916 25.6165 10.3575 25.5927 10.3198 25.5762C10.282 25.5597 10.2414 25.5507 10.2002 25.5499C10.1591 25.549 10.1181 25.5563 10.0797 25.5713C10.0414 25.5862 10.0063 25.6086 9.9766 25.6372C9.94689 25.6657 9.92308 25.6998 9.90654 25.7375C9.89 25.7752 9.88105 25.8158 9.8802 25.857C9.87936 25.8982 9.88663 25.9391 9.90161 25.9775L10.2329 26.8181C8.46971 26.0179 6.91816 24.8164 5.70218 23.3096C4.48621 21.8027 3.63951 20.0324 3.22974 18.14C3.02513 18.1891 2.81513 18.2122 2.60474 18.2088C3.02751 20.207 3.91296 22.0782 5.18998 23.6721C6.467 25.2661 8.10001 26.5384 9.95786 27.3869L9.14224 27.6994C9.10366 27.7135 9.06825 27.7352 9.03803 27.763C9.00781 27.7909 8.98337 27.8244 8.9661 27.8617C8.94884 27.899 8.93908 27.9393 8.9374 27.9803C8.93572 28.0214 8.94214 28.0624 8.9563 28.101C8.97046 28.1395 8.99207 28.1749 9.01992 28.2052C9.04776 28.2354 9.08128 28.2598 9.11857 28.2771C9.15586 28.2944 9.19618 28.3041 9.23724 28.3058C9.2783 28.3075 9.31929 28.301 9.35786 28.2869C11.086 27.615 10.9735 27.69 11.0516 27.5463C11.0777 27.5083 11.0941 27.4646 11.0996 27.4189C11.105 27.3731 11.0993 27.3268 11.0829 27.2838Z" fill="black"/>
<path d="M18.2485 20.5681L19.0047 21.3244C19.034 21.3566 19.0697 21.3823 19.1096 21.4C19.1494 21.4176 19.1924 21.4267 19.236 21.4267C19.2795 21.4267 19.3226 21.4176 19.3624 21.4C19.4022 21.3823 19.4379 21.3566 19.4672 21.3244L21.061 19.7306C21.0932 19.7013 21.119 19.6656 21.1366 19.6258C21.1542 19.586 21.1633 19.5429 21.1633 19.4994C21.1633 19.4558 21.1542 19.4128 21.1366 19.3729C21.119 19.3331 21.0932 19.2974 21.061 19.2681L20.2954 18.5244C20.2453 18.4754 20.2122 18.4116 20.2009 18.3425C20.1897 18.2733 20.2009 18.2023 20.2329 18.14C20.3829 17.8565 20.5084 17.5606 20.6079 17.2556C20.6284 17.1885 20.6697 17.1296 20.7259 17.0875C20.7821 17.0453 20.8502 17.0221 20.9204 17.0212H21.9954C22.0782 17.0212 22.1577 16.9883 22.2163 16.9297C22.2749 16.8711 22.3079 16.7916 22.3079 16.7087V14.4431C22.3079 14.3602 22.2749 14.2808 22.2163 14.2221C22.1577 14.1635 22.0782 14.1306 21.9954 14.1306H20.9204C20.8502 14.1297 20.7821 14.1065 20.7259 14.0644C20.6697 14.0223 20.6284 13.9634 20.6079 13.8962C20.5114 13.5916 20.3891 13.2957 20.2422 13.0119C20.2102 12.9495 20.1991 12.8786 20.2103 12.8094C20.2215 12.7402 20.2546 12.6765 20.3047 12.6275L21.061 11.8712C21.0932 11.842 21.119 11.8062 21.1366 11.7664C21.1542 11.7266 21.1633 11.6835 21.1633 11.64C21.1633 11.5964 21.1542 11.5534 21.1366 11.5136C21.119 11.4737 21.0932 11.438 21.061 11.4087L19.4672 9.81499C19.4379 9.78277 19.4022 9.75702 19.3624 9.7394C19.3226 9.72178 19.2795 9.71268 19.236 9.71268C19.1924 9.71268 19.1494 9.72178 19.1096 9.7394C19.0697 9.75702 19.034 9.78277 19.0047 9.81499L18.2485 10.5681C18.1995 10.6182 18.1357 10.6513 18.0666 10.6626C17.9974 10.6738 17.9265 10.6626 17.8641 10.6306C17.5806 10.4805 17.2847 10.3551 16.9797 10.2556C16.9126 10.2351 16.8537 10.1938 16.8116 10.1376C16.7695 10.0814 16.7463 10.0133 16.7454 9.94312V8.86499C16.7475 8.82266 16.741 8.78033 16.7262 8.7406C16.7115 8.70086 16.6888 8.66454 16.6595 8.63385C16.6303 8.60315 16.5951 8.57873 16.5562 8.56206C16.5172 8.54538 16.4752 8.53681 16.4329 8.53687H14.1829C14.1405 8.53681 14.0985 8.54538 14.0596 8.56206C14.0206 8.57873 13.9854 8.60315 13.9562 8.63385C13.9269 8.66454 13.9043 8.70086 13.8895 8.7406C13.8748 8.78033 13.8682 8.82266 13.8704 8.86499V9.94312C13.8695 10.0133 13.8463 10.0814 13.8041 10.1376C13.762 10.1938 13.7031 10.2351 13.636 10.2556C13.3313 10.3521 13.0354 10.4744 12.7516 10.6212C12.6893 10.6532 12.6183 10.6644 12.5492 10.6532C12.48 10.6419 12.4162 10.6088 12.3672 10.5587L11.611 9.80249C11.5817 9.77027 11.546 9.74452 11.5062 9.7269C11.4663 9.70928 11.4233 9.70018 11.3797 9.70018C11.3362 9.70018 11.2931 9.70928 11.2533 9.7269C11.2135 9.74452 11.1778 9.77027 11.1485 9.80249L9.55474 11.3962C9.52251 11.4255 9.49677 11.4612 9.47915 11.5011C9.46153 11.5409 9.45243 11.5839 9.45243 11.6275C9.45243 11.671 9.46153 11.7141 9.47915 11.7539C9.49677 11.7937 9.52251 11.8295 9.55474 11.8587L10.2954 12.6119C10.3446 12.6614 10.3771 12.7251 10.3883 12.794C10.3996 12.863 10.3889 12.9337 10.3579 12.9962C10.2078 13.2798 10.0823 13.5756 9.98286 13.8806C9.96233 13.9478 9.921 14.0066 9.86484 14.0488C9.80867 14.0909 9.74057 14.1141 9.67036 14.115H8.58911C8.54678 14.1129 8.50446 14.1194 8.46472 14.1341C8.42498 14.1489 8.38866 14.1716 8.35797 14.2008C8.32728 14.23 8.30285 14.2652 8.28618 14.3042C8.2695 14.3432 8.26093 14.3851 8.26099 14.4275V16.6775C8.26093 16.7199 8.2695 16.7618 8.28618 16.8008C8.30285 16.8398 8.32728 16.8749 8.35797 16.9042C8.38866 16.9334 8.42498 16.9561 8.46472 16.9708C8.50446 16.9856 8.54678 16.9921 8.58911 16.99H9.67036C9.74057 16.9909 9.80867 17.0141 9.86484 17.0562C9.921 17.0983 9.96233 17.1572 9.98286 17.2244C10.0793 17.529 10.2016 17.8249 10.3485 18.1087C10.3795 18.1713 10.3902 18.242 10.379 18.311C10.3678 18.3799 10.3352 18.4436 10.286 18.4931L9.52974 19.2494C9.49751 19.2787 9.47177 19.3144 9.45415 19.3542C9.43653 19.394 9.42743 19.4371 9.42743 19.4806C9.42743 19.5242 9.43653 19.5672 9.45415 19.6071C9.47177 19.6469 9.49751 19.6826 9.52974 19.7119L11.1235 21.3056C11.1528 21.3378 11.1885 21.3636 11.2283 21.3812C11.2681 21.3988 11.3112 21.4079 11.3547 21.4079C11.3983 21.4079 11.4413 21.3988 11.4812 21.3812C11.521 21.3636 11.5567 21.3378 11.586 21.3056L12.336 20.5681C12.3855 20.5189 12.4492 20.4863 12.5181 20.4751C12.5871 20.4639 12.6578 20.4746 12.7204 20.5056C13.0039 20.6557 13.2998 20.7811 13.6047 20.8806C13.6719 20.9011 13.7308 20.9425 13.7729 20.9986C13.815 21.0548 13.8382 21.1229 13.8391 21.1931V22.2681C13.8391 22.351 13.872 22.4305 13.9306 22.4891C13.9892 22.5477 14.0687 22.5806 14.1516 22.5806H16.4016C16.4845 22.5806 16.564 22.5477 16.6226 22.4891C16.6812 22.4305 16.7141 22.351 16.7141 22.2681V21.1931C16.715 21.1229 16.7382 21.0548 16.7803 20.9986C16.8225 20.9425 16.8813 20.9011 16.9485 20.8806C17.2532 20.7842 17.549 20.6618 17.8329 20.515C17.8978 20.4752 17.9744 20.4587 18.05 20.4684C18.1256 20.478 18.1956 20.5132 18.2485 20.5681ZM15.2954 18.3806C14.7391 18.3806 14.1953 18.2157 13.7328 17.9066C13.2703 17.5976 12.9098 17.1583 12.697 16.6444C12.4841 16.1305 12.4284 15.565 12.5369 15.0194C12.6454 14.4739 12.9133 13.9727 13.3066 13.5794C13.7 13.186 14.2011 12.9182 14.7467 12.8097C15.2922 12.7011 15.8577 12.7568 16.3717 12.9697C16.8856 13.1826 17.3248 13.5431 17.6339 14.0056C17.9429 14.4681 18.1079 15.0119 18.1079 15.5681C18.1079 16.314 17.8115 17.0294 17.2841 17.5569C16.7567 18.0843 16.0413 18.3806 15.2954 18.3806Z" fill="black"/>
<path d="M27.4016 19.9431C27.381 19.897 27.349 19.8569 27.3085 19.8268C27.268 19.7967 27.2204 19.7776 27.1703 19.7712C27.0453 19.7462 26.9328 19.8212 25.4766 20.3962C25.4382 20.4112 25.4031 20.4336 25.3734 20.4621C25.3437 20.4906 25.3199 20.5247 25.3034 20.5624C25.2868 20.6002 25.2779 20.6408 25.277 20.6819C25.2762 20.7231 25.2835 20.7641 25.2984 20.8024C25.3134 20.8408 25.3358 20.8759 25.3643 20.9056C25.3929 20.9353 25.4269 20.9591 25.4647 20.9756C25.5024 20.9922 25.543 21.0011 25.5842 21.002C25.6254 21.0028 25.6663 20.9955 25.7047 20.9806L26.5453 20.6306C25.7445 22.393 24.5427 23.9438 23.036 25.1592C21.5292 26.3746 19.7592 27.2209 17.8672 27.6306C17.9176 27.8349 17.9407 28.0451 17.9359 28.2556C19.9341 27.8328 21.8053 26.9473 23.3993 25.6703C24.9933 24.3933 26.2656 22.7603 27.1141 20.9024L27.4266 21.7181C27.4564 21.7938 27.5145 21.8548 27.5887 21.8883C27.6628 21.9218 27.7471 21.925 27.8236 21.8974C27.9001 21.8697 27.9628 21.8133 27.9984 21.7401C28.0339 21.667 28.0396 21.5828 28.0141 21.5056C27.2922 19.6306 27.4359 20.0056 27.4016 19.9431Z" fill="black"/>
<path d="M3.17356 11.1931C3.19117 11.2373 3.21861 11.2768 3.25381 11.3088C3.28901 11.3407 3.33104 11.3642 3.37669 11.3775C3.52356 11.415 3.47356 11.4119 5.11419 10.7712C5.15265 10.7564 5.1878 10.7341 5.2176 10.7056C5.24741 10.6771 5.27127 10.643 5.28783 10.6052C5.30439 10.5674 5.31331 10.5268 5.31408 10.4855C5.31485 10.4443 5.30745 10.4033 5.29231 10.365C5.27746 10.3265 5.25514 10.2914 5.22665 10.2616C5.19815 10.2318 5.16404 10.2079 5.12627 10.1913C5.08851 10.1748 5.04784 10.1659 5.00662 10.1651C4.96539 10.1643 4.92442 10.1717 4.88606 10.1869L4.04544 10.5056C4.84555 8.74327 6.04671 7.19245 7.55296 5.97704C9.05921 4.76162 10.8288 3.91527 12.7204 3.50562C12.6715 3.30097 12.6484 3.091 12.6517 2.88062C10.6531 3.30253 8.78156 4.18805 7.1879 5.4658C5.59424 6.74355 4.32302 8.3778 3.47669 10.2369L3.16419 9.41812C3.15109 9.37844 3.13018 9.34179 3.10267 9.31034C3.07517 9.27889 3.04163 9.25327 3.00406 9.235C2.96648 9.21674 2.92562 9.20619 2.8839 9.20399C2.84217 9.20179 2.80043 9.20797 2.76114 9.22219C2.72185 9.2364 2.68581 9.25834 2.65514 9.28673C2.62448 9.31511 2.59983 9.34935 2.58263 9.38743C2.56543 9.42551 2.55605 9.46665 2.55502 9.50842C2.554 9.55019 2.56137 9.59174 2.57669 9.63062C2.58919 9.68062 3.18919 11.2119 3.17356 11.1931Z" fill="black"/>
<path d="M15.7564 30.1853C16.8398 29.9296 17.5108 28.844 17.2551 27.7606C16.9994 26.6771 15.9138 26.0061 14.8304 26.2618C13.7469 26.5176 13.0759 27.6031 13.3317 28.6866C13.5874 29.77 14.673 30.441 15.7564 30.1853Z" fill="black"/>
<path d="M27.9485 17.5837C29.0617 17.5837 29.9641 16.6813 29.9641 15.5681C29.9641 14.4549 29.0617 13.5525 27.9485 13.5525C26.8353 13.5525 25.9329 14.4549 25.9329 15.5681C25.9329 16.6813 26.8353 17.5837 27.9485 17.5837Z" fill="black"/>
<path d="M15.7588 4.87768C16.8423 4.62196 17.5133 3.53637 17.2576 2.45294C17.0018 1.36951 15.9163 0.698514 14.8328 0.954227C13.7494 1.20994 13.0784 2.29553 13.3341 3.37896C13.5898 4.46239 14.6754 5.13339 15.7588 4.87768Z" fill="black"/>
<path d="M3.10381 17.5303C4.18724 17.2746 4.85824 16.189 4.60252 15.1055C4.34681 14.0221 3.26122 13.3511 2.17779 13.6068C1.09436 13.8625 0.423361 14.9481 0.679074 16.0315C0.934787 17.115 2.02038 17.786 3.10381 17.5303Z" fill="black"/>
</g>
<defs>
<clipPath id="clip0_265_1206">
<rect width="30" height="30" fill="white" transform="translate(0.29541 0.568115)"/>
</clipPath>
</defs>
</svg>
