<svg width="57" height="56" viewBox="0 0 57 56" fill="none" xmlns="http://www.w3.org/2000/svg">
<g clip-path="url(#clip0_268_3155)">
<path d="M28.5 56C43.964 56 56.5 43.464 56.5 28C56.5 12.536 43.964 0 28.5 0C13.036 0 0.5 12.536 0.5 28C0.5 43.464 13.036 56 28.5 56Z" fill="url(#paint0_linear_268_3155)"/>
<path d="M34.4476 12.4443H22.5632C17.2618 12.4443 12.9561 16.7501 12.9561 22.0514V33.9359C12.9561 39.2372 17.2618 43.543 22.5632 43.543H34.4476C39.7489 43.543 44.0547 39.2372 44.0547 33.9359V22.0514C44.0547 16.7501 39.7489 12.4443 34.4476 12.4443ZM40.5827 33.9483C40.5827 37.3332 37.8325 40.0959 34.4352 40.0959H22.5507C19.1658 40.0959 16.4032 37.3457 16.4032 33.9483V22.0639C16.4032 18.679 19.1534 15.9163 22.5507 15.9163H34.4352C37.8201 15.9163 40.5827 18.6666 40.5827 22.0639V33.9483Z" fill="white"/>
<path d="M28.4999 20.0483C24.1194 20.0483 20.5479 23.6199 20.5479 28.0003C20.5479 32.3808 24.1194 35.9523 28.4999 35.9523C32.8803 35.9523 36.4518 32.3808 36.4518 28.0003C36.4518 23.6199 32.8803 20.0483 28.4999 20.0483ZM28.4999 32.8288C25.8367 32.8288 23.6714 30.6634 23.6714 28.0003C23.6714 25.3372 25.8367 23.1719 28.4999 23.1719C31.163 23.1719 33.3283 25.3372 33.3283 28.0003C33.3283 30.6634 31.163 32.8288 28.4999 32.8288Z" fill="white"/>
<path d="M37.0584 20.9195C37.791 20.8007 38.2886 20.1105 38.1699 19.3779C38.0511 18.6453 37.3609 18.1476 36.6283 18.2664C35.8957 18.3852 35.398 19.0754 35.5168 19.808C35.6356 20.5406 36.3257 21.0382 37.0584 20.9195Z" fill="white"/>
</g>
<defs>
<linearGradient id="paint0_linear_268_3155" x1="7.18005" y1="49.3199" x2="46.9712" y2="9.52884" gradientUnits="userSpaceOnUse">
<stop stop-color="#FEE411"/>
<stop offset="0.0518459" stop-color="#FEDB16"/>
<stop offset="0.1381" stop-color="#FEC125"/>
<stop offset="0.2481" stop-color="#FE983D"/>
<stop offset="0.3762" stop-color="#FE5F5E"/>
<stop offset="0.5" stop-color="#FE2181"/>
<stop offset="1" stop-color="#9000DC"/>
</linearGradient>
<clipPath id="clip0_268_3155">
<rect width="56" height="56" fill="white" transform="translate(0.5)"/>
</clipPath>
</defs>
</svg>
