<svg width="56" height="56" viewBox="0 0 56 56" fill="none" xmlns="http://www.w3.org/2000/svg">
<g clip-path="url(#clip0_268_3173)">
<path d="M27.998 55.9995C43.462 55.9995 55.998 43.4635 55.998 27.9995C55.998 12.5355 43.462 -0.000488281 27.998 -0.000488281C12.5341 -0.000488281 -0.00195312 12.5355 -0.00195312 27.9995C-0.00195312 43.4635 12.5341 55.9995 27.998 55.9995Z" fill="#007AB9"/>
<path d="M44.7282 30.2526V41.7964H38.0354V31.0263C38.0354 28.322 37.0691 26.4752 34.6458 26.4752C32.7965 26.4752 31.698 27.7186 31.2128 28.9224C31.0366 29.3527 30.9912 29.9501 30.9912 30.5536V41.7959H24.2979C24.2979 41.7959 24.3877 23.5548 24.2979 21.6666H30.9917V24.5192C30.9782 24.5416 30.9592 24.5636 30.9473 24.585H30.9917V24.5192C31.8811 23.1505 33.4674 21.194 37.0236 21.194C41.4269 21.194 44.7282 24.0709 44.7282 30.2526ZM17.2962 11.9636C15.0067 11.9636 13.5088 13.4665 13.5088 15.441C13.5088 17.3737 14.9632 18.9199 17.2083 18.9199H17.2517C19.5862 18.9199 21.0376 17.3737 21.0376 15.441C20.9932 13.4665 19.5862 11.9636 17.2962 11.9636ZM13.9066 41.7964H20.5974V21.6666H13.9066V41.7964Z" fill="#F1F2F2"/>
</g>
<defs>
<clipPath id="clip0_268_3173">
<rect width="56" height="56" fill="white"/>
</clipPath>
</defs>
</svg>
