<svg width="57" height="56" viewBox="0 0 57 56" fill="none" xmlns="http://www.w3.org/2000/svg">
<g clip-path="url(#clip0_268_3184)">
<path d="M28.5 55.9998C43.9616 55.9998 56.5 43.4614 56.5 27.9998C56.5 12.5382 43.9616 -0.000244141 28.5 -0.000244141C13.0384 -0.000244141 0.5 12.5382 0.5 27.9998C0.5 43.4614 13.0384 55.9998 28.5 55.9998Z" fill="#FFFC00"/>
<mask id="mask0_268_3184" style="mask-type:luminance" maskUnits="userSpaceOnUse" x="13" y="13" width="31" height="30">
<path d="M13.5312 13.9438H43.4745V42.0558H13.5312V13.9438Z" fill="white"/>
</mask>
<g mask="url(#mask0_268_3184)">
<path d="M28.6736 41.7255C28.5952 41.7255 28.5224 41.7255 28.4552 41.7143C28.4048 41.7143 28.3544 41.7255 28.304 41.7255C26.568 41.7255 25.4592 40.9359 24.3784 40.1743C23.6392 39.6423 22.928 39.1551 22.1104 39.0151C21.7128 38.9479 21.2984 38.9143 20.9232 38.9143C20.2232 38.9143 19.6744 39.0263 19.2768 39.1047C19.036 39.1551 18.8176 39.1943 18.6552 39.1943C18.4872 39.1943 18.308 39.1551 18.224 38.8863C18.1568 38.6567 18.1064 38.4271 18.056 38.2087C17.9384 37.6487 17.8488 37.3015 17.608 37.2623C14.8584 36.8311 14.0688 36.2543 13.8896 35.8455C13.8672 35.7839 13.8504 35.7279 13.8504 35.6663C13.8392 35.5039 13.9512 35.3639 14.108 35.3471C18.336 34.6471 20.2344 30.3295 20.3128 30.1391C20.3128 30.1279 20.3128 30.1279 20.324 30.1167C20.5816 29.5959 20.632 29.1367 20.4752 28.7671C20.184 28.0895 19.2376 27.7759 18.616 27.5855C18.4648 27.5351 18.3136 27.4959 18.2072 27.4455C16.9584 26.9583 16.8464 26.4487 16.8968 26.1855C16.9752 25.7431 17.5688 25.4351 18.0448 25.4351C18.1736 25.4351 18.2968 25.4575 18.3864 25.5079C18.9464 25.7655 19.456 25.9055 19.8928 25.9055C20.492 25.9055 20.7608 25.6535 20.7944 25.6143C20.772 25.3231 20.7664 25.0263 20.744 24.7239C20.6152 22.7247 20.464 20.2383 21.0912 18.8215C22.9896 14.5767 27.0048 14.2463 28.192 14.2463C28.22 14.2463 28.7128 14.2351 28.7128 14.2351H28.7856C29.9728 14.2351 33.9992 14.5655 35.8976 18.8215C36.5248 20.2383 36.3792 22.7303 36.2448 24.7239L36.2336 24.8135C36.2112 25.0935 36.2056 25.3623 36.1832 25.6255C36.2112 25.6535 36.452 25.8831 37.0008 25.9167C37.4208 25.8943 37.9024 25.7655 38.4176 25.5191C38.5688 25.4519 38.748 25.4295 38.86 25.4295C39.0392 25.4295 39.2184 25.4575 39.3696 25.5303H39.3808C39.812 25.6815 40.0808 25.9783 40.092 26.2919C40.1032 26.5831 39.8736 27.0199 38.7704 27.4623C38.6584 27.5015 38.5128 27.5519 38.3616 27.6023C37.7344 27.8039 36.7936 28.1007 36.5024 28.7839C36.34 29.1535 36.3904 29.6127 36.6536 30.1335C36.6536 30.1447 36.6536 30.1447 36.6648 30.1559C36.7432 30.3351 38.6416 34.6639 42.8696 35.3583C43.032 35.3863 43.1384 35.5263 43.1272 35.6775C43.1272 35.7391 43.1048 35.7951 43.088 35.8567C42.92 36.2655 42.1304 36.8479 39.3696 37.2679C39.1512 37.2959 39.0616 37.5983 38.9216 38.2087C38.8712 38.4271 38.8208 38.6455 38.7536 38.8807C38.692 39.0823 38.5744 39.1719 38.3616 39.1719H38.3336C38.1824 39.1719 37.9864 39.1439 37.712 39.0935C37.2416 39.0039 36.7208 38.9143 36.0656 38.9143C35.6736 38.9143 35.276 38.9423 34.8784 39.0151C34.0496 39.1551 33.3496 39.6423 32.6104 40.1743C31.524 40.9359 30.404 41.7255 28.6736 41.7255Z" fill="white"/>
</g>
<mask id="mask1_268_3184" style="mask-type:luminance" maskUnits="userSpaceOnUse" x="13" y="13" width="31" height="30">
<path d="M13.5312 13.9438H43.4745V42.0558H13.5312V13.9438Z" fill="white"/>
</mask>
<g mask="url(#mask1_268_3184)">
<path d="M28.7744 13.9438H28.7072H28.1864C26.96 13.9438 22.7712 14.2854 20.8056 18.7094C20.1448 20.199 20.3072 22.7246 20.4248 24.7518C20.4472 24.9926 20.4528 25.239 20.464 25.4798C20.3632 25.5414 20.1728 25.6086 19.8872 25.6086C19.4952 25.6086 19.036 25.491 18.5096 25.239C18.3696 25.1774 18.2072 25.1382 18.0392 25.1382C17.4288 25.1382 16.7008 25.5358 16.5888 26.135C16.5104 26.5662 16.7008 27.1934 18.0896 27.7422C18.2184 27.7926 18.3696 27.843 18.5208 27.8934C19.092 28.0726 19.96 28.3526 20.1896 28.9014C20.3072 29.1926 20.2568 29.5622 20.0496 29.999C20.0496 30.0102 20.0384 30.0214 20.0384 30.027C19.96 30.2062 18.1288 34.3726 14.0744 35.0446C13.7664 35.095 13.5368 35.375 13.5536 35.6943C13.5648 35.7838 13.5816 35.8846 13.6208 35.9742C13.9288 36.6854 15.2112 37.2118 17.5576 37.5702C17.636 37.6822 17.72 38.0518 17.7648 38.2814C17.8152 38.4998 17.8656 38.7406 17.9328 38.9814C18 39.2222 18.1848 39.5134 18.6608 39.5134C18.8512 39.5134 19.0808 39.4742 19.3384 39.4126C19.7304 39.3342 20.268 39.2334 20.9288 39.2334C21.2984 39.2334 21.6904 39.2614 22.0656 39.3342C22.8272 39.463 23.4656 39.911 24.2048 40.443C25.2744 41.1934 26.4728 42.0502 28.3096 42.0502C28.36 42.0502 28.4104 42.0502 28.4608 42.039C28.5224 42.039 28.6008 42.0502 28.6792 42.0502C30.516 42.0502 31.7144 41.199 32.784 40.443C33.5344 39.911 34.1728 39.463 34.9232 39.3342C35.3152 39.2726 35.6904 39.2334 36.06 39.2334C36.6984 39.2334 37.1968 39.3118 37.6504 39.4014C37.9304 39.463 38.16 39.4798 38.328 39.4798H38.3504H38.3728C38.72 39.4798 38.9608 39.3006 39.0616 38.959C39.1288 38.7182 39.1792 38.4886 39.2296 38.2703C39.28 38.0406 39.3584 37.671 39.4368 37.559C41.772 37.2006 43.0656 36.6686 43.3736 35.963C43.4128 35.8734 43.4352 35.7726 43.4408 35.683C43.4632 35.3638 43.2336 35.0838 42.92 35.0334C38.8544 34.3614 37.0232 30.1894 36.956 30.0158C36.956 30.0046 36.9448 29.9934 36.9448 29.9878C36.7264 29.551 36.676 29.1814 36.8048 28.8902C37.0344 28.3414 37.9024 28.0614 38.4736 27.8822C38.636 27.8318 38.7816 27.7814 38.9048 27.731C39.9128 27.3334 40.4224 26.8406 40.4112 26.275C40.4 25.827 40.0528 25.4238 39.504 25.2334C39.3136 25.155 39.0952 25.1158 38.8824 25.1158C38.7312 25.1158 38.5128 25.1382 38.3112 25.2334C37.8296 25.463 37.3928 25.5806 37.0232 25.603C36.7712 25.5918 36.6144 25.5358 36.5248 25.4742C36.536 25.267 36.5472 25.0542 36.564 24.8358L36.5752 24.7462C36.704 22.719 36.8664 20.1878 36.1944 18.7038C34.2008 14.2798 30.012 13.9438 28.7744 13.9438ZM28.7744 14.5598C29.9056 14.5598 33.7808 14.8622 35.6064 18.9558C36.2056 20.3054 36.0544 22.7526 35.9256 24.7126C35.9032 25.0206 35.8864 25.323 35.8752 25.6142L35.864 25.7318L35.9424 25.8214C35.9704 25.8606 36.2896 26.1798 36.984 26.2134H36.9952H37.0064C37.4656 26.191 37.9864 26.051 38.5464 25.7934C38.6248 25.7542 38.7368 25.7318 38.8544 25.7318C38.9832 25.7318 39.1232 25.7598 39.2464 25.799L39.2688 25.8102C39.5712 25.911 39.7672 26.1126 39.7784 26.2918C39.7784 26.3926 39.7112 26.751 38.6584 27.1598C38.5576 27.199 38.4176 27.2382 38.2664 27.2886C37.5888 27.507 36.5584 27.8262 36.2056 28.6494C36.004 29.1086 36.0656 29.6462 36.368 30.2566C36.4856 30.5478 38.4344 34.9214 42.8024 35.6438C42.8024 35.6662 42.7912 35.683 42.78 35.7166C42.7128 35.8846 42.2312 36.495 39.3024 36.943C38.8432 37.0102 38.7312 37.531 38.6024 38.1246C38.552 38.3318 38.5128 38.5558 38.44 38.7743C38.4176 38.8414 38.4176 38.8414 38.3392 38.8414H38.3112C38.1824 38.8414 37.9808 38.8134 37.7512 38.7743C37.3312 38.6959 36.76 38.595 36.0432 38.595C35.6344 38.595 35.2144 38.6342 34.8056 38.6958C33.904 38.847 33.176 39.3678 32.4088 39.9054C31.3672 40.6334 30.3032 41.3951 28.6624 41.3951C28.5952 41.3951 28.5224 41.395 28.4552 41.3838H28.4328H28.4104H28.2928C26.652 41.3838 25.588 40.6222 24.5464 39.8942C23.7792 39.3454 23.0456 38.8358 22.1496 38.6846C21.7296 38.6174 21.3096 38.5838 20.912 38.5838C20.184 38.5838 19.6128 38.6959 19.204 38.7743C18.9744 38.8246 18.7728 38.8526 18.644 38.8526C18.532 38.8526 18.532 38.8414 18.5152 38.7743C18.448 38.5558 18.4032 38.3262 18.3528 38.1134C18.224 37.5142 18.112 36.9935 17.6528 36.9263C14.724 36.4783 14.2536 35.8678 14.1752 35.6998C14.164 35.6718 14.1528 35.6494 14.1528 35.6326C18.5264 34.9158 20.4696 30.5366 20.5872 30.2454C20.8896 29.635 20.9344 29.0974 20.7496 28.6382C20.4024 27.8206 19.372 27.5014 18.6888 27.2774C18.5264 27.227 18.3976 27.1878 18.2968 27.1486C17.4176 26.8014 17.1376 26.4486 17.1768 26.2414C17.2272 25.9894 17.6472 25.743 18.0168 25.743C18.0952 25.743 18.1792 25.7542 18.224 25.7822C18.8232 26.0622 19.3832 26.2134 19.8648 26.2134C20.6264 26.2134 20.9624 25.8662 21.0016 25.8214L21.08 25.7318L21.0688 25.6142C21.0464 25.323 21.0408 25.0262 21.0184 24.7126C20.9008 22.747 20.7384 20.3054 21.3376 18.9558C23.1576 14.8678 27.0216 14.5598 28.164 14.5598H28.6848H28.7744Z" fill="black"/>
</g>
</g>
<defs>
<clipPath id="clip0_268_3184">
<rect width="56" height="56" fill="white" transform="translate(0.5)"/>
</clipPath>
</defs>
</svg>
