<svg width="56" height="56" viewBox="0 0 56 56" fill="none" xmlns="http://www.w3.org/2000/svg">
<g clip-path="url(#clip0_268_3179)">
<path d="M28 0C22.4621 0 17.0486 1.64217 12.444 4.71885C7.83947 7.79553 4.25064 12.1685 2.13139 17.2849C0.0121319 22.4012 -0.542361 28.0311 0.538025 33.4625C1.61841 38.894 4.28515 43.8831 8.20102 47.799C12.1169 51.7149 17.106 54.3816 22.5375 55.462C27.969 56.5424 33.5988 55.9879 38.7151 53.8686C43.8315 51.7494 48.2045 48.1605 51.2812 43.556C54.3578 38.9514 56 33.5379 56 28C56 20.5739 53.05 13.452 47.799 8.20101C42.548 2.94999 35.4261 0 28 0ZM40.6221 24.8795C38.1242 25.1558 35.9837 24.1684 33.8432 22.9084C33.8432 23.1147 33.9058 29.5105 33.799 32.5611C33.6921 35.6963 32.5721 38.4558 30.1147 40.5153C24.9053 44.8884 17.5111 42.5268 15.7463 35.84C14.7884 32.1963 15.6211 28.9137 18.48 26.3163C20.09 24.8426 22.0758 24.1868 24.2053 23.9142C24.6621 23.8553 25.1226 23.8295 25.6163 23.7853V28.7368C24.99 28.8916 24.3563 29.0279 23.7337 29.2121C23.3018 29.3369 22.8804 29.4958 22.4737 29.6874C21.9063 29.9426 21.4052 30.325 21.0094 30.8049C20.6135 31.2849 20.3335 31.8496 20.191 32.4552C20.0485 33.0608 20.0474 33.6911 20.1877 34.2973C20.3279 34.9034 20.6059 35.4691 21 35.9505C21.4739 36.6058 22.1185 37.1186 22.8636 37.433C23.6087 37.7474 24.4257 37.8514 25.2258 37.7337C26.8358 37.5384 27.8453 36.5253 28.4421 35.07C28.8548 33.9183 29.0339 32.6959 28.969 31.4742C28.9469 25.4616 28.9469 19.4526 28.9358 13.44C28.9409 13.3782 28.9496 13.3167 28.9616 13.2558H33.7695C34.3074 17.2789 36.3484 19.8284 40.6221 20.1895V24.8795Z" fill="black"/>
</g>
<defs>
<clipPath id="clip0_268_3179">
<rect width="56" height="56" fill="white"/>
</clipPath>
</defs>
</svg>
