<svg width="27" height="27" viewBox="0 0 27 27" fill="none" xmlns="http://www.w3.org/2000/svg">
<path d="M19.3707 24.6597C19.4723 24.8657 19.3877 25.1152 19.1817 25.2169C17.3487 26.124 15.3398 26.59 13.295 26.59C9.94179 26.59 6.7366 25.3353 4.27468 23.0595L4.32171 23.6454C4.3397 23.8749 4.16827 24.0755 3.93881 24.0935C3.70936 24.1115 3.50873 23.9401 3.49075 23.7106L3.35467 22.0148C3.33449 21.7571 3.55435 21.5434 3.80957 21.5673L5.49845 21.7029C5.7279 21.7208 5.89933 21.9215 5.88134 22.1509C5.86336 22.3804 5.66273 22.5518 5.43328 22.5338L4.88411 22.4898C7.18999 24.6003 10.1687 25.7558 13.295 25.7558C15.2125 25.7558 17.0944 25.3214 18.8134 24.4707C19.0195 24.369 19.269 24.4536 19.3707 24.6597ZM7.77658 2.11928C9.49565 1.26855 11.3776 0.834196 13.295 0.834196C16.4213 0.834196 19.4001 1.98971 21.7058 4.10033L21.1566 4.05628C20.9272 4.03829 20.7265 4.20972 20.7086 4.43917C20.6906 4.66863 20.862 4.86925 21.0914 4.88724L22.7804 5.0228C23.0355 5.04683 23.2555 4.83286 23.2353 4.5753L23.0993 2.87949C23.0813 2.65003 22.8806 2.47866 22.6512 2.49659C22.4217 2.51458 22.2503 2.7152 22.2683 2.94466L22.3153 3.53063C19.8533 1.25468 16.6482 0 13.295 0C11.2502 0 9.24133 0.465898 7.40834 1.37303C7.20229 1.4747 7.11767 1.72418 7.21934 1.93023C7.32101 2.13632 7.57054 2.22094 7.77658 2.11928ZM15.8246 12.2324C15.2664 12.2324 14.8139 12.6849 14.8139 13.2432C14.8139 13.8014 15.2664 14.254 15.8246 14.254C16.3829 14.254 16.8354 13.8014 16.8354 13.2432C16.8355 12.6849 16.3829 12.2324 15.8246 12.2324ZM11.7761 13.2432C11.7761 12.6849 11.3236 12.2324 10.7654 12.2324C10.2071 12.2324 9.75457 12.6849 9.75457 13.2432C9.75457 13.8014 10.2071 14.254 10.7654 14.254C11.3236 14.254 11.7761 13.8014 11.7761 13.2432ZM14.685 15.3277H11.905C11.5781 15.3277 11.3107 15.5951 11.3107 15.922C11.3107 16.2489 11.5781 16.5164 11.905 16.5164H14.685C15.0119 16.5164 15.2794 16.2489 15.2794 15.922C15.2794 15.5951 15.0119 15.3277 14.685 15.3277ZM21.9361 19.4645L19.4645 21.936L18.2239 20.6953C17.2761 21.3279 16.1998 21.783 15.0426 22.0138V23.7675H11.5474V22.0138C10.3901 21.7831 9.31406 21.3278 8.36615 20.6953L7.12544 21.936L4.65398 19.4644L5.89464 18.2237C5.262 17.2759 4.80695 16.1997 4.57614 15.0426H2.82245V11.5474H4.57619C4.8069 10.3901 5.26216 9.31401 5.89469 8.3661L4.65403 7.12544L7.1256 4.65398L8.36615 5.89453C9.31396 5.2619 10.3902 4.80679 11.5474 4.57598V2.82245H15.0426V4.57609C16.1999 4.80674 17.276 5.26206 18.224 5.89459L19.4646 4.65398L21.9361 7.12555L20.6955 8.3661C21.3282 9.3139 21.7833 10.3902 22.0141 11.5474H23.7677V15.0426H22.0139C21.7832 16.1999 21.3279 17.276 20.6954 18.2238L21.9361 19.4645ZM12.2852 9.75504H14.3048C14.1468 9.35149 13.7529 9.06375 13.295 9.06375C12.8371 9.06375 12.4433 9.35144 12.2852 9.75504ZM7.19015 14.97V13.4456C7.19015 13.1602 7.22294 12.8821 7.28503 12.615H7.12675C6.91111 12.615 6.73467 12.7914 6.73467 13.007V15.4085C6.73467 15.6242 6.91111 15.8006 7.12675 15.8006H7.28503C7.22299 15.5334 7.19015 15.2553 7.19015 14.97ZM8.24931 9.52105C8.24931 9.1028 7.91026 8.7637 7.49202 8.7637C7.07377 8.7637 6.73467 9.10275 6.73467 9.52105C6.73467 9.78517 6.86992 10.0177 7.07492 10.1532V11.782C7.09213 11.7812 7.10938 11.7808 7.12675 11.7808H7.58973C7.68211 11.5995 7.7892 11.4267 7.90912 11.264V10.1533C8.11407 10.0177 8.24931 9.78517 8.24931 9.52105ZM18.5657 13.4455C18.5657 11.8745 17.2804 10.5892 15.7094 10.5892H10.8807C9.30973 10.5892 8.02439 11.8745 8.02439 13.4455V14.97C8.02439 16.541 9.30973 17.8263 10.8807 17.8263H15.7094C17.2804 17.8263 18.5657 16.5409 18.5657 14.97V13.4455ZM19.8554 13.007C19.8554 12.7914 19.6789 12.6149 19.4634 12.6149H19.3051C19.3671 12.8821 19.3999 13.1602 19.3999 13.4455V14.9699C19.3999 15.2553 19.3671 15.5333 19.3051 15.8005H19.4634C19.679 15.8005 19.8554 15.624 19.8554 15.4084V13.007ZM19.8554 9.52105C19.8554 9.1028 19.5163 8.7637 19.0981 8.7637C18.6798 8.7637 18.3407 9.10275 18.3407 9.52105C18.3407 9.78517 18.476 10.0177 18.681 10.1532V11.264C18.801 11.4267 18.908 11.5994 19.0004 11.7808H19.4633C19.4807 11.7808 19.4979 11.7812 19.5151 11.7819V10.1532C19.7201 10.0177 19.8554 9.78517 19.8554 9.52105ZM0.834196 13.295C0.834196 10.1688 1.98971 7.18988 4.10033 4.88417L4.05628 5.43333C4.03829 5.66278 4.20972 5.86341 4.43917 5.8814C4.66863 5.89938 4.86925 5.72796 4.88724 5.4985L5.0228 3.80957C5.04678 3.55441 4.83281 3.33449 4.5753 3.35467L2.87949 3.49075C2.65003 3.50873 2.47861 3.70936 2.49659 3.93881C2.51458 4.16827 2.7152 4.3397 2.94466 4.32171L3.53063 4.27468C1.25474 6.7366 0 9.94184 0 13.295C0 15.3398 0.465899 17.3487 1.37309 19.1817C1.47475 19.3878 1.72423 19.4724 1.93028 19.3707C2.13632 19.269 2.22094 19.0196 2.11928 18.8135C1.26855 17.0945 0.834196 15.2124 0.834196 13.295ZM23.6454 22.2683L23.0595 22.3153C25.3353 19.8533 26.59 16.6483 26.59 13.295C26.59 11.2502 26.1241 9.24133 25.217 7.40834C25.1153 7.20229 24.8658 7.11767 24.6598 7.21934C24.4537 7.32101 24.3691 7.57049 24.4708 7.77653C25.3215 9.4955 25.7558 11.3776 25.7558 13.295C25.7558 16.4213 24.6003 19.4 22.4897 21.7058L22.5338 21.1566C22.5518 20.9272 22.3803 20.7265 22.1509 20.7086C21.9214 20.6906 21.7208 20.862 21.7028 21.0914L21.5673 22.7804C21.5434 23.0356 21.7571 23.2555 22.0147 23.2353L23.7106 23.0992C23.94 23.0812 24.1114 22.8806 24.0935 22.6511C24.0755 22.4217 23.8749 22.2503 23.6454 22.2683Z" fill="#007DFE"/>
</svg>
