<svg width="27" height="27" viewBox="0 0 27 27" fill="none" xmlns="http://www.w3.org/2000/svg">
<path d="M24.7504 0H1.83527C0.819011 0 0 0.823299 0 1.83527V4.52814H26.5857V1.83527C26.5857 0.823299 25.7667 0 24.7504 0ZM2.57281 3.12167C2.10113 3.12167 1.71521 2.73575 1.71521 2.26407C1.71521 1.79239 2.10113 1.40647 2.57281 1.40647C3.04449 1.40647 3.43041 1.79239 3.43041 2.26407C3.43041 2.73575 3.04449 3.12167 2.57281 3.12167ZM5.94747 3.12167C5.47579 3.12167 5.08987 2.73575 5.08987 2.26407C5.08987 1.79239 5.47579 1.40647 5.94747 1.40647C6.41916 1.40647 6.80508 1.79239 6.80508 2.26407C6.80508 2.73575 6.42344 3.12167 5.94747 3.12167ZM9.32214 3.12167C8.85046 3.12167 8.46454 2.73575 8.46454 2.26407C8.46454 1.79239 8.85046 1.40647 9.32214 1.40647C9.79382 1.40647 10.1797 1.79239 10.1797 2.26407C10.1797 2.73575 9.79811 3.12167 9.32214 3.12167Z" fill="#007DFE"/>
<path d="M2.47421 15.2739H9.03916L5.75883 9.8324L2.47421 15.2739Z" fill="#007DFE"/>
<path d="M8.79904 13.2156L10.0426 15.2739H11.5305L9.54515 11.9807L8.79904 13.2156Z" fill="#007DFE"/>
<path d="M11.1917 10.2826C11.7838 10.2826 12.2637 9.80269 12.2637 9.21064C12.2637 8.61859 11.7838 8.13864 11.1917 8.13864C10.5997 8.13864 10.1197 8.61859 10.1197 9.21064C10.1197 9.80269 10.5997 10.2826 11.1917 10.2826Z" fill="#007DFE"/>
<path d="M19.429 22.4563L21.9504 20.621C22.2077 20.4324 22.2077 20.0465 21.9504 19.8578L19.429 18.0225C19.116 17.7952 18.6786 18.0182 18.6786 18.4041V22.079C18.6786 22.4606 19.116 22.6836 19.429 22.4563Z" fill="#007DFE"/>
<path d="M2.79749e-05 25.0506C2.79749e-05 26.0625 0.819039 26.8858 1.8353 26.8858H24.7547C25.7667 26.8858 26.59 26.0668 26.59 25.0506V5.38144H2.79749e-05V25.0506ZM15.7971 7.52545H24.8705C25.1063 7.52545 25.2993 7.71841 25.2993 7.95425C25.2993 8.19009 25.1063 8.38305 24.8705 8.38305H15.7971C15.5612 8.38305 15.3683 8.19009 15.3683 7.95425C15.3683 7.71841 15.5612 7.52545 15.7971 7.52545ZM15.7971 9.37787H24.8705C25.1063 9.37787 25.2993 9.57083 25.2993 9.80667C25.2993 10.0425 25.1063 10.2355 24.8705 10.2355H15.7971C15.5612 10.2355 15.3683 10.0425 15.3683 9.80667C15.3683 9.57083 15.5612 9.37787 15.7971 9.37787ZM15.7971 11.226H24.8705C25.1063 11.226 25.2993 11.419 25.2993 11.6548C25.2993 11.8906 25.1063 12.0836 24.8705 12.0836H15.7971C15.5612 12.0836 15.3683 11.8906 15.3683 11.6548C15.3683 11.419 15.5612 11.226 15.7971 11.226ZM19.9393 15.3082C22.6622 15.3082 24.8705 17.5165 24.8705 20.2394C24.8705 22.9623 22.6622 25.1706 19.9393 25.1706C17.2164 25.1706 15.0081 22.9623 15.0081 20.2394C15.0081 17.5165 17.2164 15.3082 19.9393 15.3082ZM1.71523 7.09665H13.3357V15.6984H1.71523V7.09665ZM1.71523 17.5037H13.2929C13.5287 17.5037 13.7217 17.6966 13.7217 17.9325C13.7217 18.1683 13.5287 18.3613 13.2929 18.3613H1.71523C1.47939 18.3613 1.28643 18.1683 1.28643 17.9325C1.28643 17.6966 1.47939 17.5037 1.71523 17.5037ZM1.71523 19.3432H13.2929C13.5287 19.3432 13.7217 19.5362 13.7217 19.772C13.7217 20.0079 13.5287 20.2008 13.2929 20.2008H1.71523C1.47939 20.2008 1.28643 20.0079 1.28643 19.772C1.28643 19.5362 1.47939 19.3432 1.71523 19.3432ZM1.71523 21.1785H13.2929C13.5287 21.1785 13.7217 21.3714 13.7217 21.6073C13.7217 21.8431 13.5287 22.0361 13.2929 22.0361H1.71523C1.47939 22.0361 1.28643 21.8431 1.28643 21.6073C1.28643 21.3714 1.47939 21.1785 1.71523 21.1785ZM1.71523 23.0138H10.7201C10.9559 23.0138 11.1489 23.2067 11.1489 23.4426C11.1489 23.6784 10.9559 23.8714 10.7201 23.8714H1.71523C1.47939 23.8714 1.28643 23.6784 1.28643 23.4426C1.28643 23.2067 1.47939 23.0138 1.71523 23.0138Z" fill="#007DFE"/>
</svg>
