<svg width="27" height="25" viewBox="0 0 27 25" fill="none" xmlns="http://www.w3.org/2000/svg">
<path d="M10.4239 10.7788H8.87273L8.37636 8.97509H10.1757L10.4239 10.7788ZM9.1032 11.6501L9.59958 13.4539H10.7873L10.5391 11.6501H9.1032ZM11.3192 10.7788H12.9412V8.97509H11.071L11.3192 10.7788ZM11.6826 13.4539H12.9412V11.6501H11.4344L11.6826 13.4539ZM13.8276 13.4539H15.0952L15.3433 11.6501H13.8276V13.4539ZM13.8276 10.7788H15.4586L15.7067 8.97509H13.8276L13.8276 10.7788ZM15.9904 13.4539H16.5045C16.9034 13.4539 17.2579 13.1925 17.3643 12.8091L17.6745 11.6501H16.2297L15.9904 13.4539ZM18.2063 8.97509H16.602L16.3538 10.7788H17.9139L18.3482 9.15805C18.3659 9.09704 18.3393 9.05349 18.3216 9.02738C18.3039 9.00993 18.2684 8.97509 18.2063 8.97509ZM11.9219 17.4012C11.9219 17.5841 11.5851 17.5841 11.5851 17.4012C11.5851 17.314 11.6648 17.2356 11.7535 17.2356C11.8421 17.2356 11.9219 17.314 11.9219 17.4012ZM15.8751 17.4012C15.8751 17.5841 15.5472 17.5841 15.5472 17.4012C15.5472 17.314 15.6181 17.2356 15.7156 17.2356C15.8043 17.2356 15.8751 17.314 15.8751 17.4012ZM15.8751 17.4012C15.8751 17.5841 15.5472 17.5841 15.5472 17.4012C15.5472 17.314 15.6181 17.2356 15.7156 17.2356C15.8043 17.2356 15.8751 17.314 15.8751 17.4012ZM11.9219 17.4012C11.9219 17.5841 11.5851 17.5841 11.5851 17.4012C11.5851 17.314 11.6648 17.2356 11.7535 17.2356C11.8421 17.2356 11.9219 17.314 11.9219 17.4012ZM11.9219 17.4012C11.9219 17.5841 11.5851 17.5841 11.5851 17.4012C11.5851 17.314 11.6648 17.2356 11.7535 17.2356C11.8421 17.2356 11.9219 17.314 11.9219 17.4012ZM15.8751 17.4012C15.8751 17.5841 15.5472 17.5841 15.5472 17.4012C15.5472 17.314 15.6181 17.2356 15.7156 17.2356C15.8043 17.2356 15.8751 17.314 15.8751 17.4012ZM15.8751 17.4012C15.8751 17.5841 15.5472 17.5841 15.5472 17.4012C15.5472 17.314 15.6181 17.2356 15.7156 17.2356C15.8043 17.2356 15.8751 17.314 15.8751 17.4012ZM11.9219 17.4012C11.9219 17.5841 11.5851 17.5841 11.5851 17.4012C11.5851 17.314 11.6648 17.2356 11.7535 17.2356C11.8421 17.2356 11.9219 17.314 11.9219 17.4012ZM11.9219 17.4012C11.9219 17.5841 11.5851 17.5841 11.5851 17.4012C11.5851 17.314 11.6648 17.2356 11.7535 17.2356C11.8421 17.2356 11.9219 17.314 11.9219 17.4012ZM15.8751 17.4012C15.8751 17.5841 15.5472 17.5841 15.5472 17.4012C15.5472 17.314 15.6181 17.2356 15.7156 17.2356C15.8043 17.2356 15.8751 17.314 15.8751 17.4012ZM15.8751 17.4012C15.8751 17.5841 15.5472 17.5841 15.5472 17.4012C15.5472 17.314 15.6181 17.2356 15.7156 17.2356C15.8043 17.2356 15.8751 17.314 15.8751 17.4012ZM11.9219 17.4012C11.9219 17.5841 11.5851 17.5841 11.5851 17.4012C11.5851 17.314 11.6648 17.2356 11.7535 17.2356C11.8421 17.2356 11.9219 17.314 11.9219 17.4012ZM11.9219 17.4012C11.9219 17.5841 11.5851 17.5841 11.5851 17.4012C11.5851 17.314 11.6648 17.2356 11.7535 17.2356C11.8421 17.2356 11.9219 17.314 11.9219 17.4012ZM15.8751 17.4012C15.8751 17.5841 15.5472 17.5841 15.5472 17.4012C15.5472 17.314 15.6181 17.2356 15.7156 17.2356C15.8043 17.2356 15.8751 17.314 15.8751 17.4012ZM15.8751 17.4012C15.8751 17.5841 15.5472 17.5841 15.5472 17.4012C15.5472 17.314 15.6181 17.2356 15.7156 17.2356C15.8043 17.2356 15.8751 17.314 15.8751 17.4012ZM11.9219 17.4012C11.9219 17.5841 11.5851 17.5841 11.5851 17.4012C11.5851 17.314 11.6648 17.2356 11.7535 17.2356C11.8421 17.2356 11.9219 17.314 11.9219 17.4012ZM24.9163 3.5639V18.107L22.3635 15.9896C22.1153 15.7891 21.8051 15.6758 21.4949 15.6758C20.7415 15.6758 20.1387 16.2771 20.1387 17.009V20.8953H1.97662C0.886386 20.8953 0 20.024 0 18.9522V3.5639H24.9163ZM12.8083 17.4012C12.8083 16.8348 12.3385 16.3642 11.7535 16.3642C11.1684 16.3642 10.6987 16.8348 10.6987 17.4012C10.6987 17.9762 11.1684 18.4381 11.7535 18.4381C12.3385 18.4381 12.8083 17.9762 12.8083 17.4012ZM16.7615 17.4012C16.7615 16.8348 16.2918 16.3642 15.7156 16.3642C15.1306 16.3642 14.6608 16.8348 14.6608 17.4012C14.6608 17.9762 15.1306 18.4381 15.7156 18.4381C16.2918 18.4381 16.7615 17.9762 16.7615 17.4012ZM19.0307 8.50452C18.8268 8.25184 18.5343 8.10373 18.2063 8.10373H8.13702L7.87998 7.13647C7.747 6.64851 7.29494 6.30867 6.772 6.30867H6.11608C5.86787 6.30867 5.67289 6.5004 5.67289 6.74435C5.67289 6.98836 5.86787 7.18003 6.11608 7.18003H6.772C6.88723 7.18003 6.9936 7.25848 7.02016 7.36304L9.13863 15.1443C9.2893 15.7194 9.82117 16.1115 10.4239 16.1115H17.5239C17.772 16.1115 17.9671 15.9198 17.9671 15.6758C17.9671 15.4406 17.772 15.2401 17.5239 15.2401H10.4239C10.2201 15.2401 10.0428 15.1095 9.98959 14.9177L9.83004 14.3252H16.5045C17.3023 14.3252 18.0114 13.7937 18.2152 13.0356L19.208 9.37588C19.2878 9.07093 19.2257 8.74853 19.0307 8.50452ZM15.8751 17.4012C15.8751 17.5841 15.5472 17.5841 15.5472 17.4012C15.5472 17.314 15.6181 17.2356 15.7156 17.2356C15.8043 17.2356 15.8751 17.314 15.8751 17.4012ZM11.9219 17.4012C11.9219 17.5841 11.5851 17.5841 11.5851 17.4012C11.5851 17.314 11.6648 17.2356 11.7535 17.2356C11.8421 17.2356 11.9219 17.314 11.9219 17.4012ZM11.9219 17.4012C11.9219 17.5841 11.5851 17.5841 11.5851 17.4012C11.5851 17.314 11.6648 17.2356 11.7535 17.2356C11.8421 17.2356 11.9219 17.314 11.9219 17.4012ZM15.8751 17.4012C15.8751 17.5841 15.5472 17.5841 15.5472 17.4012C15.5472 17.314 15.6181 17.2356 15.7156 17.2356C15.8043 17.2356 15.8751 17.314 15.8751 17.4012ZM15.8751 17.4012C15.8751 17.5841 15.5472 17.5841 15.5472 17.4012C15.5472 17.314 15.6181 17.2356 15.7156 17.2356C15.8043 17.2356 15.8751 17.314 15.8751 17.4012ZM11.9219 17.4012C11.9219 17.5841 11.5851 17.5841 11.5851 17.4012C11.5851 17.314 11.6648 17.2356 11.7535 17.2356C11.8421 17.2356 11.9219 17.314 11.9219 17.4012ZM11.9219 17.4012C11.9219 17.5841 11.5851 17.5841 11.5851 17.4012C11.5851 17.314 11.6648 17.2356 11.7535 17.2356C11.8421 17.2356 11.9219 17.314 11.9219 17.4012ZM15.8751 17.4012C15.8751 17.5841 15.5472 17.5841 15.5472 17.4012C15.5472 17.314 15.6181 17.2356 15.7156 17.2356C15.8043 17.2356 15.8751 17.314 15.8751 17.4012ZM15.8751 17.4012C15.8751 17.5841 15.5472 17.5841 15.5472 17.4012C15.5472 17.314 15.6181 17.2356 15.7156 17.2356C15.8043 17.2356 15.8751 17.314 15.8751 17.4012ZM11.9219 17.4012C11.9219 17.5841 11.5851 17.5841 11.5851 17.4012C11.5851 17.314 11.6648 17.2356 11.7535 17.2356C11.8421 17.2356 11.9219 17.314 11.9219 17.4012ZM11.9219 17.4012C11.9219 17.5841 11.5851 17.5841 11.5851 17.4012C11.5851 17.314 11.6648 17.2356 11.7535 17.2356C11.8421 17.2356 11.9219 17.314 11.9219 17.4012ZM15.8751 17.4012C15.8751 17.5841 15.5472 17.5841 15.5472 17.4012C15.5472 17.314 15.6181 17.2356 15.7156 17.2356C15.8043 17.2356 15.8751 17.314 15.8751 17.4012ZM24.9163 1.93446V2.69254H0V1.93446C0 0.862644 0.886386 0 1.97662 0H22.9397C24.0299 0 24.9163 0.862644 24.9163 1.93446ZM7.06447 1.55978C7.06447 1.33321 6.87836 1.15021 6.64789 1.15021H2.09186C1.86139 1.15021 1.67528 1.33321 1.67528 1.55978C1.67528 1.78634 1.86139 1.96929 2.09186 1.96929H6.64789C6.87836 1.96929 7.06447 1.78634 7.06447 1.55978ZM19.5803 1.55978C19.5803 1.32449 19.3853 1.1241 19.1371 1.1241C18.8978 1.1241 18.6939 1.32449 18.6939 1.55978C18.6939 1.80373 18.8978 1.99546 19.1371 1.99546C19.3853 1.99546 19.5803 1.80373 19.5803 1.55978ZM21.4151 1.55978C21.4151 1.32449 21.2112 1.1241 20.9719 1.1241C20.7237 1.1241 20.5287 1.32449 20.5287 1.55978C20.5287 1.80373 20.7237 1.99546 20.9719 1.99546C21.2112 1.99546 21.4151 1.80373 21.4151 1.55978ZM23.241 1.55978C23.241 1.32449 23.046 1.1241 22.7978 1.1241C22.5497 1.1241 22.3546 1.32449 22.3546 1.55978C22.3546 1.80373 22.5497 1.99546 22.7978 1.99546C23.046 1.99546 23.241 1.80373 23.241 1.55978ZM15.8751 17.4012C15.8751 17.5841 15.5472 17.5841 15.5472 17.4012C15.5472 17.314 15.6181 17.2356 15.7156 17.2356C15.8043 17.2356 15.8751 17.314 15.8751 17.4012ZM11.9219 17.4012C11.9219 17.5841 11.5851 17.5841 11.5851 17.4012C11.5851 17.314 11.6648 17.2356 11.7535 17.2356C11.8421 17.2356 11.9219 17.314 11.9219 17.4012ZM11.9219 17.4012C11.9219 17.5841 11.5851 17.5841 11.5851 17.4012C11.5851 17.314 11.6648 17.2356 11.7535 17.2356C11.8421 17.2356 11.9219 17.314 11.9219 17.4012ZM11.9219 17.4012C11.9219 17.5841 11.5851 17.5841 11.5851 17.4012C11.5851 17.314 11.6648 17.2356 11.7535 17.2356C11.8421 17.2356 11.9219 17.314 11.9219 17.4012ZM26.4233 20.4974L21.7904 16.6572C21.4868 16.4054 21.0223 16.6177 21.0224 17.0082L21.024 22.9655C21.0241 23.3552 21.4862 23.5683 21.791 23.3192L23.0632 22.2797L23.7679 23.7694C23.9621 24.18 24.4581 24.3581 24.8758 24.1672C25.2934 23.9763 25.4746 23.4886 25.2804 23.0781L24.5757 21.5883L26.2041 21.3019C26.5943 21.2332 26.7263 20.7486 26.4233 20.4974Z" fill="#007DFE"/>
</svg>
