<svg width="27" height="27" viewBox="0 0 27 27" fill="none" xmlns="http://www.w3.org/2000/svg">
<g clip-path="url(#clip0_169_763)">
<path d="M21.1892 24.8811C21.1892 26.0496 20.2388 27 19.0703 27H7.52026C6.35175 27 5.40137 26.0496 5.40137 24.8811V24.0943H21.1892V24.8811Z" fill="#007DFE"/>
<path d="M5.40137 22.5363H21.1892V20.9757H5.40137V22.5363Z" fill="#007DFE"/>
<path d="M5.40137 2.52889C5.40137 1.36038 6.35175 0.409999 7.52026 0.409999H19.0703C20.2388 0.409999 21.1892 1.36038 21.1892 2.52889V5.39562H5.40137V2.52889ZM11.971 4.04535H14.6196C15.0496 4.04535 15.3986 3.69636 15.3986 3.26635C15.3986 2.83634 15.0496 2.48734 14.6196 2.48734H11.971C11.541 2.48734 11.192 2.83634 11.192 3.26635C11.192 3.69636 11.541 4.04535 11.971 4.04535Z" fill="#007DFE"/>
<path d="M22.3835 19.4177H4.20674C3.77673 19.4177 3.42773 19.0687 3.42773 18.6387V7.73264C3.42773 7.30263 3.77673 6.95363 4.20674 6.95363H22.3835C22.8135 6.95363 23.1625 7.30263 23.1625 7.73264V18.6387C23.1625 19.0687 22.8135 19.4177 22.3835 19.4177ZM10.4704 12.1003C10.7748 11.7964 10.7748 11.3031 10.4704 10.9987C10.3183 10.8466 10.1189 10.7708 9.91943 10.7708C9.72001 10.7708 9.52058 10.8466 9.36842 10.9987L7.73251 12.6346C7.4287 12.939 7.4287 13.4323 7.73251 13.7362L9.36842 15.3721C9.67275 15.6764 10.1661 15.6764 10.4704 15.3721C10.7748 15.0683 10.7748 14.5749 10.4704 14.2706L9.38504 13.1857L10.4704 12.1003ZM14.7789 15.8478L13.3211 10.1382C13.221 9.72538 12.7789 9.46659 12.3733 9.57628C11.9568 9.68274 11.7049 10.107 11.8114 10.5235L13.2692 16.2331C13.3717 16.6433 13.7988 16.9042 14.2169 16.795C14.6334 16.6886 14.8853 16.2643 14.7789 15.8478ZM18.8577 12.6346L17.2218 10.9987C17.0696 10.8466 16.8702 10.7708 16.6708 10.7708C16.4714 10.7708 16.272 10.8466 16.1198 10.9987C15.816 11.3031 15.816 11.7964 16.1198 12.1008L17.2052 13.1857L16.1198 14.2706C15.816 14.5749 15.816 15.0683 16.1198 15.3726C16.4241 15.6764 16.9175 15.6764 17.2218 15.3726L18.8577 13.7367C19.1615 13.4323 19.1615 12.939 18.8577 12.6346Z" fill="#007DFE"/>
</g>
<defs>
<clipPath id="clip0_169_763">
<rect width="26.59" height="26.59" fill="white" transform="matrix(1 0 0 -1 0 27)"/>
</clipPath>
</defs>
</svg>
