<svg width="27" height="27" viewBox="0 0 27 27" fill="none" xmlns="http://www.w3.org/2000/svg">
<path d="M15.3291 7.32148C16.0461 7.32148 16.6274 6.7402 16.6274 6.02315C16.6274 5.30609 16.0461 4.72481 15.3291 4.72481C14.612 4.72481 14.0307 5.30609 14.0307 6.02315C14.0307 6.7402 14.612 7.32148 15.3291 7.32148Z" fill="#007DFE"/>
<path d="M1.29876 11.9951H2.07019V14.9605C2.07019 15.2755 2.26 15.5596 2.55109 15.6802C2.64748 15.7201 2.7487 15.7395 2.84903 15.7395C3.05178 15.7395 3.251 15.6604 3.40005 15.5113L6.91626 11.9952H20.0555C20.7714 11.9952 21.3539 11.4127 21.3539 10.6968V1.29834C21.3539 0.582435 20.7714 0 20.0555 0H1.29876C0.582859 0 0.000424195 0.582435 0.000424195 1.29834V10.6968C0.000424195 11.4127 0.582859 11.9951 1.29876 11.9951ZM3.37024 8.00806C3.08133 7.68924 3.10559 7.19659 3.42441 6.90769C3.74312 6.61883 4.23582 6.64298 4.52478 6.96185C4.60127 7.0463 4.89023 7.3218 5.39534 7.3218C5.69131 7.3218 5.84991 7.15073 5.86549 7.06343C5.87474 7.01176 5.76064 6.88816 5.48653 6.7871C4.8342 6.54649 4.25441 6.28838 4.23005 6.27752C4.1925 6.2608 4.15641 6.24112 4.12198 6.21868C3.59833 5.87727 3.32848 5.27884 3.41771 4.65704C3.51191 4.00096 3.98747 3.46776 4.65882 3.26553C5.3298 3.06341 6.01158 3.17086 6.68532 3.58503C7.05186 3.81032 7.16633 4.29008 6.94104 4.65663C6.71575 5.02317 6.23594 5.13763 5.86944 4.91235C5.57529 4.73157 5.34766 4.68519 5.1082 4.75732C5.02121 4.7835 4.96715 4.82764 4.95988 4.87849C4.95878 4.88607 4.95873 4.89178 4.95946 4.89625C5.1433 4.97597 5.57056 5.15758 6.0256 5.32543C6.51523 5.50605 6.88677 5.77548 7.12997 6.12629C7.37889 6.48536 7.47445 6.91548 7.39914 7.33739C7.23955 8.23116 6.39677 8.87992 5.39523 8.87992C4.61041 8.87986 3.87228 8.56208 3.37024 8.00806ZM10.7789 5.24451C11.2091 5.24451 11.5579 5.5933 11.5579 6.02352C11.5579 6.45373 11.2091 6.80252 10.7789 6.80252H9.95121V7.3029H10.9068C11.3371 7.3029 11.6858 7.65169 11.6858 8.0819C11.6858 8.51212 11.3371 8.86091 10.9068 8.86091H9.17221C8.74199 8.86091 8.3932 8.51212 8.3932 8.0819V3.96513C8.3932 3.53491 8.74199 3.18613 9.17221 3.18613H10.9068C11.3371 3.18613 11.6858 3.53491 11.6858 3.96513C11.6858 4.39535 11.3371 4.74413 10.9068 4.74413H9.95121V5.24451H10.7789ZM12.4731 6.02352C12.4731 4.44853 13.7545 3.16717 15.3295 3.16717C16.9044 3.16717 18.1858 4.44853 18.1858 6.02352C18.1858 7.59851 16.9044 8.87986 15.3295 8.87986C13.7545 8.87986 12.4731 7.59851 12.4731 6.02352Z" fill="#007DFE"/>
<path d="M25.811 25.0315H25.0276V14.7426C25.0276 14.0267 24.4451 13.4443 23.7292 13.4443H21.643C20.9271 13.4443 20.3447 14.0267 20.3447 14.7426V25.0315H18.7669V18.2296C18.7669 17.5137 18.1844 16.9313 17.4685 16.9313H15.3823C14.6664 16.9313 14.084 17.5137 14.084 18.2296V25.0315H12.5061V16.7754C12.5061 16.0595 11.9237 15.4771 11.2078 15.4771H9.12156C8.40566 15.4771 7.82323 16.0595 7.82323 16.7754V25.0315H6.24543V20.3129C6.24543 19.597 5.663 19.0146 4.94709 19.0146H2.86076C2.14486 19.0146 1.56242 19.597 1.56242 20.3129V25.0315H0.779004C0.348786 25.0315 0 25.3803 0 25.8105C0 26.2407 0.348786 26.5895 0.779004 26.5895H25.811C26.2412 26.5895 26.59 26.2407 26.59 25.8105C26.59 25.3803 26.2412 25.0315 25.811 25.0315Z" fill="#007DFE"/>
</svg>
