<svg width="28" height="27" viewBox="0 0 28 27" fill="none" xmlns="http://www.w3.org/2000/svg">
<path d="M27.0232 6.2682V2.35775C27.0232 1.06401 25.9748 0.0114746 24.6861 0.0114746H2.76924C1.48055 0.0114746 0.432129 1.06401 0.432129 2.35775V6.2682H27.0232ZM18.4019 3.13984H23.0761C23.5063 3.13984 23.8551 3.49 23.8551 3.92193C23.8551 4.35385 23.5063 4.70402 23.0761 4.70402H18.4019C17.9716 4.70402 17.6228 4.35385 17.6228 3.92193C17.6228 3.49 17.9716 3.13984 18.4019 3.13984ZM10.6115 3.13984C11.0418 3.13984 11.3906 3.49 11.3906 3.92193C11.3906 4.35385 11.0418 4.70402 10.6115 4.70402C10.1813 4.70402 9.83249 4.35385 9.83249 3.92193C9.83249 3.49 10.1813 3.13984 10.6115 3.13984ZM7.49538 3.13984C7.92562 3.13984 8.27442 3.49 8.27442 3.92193C8.27442 4.35385 7.92562 4.70402 7.49538 4.70402C7.06515 4.70402 6.71635 4.35385 6.71635 3.92193C6.71635 3.49 7.06515 3.13984 7.49538 3.13984ZM4.37924 3.13984C4.80948 3.13984 5.15828 3.49 5.15828 3.92193C5.15828 4.35385 4.80948 4.70402 4.37924 4.70402C3.94901 4.70402 3.60021 4.35385 3.60021 3.92193C3.60021 3.49 3.94901 3.13984 4.37924 3.13984Z" fill="#007DFE"/>
<path d="M0.432129 7.83238V24.2563C0.432129 25.55 1.48055 26.6026 2.76924 26.6026H24.6861C25.9748 26.6026 27.0232 25.55 27.0232 24.2563V7.83238H0.432129ZM9.54009 18.953C9.87612 19.2228 9.93054 19.715 9.66178 20.0523C9.39306 20.3895 8.90274 20.4443 8.56682 20.1744L4.67164 17.046C4.28217 16.7334 4.28191 16.1376 4.67164 15.8246L8.56682 12.6963C8.90263 12.4264 9.39296 12.4811 9.66178 12.8184C9.93054 13.1557 9.87612 13.6478 9.54009 13.9176L6.40536 16.4354L9.54009 18.953ZM16.7808 11.2688L12.1066 22.2181C11.9371 22.615 11.4793 22.7991 11.0837 22.6289C10.6882 22.4587 10.505 21.9989 10.6745 21.6019L15.3487 10.6527C15.5183 10.2557 15.9762 10.0718 16.3717 10.2419C16.7671 10.412 16.9503 10.8718 16.7808 11.2688ZM22.7837 17.0461L18.8885 20.1744C18.5531 20.4439 18.0627 20.3901 17.7936 20.0523C17.5248 19.715 17.5792 19.2229 17.9152 18.9531L21.05 16.4354L17.9152 13.9177C17.5792 13.6479 17.5248 13.1558 17.7936 12.8185C18.0623 12.4812 18.5525 12.4265 18.8885 12.6964L22.7837 15.8247C23.1732 16.1374 23.1734 16.7331 22.7837 17.0461Z" fill="#007DFE"/>
</svg>
