<svg width="27" height="25" viewBox="0 0 27 25" fill="none" xmlns="http://www.w3.org/2000/svg">
<path d="M1.35203 9.14031V15.7878H3.15475V9.14031H3.77758C4.18049 9.14031 4.50678 8.83951 4.50678 8.46808C4.50678 8.3638 4.48064 8.26077 4.42971 8.16728L2.90552 5.35705C2.78204 5.12938 2.52966 4.98562 2.25339 4.98562C1.97712 4.98562 1.72474 5.12938 1.60126 5.35705L0.0770659 8.16728C0.0261393 8.26077 0 8.3638 0 8.46808C0 8.83951 0.326291 9.14031 0.729197 9.14031H1.35203Z" fill="#007DFE"/>
<path d="M7.91075 10.4308C8.03424 10.6584 8.28662 10.8022 8.56288 10.8022C8.83915 10.8022 9.09153 10.6584 9.21501 10.4308L10.7392 7.62053C10.7901 7.52705 10.8163 7.42401 10.8163 7.31973C10.8163 6.9483 10.49 6.6475 10.0871 6.6475H9.46424V0H7.66153V6.6475H7.03869C6.63578 6.6475 6.30949 6.9483 6.30949 7.31973C6.30949 7.42401 6.33563 7.52705 6.38656 7.62053L7.91075 10.4308Z" fill="#007DFE"/>
<path d="M14.8724 10.8022H24.7873V8.30937H14.8724V10.8022ZM17.5764 9.14031H18.4778V9.97125H17.5764V9.14031ZM15.7737 9.14031H16.6751V9.97125H15.7737V9.14031Z" fill="#007DFE"/>
<path d="M24.7873 1.66187H14.8724V4.15469H24.7873V1.66187ZM16.6751 3.32375H15.7737V2.49281H16.6751V3.32375ZM18.4778 3.32375H17.5764V2.49281H18.4778V3.32375Z" fill="#007DFE"/>
<path d="M17.0185 21.1947C16.9698 21.0792 16.8635 20.9891 16.7274 20.9479C16.1568 20.7747 15.7737 20.2869 15.7737 19.7339V19.3201C15.7737 18.7671 16.1568 18.2794 16.7265 18.1065C16.863 18.0654 16.9698 17.9753 17.0185 17.8589C17.0415 17.8049 17.0654 17.7505 17.0911 17.6969C17.1447 17.5831 17.1384 17.4509 17.0739 17.3338C16.8441 16.9141 16.8864 16.4235 17.1636 16.045C16.383 14.3914 14.5898 13.295 12.619 13.295C10.8505 13.295 9.20329 14.1737 8.31997 15.588L8.18476 15.804L7.64665 15.7878C6.06928 15.7878 4.64649 16.7729 4.20167 18.183L4.05926 18.6338L3.591 18.4489C3.30978 18.3371 3.01143 18.2806 2.70407 18.2806C1.46155 18.2806 0.450678 19.2125 0.450678 20.358C0.450678 21.5034 1.46155 22.4353 2.70407 22.4353H16.9365C16.9081 22.1952 16.95 21.9476 17.0744 21.7203C17.1388 21.6031 17.1447 21.471 17.0915 21.3576C17.0658 21.3036 17.0415 21.2496 17.0185 21.1947ZM9.10415 18.1149C8.75983 17.6919 8.23388 17.4497 7.66152 17.4497C6.80749 17.4497 6.06477 18.0085 5.89487 18.7788L5.01154 18.6134C5.26617 17.4576 6.3807 16.6187 7.66152 16.6187C8.52007 16.6187 9.3083 16.9823 9.82478 17.6155L9.10415 18.1149ZM12.619 14.9569C12.3513 14.9569 12.0858 14.9876 11.8303 15.0483L11.6054 14.2435C11.9344 14.1654 12.2756 14.1259 12.619 14.1259C14.4708 14.1259 16.086 15.2793 16.5471 16.9304L15.6746 17.1381C15.3158 15.8539 14.0593 14.9569 12.619 14.9569Z" fill="#007DFE"/>
<path d="M14.8724 7.47844H24.7873V4.98562H14.8724V7.47844ZM22.9846 5.81656H23.8859V6.6475H22.9846V5.81656ZM21.1819 5.81656H22.0832V6.6475H21.1819V5.81656Z" fill="#007DFE"/>
<path d="M26.257 18.8959C25.8635 18.7767 25.5534 18.5087 25.4065 18.1601C25.3876 18.1149 25.3678 18.0708 25.347 18.0268C25.1866 17.6865 25.201 17.2972 25.3862 16.9586C25.4809 16.7862 25.4448 16.578 25.2966 16.4413L24.9793 16.1489C24.8306 16.0117 24.6052 15.9781 24.4182 16.0662C24.0509 16.2369 23.6281 16.2502 23.259 16.1023C23.2117 16.0836 23.1635 16.0653 23.1153 16.0479C22.7372 15.9125 22.4465 15.6266 22.3171 15.2643C22.2518 15.0803 22.0665 14.9569 21.857 14.9569H21.4081C21.1985 14.9569 21.0138 15.0803 20.948 15.2639C20.8186 15.6266 20.5275 15.9125 20.1494 16.0479C20.1011 16.0653 20.0529 16.0832 20.0051 16.1023C19.6365 16.2502 19.2138 16.2373 18.8465 16.0662C18.659 15.9785 18.4336 16.0122 18.2854 16.1489L17.9681 16.4413C17.8198 16.578 17.7838 16.7862 17.8784 16.9586C18.0641 17.2972 18.078 17.6865 17.9176 18.0272C17.8973 18.0704 17.8775 18.1149 17.8586 18.1593C17.7112 18.5083 17.4011 18.7767 17.0081 18.8955C16.8089 18.9562 16.6751 19.1269 16.6751 19.3201V19.7339C16.6751 19.9271 16.8089 20.0975 17.0081 20.1581C17.4016 20.2774 17.7116 20.5453 17.8586 20.8939C17.8775 20.9392 17.8973 20.9832 17.9181 21.0273C18.0785 21.3676 18.0641 21.7569 17.8788 22.0955C17.7842 22.2679 17.8203 22.4756 17.9685 22.6123L18.2863 22.9052C18.4345 23.0419 18.6599 23.0751 18.8469 22.9879C19.0448 22.8957 19.2588 22.8495 19.4715 22.8495C19.6541 22.8495 19.8357 22.8836 20.006 22.9522C20.0529 22.9709 20.1011 22.9891 20.1494 23.0066C20.5279 23.1424 20.8191 23.4279 20.948 23.7902C21.0138 23.9742 21.1985 24.0976 21.4081 24.0976H21.857C22.0665 24.0976 22.2513 23.9742 22.3171 23.7906C22.4465 23.4279 22.7372 23.142 23.1153 23.0066C23.1644 22.9891 23.2122 22.9709 23.2599 22.9517C23.6286 22.8042 24.0518 22.8171 24.4186 22.9879C24.6057 23.0747 24.831 23.0419 24.9793 22.9052L25.297 22.6123C25.4453 22.4756 25.4813 22.2679 25.3867 22.0955C25.201 21.7569 25.187 21.3676 25.3475 21.0269C25.3678 20.9837 25.3876 20.9392 25.4065 20.8948C25.5539 20.5458 25.8635 20.2774 26.2565 20.1585C26.4561 20.0979 26.59 19.9275 26.59 19.7343V19.3201C26.59 19.1269 26.4562 18.9562 26.257 18.8959ZM21.6325 22.0198C20.139 22.0198 18.9285 20.9039 18.9285 19.527C18.9285 18.1502 20.139 17.0342 21.6325 17.0342C23.1261 17.0342 24.3366 18.1502 24.3366 19.527C24.3366 20.9039 23.1261 22.0198 21.6325 22.0198Z" fill="#007DFE"/>
<path d="M14.8724 12.8858C16.1388 13.3756 17.2006 14.2676 17.8378 15.4172C18.2507 15.1517 18.7919 15.1098 19.2534 15.3246C19.3805 15.384 19.5238 15.3894 19.6469 15.3404C19.705 15.3171 19.764 15.2947 19.8231 15.2735C19.9493 15.2282 20.0471 15.1301 20.0917 15.0051C20.2792 14.4791 20.8083 14.1259 21.4081 14.1259H21.857C22.4568 14.1259 22.9859 14.4791 23.1734 15.0042C23.218 15.1301 23.3163 15.2286 23.442 15.2735C23.5011 15.2947 23.5601 15.3171 23.6178 15.3404C23.7417 15.3898 23.885 15.384 24.0117 15.3246C24.2582 15.2099 24.5268 15.1713 24.7873 15.1974V11.6331H14.8724V12.8858ZM22.9846 12.4641H23.8859V13.295H22.9846V12.4641ZM21.1819 12.4641H22.0832V13.295H21.1819V12.4641Z" fill="#007DFE"/>
<path d="M25.238 0H14.4217C13.6763 0 13.0697 0.559221 13.0697 1.24641V12.4803C13.3757 12.5023 13.6767 12.5472 13.971 12.612V1.66187C13.971 1.20361 14.3753 0.830937 14.8724 0.830937H24.7873C25.2844 0.830937 25.6886 1.20361 25.6886 1.66187V15.6279L25.9338 15.8539C26.3584 16.2448 26.4616 16.8398 26.1907 17.3334C26.1263 17.4505 26.1204 17.5826 26.1736 17.6961C26.1993 17.7501 26.2231 17.8045 26.2461 17.8593C26.2948 17.9748 26.4012 18.065 26.5373 18.1061C26.5553 18.1115 26.572 18.1203 26.5895 18.1265V1.24641C26.59 0.559221 25.9834 0 25.238 0Z" fill="#007DFE"/>
<path d="M21.6325 20.358C22.1303 20.358 22.5339 19.9859 22.5339 19.527C22.5339 19.0681 22.1303 18.6961 21.6325 18.6961C21.1347 18.6961 20.7312 19.0681 20.7312 19.527C20.7312 19.9859 21.1347 20.358 21.6325 20.358Z" fill="#007DFE"/>
</svg>
