<?xml version="1.0" encoding="utf-8"?>
<!-- Generator: Adobe Illustrator 24.2.3, SVG Export Plug-In . SVG Version: 6.00 Build 0)  -->
<svg version="1.1" id="Layer_1" xmlns="http://www.w3.org/2000/svg" xmlns:xlink="http://www.w3.org/1999/xlink" x="0px" y="0px"
	 viewBox="0 0 590.3 107.1" style="enable-background:new 0 0 590.3 107.1;" xml:space="preserve">
<style type="text/css">
	.st0{fill:#FFFFFF;}
</style>
<g>
	<g>
		<path class="st0" d="M101.1,55.3c-0.1,0.8-0.8,1.4-1.6,1.4l-85.8,0.6c-3.3,0-6.1,2.3-6.7,5.6L0.1,99c-0.7,3.8,1.8,7.4,5.6,8
			c3.7,0.6,7.2-2,7.9-5.7L19,72.8c0.2-1.2,1.2-2,2.4-2l85.1-0.6c3.3,0,6.1-2.3,6.7-5.5l3.3-17.2l-13.9,0.1L101.1,55.3z"/>
		<path class="st0" d="M156.6,32.2l-15-10.6c-2-1.4-5.2,0.2-5.7,2.8l-0.7,3.8l-15,0.1l3.8-20c0.3-1.7,0.1-3.5-0.9-5
			c-1.3-2.1-3.5-3.3-5.9-3.3L24.5,0.6c-3.3,0-6.1,2.3-6.7,5.6l-5.4,28.1c-0.3,1.7-0.1,3.5,0.9,5c1.3,2.1,3.5,3.3,5.9,3.3l92.7-0.6
			c0,0,0,0,0,0l20.6-0.1l-0.8,4c-0.5,2.6,2.2,4.1,4.7,2.7l19.1-10.8C157.9,36.4,158.4,33.5,156.6,32.2z M27.8,26.9l2.2-11.3
			c0.1-0.8,0.8-1.4,1.6-1.4l75.5-0.5c1.1,0,1.8,0.9,1.7,2l-2.4,12.6l-76.9,0.5C28.4,28.8,27.6,27.9,27.8,26.9z"/>
	</g>
	<polygon class="st0" points="101.5,53.3 115.5,53.2 116.5,47.6 102.6,47.6 	"/>
</g>
<g>
	<path class="st0" d="M179.3,19.5l3-19.1h6.8c1.5,0,2.6,0.3,3.5,0.8c0.8,0.5,1.4,1.3,1.8,2.2c0.4,1,0.5,2.2,0.5,3.6
		c0,0.5,0,1.1-0.1,1.7c-0.1,0.6-0.1,1.1-0.2,1.6c-0.2,1.3-0.5,2.6-0.9,3.7s-1,2.1-1.6,2.9s-1.5,1.5-2.4,1.9s-2.1,0.7-3.4,0.7H179.3z
		 M181,18.1h5.3c1.1,0,2-0.2,2.8-0.6s1.4-1,2-1.8c0.5-0.7,1-1.6,1.3-2.6c0.3-1,0.6-2,0.8-3.2c0.1-0.6,0.2-1.1,0.2-1.6
		c0.1-0.5,0.1-1,0.1-1.4c0-1.1-0.1-2.1-0.4-2.9c-0.3-0.8-0.7-1.4-1.4-1.8c-0.7-0.4-1.6-0.6-2.8-0.6h-5.1L181,18.1z"/>
	<path class="st0" d="M201.9,19.5l3-19.1h1.5l-3,19.1H201.9z"/>
	<path class="st0" d="M218.3,19.6c-1.8,0-3.1-0.5-3.8-1.4c-0.8-0.9-1.1-2.4-1.1-4.5c0-0.6,0-1.3,0.1-2c0.1-0.7,0.2-1.5,0.3-2.2
		c0.3-1.9,0.8-3.5,1.4-4.9s1.5-2.5,2.5-3.2c1.1-0.8,2.4-1.2,4-1.2c1.4,0,2.5,0.1,3.5,0.2c1,0.2,1.8,0.4,2.5,0.6l-0.2,1.1
		C226.9,2,226,1.8,225,1.7c-1-0.1-2.1-0.2-3.3-0.2c-1.4,0-2.5,0.3-3.3,1c-0.8,0.7-1.5,1.6-2,2.8c-0.5,1.2-0.9,2.7-1.2,4.6
		c-0.2,1.6-0.4,2.9-0.4,3.9c0,1.5,0.3,2.6,0.9,3.4c0.6,0.7,1.6,1.1,3,1.1c0.5,0,0.9,0,1.5-0.1c0.5-0.1,1.1-0.2,1.6-0.3
		c0.5-0.1,1-0.2,1.4-0.4c0.4-0.1,0.8-0.2,1-0.4l1-6.3h-5l0.2-1.1c0.5-0.1,1.1-0.1,1.8-0.1c0.7,0,1.6,0,2.6,0c0.2,0,0.4,0,0.7,0
		c0.2,0,0.5,0,0.7,0c0.2,0,0.5,0,0.7,0l-1.6,9.9h-1.1l-0.1-1.4c-0.2,0.1-0.6,0.2-1,0.4c-0.4,0.2-0.9,0.3-1.5,0.5
		c-0.6,0.2-1.1,0.3-1.7,0.4C219.4,19.6,218.9,19.6,218.3,19.6z"/>
	<path class="st0" d="M234.4,19.5l3-19.1h1.5l-3,19.1H234.4z"/>
	<path class="st0" d="M250.1,19.5l2.8-17.7h-6.2l0.2-1.4h14l-0.2,1.4h-6.2l-2.8,17.7H250.1z"/>
	<path class="st0" d="M263.7,19.5l9.9-19.1h2l3.6,19.1h-1.6l-1.1-5.9h-8.1l-3.1,5.9H263.7z M269,12.2h7.3l-1.9-10.4L269,12.2z"/>
	<path class="st0" d="M291,19.5c-1,0-1.7-0.2-2.3-0.6c-0.6-0.4-0.9-1.1-0.9-2.1c0-0.2,0-0.3,0-0.5c0-0.2,0-0.3,0.1-0.5l2.4-15.4h1.5
		l-2.4,15.3c0,0.1,0,0.3,0,0.4c0,0.1,0,0.3,0,0.4c0,0.7,0.2,1.1,0.6,1.3c0.4,0.2,0.9,0.3,1.5,0.3h7.1l-0.2,1.4H291z"/>
</g>
<g>
	<path class="st0" d="M166.6,93.8l10.6-66.5h27c3.4,0,6.5,0.6,9.2,1.7c2.7,1.1,4.9,3,6.5,5.7c1.6,2.7,2.4,6.5,2.4,11.4
		c0,1-0.1,2.1-0.3,3.5c-0.2,1.4-0.4,2.6-0.5,3.7c-0.6,4-1.6,7.4-3,10.1c-1.4,2.7-3.1,4.9-5.1,6.5c-1.9,1.6-4,2.8-6.3,3.5
		c-2.3,0.7-4.5,1.1-6.8,1.1c-2.8,0-5.6-0.2-8.3-0.6c-2.7-0.4-4.9-0.8-6.4-1.2l-3.4,21.1H166.6z M187.4,60.6h10.7
		c1.4,0,2.7-0.4,3.8-1.1c1.1-0.7,2-1.8,2.7-3.2c0.7-1.4,1.2-3,1.4-4.7c0.1-0.8,0.2-1.6,0.3-2.3c0.1-0.8,0.1-1.3,0.1-1.6
		c0-2.3-0.4-4-1.3-4.9c-0.9-1-2.2-1.4-4-1.4h-10.7L187.4,60.6z"/>
	<path class="st0" d="M240.8,94.3c-4.7,0-8.4-0.7-11.2-2.2c-2.8-1.5-4.8-3.6-6-6.3c-1.2-2.7-1.8-6-1.8-9.9c0-1.6,0.1-3.1,0.3-4.6
		c0.2-1.5,0.4-2.9,0.6-4.3c0.8-5.4,2.4-9.7,4.6-12.9c2.2-3.2,5.1-5.6,8.6-7c3.5-1.5,7.6-2.2,12.3-2.2c2.3,0,4.6,0.2,6.8,0.7
		c2.2,0.4,4.2,1.2,6,2.2c1.8,1,3.2,2.5,4.3,4.4c1.1,1.9,1.7,4.4,1.7,7.4c0,3.4-0.5,6.2-1.6,8.4c-1.1,2.2-2.6,3.9-4.4,5
		c-1.9,1.2-4,2-6.4,2.4c-2.4,0.4-5,0.7-7.8,0.7c-2,0-3.8-0.1-5.4-0.2c-1.6-0.1-3-0.3-4-0.6c-0.1,0.4-0.1,0.8-0.1,1.2
		c0,0.4,0,0.9,0,1.3c0,1.7,0.8,3,2.3,3.9c1.6,0.8,4.1,1.3,7.6,1.3h15.8l-1.4,9c-2.6,0.5-5.6,1-9.2,1.5
		C248.6,94.1,244.8,94.3,240.8,94.3z M242.9,67.8c2.4,0,4.4-0.2,5.8-0.7c1.4-0.5,2.4-1.2,3-2.2c0.6-1,0.9-2.1,0.9-3.5
		c0-1.6-0.4-2.7-1.3-3.5c-0.9-0.8-2.3-1.2-4.1-1.2c-1.7,0-3.2,0.4-4.4,1.2c-1.2,0.8-2.2,2-2.9,3.5c-0.7,1.6-1.3,3.5-1.6,5.9
		c0.7,0.1,1.5,0.1,2.3,0.3C241.3,67.8,242.1,67.8,242.9,67.8z"/>
	<path class="st0" d="M268,93.8l7.6-48.2h13.9l0.6,6.4c1.6-1.9,3.4-3.5,5.5-4.9c2.1-1.3,4.4-2,7.1-2c0.9,0,1.7,0,2.4,0.1
		s1.4,0.2,2.1,0.4L305,61c-0.8,0-1.7,0-2.6,0c-0.9,0-1.8,0-2.7,0c-2.6,0-4.8,0.4-6.7,1.1c-1.9,0.7-3.5,1.5-4.7,2.4l-4.7,29.4H268z"
		/>
	<path class="st0" d="M308.7,93.8l5.6-35.8h-6.5l1.6-9.9l6.9-2.4l1.2-7c0.4-2.5,1.1-4.6,2-6.4c0.9-1.7,2.1-3.1,3.7-4.3
		c1.5-1.1,3.3-1.9,5.5-2.4c2.1-0.5,4.5-0.7,7.2-0.7c2.1,0,4.2,0.1,6.1,0.3c1.9,0.2,3.6,0.4,4.9,0.6L345,37.2h-6.2
		c-1.4,0-2.6,0.2-3.6,0.5c-1,0.4-1.7,1-2.2,1.8c-0.5,0.8-0.8,2-1,3.5l-0.3,2.6h10.7l-2,12.4h-10.7l-5.6,35.8H308.7z"/>
	<path class="st0" d="M361,94.3c-4.7,0-8.4-0.7-11.2-2.2c-2.8-1.5-4.8-3.6-6-6.3c-1.2-2.7-1.8-6-1.8-9.9c0-1.6,0.1-3.1,0.3-4.6
		c0.2-1.5,0.4-2.9,0.6-4.3c0.8-5.4,2.4-9.7,4.6-12.9c2.2-3.2,5.1-5.6,8.6-7c3.5-1.5,7.6-2.2,12.3-2.2c2.3,0,4.6,0.2,6.8,0.7
		c2.2,0.4,4.2,1.2,6,2.2c1.8,1,3.2,2.5,4.3,4.4c1.1,1.9,1.7,4.4,1.7,7.4c0,3.4-0.5,6.2-1.6,8.4c-1.1,2.2-2.6,3.9-4.4,5
		c-1.9,1.2-4,2-6.4,2.4s-5,0.7-7.8,0.7c-2,0-3.8-0.1-5.4-0.2c-1.6-0.1-3-0.3-4-0.6c-0.1,0.4-0.1,0.8-0.1,1.2c0,0.4,0,0.9,0,1.3
		c0,1.7,0.8,3,2.3,3.9c1.6,0.8,4.1,1.3,7.6,1.3H383l-1.4,9c-2.6,0.5-5.6,1-9.2,1.5C368.8,94.1,365,94.3,361,94.3z M363.1,67.8
		c2.4,0,4.4-0.2,5.8-0.7c1.4-0.5,2.4-1.2,3-2.2c0.6-1,0.9-2.1,0.9-3.5c0-1.6-0.4-2.7-1.3-3.5c-0.9-0.8-2.3-1.2-4.1-1.2
		c-1.7,0-3.2,0.4-4.4,1.2c-1.2,0.8-2.2,2-2.9,3.5c-0.7,1.6-1.3,3.5-1.6,5.9c0.7,0.1,1.5,0.1,2.3,0.3
		C361.5,67.8,362.3,67.8,363.1,67.8z"/>
	<path class="st0" d="M408.1,94.3c-3.6,0-6.8-0.6-9.5-1.7c-2.7-1.2-4.7-3.1-6.2-5.7c-1.4-2.7-2.2-6.3-2.2-11.1c0-1,0.1-2.3,0.2-3.8
		c0.1-1.5,0.3-3.1,0.6-4.8c0.8-5.4,2.3-9.8,4.4-13c2.1-3.2,4.7-5.6,7.7-7c3.1-1.4,6.5-2.1,10.3-2.1c2.7,0,5.5,0.3,8.3,0.9
		c2.9,0.6,5.7,1.2,8.4,2l-1.5,8.9h-11.6c-2.3,0-4.2,0.5-5.6,1.5c-1.4,1-2.6,2.5-3.4,4.4c-0.8,1.9-1.5,4.2-2,7
		c-0.2,1.2-0.3,2.2-0.4,2.9c-0.1,0.7-0.1,1.3-0.1,1.7c0,2,0.3,3.6,0.9,4.8c0.6,1.2,1.4,2.1,2.5,2.7c1.1,0.6,2.5,0.9,4.1,0.9h12.4
		l-1.4,8.8c-2,0.8-4.3,1.5-6.8,2.1S411.7,94.3,408.1,94.3z"/>
	<path class="st0" d="M450.9,93.8c-5.1,0-8.9-0.9-11.5-2.7c-2.6-1.8-3.9-4.6-3.9-8.5c0-1,0.1-2.2,0.2-3.7c0.1-1.4,0.3-3,0.6-4.8
		l3-16.2H432l1.6-9.9l8.3-2.4l4.1-13.5h12.3l-2.1,13.5h10.5l-1.9,12.3h-10.5l-2.6,16.2c-0.1,0.5-0.2,1.1-0.4,2
		c-0.1,0.8-0.2,1.6-0.2,2.2c0,1.3,0.3,2.1,1,2.6c0.7,0.5,1.6,0.8,3,0.9l5.4,0.5l-1.8,11.5H450.9z"/>
	<path class="st0" d="M466.2,93.8l7.5-48.2h15.5l-7.6,48.2H466.2z M476.6,39.1c-0.5,0-1-0.2-1.3-0.5c-0.3-0.4-0.4-0.8-0.3-1.4
		l1.4-9.4c0.2-1.4,1-2.1,2.3-2.1h12c0.7,0,1.1,0.2,1.3,0.6c0.2,0.4,0.3,0.9,0.2,1.5l-1.4,9.4c-0.2,1.3-1,2-2.1,2H476.6z"/>
	<path class="st0" d="M510.7,94.3c-4.3,0-7.9-0.6-10.8-1.9c-2.9-1.3-5.1-3.2-6.5-5.7c-1.4-2.5-2.1-5.6-2.1-9.3
		c0-1.8,0.1-3.4,0.2-4.9c0.1-1.5,0.3-2.9,0.5-4.3c0.8-4.8,1.9-8.8,3.2-11.8c1.4-3,3.1-5.3,5.2-7c2.1-1.6,4.6-2.8,7.6-3.4
		s6.5-0.9,10.4-0.9c5.3,0,9.4,0.6,12.1,1.9c2.8,1.3,4.7,3.2,5.6,5.9c1,2.6,1.5,5.9,1.5,9.9c0,1.4-0.1,3-0.2,4.7
		c-0.1,1.7-0.3,3.4-0.6,5.1c-0.9,5.9-2.4,10.4-4.5,13.5c-2.1,3.2-4.9,5.3-8.5,6.5C520.4,93.8,516,94.3,510.7,94.3z M512.3,82
		c1.4,0,2.7-0.2,3.7-0.5c1-0.4,1.9-0.9,2.5-1.7c0.7-0.8,1.2-2,1.7-3.5c0.5-1.5,0.9-3.5,1.3-5.9c0.3-1.7,0.5-3.2,0.6-4.5
		c0.1-1.3,0.2-2.5,0.2-3.7c0-1.9-0.5-3.2-1.4-3.9c-0.9-0.7-2.4-1.1-4.5-1.1c-1.5,0-2.7,0.2-3.7,0.5c-1,0.4-1.8,1-2.5,2
		c-0.7,1-1.2,2.3-1.7,4.1c-0.5,1.8-0.9,4-1.3,6.6c-0.2,1.3-0.4,2.4-0.5,3.4c-0.1,1-0.1,2-0.1,3c0,1.4,0.2,2.5,0.6,3.2
		c0.4,0.8,1,1.3,1.9,1.6C509.9,81.8,511,82,512.3,82z"/>
	<path class="st0" d="M540.1,93.8l7.5-48.2h12.9l1.9,4.7c1.9-1.5,4.2-2.7,6.9-3.8c2.7-1,5.6-1.5,8.9-1.5c2.6,0,4.8,0.4,6.6,1.3
		c1.8,0.9,3.1,2.1,4.1,3.8c0.9,1.6,1.4,3.5,1.4,5.6c0,1.1,0,2.3-0.1,3.7c-0.1,1.4-0.4,3.6-0.9,6.8l-4.3,27.6h-15.5l4.3-27.1
		c0.1-1,0.2-1.8,0.3-2.4c0.1-0.6,0.1-1,0.1-1.3c0-1.3-0.4-2.3-1.1-3s-2-1.1-3.8-1.1c-1.6,0-3.2,0.3-4.7,1c-1.5,0.7-2.8,1.5-4,2.6
		l-5,31.3H540.1z"/>
</g>
</svg>
