<svg width="26" height="26" viewBox="0 0 26 26" fill="none" xmlns="http://www.w3.org/2000/svg">
<path d="M14.0201 9.88295H16.6425V9.28391C16.6425 8.27951 16.2435 7.31625 15.5333 6.60604C14.8231 5.89582 13.8598 5.49683 12.8554 5.49683C11.851 5.49683 10.8878 5.89582 10.1776 6.60604C9.46735 7.31625 9.06836 8.27951 9.06836 9.28391V9.88295H11.6162C11.6718 9.87851 11.7276 9.88561 11.7803 9.90382C11.8329 9.92202 11.8813 9.95093 11.9222 9.98873C11.9632 10.0265 11.9958 10.0724 12.0182 10.1234C12.0405 10.1745 12.0521 10.2296 12.0521 10.2853C12.0521 10.341 12.0405 10.3962 12.0182 10.4472C11.9958 10.4982 11.9632 10.5441 11.9222 10.5819C11.8813 10.6197 11.8329 10.6486 11.7803 10.6668C11.7276 10.685 11.6718 10.6921 11.6162 10.6877H9.06836V11.8601H11.6162C11.7233 11.8601 11.8259 11.9026 11.9016 11.9783C11.9773 12.054 12.0199 12.1566 12.0199 12.2637C12.0199 12.3708 11.9773 12.4734 11.9016 12.5491C11.8259 12.6248 11.7233 12.6673 11.6162 12.6673H9.06836V13.8397H11.6162C11.6718 13.8353 11.7276 13.8424 11.7803 13.8606C11.8329 13.8788 11.8813 13.9077 11.9222 13.9455C11.9632 13.9833 11.9958 14.0292 12.0182 14.0802C12.0405 14.1312 12.0521 14.1864 12.0521 14.2421C12.0521 14.2978 12.0405 14.3529 12.0182 14.404C11.9958 14.455 11.9632 14.5009 11.9222 14.5387C11.8813 14.5765 11.8329 14.6054 11.7803 14.6236C11.7276 14.6418 11.6718 14.6489 11.6162 14.6444H9.06836V15.2435C9.06836 16.2479 9.46735 17.2111 10.1776 17.9214C10.8878 18.6316 11.851 19.0306 12.8554 19.0306C13.8598 19.0306 14.8231 18.6316 15.5333 17.9214C16.2435 17.2111 16.6425 16.2479 16.6425 15.2435V14.6547H14.0201C13.9646 14.6592 13.9087 14.6521 13.856 14.6339C13.8034 14.6157 13.7551 14.5867 13.7141 14.5489C13.6732 14.5112 13.6405 14.4653 13.6182 14.4142C13.5958 14.3632 13.5843 14.3081 13.5843 14.2524C13.5843 14.1966 13.5958 14.1415 13.6182 14.0905C13.6405 14.0394 13.6732 13.9936 13.7141 13.9558C13.7551 13.918 13.8034 13.8891 13.856 13.8709C13.9087 13.8527 13.9646 13.8456 14.0201 13.85H16.6425V12.6673H14.0201C13.9131 12.6673 13.8104 12.6248 13.7347 12.5491C13.659 12.4734 13.6165 12.3708 13.6165 12.2637C13.6165 12.1566 13.659 12.054 13.7347 11.9783C13.8104 11.9026 13.9131 11.8601 14.0201 11.8601H16.6425V10.6877H14.0201C13.9646 10.6921 13.9087 10.685 13.856 10.6668C13.8034 10.6486 13.7551 10.6197 13.7141 10.5819C13.6732 10.5441 13.6405 10.4982 13.6182 10.4472C13.5958 10.3962 13.5843 10.341 13.5843 10.2853C13.5843 10.2296 13.5958 10.1745 13.6182 10.1234C13.6405 10.0724 13.6732 10.0265 13.7141 9.98873C13.7551 9.95093 13.8034 9.92202 13.856 9.90382C13.9087 9.88561 13.9646 9.87851 14.0201 9.88295Z" fill="#007DFE"/>
<path d="M20.1047 7.44299H19.8579C19.2644 7.44299 18.7832 7.92414 18.7832 8.51767V12.6698C18.7832 13.2634 19.2644 13.7445 19.8579 13.7445H20.1047C20.6982 13.7445 21.1794 13.2634 21.1794 12.6698V8.51767C21.1794 7.92414 20.6982 7.44299 20.1047 7.44299Z" fill="#007DFE"/>
<path d="M5.85079 7.44299H5.60397C5.01045 7.44299 4.5293 7.92414 4.5293 8.51767V12.6698C4.5293 13.2634 5.01045 13.7445 5.60397 13.7445H5.85079C6.44432 13.7445 6.92547 13.2634 6.92547 12.6698V8.51767C6.92547 7.92414 6.44432 7.44299 5.85079 7.44299Z" fill="#007DFE"/>
<path d="M12.831 1.39085H12.8773C14.3913 1.39012 15.853 1.94442 16.9859 2.94886C18.1187 3.9533 18.844 5.33817 19.0245 6.84137C19.2142 6.74423 19.4197 6.68155 19.6313 6.65626C19.4069 5.02468 18.5992 3.52959 17.3575 2.44766C16.1158 1.36572 14.5242 0.770183 12.8773 0.771242H12.831C11.1863 0.773287 9.59782 1.37023 8.35881 2.45188C7.1198 3.53353 6.3139 5.02687 6.08984 6.65626C6.30146 6.68155 6.5069 6.74423 6.6966 6.84137C6.87686 5.34037 7.60033 3.95726 8.73047 2.95312C9.8606 1.94898 11.3192 1.39326 12.831 1.39085Z" fill="#007DFE"/>
<path d="M19.3157 14.8861C19.2087 14.8861 19.106 14.9286 19.0303 15.0043C18.9546 15.08 18.9121 15.1827 18.9121 15.2898C18.9121 16.8962 18.2739 18.4369 17.1379 19.5729C16.002 20.7089 14.4613 21.347 12.8548 21.347C11.2483 21.347 9.70762 20.7089 8.57166 19.5729C7.4357 18.4369 6.79753 16.8962 6.79753 15.2898C6.79753 15.1827 6.755 15.08 6.6793 15.0043C6.6036 14.9286 6.50094 14.8861 6.39388 14.8861C6.28683 14.8861 6.18416 14.9286 6.10846 15.0043C6.03276 15.08 5.99023 15.1827 5.99023 15.2898C5.99237 17.0395 6.6621 18.7225 7.86276 19.9953C9.06342 21.2681 10.7045 22.0348 12.4512 22.1389V24.134H8.88004C8.8245 24.1296 8.76863 24.1367 8.71597 24.1549C8.66331 24.1731 8.61499 24.202 8.57404 24.2398C8.5331 24.2776 8.50043 24.3234 8.47809 24.3745C8.45574 24.4255 8.4442 24.4806 8.4442 24.5364C8.4442 24.5921 8.45574 24.6472 8.47809 24.6982C8.50043 24.7493 8.5331 24.7951 8.57404 24.8329C8.61499 24.8707 8.66331 24.8996 8.71597 24.9179C8.76863 24.9361 8.8245 24.9432 8.88004 24.9387H16.8296C16.8851 24.9432 16.941 24.9361 16.9936 24.9179C17.0463 24.8996 17.0946 24.8707 17.1356 24.8329C17.1765 24.7951 17.2092 24.7493 17.2315 24.6982C17.2539 24.6472 17.2654 24.5921 17.2654 24.5364C17.2654 24.4806 17.2539 24.4255 17.2315 24.3745C17.2092 24.3234 17.1765 24.2776 17.1356 24.2398C17.0946 24.202 17.0463 24.1731 16.9936 24.1549C16.941 24.1367 16.8851 24.1296 16.8296 24.134H13.2585V22.1389C15.0051 22.0348 16.6462 21.2681 17.8468 19.9953C19.0475 18.7225 19.7172 17.0395 19.7194 15.2898C19.7194 15.1827 19.6768 15.08 19.6011 15.0043C19.5254 14.9286 19.4228 14.8861 19.3157 14.8861Z" fill="#007DFE"/>
</svg>
