<svg width="27" height="24" viewBox="0 0 27 24" fill="none" xmlns="http://www.w3.org/2000/svg">
<path d="M20.9269 4.96927C21.1904 4.67875 21.3513 4.29335 21.3513 3.87113C21.3513 2.9691 20.6174 2.23522 19.7154 2.23522C18.8133 2.23522 18.0795 2.9691 18.0795 3.87113C18.0795 4.29335 18.2403 4.67875 18.5039 4.96927C17.6977 5.38292 17.1209 6.19495 17.0492 7.14923C17.0374 7.30794 17.0925 7.46571 17.2004 7.58205C17.3083 7.69838 17.4615 7.76511 17.6207 7.76511H21.81C21.9691 7.76511 22.1223 7.69838 22.2303 7.58205C22.3382 7.46571 22.3933 7.30794 22.3814 7.14928C22.3099 6.19495 21.733 5.38297 20.9269 4.96927ZM17.9203 6.93417C18.1109 6.11492 18.8513 5.5073 19.7148 5.50704H19.7154C19.7154 5.50704 19.7157 5.50704 19.7159 5.50704C20.5794 5.5073 21.3199 6.11497 21.5105 6.93417H17.9203ZM9.5423 7.14928C9.47068 6.19495 8.89381 5.38297 8.08769 4.96932C8.35125 4.6788 8.51209 4.29345 8.51209 3.87118C8.51209 2.96915 7.77822 2.23527 6.87618 2.23527C5.97415 2.23527 5.24028 2.96915 5.24028 3.87118C5.24028 4.2934 5.40111 4.6788 5.66468 4.96932C4.85862 5.38297 4.28169 6.195 4.21007 7.14928V7.14939C4.19818 7.3081 4.25333 7.46582 4.36125 7.58215C4.46922 7.69843 4.62232 7.76516 4.78144 7.76516H8.97077C9.12995 7.76516 9.28315 7.69838 9.39112 7.58205C9.49909 7.46571 9.55424 7.30784 9.5423 7.14928ZM5.0811 6.93417C5.2717 6.11492 6.01217 5.5073 6.87572 5.50704H6.87624C6.87624 5.50704 6.8766 5.50704 6.87676 5.50704C7.74026 5.5073 8.48073 6.11487 8.67132 6.93417H5.0811ZM24.784 0.900269H1.80757C0.839944 0.900269 0.0527344 1.68748 0.0527344 2.65505V18.7778C0.0527344 19.7454 0.839944 20.5326 1.80757 20.5326H7.76072L6.51431 22.6716C6.39061 22.8839 6.38889 23.1363 6.50979 23.3466C6.63142 23.5583 6.85738 23.6898 7.09945 23.6898H19.4922C19.7343 23.6898 19.9602 23.5583 20.0818 23.3466C20.2027 23.1362 20.201 22.8838 20.0773 22.6715L18.8309 20.5326H24.784C25.7516 20.5326 26.5389 19.7454 26.5389 18.7778V2.65505C26.5389 1.68748 25.7517 0.900269 24.784 0.900269ZM0.883672 2.65505C0.883672 2.14564 1.2981 1.73115 1.80757 1.73115H12.8803V5.45417C10.9062 5.64986 9.3316 7.22443 9.13592 9.19858H0.883672V2.65505ZM13.2958 6.26439C15.1428 6.26439 16.6455 7.76709 16.6455 9.6141C16.6455 11.4611 15.1428 12.9638 13.2958 12.9638C11.4488 12.9638 9.94608 11.4611 9.94608 9.6141C9.94608 7.76709 11.4488 6.26439 13.2958 6.26439ZM0.883672 10.0296H9.13592C9.3316 12.0037 10.9062 13.5783 12.8803 13.774V17.497H0.883672V10.0296ZM19.2247 22.8588H7.36691L8.72248 20.5326H17.8692L19.2247 22.8588ZM25.7079 17.497H13.7113V13.774C15.6854 13.5783 17.26 12.0037 17.4557 10.0296H25.7079V17.497ZM25.7079 9.19864H17.4557C17.26 7.22448 15.6854 5.64991 13.7113 5.45422V1.73121H24.784C25.2934 1.73121 25.7079 2.14564 25.7079 2.6551V9.19864ZM11.813 11.0068V8.22135C11.813 7.99653 11.9337 7.78718 12.1281 7.67501C12.3224 7.56278 12.5641 7.56304 12.7588 7.67537L15.171 9.06797C15.3652 9.18009 15.4859 9.38933 15.486 9.61395C15.486 9.83861 15.3653 10.0479 15.171 10.1601L12.7587 11.5527C12.6613 11.609 12.5521 11.6371 12.4429 11.6371C12.334 11.6371 12.2251 11.6091 12.1281 11.5531C11.9337 11.441 11.813 11.2316 11.813 11.0068ZM8.08769 13.7323C8.35125 13.4418 8.51209 13.0565 8.51209 12.6342C8.51209 11.7322 7.77822 10.9983 6.87618 10.9983C5.97415 10.9983 5.24028 11.7322 5.24028 12.6342C5.24028 13.0564 5.40111 13.4418 5.66468 13.7323C4.85856 14.146 4.28169 14.958 4.21007 15.9123V15.9124C4.19818 16.0711 4.25333 16.2288 4.36125 16.3451C4.46917 16.4614 4.62232 16.5281 4.78144 16.5281H8.97077C9.12995 16.5281 9.2832 16.4614 9.39112 16.345C9.49904 16.2286 9.55409 16.0709 9.54214 15.9123C9.47068 14.958 8.89381 14.146 8.08769 13.7323ZM5.0811 15.6972C5.27175 14.8778 6.01248 14.2701 6.87624 14.2701C7.73989 14.2701 8.48062 14.8778 8.67132 15.6972H5.0811ZM17.0493 15.9123C17.0374 16.071 17.0925 16.2287 17.2004 16.3451C17.3084 16.4614 17.4615 16.5281 17.6207 16.5281H21.8101C21.9692 16.5281 22.1224 16.4614 22.2304 16.3451C22.3383 16.2287 22.3934 16.071 22.3815 15.9123C22.3099 14.958 21.733 14.146 20.9269 13.7323C21.1904 13.4418 21.3513 13.0565 21.3513 12.6342C21.3513 11.7322 20.6174 10.9983 19.7154 10.9983C18.8133 10.9983 18.0795 11.7322 18.0795 12.6342C18.0795 13.0564 18.2403 13.4418 18.5039 13.7323C17.6978 14.146 17.1209 14.958 17.0493 15.9123ZM19.7154 14.2701C20.5791 14.2701 21.3199 14.8778 21.5105 15.6972H17.9203C18.1109 14.8778 18.8517 14.2701 19.7154 14.2701Z" fill="#007DFE"/>
</svg>
